<?xml version="1.0" encoding="utf-8"?>
<!-- Generator: Adobe Illustrator 27.7.0, SVG Export Plug-In . SVG Version: 6.00 Build 0)  -->
<svg version="1.1" id="Vrstva_1" xmlns="http://www.w3.org/2000/svg" xmlns:xlink="http://www.w3.org/1999/xlink" x="0px" y="0px"
	 viewBox="0 0 345.8 367.19" style="enable-background:new 0 0 345.8 367.19;" xml:space="preserve">
<style type="text/css">
	.st0{fill:none;}
	.st1{fill:#CCCCCC;}
	.st2{fill:#FFFFFF;}
</style>
<g>
	<g>
		<path class="st0" d="M243.85,68.02l-0.04,0l-0.04,0c-0.23-0.03-0.49-0.04-0.76-0.04c-4.48,0-14.46,3.44-27.98,8.1
			c-20.1,6.93-47.63,16.42-80.08,23c-9.27,1.92-18.28,5.81-18.52,8.01c-0.04,0.38,0.28,0.73,0.97,1.04
			c8.82,4.15,14.44,10.73,19.41,16.53c4.89,5.72,8.75,10.23,13.97,10.39l0.02,0c0.16,0.01,0.33,0.02,0.5,0.02
			c8.66,0,32.54-14.65,67.44-41.4l0.17-0.13c5.8-4.45,13.02-9.99,18.55-14.79c8.19-7.11,8.95-9.42,8.67-10.16
			C245.97,68.15,245.16,67.94,243.85,68.02z M208.62,97.63c-9.49,7.74-38.69,24.55-50.64,24.55c-0.48,0-0.94-0.03-1.36-0.08
			c-4.7-0.38-7.01-4.57-9.46-9.01c-1.55-2.8-3.15-5.7-5.44-7.86c-0.37-0.31-0.54-0.74-0.43-1.2c0.51-2.2,7.48-4.68,11.76-5.72
			c17.83-4.18,34.03-9.92,45.86-14.12c9.54-3.38,16.44-5.83,20.14-6.12c2.79-0.59,4.41-0.32,4.95,0.83
			C225.68,82.4,214.67,92.68,208.62,97.63z"/>
		<path class="st0" d="M194.55,89.89c-18.95,6.43-33.5,14.2-33.36,16.59c0.03,0.49,0.94,0.77,1.48,0.88
			c9.25,2.03,29.34-2.12,34.68-7.16c3.27-3.09,5.98-8.13,4.71-10.25C201.21,88.56,198.54,88.53,194.55,89.89z"/>
		<path class="st0" d="M293.08,46.11c-0.66-0.24-1.52-0.36-2.56-0.36c-7.03,0-22.56,5.25-44.61,12.71
			c-34.35,11.61-86.25,29.16-147.54,40.43c-16.96,3.12-33.26,9.94-33.54,14.05c-0.07,0.98,0.92,1.82,2.93,2.48
			c22.33,7.38,36.24,20.95,47.42,31.86c8.92,8.7,15.97,15.56,23.77,15.48c10.53-0.12,43.57-27.96,70.13-50.33
			c12.71-10.71,23.68-19.95,31.02-25.27c6.22-4.51,13.8-9.56,21.14-14.45c15.53-10.35,33.13-22.09,32.69-25.76
			C293.92,46.7,293.8,46.37,293.08,46.11z M241.93,82.5c-4.28,3.05-8.32,5.93-11.96,8.63c-4.4,3.25-10.58,8.18-17.74,13.89
			c-23.72,18.91-56.16,44.78-67.19,44.78c-0.06,0-0.11,0-0.17,0c-6.85-0.03-12.44-5.81-19.52-13.13
			c-7.9-8.17-17.73-18.33-33.07-24.05c-1.76-0.65-2.61-1.55-2.52-2.68c0.2-2.4,4.88-4.87,8.77-6.52c5.11-2.17,11.67-4.1,17.98-5.31
			c46.83-8.92,87.09-22.63,113.73-31.7c20.19-6.87,33.54-11.42,38.38-10.22c1.21,0.16,1.92,0.63,2.11,1.39
			C271.59,61.05,259.88,69.7,241.93,82.5z"/>
		<path class="st0" d="M221.5,78.67c-0.62,0-1.39,0.09-2.3,0.29l-0.06,0.01c-3.58,0.27-10.44,2.7-19.94,6.07
			c-11.85,4.2-28.08,9.96-45.95,14.14c-6.2,1.51-10.83,3.88-11.1,5.05c-0.02,0.08-0.02,0.18,0.15,0.33c2.42,2.28,4.05,5.24,5.64,8.1
			c2.43,4.41,4.53,8.21,8.76,8.55l0.02,0c4.6,0.62,13.77-2.42,25.83-8.55c9.71-4.94,20.2-11.41,25.49-15.72
			c9.35-7.64,16.14-15.56,15.14-17.64C223,78.88,222.41,78.67,221.5,78.67z M202.27,95.01c-0.97,2.05-2.54,4.18-4.31,5.84
			c-4.52,4.26-19.26,7.91-29.6,7.91c-2.21,0-4.23-0.17-5.89-0.53c-1.4-0.31-2.13-0.88-2.18-1.71c-0.04-0.69-0.16-2.79,12.12-8.65
			c6.35-3.03,14.72-6.42,21.85-8.84c4.57-1.55,7.45-1.39,8.56,0.46C203.78,91.09,203.05,93.38,202.27,95.01z"/>
		<path class="st0" d="M268.47,57.07l-0.05-0.01c-0.46-0.12-1.03-0.17-1.68-0.17c-5.78,0-18.84,4.44-36.22,10.36
			c-26.67,9.08-66.96,22.8-113.85,31.73c-13.12,2.52-25.76,7.88-26.02,11.02c-0.06,0.68,0.6,1.27,1.93,1.76
			c15.54,5.79,25.44,16.04,33.41,24.27c6.94,7.17,12.41,12.84,18.89,12.86l0.01,0c0.05,0,0.1,0,0.16,0
			c10.71,0,44.34-26.81,66.63-44.58c7.17-5.71,13.35-10.65,17.76-13.91c3.65-2.7,7.69-5.58,11.97-8.64
			c7.14-5.09,14.53-10.36,19.99-14.76c7.4-5.96,8.68-8.3,8.45-9.22C269.75,57.42,269.29,57.18,268.47,57.07z M219.46,94.25
			l-0.17,0.13c-24.88,19.07-56.66,41.59-67.99,41.59c-0.19,0-0.37-0.01-0.55-0.02c-5.6-0.17-9.78-5.05-14.61-10.7
			c-4.9-5.73-10.46-12.23-19.1-16.3c-1.34-0.61-1.55-1.4-1.49-1.96c0.2-1.79,3.58-3.62,6.38-4.83c3.63-1.58,8.32-3.02,12.85-3.96
			c32.39-6.57,59.89-16.05,79.96-22.97c14.95-5.15,24.84-8.56,29.09-8.11c1.79-0.1,2.82,0.28,3.14,1.15
			C248.28,71.77,235.29,82.1,219.46,94.25z"/>
		<path class="st1" d="M67.18,41.22c8.49-8.08,16.43-15.57,24.2-22.55h-1.34c-7.54,6.79-15.25,14.07-23.48,21.9
			c-26.98,25.7-47.38,37.4-60.74,34.87v0.92c1.17,0.21,2.39,0.31,3.66,0.31C23.07,76.68,42.43,64.79,67.18,41.22z"/>
		<path class="st1" d="M14.05,60.92c11.01,0,26.75-9.28,46.97-27.7c1.25-1.1,2.49-2.19,3.72-3.29c4.3-3.8,8.56-7.56,12.84-11.26
			h-1.37c-4.01,3.48-8.02,7.02-12.06,10.59c-1.24,1.09-2.48,2.19-3.73,3.29c-13.6,12.39-25.26,20.69-34.68,24.68
			c-7.89,3.34-14.26,3.67-18.93,1c-0.34-0.2-0.67-0.41-0.99-0.64v1.07c0.18,0.12,0.36,0.24,0.55,0.35
			C8.61,60.28,11.17,60.92,14.05,60.92z"/>
		<path class="st1" d="M11.04,42.68c2.02,1.66,4.54,2.5,7.53,2.5c2.3,0,4.89-0.49,7.74-1.48c7.62-2.64,17.23-8.86,28.55-18.47
			c2.8-2.19,5.56-4.39,8.27-6.55h-1.44c-2.43,1.93-4.89,3.89-7.4,5.85C28.29,46.61,16.73,46.21,11.61,41.99
			c-4.53-3.73-5.15-11.2-5.12-15.32c0.02-2.86,0.34-5.62,0.81-7.99H6.39c-0.23,1.21-0.42,2.51-0.56,3.86v8.45
			C6.35,35.68,7.88,40.07,11.04,42.68z"/>
		<path class="st1" d="M23.1,29.54c6.69,0,15.79-5.26,23.59-10.87h-1.55c-10.65,7.52-17.53,9.98-21.96,9.98
			c-2.77,0-4.58-0.96-5.77-2.23c-1.73-1.85-2.42-4.66-2.45-7.75h-0.93c0.03,3.29,0.81,6.32,2.72,8.37
			C18.4,28.79,20.58,29.54,23.1,29.54z"/>
		<path class="st1" d="M336.67,18.67c-15.54,6.4-32.53,13.08-50.91,19.99C222.32,62.54,158.62,81.38,106.4,91.7
			c-23.12,4.57-43,7.23-57.49,7.67c-18.09,0.55-23.86-2.36-25.52-4.91c-1.54-2.36-0.29-5.62,3.71-9.69
			c20.07-20.43,41.64-38.73,62.5-56.43c3.75-3.19,7.55-6.42,11.36-9.67h-1.38c-3.54,3.02-7.07,6.02-10.56,8.98
			C68.15,45.37,46.57,63.69,26.47,84.14c-4.33,4.41-5.62,8.05-3.82,10.81c2.33,3.58,9.71,5.38,21.98,5.38
			c1.38,0,2.82-0.02,4.32-0.07c14.53-0.44,34.46-3.1,57.63-7.68c52.26-10.34,116.01-29.19,179.5-53.08
			c19.21-7.23,36.88-14.18,52.98-20.83H336.67z"/>
		<path class="st1" d="M54.47,70.58c-3.88,4.16-4.97,7.58-3.23,10.18c2.23,3.32,8.99,5,20.13,5c1.05,0,2.14-0.01,3.27-0.05
			c12.78-0.34,30.31-2.66,50.71-6.72c45.67-9.08,101.91-25.85,158.37-47.21c11.74-4.44,22.9-8.82,33.43-13.11h-2.38
			c-9.92,4.02-20.39,8.11-31.36,12.27c-56.41,21.34-112.6,38.09-158.22,47.17c-20.34,4.05-37.83,6.36-50.56,6.7
			c-12.59,0.33-20.42-1.24-22.64-4.55c-1.48-2.2-0.42-5.25,3.14-9.06c17.41-17.95,36.11-34.03,54.2-49.58
			c1.13-0.97,2.28-1.96,3.42-2.94h-1.37c-0.88,0.75-1.76,1.52-2.63,2.26C90.63,36.5,71.91,52.59,54.47,70.58z"/>
		<path class="st1" d="M82.46,57.02c-3.43,3.92-4.31,7.14-2.63,9.56c2.14,3.07,8.45,4.6,18.33,4.6c11.11,0,26.74-1.94,45.97-5.79
			c39.09-7.83,87.82-22.51,137.22-41.34c4.73-1.8,9.35-3.6,13.85-5.38h-2.45c-3.83,1.51-7.74,3.02-11.72,4.54
			C231.68,42.02,183,56.68,143.96,64.51c-35.43,7.1-59.13,7.68-63.39,1.56c-1.42-2.04-0.56-4.89,2.55-8.44
			c13.37-14.03,27.62-26.72,41.57-38.95h-1.36C109.61,30.71,95.62,43.2,82.46,57.02z"/>
		<path class="st1" d="M110.47,43.43l-0.02,0.02c-2.97,3.7-3.65,6.72-2,8.98c2.02,2.77,7.48,4.17,16.24,4.17
			c0.45,0,0.91,0,1.38-0.01c9.42-0.15,21.82-1.77,36.87-4.82c30.94-6.27,69.74-17.98,109.88-33.11h-2.54
			c-39.3,14.71-77.2,26.09-107.52,32.23c-29.63,6-49.67,6.38-53.59,1.01c-1.38-1.89-0.72-4.54,1.96-7.88
			c8.37-9.01,17.15-17.35,25.92-25.36h-1.33C127.18,26.5,118.63,34.65,110.47,43.43z"/>
		<path class="st1" d="M137.1,38.36c1.92,2.47,6.76,3.71,14.16,3.71c7.6,0,17.9-1.3,30.52-3.91c19.17-3.95,42.55-10.72,67.63-19.49
			h-2.67c-61.6,21.39-102.85,26.97-108.93,19.14c-1.35-1.74-0.9-4.22,1.34-7.37c3.64-4.08,7.38-7.99,11.16-11.78h-1.26
			c-3.58,3.61-7.12,7.32-10.58,11.2l-0.03,0.04C135.92,33.42,135.47,36.27,137.1,38.36z"/>
		<path class="st1" d="M177.5,27.57c6.93,0,15.6-1.43,23.15-3.04c6.93-1.48,14.57-3.45,22.79-5.86h-3.2
			c-7.08,2.02-13.69,3.69-19.77,4.99c-18.63,3.97-30.7,4.02-33.97,0.15c-1.07-1.26-1.14-2.99-0.24-5.14h-0.97
			c-0.89,2.33-0.72,4.25,0.53,5.72C167.77,26.71,172.11,27.57,177.5,27.57z"/>
		<path class="st1" d="M71.29,266.74c34.29-36.94,48.77-72.75,40.76-100.84c-3.29-11.52-10.33-21.66-20.93-30.14
			c-11.16-8.92-26.35-16.05-45.14-21.19c-17.07-4.66-30.27-11.01-40.15-19.31v1.15c8.86,7.28,21.42,13.97,39.91,19.02
			c18.67,5.1,33.75,12.17,44.82,21.02c10.45,8.36,17.39,18.34,20.62,29.68c7.92,27.77-6.48,63.28-40.55,99.98
			c-17.44,18.79-39.73,34.16-64.8,45.14v0.98C31.16,301.2,53.68,285.7,71.29,266.74z"/>
		<path class="st1" d="M44.56,259.41c29.73-32.47,42.28-64.04,35.33-88.89c-2.82-10.1-8.84-19.04-17.89-26.55
			c-9.51-7.9-22.45-14.28-38.45-18.95c-6.8-2.24-12.65-4.72-17.72-7.35v1.01c5.02,2.57,10.78,5,17.45,7.19l0.01,0
			c15.89,4.64,28.72,10.96,38.14,18.79c8.9,7.39,14.82,16.17,17.6,26.1c6.86,24.54-5.62,55.81-35.13,88.05
			c-10.77,11.86-23.67,22.22-38.07,30.77v1.04C20.48,281.97,33.62,271.46,44.56,259.41z"/>
		<path class="st1" d="M17.83,252.08c25.16-28,35.78-55.33,29.92-76.95c-2.36-8.69-7.35-16.41-14.84-22.95
			c-6.91-6.04-16.01-11.12-27.07-15.12v0.95c10.82,3.95,19.72,8.93,26.48,14.84c7.35,6.43,12.25,14,14.56,22.51
			c5.79,21.32-4.77,48.35-29.72,76.12c-3.52,3.99-7.3,7.79-11.33,11.39v1.2C10.1,260.3,14.11,256.3,17.83,252.08z"/>
		<path class="st1" d="M15.61,179.75c-1.66-6.42-4.95-12.24-9.78-17.36v1.34c4.36,4.83,7.37,10.27,8.91,16.24
			c3.25,12.54,0.1,27.33-8.91,42.98v1.77C15.55,208.38,19.01,192.87,15.61,179.75z"/>
		<path class="st1" d="M293.39,45.26c-5.42-1.97-21.36,3.42-47.76,12.34C211.31,69.21,159.44,86.75,98.22,98
			c-15.93,2.93-33.92,9.75-34.27,14.87c-0.1,1.44,1.09,2.58,3.55,3.39c22.13,7.31,35.96,20.8,47.08,31.65
			c9.01,8.79,16.14,15.74,24.24,15.74c0.06,0,0.11,0,0.17,0c10.85-0.13,42.64-26.91,70.69-50.54
			c12.17-10.25,23.66-19.93,30.97-25.23c6.21-4.5,13.78-9.55,21.11-14.43c20.9-13.93,33.55-22.68,33.08-26.62
			C294.77,46.33,294.48,45.66,293.39,45.26z M261.26,72.7c-7.33,4.89-14.92,9.94-21.14,14.45c-7.34,5.32-18.32,14.56-31.02,25.27
			c-26.55,22.37-59.6,50.21-70.13,50.33c-7.81,0.08-14.85-6.78-23.77-15.48c-11.18-10.91-25.1-24.48-47.42-31.86
			c-2.01-0.67-3-1.5-2.93-2.48c0.28-4.1,16.58-10.93,33.54-14.05c61.29-11.27,113.19-28.82,147.54-40.43
			c22.05-7.45,37.58-12.71,44.61-12.71c1.04,0,1.9,0.12,2.56,0.36c0.71,0.26,0.83,0.6,0.86,0.83
			C294.39,50.61,276.79,62.35,261.26,72.7z"/>
		<path class="st1" d="M268.61,56.19c-4.85-1.2-18.2,3.34-38.38,10.22c-26.64,9.07-66.9,22.78-113.73,31.7
			c-6.31,1.21-12.86,3.15-17.98,5.31c-3.89,1.65-8.57,4.12-8.77,6.52c-0.09,1.13,0.76,2.03,2.52,2.68
			c15.34,5.72,25.17,15.88,33.07,24.05c7.08,7.32,12.67,13.11,19.52,13.13c0.06,0,0.11,0,0.17,0c11.03,0,43.47-25.87,67.19-44.78
			c7.16-5.71,13.34-10.64,17.74-13.89c3.64-2.7,7.68-5.58,11.96-8.63c17.96-12.8,29.66-21.45,28.79-24.92
			C270.53,56.82,269.82,56.35,268.61,56.19z M261.4,67.01c-5.46,4.4-12.85,9.66-19.99,14.76c-4.28,3.05-8.33,5.94-11.97,8.64
			c-4.41,3.26-10.6,8.2-17.76,13.91c-22.29,17.77-55.92,44.58-66.63,44.58c-0.05,0-0.11,0-0.16,0l-0.01,0
			c-6.47-0.02-11.95-5.69-18.89-12.86c-7.96-8.23-17.87-18.48-33.41-24.27c-1.34-0.49-1.99-1.09-1.93-1.76
			c0.26-3.15,12.9-8.51,26.02-11.02c46.89-8.93,87.19-22.65,113.85-31.73c17.39-5.92,30.44-10.36,36.22-10.36
			c0.65,0,1.22,0.06,1.68,0.17l0.05,0.01c0.82,0.11,1.28,0.35,1.38,0.72C270.08,58.71,268.8,61.05,261.4,67.01z"/>
		<path class="st1" d="M243.83,67.12c-4.25-0.45-14.15,2.96-29.09,8.11c-20.08,6.92-47.57,16.4-79.96,22.97
			c-4.53,0.94-9.21,2.38-12.85,3.96c-2.8,1.22-6.18,3.05-6.38,4.83c-0.06,0.56,0.15,1.35,1.49,1.96c8.64,4.07,14.2,10.56,19.1,16.3
			c4.83,5.65,9.01,10.53,14.61,10.7c0.18,0.01,0.36,0.02,0.55,0.02c11.33,0,43.11-22.52,67.99-41.59l0.17-0.13
			c15.82-12.14,28.82-22.48,27.51-25.97C246.65,67.4,245.62,67.03,243.83,67.12z M237.46,78.75c-5.53,4.8-12.75,10.34-18.55,14.79
			l-0.17,0.13c-34.91,26.75-58.78,41.4-67.44,41.4c-0.17,0-0.34-0.01-0.5-0.02l-0.02,0c-5.21-0.15-9.08-4.67-13.97-10.39
			c-4.96-5.8-10.59-12.38-19.41-16.53c-0.69-0.31-1.01-0.66-0.97-1.04c0.24-2.2,9.24-6.1,18.52-8.01
			c32.45-6.58,59.98-16.07,80.08-23c13.51-4.66,23.49-8.1,27.98-8.1c0.27,0,0.53,0.01,0.76,0.04l0.04,0l0.04,0
			c1.31-0.08,2.13,0.12,2.29,0.57C246.41,69.33,245.65,71.64,237.46,78.75z"/>
		<path class="st1" d="M219.05,78.07c-3.7,0.29-10.6,2.73-20.14,6.12c-11.83,4.19-28.04,9.94-45.86,14.12
			c-4.28,1.04-11.25,3.52-11.76,5.72c-0.11,0.46,0.06,0.89,0.43,1.2c2.3,2.16,3.9,5.06,5.44,7.86c2.45,4.44,4.76,8.62,9.46,9.01
			c0.42,0.06,0.88,0.08,1.36,0.08c11.95,0,41.15-16.81,50.64-24.55c6.05-4.95,17.06-15.23,15.38-18.73
			C223.45,77.76,221.83,77.49,219.05,78.07z M208.05,96.93c-5.29,4.32-15.78,10.78-25.49,15.72c-12.06,6.13-21.24,9.17-25.83,8.55
			l-0.02,0c-4.23-0.34-6.33-4.14-8.76-8.55c-1.58-2.86-3.22-5.82-5.64-8.1c-0.17-0.14-0.17-0.24-0.15-0.33
			c0.27-1.17,4.9-3.54,11.1-5.05c17.87-4.19,34.1-9.94,45.95-14.14c9.5-3.37,16.36-5.8,19.94-6.07l0.06-0.01
			c0.91-0.19,1.68-0.29,2.3-0.29c0.91,0,1.49,0.21,1.69,0.62C224.19,81.38,217.4,89.29,208.05,96.93z"/>
		<path class="st1" d="M194.26,89.04c-7.13,2.42-15.51,5.81-21.85,8.84c-12.27,5.86-12.16,7.96-12.12,8.65
			c0.05,0.83,0.78,1.4,2.18,1.71c1.67,0.36,3.68,0.53,5.89,0.53c10.34,0,25.08-3.65,29.6-7.91c1.77-1.67,3.34-3.8,4.31-5.84
			c0.78-1.64,1.51-3.93,0.55-5.52C201.71,87.64,198.82,87.49,194.26,89.04z M197.34,100.21c-5.34,5.04-25.44,9.18-34.68,7.16
			c-0.54-0.12-1.45-0.39-1.48-0.88c-0.13-2.39,14.41-10.16,33.36-16.59c4-1.36,6.66-1.33,7.51,0.07
			C203.33,92.08,200.62,97.12,197.34,100.21z"/>
		<path class="st1" d="M341.15,303.45c-7.11,9.62-14.25,18.49-21.37,26.51c-8.22,9.25-16.31,17.27-24.22,24.03h1.36
			c7.7-6.64,15.56-14.46,23.53-23.44c6.9-7.77,13.82-16.33,20.7-25.6V303.45z"/>
		<path class="st1" d="M182.21,325.8c-18.7-49.8-37.9-65.64-50.6-76.12c-10.44-8.61-15.68-12.94-11.81-29.57
			c3.54-15.2,10.7-27.75,23.21-40.69c12.02-12.44,28.97-25.31,50.42-41.6c19.36-14.7,43.45-32.99,72.08-57.13
			c20.77-17.5,42.54-35.27,61.07-46.69c5.26-3.24,10.09-5.87,14.57-7.92v-0.98c-4.62,2.09-9.61,4.79-15.04,8.14
			c-18.58,11.45-40.38,29.24-61.18,46.77c-28.62,24.12-52.7,42.41-72.05,57.1c-21.48,16.31-38.45,29.2-50.53,41.69
			c-12.63,13.06-19.86,25.74-23.44,41.11c-4,17.17,1.72,21.89,12.11,30.46c12.63,10.42,31.72,26.16,50.33,75.74
			c4.09,10.9,8.7,20.19,13.8,27.87h1.08C191.05,346.27,186.36,336.87,182.21,325.8z"/>
		<path class="st1" d="M328.45,309.4c4.27-4.72,8.51-9.76,12.7-15.09v-1.45c-4.41,5.65-8.87,10.98-13.36,15.94
			c-25.95,28.67-51.21,43.81-73.07,43.81c-0.11,0-0.22,0-0.33,0c-10.51-0.07-20.16-3.71-28.67-10.81
			c-9.08-7.57-16.98-19.15-23.47-34.44c-17.63-40.04-36.22-55.78-48.53-66.2c-11.38-9.63-17.64-14.94-14.3-30.71
			c2.99-13.47,9.32-24.52,20.54-35.82c10.79-10.86,26.05-22,45.38-36.11c16.4-11.97,36.81-26.87,60.71-46.14
			c16.77-13.75,36.1-29.09,52.35-38.68c8.8-5.19,16.28-8.5,22.75-10.03v-0.92c-18.15,4.19-42.61,21.83-75.67,48.94
			c-23.88,19.26-44.28,34.15-60.68,46.12c-19.36,14.13-34.65,25.29-45.49,36.2c-11.35,11.42-17.76,22.61-20.78,36.26
			c-3.46,16.3,3.34,22.06,14.59,31.59c12.24,10.37,30.75,26.03,48.29,65.88c6.55,15.41,14.53,27.11,23.72,34.77
			c8.68,7.23,18.52,10.94,29.24,11.02c0.11,0,0.22,0,0.33,0C276.83,353.5,302.32,338.26,328.45,309.4z"/>
		<path class="st1" d="M266.02,103.32c-19.11,14.46-35.07,25.47-49.16,35.19c-17.28,11.92-30.93,21.33-40.56,30.66
			c-10.1,9.78-15.7,19.46-18.16,31.41c-1.37,7.34-0.42,13.05,3.08,18.49c3.24,5.03,8.34,9.42,14.81,14.97
			c12.35,10.61,29.27,25.15,45.44,55.27c6.37,12.78,14.09,22.35,22.95,28.44c7.73,5.32,16.34,8.01,25.62,8.01
			c0.73,0,1.46-0.02,2.2-0.05c10.21-0.46,21.08-4.09,32.31-10.78c10.76-6.42,21.6-15.48,32.2-26.95c1.49-1.61,2.96-3.26,4.42-4.95
			v-1.38c-1.68,1.95-3.37,3.88-5.08,5.73c-10.54,11.41-21.31,20.42-32,26.79c-11.1,6.62-21.83,10.2-31.89,10.65
			c-9.92,0.45-19.09-2.18-27.26-7.8c-8.73-6.01-16.36-15.46-22.66-28.12c-16.25-30.28-33.24-44.88-45.65-55.54
			c-12.73-10.93-20.41-17.53-17.59-32.61c2.43-11.75,7.95-21.3,17.91-30.94c9.58-9.27,23.2-18.67,40.45-30.57
			c13.4-9.24,30.07-20.74,49.2-35.22c30.59-24.1,53.37-39.32,69.56-39.32c1.75,0,3.42,0.18,5.02,0.54v-0.91
			C324.43,60.7,299.98,76.56,266.02,103.32z"/>
		<path class="st1" d="M327.78,86.31c-6.87-1.43-15.47,0.51-26.27,5.94c-9.08,4.56-19.85,11.57-34.93,22.71
			c-14.26,9.78-26.53,17.52-37.36,24.36c-15.29,9.66-27.37,17.28-35.85,25.01c-8.91,8.12-13.73,16.31-15.63,26.59
			c-2.36,15.24,7.72,23.86,22.99,36.9c11.87,10.14,26.63,22.76,40.79,43.1c11.06,17.84,26.02,27.11,43.58,27.11
			c2.16,0,4.36-0.14,6.6-0.42c16.19-2.04,33.57-11.61,49.45-27.09v-1.25c-15.91,15.7-33.36,25.4-49.57,27.45
			c-2.19,0.28-4.35,0.41-6.46,0.41c-17.24,0-31.96-9.13-42.85-26.71c-14.23-20.46-29.05-33.12-40.95-43.29
			c-15.03-12.85-24.97-21.33-22.69-36.07c1.86-10.05,6.59-18.09,15.35-26.07c8.42-7.67,20.47-15.28,35.72-24.91
			c10.83-6.84,23.11-14.59,37.4-24.39c23.44-17.32,42.18-28.94,56.05-28.94c1.54,0,3.03,0.14,4.45,0.44
			c5.5,1.15,9.94,4.52,13.55,10.3v-1.64C337.54,90.56,333.15,87.43,327.78,86.31z"/>
		<path class="st1" d="M327.2,116.64c-5.93-7.73-13.97-10.31-24.56-7.87c-8.87,2.04-19.83,7.54-35.5,17.83
			c-9.22,5.29-17.53,9.77-24.87,13.72c-27.18,14.65-42.15,22.72-44.92,40.93c-1.82,16.04,13.93,28.76,33.88,44.87
			c9.45,7.64,20.17,16.29,30.38,26.43c7,8.15,15.49,13.57,25.23,16.13c4.2,1.1,8.53,1.65,12.99,1.65c5.16,0,10.48-0.74,15.92-2.21
			c8.75-2.37,17.4-6.61,25.4-12.34v-1.1c-8.06,5.86-16.8,10.18-25.64,12.57c-9.98,2.7-19.55,2.89-28.45,0.56
			c-9.57-2.51-17.91-7.84-24.79-15.86l-0.02-0.03c-10.24-10.18-20.98-18.85-30.46-26.51c-19.73-15.94-35.32-28.53-33.55-44.06
			c1.28-8.4,5.28-14.95,12.96-21.23c7.38-6.03,18.02-11.77,31.5-19.03c7.34-3.96,15.66-8.44,24.91-13.75
			c15.6-10.24,26.47-15.7,35.23-17.72c2.56-0.59,4.94-0.88,7.17-0.88c6.81,0,12.16,2.78,16.52,8.48l0.04,0.05l0.05,0.04
			c3.91,2.91,7.84,5.68,11.64,8.36c0.97,0.68,1.93,1.36,2.89,2.04v-1.1c-0.79-0.56-1.58-1.12-2.37-1.68
			C334.99,122.29,331.09,119.53,327.2,116.64z"/>
		<path class="st1" d="M267.72,138.23c-3.48,1.31-6.77,2.51-9.94,3.67c-12.47,4.57-22.31,8.18-29.18,12.51
			c-7.35,4.64-10.94,9.93-11.64,17.18c-1.17,20.24,34.16,46.38,64.79,62.62c8.63,5.58,19.37,8.5,31.23,8.5
			c1.13,0,2.28-0.03,3.43-0.08c8.48-0.39,16.97-2.25,24.74-5.35v-0.97c-7.77,3.14-16.28,5.03-24.78,5.42
			c-13.04,0.61-24.85-2.26-34.15-8.28l-0.03-0.02c-17.16-9.1-32.86-19.64-44.21-29.7c-13.68-12.12-20.63-23.21-20.12-32.06
			c1.41-14.7,15.2-19.75,40.24-28.92c3.18-1.17,6.48-2.37,9.97-3.68l0.04-0.02c11.46-5.56,20.55-8.3,28.03-8.3
			c5.93,0,10.86,1.73,15.16,5.16l0.05,0.04l0.05,0.02c10.48,4.58,20.73,9.51,29.77,15.2v-1.05c-8.95-5.58-19.04-10.43-29.35-14.94
			C299.19,125.16,282.45,131.09,267.72,138.23z"/>
		<path class="st1" d="M239.96,153.86c-2.32,2-3.47,4.72-3.4,8.09c0.17,8.24,8.79,21.39,21.45,32.72
			c14.33,12.83,30.36,20.55,43.98,21.17c2.73,0.12,5.57,0.19,8.48,0.19c10.24,0,21.24-0.76,30.68-2.14v-0.92
			c-9.88,1.46-20.87,2.17-30.74,2.17c-2.91,0-5.73-0.06-8.38-0.18c-13.41-0.61-29.24-8.25-43.42-20.94
			c-12.49-11.18-20.99-24.07-21.15-32.07c-0.06-3.13,0.94-5.55,3.09-7.39c3.58-3.07,10.07-4.25,18.25-4.25
			c10.52,0,23.83,1.94,37.36,4.28c17.7,3.07,32.7,9.58,44.99,17.13v-1.05c-12.29-7.48-27.23-13.92-44.84-16.97
			C272.04,149.49,248.41,146.6,239.96,153.86z"/>
	</g>
	<g>
		<g>
			<g>
				<g>
					<rect x="37.44" y="185.84" class="st2" width="9.57" height="0.65"/>
				</g>
			</g>
			<g>
				<g>
					<rect x="41.89" y="181.39" class="st2" width="0.65" height="9.57"/>
				</g>
			</g>
		</g>
		<g>
			<g>
				<g>
					<rect x="103.15" y="185.84" class="st2" width="9.57" height="0.65"/>
				</g>
			</g>
			<g>
				<g>
					<rect x="107.61" y="181.39" class="st2" width="0.65" height="9.57"/>
				</g>
			</g>
		</g>
		<g>
			<g>
				<g>
					<rect x="168.87" y="185.84" class="st2" width="9.57" height="0.65"/>
				</g>
			</g>
			<g>
				<g>
					<rect x="173.32" y="181.39" class="st2" width="0.65" height="9.57"/>
				</g>
			</g>
		</g>
		<g>
			<g>
				<g>
					<rect x="234.58" y="185.84" class="st2" width="9.57" height="0.65"/>
				</g>
			</g>
			<g>
				<g>
					<rect x="239.04" y="181.39" class="st2" width="0.65" height="9.57"/>
				</g>
			</g>
		</g>
		<g>
			<g>
				<g>
					<rect x="300.3" y="185.84" class="st2" width="9.57" height="0.65"/>
				</g>
			</g>
			<g>
				<g>
					<rect x="304.75" y="181.39" class="st2" width="0.65" height="9.57"/>
				</g>
			</g>
		</g>
		<g>
			<g>
				<g>
					<g>
						<rect x="173.32" y="312.81" class="st2" width="0.65" height="9.57"/>
					</g>
				</g>
				<g>
					<g>
						<rect x="168.87" y="317.27" class="st2" width="9.57" height="0.65"/>
					</g>
				</g>
			</g>
			<g>
				<g>
					<g>
						<rect x="173.32" y="247.1" class="st2" width="0.65" height="9.57"/>
					</g>
				</g>
				<g>
					<g>
						<rect x="168.87" y="251.56" class="st2" width="9.57" height="0.65"/>
					</g>
				</g>
			</g>
			<g>
				<g>
					<g>
						<rect x="173.32" y="115.67" class="st2" width="0.65" height="9.57"/>
					</g>
				</g>
				<g>
					<g>
						<rect x="168.87" y="120.13" class="st2" width="9.57" height="0.65"/>
					</g>
				</g>
			</g>
			<g>
				<g>
					<g>
						<rect x="173.32" y="49.96" class="st2" width="0.65" height="9.57"/>
					</g>
				</g>
				<g>
					<g>
						<rect x="168.87" y="54.41" class="st2" width="9.57" height="0.65"/>
					</g>
				</g>
			</g>
		</g>
		<g>
			<g>
				<g>
					<g>
						<rect x="107.28" y="312.81" class="st2" width="0.65" height="9.57"/>
					</g>
				</g>
				<g>
					<g>
						<rect x="102.83" y="317.27" class="st2" width="9.57" height="0.65"/>
					</g>
				</g>
			</g>
			<g>
				<g>
					<g>
						<rect x="107.28" y="247.1" class="st2" width="0.65" height="9.57"/>
					</g>
				</g>
				<g>
					<g>
						<rect x="102.83" y="251.56" class="st2" width="9.57" height="0.65"/>
					</g>
				</g>
			</g>
			<g>
				<g>
					<g>
						<rect x="107.28" y="115.67" class="st2" width="0.65" height="9.57"/>
					</g>
				</g>
				<g>
					<g>
						<rect x="102.83" y="120.13" class="st2" width="9.57" height="0.65"/>
					</g>
				</g>
			</g>
			<g>
				<g>
					<g>
						<rect x="107.28" y="49.96" class="st2" width="0.65" height="9.57"/>
					</g>
				</g>
				<g>
					<g>
						<rect x="102.83" y="54.41" class="st2" width="9.57" height="0.65"/>
					</g>
				</g>
			</g>
		</g>
		<g>
			<g>
				<g>
					<g>
						<rect x="239.04" y="312.81" class="st2" width="0.65" height="9.57"/>
					</g>
				</g>
				<g>
					<g>
						<rect x="234.58" y="317.27" class="st2" width="9.57" height="0.65"/>
					</g>
				</g>
			</g>
			<g>
				<g>
					<g>
						<rect x="239.04" y="247.1" class="st2" width="0.65" height="9.57"/>
					</g>
				</g>
				<g>
					<g>
						<rect x="234.58" y="251.56" class="st2" width="9.57" height="0.65"/>
					</g>
				</g>
			</g>
			<g>
				<g>
					<g>
						<rect x="239.04" y="115.67" class="st2" width="0.65" height="9.57"/>
					</g>
				</g>
				<g>
					<g>
						<rect x="234.58" y="120.13" class="st2" width="9.57" height="0.65"/>
					</g>
				</g>
			</g>
			<g>
				<g>
					<g>
						<rect x="239.04" y="49.96" class="st2" width="0.65" height="9.57"/>
					</g>
				</g>
				<g>
					<g>
						<rect x="234.58" y="54.41" class="st2" width="9.57" height="0.65"/>
					</g>
				</g>
			</g>
		</g>
		<g>
			<g>
				<g>
					<g>
						<rect x="239.04" y="313.14" class="st2" width="0.65" height="9.57"/>
					</g>
				</g>
				<g>
					<g>
						<rect x="234.58" y="317.6" class="st2" width="9.57" height="0.65"/>
					</g>
				</g>
			</g>
			<g>
				<g>
					<g>
						<rect x="239.04" y="247.43" class="st2" width="0.65" height="9.57"/>
					</g>
				</g>
				<g>
					<g>
						<rect x="234.58" y="251.88" class="st2" width="9.57" height="0.65"/>
					</g>
				</g>
			</g>
			<g>
				<g>
					<g>
						<rect x="239.04" y="116" class="st2" width="0.65" height="9.57"/>
					</g>
				</g>
				<g>
					<g>
						<rect x="234.58" y="120.45" class="st2" width="9.57" height="0.65"/>
					</g>
				</g>
			</g>
			<g>
				<g>
					<g>
						<rect x="239.04" y="50.28" class="st2" width="0.65" height="9.57"/>
					</g>
				</g>
				<g>
					<g>
						<rect x="234.58" y="54.74" class="st2" width="9.57" height="0.65"/>
					</g>
				</g>
			</g>
		</g>
		<g>
			<g>
				<g>
					<g>
						<rect x="304.75" y="313.14" class="st2" width="0.65" height="9.57"/>
					</g>
				</g>
				<g>
					<g>
						<rect x="300.3" y="317.6" class="st2" width="9.57" height="0.65"/>
					</g>
				</g>
			</g>
			<g>
				<g>
					<g>
						<rect x="304.75" y="247.43" class="st2" width="0.65" height="9.57"/>
					</g>
				</g>
				<g>
					<g>
						<rect x="300.3" y="251.88" class="st2" width="9.57" height="0.65"/>
					</g>
				</g>
			</g>
			<g>
				<g>
					<g>
						<rect x="304.75" y="116" class="st2" width="0.65" height="9.57"/>
					</g>
				</g>
				<g>
					<g>
						<rect x="300.3" y="120.45" class="st2" width="9.57" height="0.65"/>
					</g>
				</g>
			</g>
			<g>
				<g>
					<g>
						<rect x="304.75" y="50.28" class="st2" width="0.65" height="9.57"/>
					</g>
				</g>
				<g>
					<g>
						<rect x="300.3" y="54.74" class="st2" width="9.57" height="0.65"/>
					</g>
				</g>
			</g>
		</g>
		<g>
			<g>
				<g>
					<g>
						<rect x="41.57" y="312.81" class="st2" width="0.65" height="9.57"/>
					</g>
				</g>
				<g>
					<g>
						<rect x="37.11" y="317.27" class="st2" width="9.57" height="0.65"/>
					</g>
				</g>
			</g>
			<g>
				<g>
					<g>
						<rect x="41.57" y="247.1" class="st2" width="0.65" height="9.57"/>
					</g>
				</g>
				<g>
					<g>
						<rect x="37.11" y="251.56" class="st2" width="9.57" height="0.65"/>
					</g>
				</g>
			</g>
			<g>
				<g>
					<g>
						<rect x="41.57" y="115.67" class="st2" width="0.65" height="9.57"/>
					</g>
				</g>
				<g>
					<g>
						<rect x="37.11" y="120.13" class="st2" width="9.57" height="0.65"/>
					</g>
				</g>
			</g>
			<g>
				<g>
					<g>
						<rect x="41.57" y="49.96" class="st2" width="0.65" height="9.57"/>
					</g>
				</g>
				<g>
					<g>
						<rect x="37.11" y="54.41" class="st2" width="9.57" height="0.65"/>
					</g>
				</g>
			</g>
		</g>
	</g>
</g>
</svg>
