<?xml version="1.0" standalone="no"?>
<!DOCTYPE svg PUBLIC "-//W3C//DTD SVG 1.1//EN" "http://www.w3.org/Graphics/SVG/1.1/DTD/svg11.dtd"><svg xmlns="http://www.w3.org/2000/svg" style="background-color:#FFF" width="113" height="142"><path stroke="black" fill="none" stroke-width="1" d="M77.4, 67.8L75.9, 69.867L74.533, 72.033L73.4, 74.267L72.433, 76.633L71.667, 79.033L71.133, 81.5L70.767, 84.033L70.633, 86.6L70.633, 87.467L71.367, 88.033L71.9, 88.767L72.267, 89.6L72.4, 90.533L72.4, 94.067L72.267, 95L71.933, 95.833L71.367, 96.567L70.633, 97.133L70.633, 97.633L70.533, 98.8L70.233, 99.967L69.733, 101.033L69.1, 102.033L68.267, 102.9L67.333, 103.6L66.3, 104.167L65.167, 104.533L64.767, 106L64.133, 107.4L63.233, 108.667L62.167, 109.767L60.9, 110.633L59.5, 111.3L58.033, 111.7L56.5, 111.833L54.967, 111.7L53.5, 111.3L52.1, 110.633L50.833, 109.767L49.767, 108.667L48.867, 107.4L48.233, 106L47.833, 104.533L46.7, 104.167L45.667, 103.6L44.733, 102.9L43.9, 102.033L43.267, 101.033L42.767, 99.967L42.467, 98.8L42.367, 97.633L42.367, 97.133L41.633, 96.567L41.1, 95.833L40.733, 95L40.6, 94.067L40.6, 90.533L40.733, 89.6L41.1, 88.767L41.633, 88.033L42.367, 87.467L42.367, 86.633L42.3, 84.2L42.033, 81.767L41.567, 79.4L40.867, 77.067L40, 74.8L38.9, 72.6L37.633, 70.533L36.2, 68.533L34.3, 65.967L32.733, 63.2L31.5, 60.267L30.633, 57.2L30.133, 54.033L30.033, 50.833L30.267, 47.667L30.933, 44.533L31.933, 41.5L33.3, 38.633L34.967, 35.933L37, 33.433L39.267, 31.233L41.8, 29.3L44.533, 27.7L47.467, 26.433L50.5, 25.5L53.633, 24.967L56.8, 24.833L59.967, 25.067L63.1, 25.667L66.133, 26.633L69, 27.967L71.7, 29.667L74.2, 31.633L76.433, 33.9L78.367, 36.433L80, 39.167L81.3, 42.1L82.233, 45.133L82.8, 48.267L83, 51.467L82.633, 55.867L81.567, 60.1L79.8, 64.1L77.4, 67.8"/><path stroke="black" fill="none" stroke-width="1" d="M56.5, 108.267L54.9, 108.033L53.467, 107.3L52.3, 106.167L51.533, 104.733L61.467, 104.733L60.7, 106.167L59.533, 107.3L58.1, 108.033L56.5, 108.267"/><path stroke="black" fill="none" stroke-width="1" d="M63.567, 101.167L49.433, 101.167L48.1, 100.9L46.933, 100.133L46.167, 98.967L45.9, 97.633L67.1, 97.633L66.833, 98.967L66.067, 100.133L64.9, 100.9L63.567, 101.167"/><path stroke="black" fill="none" stroke-width="1" d="M44.133, 94.067L44.133, 90.533L68.867, 90.533L68.867, 94.067L44.133, 94.067"/><path stroke="black" fill="none" stroke-width="1" d="M67.1, 86.6L67.1, 86.967L45.9, 86.967L45.9, 86.633L45.833, 83.867L45.5, 81.133L44.967, 78.467L44.2, 75.833L43.2, 73.3L41.967, 70.833L40.533, 68.5L38.9, 66.267L37, 63.633L35.5, 60.767L34.4, 57.733L33.767, 54.533L33.533, 51.3L33.8, 48.067L34.5, 44.933L35.633, 41.867L37.167, 39.033L39.067, 36.433L41.333, 34.133L43.9, 32.167L46.733, 30.567L49.733, 29.4L52.867, 28.667L56.1, 28.367L59.3, 28.567L62.467, 29.167L65.5, 30.233L68.4, 31.7L71.033, 33.6L73.367, 35.8L75.367, 38.333L77.033, 41.133L78.267, 44.167L79.067, 47.333L79.433, 50.5L79.333, 53.7L78.8, 56.867L77.833, 59.933L76.433, 62.867L74.633, 65.6L72.933, 67.9L71.433, 70.333L70.167, 72.867L69.1, 75.467L68.267, 78.167L67.633, 80.933L67.233, 83.733L67.1, 86.6"/><path stroke="black" fill="none" stroke-width="1" d="M66.2, 39.833L67.9, 40.2L69.333, 41.2L70.3, 42.667L70.633, 44.367L70.633, 63.1L70.533, 64.5L70.233, 65.867L69.733, 67.2L69.067, 68.433L67.6, 70.233L65.733, 71.6L63.567, 72.467L61.267, 72.767L53.5, 72.767L51.2, 72.467L49.033, 71.6L47.167, 70.233L45.7, 68.433L38.233, 54.167L37.767, 52.667L37.9, 51.067L38.567, 49.633L39.7, 48.533L41.2, 47.933L42.733, 47.867L44.233, 48.4L45.433, 49.433L45.9, 50.033L45.9, 38.267L46.233, 36.533L47.167, 35.067L48.6, 34.1L50.333, 33.733L51.9, 34.033L53.033, 32.8L54.5, 32.1L56.133, 31.967L57.733, 32.5L58.633, 33.167L59.333, 34L60.4, 33.767L61.433, 33.767L62.467, 34L63.433, 34.5L64.233, 35.233L64.833, 36.1L65.2, 37.1L65.333, 38.167L65.333, 39.933L66.2, 39.833"/><path stroke="black" fill="none" stroke-width="1" d="M67.1, 63.1L66.833, 64.867L66.1, 66.5L65.2, 67.633L64.033, 68.5L62.7, 69.033L61.267, 69.233L53.5, 69.233L52.1, 69.033L50.8, 68.533L49.667, 67.733L48.733, 66.633L41.367, 52.533L41.3, 51.967L41.633, 51.5L42.2, 51.4L42.7, 51.667L46.3, 56.133L47.2, 56.733L48.267, 56.7L49.1, 56.033L49.433, 55.033L49.433, 38.267L49.567, 37.733L49.967, 37.367L50.667, 37.367L51.167, 37.9L51.2, 38.267L51.2, 51.467L54.733, 51.467L54.733, 36.4L55, 35.767L55.4, 35.533L55.833, 35.533L56.233, 35.733L56.467, 36.133L56.5, 36.4L56.5, 51.467L60.033, 51.467L60.033, 38.167L60.3, 37.533L60.7, 37.3L61.133, 37.3L61.533, 37.5L61.767, 37.933L61.8, 38.167L61.8, 51.467L65.333, 51.467L65.333, 44.367L65.433, 43.833L65.867, 43.467L66.567, 43.467L67.067, 44L67.1, 44.367L67.1, 63.1"/><path stroke="black" fill="none" stroke-width="1" d="M28.267, 23.067L29.8, 22.967L31.333, 22.6L32.767, 22.067L34.133, 21.267L35.367, 20.3L36.433, 19.167L37.333, 17.9L38.033, 16.5L38.533, 15L38.8, 13.467L38.833, 11.9L38.633, 10.333L38.233, 8.833L37.6, 7.4L36.767, 6.1L35.733, 4.9L34.567, 3.867L33.233, 3.033L31.833, 2.4L30.333, 1.967L28.767, 1.8L27.2, 1.833L25.667, 2.1L24.2, 2.6L22.8, 3.3L21.533, 4.2L20.4, 5.267L19.433, 6.5L18.667, 7.867L18.1, 9.333L17.767, 10.867L17.667, 12.433L17.867, 14.5L18.467, 16.5L19.433, 18.333L20.767, 19.967L22.367, 21.267L24.2, 22.267L26.167, 22.867L28.267, 23.067"/><path stroke="black" fill="none" stroke-width="1" d="M28.267, 5.333L30.3, 5.633L32.167, 6.533L33.7, 7.933L34.767, 9.7L35.267, 11.733L35.167, 13.8L34.467, 15.767L33.233, 17.433L31.567, 18.7L29.633, 19.4L27.567, 19.5L25.533, 19L23.767, 17.9L22.367, 16.367L21.767, 15.267L21.4, 14.133L21.2, 12.933L21.233, 11.733L21.433, 10.567L21.867, 9.433L22.467, 8.367L23.267, 7.4L24.333, 6.533L25.533, 5.867L26.867, 5.467L28.267, 5.333"/><path stroke="black" fill="none" stroke-width="1" d="M107.7, 46.167L108.367, 46.3L109.167, 46.933L109.467, 47.933L109.467, 62.133L109.333, 62.8L108.967, 63.367L108.367, 63.767L107.7, 63.9L93.567, 63.9L92.9, 63.767L92.1, 63.1L91.8, 62.133L91.8, 47.933L91.933, 47.233L92.333, 46.667L92.9, 46.3L93.567, 46.167L107.7, 46.167"/><path stroke="black" fill="none" stroke-width="1" d="M105.933, 60.333L95.333, 60.333L95.333, 49.7L105.933, 49.7L105.933, 60.333"/><path stroke="black" fill="none" stroke-width="1" d="M24.633, 57.7L24.667, 58.633L24.233, 59.5L20.433, 63.4L21.333, 68.933L21.2, 69.9L20.6, 70.667L19.667, 71L18.733, 70.767L14.133, 68.233L9.533, 70.767L8.567, 71L7.667, 70.667L7.033, 69.9L6.933, 68.933L7.833, 63.4L4.033, 59.5L3.567, 58.633L3.633, 57.7L4.167, 56.9L5.033, 56.5L10.2, 55.7L12.533, 50.733L13.167, 49.967L14.133, 49.7L15.067, 49.967L15.733, 50.733L18.067, 55.7L23.233, 56.5L24.1, 56.9L24.633, 57.7"/><path stroke="black" fill="none" stroke-width="1" d="M17.267, 61.567L16.867, 62.267L16.8, 63.1L17.267, 65.9L14.967, 64.633L14.133, 64.433L13.267, 64.633L11, 65.9L11.467, 63.1L11.4, 62.267L10.967, 61.567L8.967, 59.5L11.667, 59.067L12.467, 58.733L13, 58.067L14.133, 55.667L15.267, 58.067L15.8, 58.733L16.6, 59.067L19.3, 59.5L17.267, 61.567"/><path stroke="black" fill="none" stroke-width="1" d="M77.9, 18.6L77.7, 17.7L77.967, 16.8L86.8, 2.6L87.433, 2.033L88.267, 1.833L89.133, 2.033L89.767, 2.6L98.6, 16.8L98.867, 17.7L98.667, 18.6L98, 19.267L97.1, 19.533L79.467, 19.533L78.567, 19.267L77.9, 18.6"/><path stroke="black" fill="none" stroke-width="1" d="M88.267, 6.9L93.933, 15.967L82.633, 15.967L88.267, 6.9"/><path stroke="black" fill="none" stroke-width="1" d="M8.867, 46.233L12.4, 46.067L12.367, 44.367L12.5, 41.633L12.833, 38.933L13.433, 36.267L14.2, 33.667L15.2, 31.167L16.4, 28.733L17.8, 26.367L19.433, 24.167L16.633, 22L14.833, 24.467L13.3, 27.033L11.967, 29.733L10.867, 32.533L10, 35.4L9.367, 38.367L8.967, 41.333L8.833, 44.367L8.867, 46.233"/><path stroke="black" fill="none" stroke-width="1" d="M37.733, 78.133L36.433, 81.433L33.1, 79.967L29.9, 78.267L26.8, 76.333L23.9, 74.167L26.1, 71.4L28.8, 73.4L31.667, 75.2L34.633, 76.767L37.733, 78.133"/><path stroke="black" fill="none" stroke-width="1" d="M94.9, 68.567L90.933, 72.6L86.533, 76.1L81.7, 79.067L76.567, 81.433L75.267, 78.133L80.033, 75.933L84.467, 73.2L88.567, 69.967L92.233, 66.233L94.9, 68.567"/><path stroke="black" fill="none" stroke-width="1" d="M93.567, 24.167L96.367, 22L98, 24.267L99.467, 26.633L100.733, 29.1L101.8, 31.667L102.7, 34.3L103.367, 36.967L103.867, 39.733L104.133, 42.5L100.6, 42.7L99.9, 37.7L98.5, 32.9L96.367, 28.367L93.567, 24.167"/><path stroke="black" fill="none" stroke-width="1" d="M41.9, 5.5L46.467, 4.467L51.1, 3.833L55.733, 3.6L60.367, 3.733L64.967, 4.233L69.533, 5.133L74.033, 6.433L78.4, 8.1L76.967, 11.333L72.867, 9.8L68.7, 8.6L64.433, 7.733L60.1, 7.267L55.767, 7.133L51.433, 7.367L47.133, 7.967L42.833, 8.933L41.9, 5.5"/><path stroke="black" fill="none" stroke-width="1" d="M92.067, 108.667L89.4, 108.1L86.9, 107.067L84.633, 105.633L82.633, 103.767L81.367, 101.7L80.633, 99.5L80.3, 97.267L80.267, 95.133L80.433, 93.233L80.7, 91.7L80.933, 90.633L81.067, 90.167L81.7, 89.267L82.767, 88.933L83.167, 88.933L84.1, 89L85.433, 89.133L87.067, 89.433L88.9, 89.867L90.8, 90.533L92.667, 91.467L94.433, 92.7L96.333, 91.067L98.4, 89.8L100.567, 88.8L102.633, 88.067L104.5, 87.533L106.033, 87.233L107.133, 87.033L107.6, 87L108.667, 87.233L109.4, 88.033L109.467, 88.2L109.6, 88.567L110.033, 89.8L110.533, 91.567L111, 93.767L111.233, 96.233L111.133, 98.9L110.533, 101.567L109.333, 104.133L107.533, 106.367L105.367, 108.1L102.967, 109.433L100.6, 110.433L98.367, 111.1L96.5, 111.533L95.167, 111.733L94.8, 111.8L94.6, 111.8L93.533, 111.567L92.8, 110.767L92.067, 108.667"/><path stroke="black" fill="none" stroke-width="1" d="M95.867, 96.533L96.9, 95.2L98.2, 94.067L99.633, 93.133L101.167, 92.367L104.2, 91.3L105.533, 90.967L106.633, 90.733L106.933, 91.733L107.267, 93L107.7, 95.967L107.7, 97.567L107.5, 99.167L107.067, 100.767L106.367, 102.267L104.667, 104.2L102.5, 105.7L100.2, 106.8L97.933, 107.533L101.633, 100.933L105.833, 94.633L102.967, 92.567L98.7, 98.967L94.933, 105.667L94.5, 103.333L94.533, 101L94.967, 98.733L95.867, 96.533"/><path stroke="black" fill="none" stroke-width="1" d="M84.133, 92.567L86.333, 92.867L88.467, 93.467L90.467, 94.367L92.367, 95.6L91.367, 98.367L90.933, 97.933L87.7, 94.833L85.4, 97.533L88.4, 100.4L91.033, 103.367L91.2, 104.867L89.567, 104.4L88.033, 103.667L86.633, 102.733L85.4, 101.567L84.7, 100.5L84.233, 99.333L83.8, 96.833L83.833, 94.467L84.133, 92.567"/></svg>