<svg width="113" height="142" viewBox="0 0 113 142" fill="none" xmlns="http://www.w3.org/2000/svg">
<path d="M77.4056 67.7986C81.038 63.1428 83.0034 57.3921 82.9844 51.4751C82.9889 47.1945 81.9668 42.9759 80.0045 39.1769C78.0423 35.3778 75.1979 32.1104 71.7124 29.6516C68.227 27.1928 64.2032 25.615 59.9821 25.0521C55.7611 24.4891 51.4672 24.9576 47.4646 26.4178C43.462 27.8779 39.8685 30.2868 36.9889 33.44C34.1092 36.5933 32.0283 40.3981 30.9225 44.5319C29.8166 48.6656 29.7185 53.0065 30.6364 57.1865C31.5543 61.3665 33.4611 65.2624 36.1953 68.5439C40.3002 73.6642 42.4872 80.0705 42.375 86.6458V87.4689C41.8401 87.7781 41.3954 88.2232 41.0855 88.7596C40.7756 89.296 40.6114 89.9048 40.6094 90.5251V94.0751C40.6114 94.6954 40.7756 95.3043 41.0855 95.8407C41.3954 96.3771 41.8401 96.8222 42.375 97.1313V97.6251C42.3787 99.2244 42.9193 100.776 43.9094 102.027C44.8994 103.279 46.2809 104.158 47.83 104.522C48.1921 106.569 49.2593 108.423 50.8445 109.758C52.4298 111.093 54.4319 111.825 56.5 111.825C58.5681 111.825 60.5702 111.093 62.1555 109.758C63.7407 108.423 64.8079 106.569 65.17 104.522C66.7191 104.158 68.1006 103.279 69.0906 102.027C70.0807 100.776 70.6213 99.2244 70.625 97.6251V97.1313C71.1599 96.8222 71.6046 96.3771 71.9145 95.8407C72.2244 95.3043 72.3886 94.6954 72.3906 94.0751V90.5251C72.3886 89.9048 72.2244 89.296 71.9145 88.7596C71.6046 88.2232 71.1599 87.7781 70.625 87.4689V86.5851C70.7239 79.7354 73.1122 73.1182 77.4056 67.7986ZM56.5 108.275C55.4082 108.272 54.3442 107.929 53.454 107.293C52.5639 106.657 51.8913 105.76 51.5286 104.725H61.4715C61.1088 105.76 60.4362 106.657 59.546 107.293C58.6559 107.929 57.5918 108.272 56.5 108.275ZM63.5625 101.175H49.4375C48.5013 101.174 47.6037 100.8 46.9417 100.134C46.2797 99.4687 45.9073 98.5663 45.9063 97.6251H67.0938C67.0927 98.5663 66.7203 99.4687 66.0583 100.134C65.3963 100.8 64.4987 101.174 63.5625 101.175ZM44.1406 94.0751V90.5251H68.8594L68.862 94.0751H44.1406ZM67.0938 86.5851V86.9751H45.9063V86.6458C46.0188 79.2361 43.5393 72.0221 38.9007 66.2628C36.1203 62.9236 34.3365 58.8617 33.7556 54.5465C33.1746 50.2312 33.8202 45.8388 35.6176 41.8768C37.415 37.9148 40.291 34.545 43.9131 32.1569C47.5351 29.7687 51.7555 28.4597 56.0864 28.3811C60.4173 28.3025 64.6819 29.4575 68.3874 31.7127C72.0928 33.9679 75.0879 37.2311 77.0264 41.1253C78.9649 45.0195 79.7677 49.3856 79.3421 53.7191C78.9164 58.0527 77.2797 62.1766 74.621 65.6145C69.8411 71.5568 67.1897 78.9436 67.0938 86.5851Z" fill="white"/>
<path d="M66.2109 39.8424C65.9143 39.842 65.6184 39.8728 65.3281 39.9342V38.1627C65.3281 37.444 65.1545 36.7361 64.8221 36.0998C64.4898 35.4635 64.0087 34.9179 63.4202 34.5098C62.8318 34.1018 62.1535 33.8435 61.4438 33.7573C60.7341 33.671 60.0141 33.7594 59.3459 34.0147C58.9478 33.3819 58.3969 32.8607 57.7444 32.4997C57.092 32.1387 56.3592 31.9497 55.6145 31.9502C54.8697 31.9507 54.1372 32.1408 53.4853 32.5027C52.8333 32.8646 52.2831 33.3865 51.8859 34.0199C51.3868 33.8246 50.8559 33.7246 50.3203 33.7252C49.1373 33.7397 48.0084 34.2252 47.1809 35.0753C46.3535 35.9253 45.8951 37.0705 45.9062 38.2598V50.0174L45.439 49.4384C44.764 48.6017 43.8044 48.0463 42.7458 47.8795C41.6871 47.7127 40.6045 47.9463 39.7073 48.5353C38.8101 49.1243 38.1619 50.0268 37.888 51.0683C37.6142 52.1098 37.7342 53.2164 38.2247 54.1741L45.6976 68.4365C46.531 69.761 47.6831 70.853 49.0475 71.6113C50.4118 72.3696 51.9443 72.77 53.5033 72.7752H61.2624C62.8213 72.77 64.3538 72.3696 65.7182 71.6113C67.0825 70.8529 68.2346 69.761 69.068 68.4365C70.088 66.8411 70.6287 64.9838 70.625 63.0873V44.3752C70.6361 43.1861 70.1776 42.0411 69.3501 41.1914C68.5227 40.3416 67.3937 39.8565 66.2109 39.8424ZM67.0937 63.0873C67.0968 64.3025 66.7513 65.4929 66.0989 66.5159C65.5842 67.3398 64.8712 68.0199 64.0259 68.4934C63.1805 68.967 62.2301 69.2187 61.2624 69.2252H53.5033C52.5602 69.2241 51.632 68.9883 50.8016 68.5388C49.9712 68.0894 49.2645 67.4403 48.7443 66.6494L41.362 52.5447C41.273 52.3678 41.2522 52.164 41.3036 51.9726C41.3549 51.7812 41.4748 51.6156 41.6403 51.5077C41.8057 51.3998 42.005 51.3571 42.1998 51.3879C42.3946 51.4187 42.5712 51.5208 42.6957 51.6745L46.3002 56.1432C46.5301 56.4281 46.8421 56.6343 47.1933 56.7336C47.5445 56.8329 47.9177 56.8205 48.2616 56.6979C48.6054 56.5754 48.9031 56.3488 49.1137 56.0492C49.3243 55.7497 49.4374 55.392 49.4375 55.0252V38.2598C49.4246 38.1355 49.4379 38.0099 49.4764 37.891C49.5149 37.7722 49.5778 37.6628 49.661 37.57C49.7442 37.4772 49.8459 37.403 49.9595 37.3522C50.0731 37.3014 50.196 37.2751 50.3203 37.2751C50.4446 37.2751 50.5675 37.3014 50.6811 37.3522C50.7947 37.403 50.8964 37.4772 50.9796 37.57C51.0628 37.6628 51.1257 37.7722 51.1642 37.891C51.2027 38.0099 51.216 38.1355 51.2031 38.2598V51.4752H54.7344V36.3877C54.7344 36.1523 54.8274 35.9266 54.9929 35.7601C55.1585 35.5937 55.383 35.5002 55.6172 35.5002C55.8513 35.5002 56.0759 35.5937 56.2414 35.7601C56.407 35.9266 56.5 36.1523 56.5 36.3877V51.4752H60.0312V38.1627C60.0312 37.9273 60.1243 37.7016 60.2898 37.5351C60.4554 37.3687 60.6799 37.2752 60.9141 37.2752C61.1482 37.2752 61.3727 37.3687 61.5383 37.5351C61.7039 37.7016 61.7969 37.9273 61.7969 38.1627V51.4752H65.3281V44.3752C65.3155 44.2511 65.329 44.1256 65.3676 44.007C65.4062 43.8884 65.4691 43.7793 65.5523 43.6867C65.6355 43.594 65.7371 43.52 65.8506 43.4693C65.964 43.4186 66.0868 43.3925 66.2109 43.3925C66.3351 43.3925 66.4578 43.4186 66.5713 43.4693C66.6847 43.52 66.7863 43.594 66.8695 43.6867C66.9527 43.7793 67.0157 43.8884 67.0543 44.007C67.0929 44.1256 67.1064 44.2511 67.0937 44.3752V63.0873Z" fill="white"/>
<path d="M28.25 23.0749C30.3452 23.0749 32.3934 22.4503 34.1356 21.2801C35.8777 20.1098 37.2355 18.4465 38.0373 16.5005C38.8392 14.5545 39.049 12.4131 38.6402 10.3472C38.2314 8.2813 37.2225 6.38365 35.7409 4.89422C34.2594 3.40479 32.3717 2.39048 30.3167 1.97954C28.2618 1.56861 26.1317 1.77952 24.1959 2.58559C22.2602 3.39166 20.6057 4.7567 19.4416 6.50808C18.2776 8.25947 17.6562 10.3185 17.6562 12.4249C17.6593 15.2485 18.7764 17.9556 20.7625 19.9522C22.7485 21.9488 25.4413 23.0718 28.25 23.0749ZM28.25 5.32491C29.6468 5.32491 31.0123 5.74131 32.1737 6.52147C33.3351 7.30163 34.2404 8.4105 34.7749 9.70786C35.3094 11.0052 35.4493 12.4328 35.1768 13.81C34.9043 15.1873 34.2316 16.4524 33.2439 17.4454C32.2562 18.4383 30.9978 19.1145 29.6278 19.3885C28.2578 19.6624 26.8378 19.5218 25.5473 18.9845C24.2568 18.4471 23.1538 17.537 22.3777 16.3695C21.6017 15.2019 21.1875 13.8292 21.1875 12.4249C21.1895 10.5425 21.9342 8.73774 23.2583 7.40666C24.5823 6.07559 26.3775 5.32691 28.25 5.32491Z" fill="white"/>
<path d="M107.703 46.1499H93.5781C93.3462 46.1498 93.1166 46.1957 92.9024 46.2849C92.6881 46.3741 92.4935 46.5048 92.3295 46.6697C92.1655 46.8345 92.0355 47.0302 91.9468 47.2456C91.8581 47.4609 91.8124 47.6918 91.8125 47.9249V62.1249C91.8124 62.358 91.8581 62.5889 91.9468 62.8042C92.0355 63.0196 92.1655 63.2153 92.3295 63.3802C92.4935 63.545 92.6881 63.6757 92.9024 63.7649C93.1166 63.8541 93.3462 63.9 93.5781 63.8999H107.703C107.935 63.9 108.165 63.8541 108.379 63.7649C108.593 63.6757 108.788 63.545 108.952 63.3802C109.116 63.2153 109.246 63.0196 109.334 62.8042C109.423 62.5889 109.469 62.358 109.469 62.1249V47.9249C109.469 47.6918 109.423 47.4609 109.334 47.2456C109.246 47.0302 109.116 46.8345 108.952 46.6697C108.788 46.5048 108.593 46.3741 108.379 46.2849C108.165 46.1957 107.935 46.1498 107.703 46.1499ZM105.938 60.3499H95.3438V49.6999H105.938V60.3499Z" fill="white"/>
<path d="M24.6273 57.6912C24.5242 57.3818 24.3383 57.1069 24.0899 56.8968C23.8416 56.6867 23.5404 56.5496 23.2195 56.5003L18.0511 55.7064L15.7234 50.7211C15.5809 50.4159 15.3549 50.1578 15.0718 49.977C14.7888 49.7962 14.4603 49.7002 14.125 49.7002C13.7896 49.7002 13.4612 49.7962 13.1781 49.977C12.8951 50.1578 12.6691 50.4159 12.5266 50.7211L10.1989 55.7064L5.03047 56.5002C4.70961 56.5494 4.40845 56.6866 4.16009 56.8966C3.91173 57.1067 3.72578 57.3815 3.62269 57.6909C3.5196 58.0003 3.50336 58.3323 3.57574 58.6504C3.64813 58.9684 3.80634 59.2603 4.03299 59.4938L7.8246 63.4009L6.92627 68.9391C6.87278 69.2679 6.91245 69.6052 7.04073 69.9125C7.16902 70.2197 7.38075 70.4844 7.65168 70.6762C7.92262 70.8681 8.24182 70.9795 8.57275 70.9975C8.90369 71.0156 9.23299 70.9396 9.52297 70.7783L14.125 68.2215L18.727 70.7783C19.017 70.9396 19.3463 71.0156 19.6772 70.9975C20.0082 70.9795 20.3274 70.8681 20.5983 70.6762C20.8692 70.4844 21.081 70.2197 21.2092 69.9125C21.3375 69.6052 21.3772 69.2679 21.3237 68.9391L20.4254 63.4009L24.217 59.4938C24.4436 59.2603 24.6019 58.9685 24.6743 58.6505C24.7467 58.3325 24.7304 58.0005 24.6273 57.6912ZM17.2752 61.5635C17.0822 61.7623 16.9383 62.004 16.8552 62.2689C16.7721 62.5339 16.7521 62.8147 16.7967 63.0889L17.2537 65.9039L14.9794 64.6403C14.7179 64.4948 14.4239 64.4184 14.125 64.4184C13.8261 64.4184 13.5321 64.4948 13.2706 64.6403L10.9963 65.9039L11.4533 63.089C11.4979 62.8148 11.4778 62.5339 11.3947 62.269C11.3116 62.004 11.1678 61.7624 10.9748 61.5636L8.96089 59.4886L11.6637 59.0726C11.9504 59.0288 12.2219 58.9146 12.4542 58.7402C12.6866 58.5657 12.8725 58.3364 12.9957 58.0725L14.125 55.6526L15.2544 58.0725C15.3775 58.3364 15.5635 58.5657 15.7958 58.7402C16.0281 58.9146 16.2997 59.0288 16.5863 59.0726L19.2891 59.4886L17.2752 61.5635Z" fill="white"/>
<path d="M77.9091 18.61C78.0616 18.8873 78.2853 19.1185 78.5569 19.2794C78.8284 19.4404 79.1379 19.5253 79.4531 19.5252H97.1094C97.4245 19.525 97.7339 19.44 98.0054 19.2791C98.2768 19.1182 98.5006 18.8873 98.6533 18.6102C98.8061 18.3331 98.8824 18.0199 98.8742 17.7032C98.866 17.3865 98.7737 17.0777 98.6069 16.809L89.7788 2.60897C89.609 2.36862 89.3845 2.17263 89.124 2.03737C88.8634 1.90212 88.5745 1.83154 88.2813 1.83154C87.988 1.83154 87.6991 1.90212 87.4386 2.03737C87.178 2.17263 86.9535 2.36862 86.7838 2.60897L77.9556 16.809C77.7888 17.0777 77.6965 17.3864 77.6883 17.7031C77.6801 18.0198 77.7563 18.3329 77.9091 18.61ZM88.2813 6.89913L93.9238 15.9752H82.6387L88.2813 6.89913Z" fill="white"/>
<path d="M8.87726 46.2437L12.4033 46.0565C12.374 45.5 12.3594 44.9384 12.3594 44.3751C12.4073 37.0343 14.891 29.9195 19.4167 24.1584L16.62 21.9917C11.6154 28.3722 8.87314 36.2498 8.82812 44.3751C8.82812 45.0008 8.84451 45.6248 8.87726 46.2437Z" fill="white"/>
<path d="M37.7273 78.1172C33.5385 76.4677 29.6176 74.1998 26.0938 71.3882L23.8904 74.1616C27.6879 77.1935 31.9139 79.639 36.429 81.4176L37.7273 78.1172Z" fill="white"/>
<path d="M94.9144 68.5644L92.2418 66.2417C87.6146 71.5109 81.7945 75.584 75.2727 78.1172L76.5711 81.4176C83.6226 78.6744 89.9141 74.266 94.9144 68.5644Z" fill="white"/>
<path d="M93.5833 24.1584C97.7434 29.4751 100.19 35.9416 100.597 42.6937L104.123 42.5065C103.68 35.0352 100.978 27.8779 96.38 21.9917L93.5833 24.1584Z" fill="white"/>
<path d="M41.9095 5.49677L42.8405 8.92197C54.1692 5.87691 66.1857 6.7312 76.9754 11.3487L78.3996 8.10034C66.8677 3.15616 54.0204 2.2395 41.9095 5.49677Z" fill="white"/>
<path d="M92.0529 108.666C92.2671 109.378 92.5174 110.079 92.8031 110.766C92.941 111.081 93.1671 111.349 93.4538 111.537C93.7406 111.725 94.0755 111.825 94.4178 111.825C94.4756 111.825 94.5342 111.821 94.5928 111.816C95.0256 111.773 105.234 110.686 109.338 104.146C113.481 97.5435 109.568 88.4207 109.399 88.0359C109.247 87.6946 108.993 87.4096 108.672 87.2209C108.351 87.0322 107.979 86.9493 107.609 86.9837C107.224 87.0223 99.1047 87.8982 94.4282 92.6992C90.0381 88.9956 83.0863 88.9251 82.7576 88.9251H82.7551C82.3802 88.9252 82.0151 89.0452 81.7126 89.2677C81.41 89.4902 81.1858 89.8037 81.0722 90.1628C80.9653 90.5025 78.4961 98.5351 82.6275 103.782C85.0957 106.48 88.4354 108.21 92.0529 108.666ZM95.8507 96.5468C98.2819 92.6727 104.024 91.2028 106.632 90.7209C107.425 93.1199 108.738 98.4484 106.351 102.253C104.509 105.188 100.772 106.74 97.9317 107.531C100.23 103.036 102.871 98.7275 105.832 94.6436L102.979 92.5531C99.9653 96.7095 97.2704 101.09 94.9176 105.657C94.069 102.611 94.4025 99.3551 95.8507 96.5468ZM84.1206 92.56C87.1034 92.7304 89.9691 93.7859 92.3553 95.5932C91.9116 96.4768 91.5756 97.4111 91.3548 98.3758C91.2172 98.2299 91.0869 98.0758 90.9478 97.9318C89.921 96.8675 88.8261 95.831 87.6941 94.8481L85.3871 97.5349C86.4406 98.4501 87.4588 99.4156 88.4149 100.404C89.3317 101.353 90.2017 102.357 91.0343 103.382C91.0729 103.886 91.1242 104.38 91.1931 104.856C88.9631 104.413 86.9322 103.265 85.3965 101.581C83.2499 98.8523 83.7017 94.6765 84.1206 92.56Z" fill="white"/>
</svg>
