<?xml version="1.0" encoding="utf-8"?>
<!-- Generator: Adobe Illustrator 27.8.1, SVG Export Plug-In . SVG Version: 6.00 Build 0)  -->
<svg version="1.1" id="Vrstva_1" xmlns="http://www.w3.org/2000/svg" xmlns:xlink="http://www.w3.org/1999/xlink" x="0px" y="0px"
	 viewBox="0 0 100 100" style="enable-background:new 0 0 100 100;" xml:space="preserve">
<style type="text/css">
	.st0{fill:#FFFFFF;}
</style>
<path class="st0" d="M85.5,85.1c8.9-9,14.5-21.4,14.5-35.1c0-10.1-3-19.9-8.7-28.2c-0.6-0.9-1.9-1.1-2.8-0.5
	c-0.9,0.6-1.1,1.9-0.5,2.8c4.9,7.1,7.6,15.4,8,24H82.4c-1.1,0-2,0.9-2,2s0.9,2,2,2h13.6c-0.5,11.2-5,21.3-12.1,29.1l-9.6-9.6
	c-0.8-0.8-2-0.8-2.8,0s-0.8,2,0,2.8l9.6,9.6C73.3,91,63.2,95.5,52,95.9V82.4c0-1.1-0.9-2-2-2s-2,0.9-2,2v13.6
	c-11.2-0.5-21.3-5-29.1-12.1l9.6-9.6c0.8-0.8,0.8-2,0-2.8c-0.8-0.8-2-0.8-2.8,0l-9.6,9.6C9,73.3,4.5,63.2,4.1,52h13.6
	c1.1,0,2-0.9,2-2s-0.9-2-2-2H4.1c0.5-11.2,5-21.3,12.1-29.1l9.6,9.6c0.4,0.4,0.9,0.6,1.4,0.6s1-0.2,1.4-0.6c0.8-0.8,0.8-2,0-2.8
	l-9.6-9.6C26.7,9,36.8,4.5,48,4.1v13.6c0,1.1,0.9,2,2,2s2-0.9,2-2V4.1c7.8,0.3,15.4,2.6,22,6.7c0.9,0.6,2.2,0.3,2.8-0.7
	s0.3-2.2-0.7-2.7C68.3,2.5,59.2,0,50,0C36.3,0,23.9,5.5,14.9,14.5c-0.1,0.1-0.2,0.1-0.2,0.2s-0.1,0.1-0.2,0.2C5.5,23.9,0,36.3,0,50
	c0,13.7,5.5,26.1,14.5,35.1c0.1,0.1,0.1,0.2,0.2,0.2c0.1,0.1,0.1,0.1,0.2,0.2c9,8.9,21.4,14.5,35.1,14.5c13.7,0,26.1-5.5,35.1-14.5
	c0.1-0.1,0.2-0.1,0.2-0.2S85.5,85.2,85.5,85.1z"/>
<path class="st0" d="M40,36.4c-0.8-0.8-2-0.8-2.8-0.1c-0.8,0.8-0.8,2-0.1,2.8l11.4,12.2c0,0,0,0,0,0c0,0,0,0,0,0
	c0,0,0.1,0.1,0.1,0.1c0,0,0.1,0.1,0.1,0.1c0.1,0,0.1,0.1,0.2,0.1c0,0,0.1,0.1,0.1,0.1c0.1,0,0.2,0.1,0.3,0.1c0,0,0.1,0,0.1,0
	c0.1,0,0.3,0,0.4,0l0,0l0,0c0.1,0,0.3,0,0.4,0c0,0,0.1,0,0.1,0c0.1,0,0.2,0,0.2-0.1c0,0,0.1,0,0.1-0.1c0.1,0,0.1-0.1,0.2-0.1
	c0,0,0.1-0.1,0.1-0.1s0.1-0.1,0.1-0.1c0,0,0,0,0,0c0,0,0,0,0,0l46.1-48c0.8-0.8,0.7-2.1-0.1-2.8c-0.8-0.8-2.1-0.7-2.8,0.1L50,47.1
	L40,36.4z"/>
</svg>
