<svg width="97" height="113" viewBox="0 0 97 113" fill="none" xmlns="http://www.w3.org/2000/svg">
<path d="M96.622 26.6054L88.2547 3.97201C87.98 3.22338 87.56 2.53632 87.0188 1.95023C86.4776 1.36415 85.8259 0.890568 85.1011 0.556667C84.3763 0.222766 83.5926 0.0351131 82.7951 0.00447376C81.9975 -0.0261656 81.2017 0.100811 80.4534 0.37812L72.8945 3.08363C72.1427 3.35799 71.4528 3.77832 70.8644 4.32038C70.2761 4.86244 69.801 5.5155 69.4666 6.2419C69.1321 6.96829 68.945 7.75364 68.9158 8.55266C68.8867 9.35168 69.0163 10.1485 69.297 10.8973L69.7214 12.0482H60.6265V8.01008C60.6265 7.4746 60.4136 6.96105 60.0346 6.58241C59.6555 6.20376 59.1415 5.99104 58.6054 5.99104H48.5C47.964 5.99104 47.4499 6.20376 47.0709 6.58241C46.6918 6.96105 46.4789 7.4746 46.4789 8.01008C46.4789 8.54556 46.6918 9.05911 47.0709 9.43775C47.4499 9.8164 47.964 10.0291 48.5 10.0291H56.5843V28.9677L53.6538 30.4416C53.3205 30.6094 53.0402 30.8661 52.844 31.1832C52.6478 31.5004 52.5433 31.8657 52.5422 32.2385V42.3337H44.4578V32.2385C44.4567 31.8657 44.3522 31.5004 44.156 31.1832C43.9598 30.8661 43.6795 30.6094 43.3462 30.4416L40.4157 28.9677V10.0291C40.9517 10.0291 41.4658 9.8164 41.8448 9.43775C42.2238 9.05911 42.4367 8.54556 42.4367 8.01008C42.4367 7.4746 42.2238 6.96105 41.8448 6.58241C41.4658 6.20376 40.9517 5.99104 40.4157 5.99104H38.3946C37.8586 5.99104 37.3445 6.20376 36.9655 6.58241C36.5864 6.96105 36.3735 7.4746 36.3735 8.01008V12.0482H22.3269L19.3357 3.97201C19.061 3.22338 18.641 2.53632 18.0998 1.95023C17.5586 1.36415 16.9069 0.890568 16.1821 0.556667C15.4573 0.222766 14.6736 0.0351131 13.876 0.00447376C13.0785 -0.0261656 12.2827 0.100811 11.5344 0.37812L4.03613 3.08363C3.27895 3.35196 2.5827 3.76795 1.98784 4.30741C1.39299 4.84687 0.91138 5.49906 0.571012 6.22607C0.230645 6.95308 0.0383025 7.74042 0.00516118 8.54233C-0.0279801 9.34424 0.09874 10.1447 0.37796 10.8973L8.74525 33.5913C9.16338 34.7727 9.93803 35.7955 10.9624 36.5188C11.9868 37.242 13.2105 37.63 14.4649 37.6294C15.1561 37.6224 15.8405 37.4925 16.486 37.2457L24.0449 34.4797C24.7966 34.2053 25.4866 33.785 26.0749 33.2429C26.6633 32.7008 27.1384 32.0478 27.4728 31.3214C27.8072 30.595 27.9944 29.8096 28.0235 29.0106C28.0526 28.2116 27.9231 27.4147 27.6424 26.666L26.8138 24.1624H36.3735V30.2195C36.3746 30.5923 36.4791 30.9576 36.6753 31.2748C36.8715 31.5919 37.1518 31.8486 37.4851 32.0164L40.4157 33.4903V44.3527C40.4157 44.8882 40.6286 45.4018 41.0076 45.7804C41.3867 46.1591 41.9007 46.3718 42.4367 46.3718V86.7525C41.6716 87.3275 40.9912 88.0072 40.4157 88.7716H24.247V82.7144C24.247 81.108 23.6082 79.5674 22.4711 78.4314C21.334 77.2955 19.7918 76.6573 18.1837 76.6573H10.0994C8.49131 76.6573 6.94909 77.2955 5.81201 78.4314C4.67493 79.5674 4.03613 81.108 4.03613 82.7144V106.943C4.03613 108.549 4.67493 110.09 5.81201 111.226C6.94909 112.362 8.49131 113 10.0994 113H18.1837C19.7918 113 21.334 112.362 22.4711 111.226C23.6082 110.09 24.247 108.549 24.247 106.943V100.886H40.4157C41.3414 102.162 42.5568 103.201 43.962 103.917C45.3672 104.633 46.9224 105.007 48.5 105.007C50.0776 105.007 51.6328 104.633 53.038 103.917C54.4433 103.201 55.6586 102.162 56.5843 100.886H62.6476C63.1836 100.886 63.6977 100.673 64.0767 100.294C64.4557 99.9158 64.6687 99.4022 64.6687 98.8667C64.6687 98.3313 64.4557 97.8177 64.0767 97.4391C63.6977 97.0604 63.1836 96.8477 62.6476 96.8477H58.4033C58.3933 96.774 58.3933 96.6993 58.4033 96.6256C58.6456 95.4399 58.6456 94.2175 58.4033 93.0317C58.3933 92.958 58.3933 92.8833 58.4033 92.8096H72.753V96.8477H70.7319C70.1959 96.8477 69.6818 97.0604 69.3028 97.4391C68.9238 97.8177 68.7109 98.3313 68.7109 98.8667C68.7109 99.4022 68.9238 99.9158 69.3028 100.294C69.6818 100.673 70.1959 100.886 70.7319 100.886H72.753V106.943C72.753 108.549 73.3918 110.09 74.5289 111.226C75.666 112.362 77.2082 113 78.8163 113H86.9006C88.5087 113 90.0509 112.362 91.188 111.226C92.3251 110.09 92.9639 108.549 92.9639 106.943V82.7144C92.9639 81.108 92.3251 79.5674 91.188 78.4314C90.0509 77.2955 88.5087 76.6573 86.9006 76.6573H78.8163C77.2082 76.6573 75.666 77.2955 74.5289 78.4314C73.3918 79.5674 72.753 81.108 72.753 82.7144V88.7716H56.5843C56.0088 88.0072 55.3284 87.3275 54.5633 86.7525V46.3718C55.0993 46.3718 55.6134 46.1591 55.9924 45.7804C56.3714 45.4018 56.5843 44.8882 56.5843 44.3527V33.4903L59.5149 32.0164C59.8482 31.8486 60.1285 31.5919 60.3247 31.2748C60.5209 30.9576 60.6254 30.5923 60.6265 30.2195V24.1624H74.188L77.6643 33.5913C78.0824 34.7727 78.857 35.7955 79.8814 36.5188C80.9058 37.242 82.1295 37.63 83.3839 37.6294C84.0751 37.6224 84.7595 37.4925 85.405 37.2457L92.9639 34.4191C93.7211 34.1508 94.4173 33.7348 95.0122 33.1953C95.607 32.6558 96.0886 32.0037 96.429 31.2766C96.7694 30.5496 96.9617 29.7623 96.9948 28.9604C97.028 28.1585 96.9013 27.358 96.622 26.6054ZM22.711 30.6435L15.1521 33.4096C14.9056 33.5123 14.6411 33.5652 14.374 33.5652C14.1069 33.5652 13.8424 33.5123 13.5959 33.4096C13.3531 33.2968 13.1352 33.137 12.9548 32.9395C12.7744 32.7419 12.6351 32.5105 12.5449 32.2587L10.7259 27.3726L11.4939 27.7159C11.7568 27.8495 12.0478 27.9187 12.3428 27.9178C12.8053 27.9203 13.2546 27.7643 13.6159 27.4757C13.9771 27.1872 14.2283 26.7836 14.3277 26.3324C14.427 25.8811 14.3684 25.4095 14.1617 24.9962C13.9549 24.5829 13.6125 24.253 13.1916 24.0614L8.76546 22.0424L6.54227 15.9853L7.31028 16.3285C7.56542 16.4635 7.85021 16.5329 8.13893 16.5304C8.52549 16.5314 8.90423 16.4216 9.23021 16.214C9.5562 16.0064 9.81576 15.7098 9.97812 15.3594C10.0902 15.1182 10.1535 14.8573 10.1644 14.5916C10.1752 14.3259 10.1335 14.0607 10.0414 13.8112C9.94941 13.5617 9.80896 13.3328 9.62815 13.1376C9.44733 12.9425 9.22971 12.7849 8.98778 12.6741L4.56161 10.655L4.15739 9.56474C4.06101 9.31314 4.016 9.04482 4.02503 8.77558C4.03405 8.50634 4.09691 8.24162 4.20992 7.99702C4.32292 7.75243 4.48378 7.53289 4.68302 7.35136C4.88227 7.16982 5.11586 7.02995 5.37004 6.93999L12.9289 4.09315C13.1796 4.00001 13.4463 3.9575 13.7135 3.96809C13.9808 3.97868 14.2433 4.04215 14.4858 4.15484C14.7283 4.26752 14.946 4.42717 15.1263 4.62453C15.3066 4.82189 15.4459 5.05303 15.5361 5.30457L16.6477 8.29275L14.6266 12.7144C14.5145 12.9556 14.4512 13.2165 14.4404 13.4822C14.4295 13.7479 14.4713 14.0131 14.5633 14.2626C14.6553 14.5122 14.7958 14.7411 14.9766 14.9362C15.1574 15.1313 15.375 15.2889 15.6169 15.3998C15.8772 15.5182 16.1596 15.5801 16.4456 15.5815C16.8322 15.5824 17.2109 15.4726 17.5369 15.2651C17.8629 15.0575 18.1224 14.7609 18.2848 14.4104L18.6486 13.6634L19.6187 16.2881L20.8516 19.6599L18.79 24.1624C18.678 24.4036 18.6147 24.6645 18.6038 24.9302C18.5929 25.1959 18.6347 25.4611 18.7267 25.7106C18.8187 25.9601 18.9592 26.189 19.14 26.3841C19.3208 26.5793 19.5385 26.7368 19.7804 26.8477C20.048 26.9655 20.3368 27.0273 20.6292 27.0294C21.0158 27.0304 21.3945 26.9206 21.7205 26.713C22.0465 26.5054 22.3061 26.2088 22.4684 25.8584L22.812 25.0911L23.9236 28.0995C24.0872 28.5952 24.0523 29.1349 23.8262 29.6054C23.6001 30.076 23.2004 30.4408 22.711 30.6233V30.6435ZM25.3182 20.1243L24.8129 18.7514L23.8226 16.0862H36.3735V20.1243H25.3182ZM78.8163 80.6954H86.9006C87.4366 80.6954 87.9507 80.9081 88.3298 81.2868C88.7088 81.6654 88.9217 82.179 88.9217 82.7144V85.9045L85.4657 89.3369C85.2762 89.5246 85.1259 89.7479 85.0233 89.9939C84.9206 90.24 84.8678 90.5039 84.8678 90.7704C84.8678 91.0369 84.9206 91.3008 85.0233 91.5469C85.1259 91.7929 85.2762 92.0162 85.4657 92.2039C85.6535 92.3932 85.8771 92.5434 86.1234 92.6459C86.3697 92.7484 86.6338 92.8012 86.9006 92.8012C87.1674 92.8012 87.4316 92.7484 87.6779 92.6459C87.9242 92.5434 88.1477 92.3932 88.3356 92.2039L88.9217 91.5982V98.0188L85.4657 101.451C85.2762 101.639 85.1259 101.862 85.0233 102.108C84.9206 102.354 84.8678 102.618 84.8678 102.885C84.8678 103.151 84.9206 103.415 85.0233 103.661C85.1259 103.907 85.2762 104.13 85.4657 104.318C85.6535 104.507 85.8771 104.658 86.1234 104.76C86.3697 104.863 86.6338 104.915 86.9006 104.915C87.1674 104.915 87.4316 104.863 87.6779 104.76C87.9242 104.658 88.1477 104.507 88.3356 104.318L88.9217 103.712V106.943C88.9217 107.478 88.7088 107.992 88.3298 108.371C87.9507 108.749 87.4366 108.962 86.9006 108.962H78.8163C78.2803 108.962 77.7662 108.749 77.3872 108.371C77.0081 107.992 76.7952 107.478 76.7952 106.943V101.714L77.3813 102.319C77.5692 102.509 77.7927 102.659 78.039 102.761C78.2853 102.864 78.5495 102.917 78.8163 102.917C79.0831 102.917 79.3473 102.864 79.5935 102.761C79.8398 102.659 80.0634 102.509 80.2513 102.319C80.4407 102.132 80.591 101.908 80.6936 101.662C80.7963 101.416 80.8491 101.152 80.8491 100.886C80.8491 100.619 80.7963 100.355 80.6936 100.109C80.591 99.8633 80.4407 99.64 80.2513 99.4523L76.7952 96.0199V89.5994L77.3813 90.2051C77.5692 90.3943 77.7927 90.5445 78.039 90.647C78.2853 90.7495 78.5495 90.8023 78.8163 90.8023C79.0831 90.8023 79.3473 90.7495 79.5935 90.647C79.8398 90.5445 80.0634 90.3943 80.2513 90.2051C80.4407 90.0174 80.591 89.7941 80.6936 89.548C80.7963 89.302 80.8491 89.0381 80.8491 88.7716C80.8491 88.505 80.7963 88.2411 80.6936 87.9951C80.591 87.7491 80.4407 87.5257 80.2513 87.338L76.7952 83.9057V82.7144C76.7952 82.179 77.0081 81.6654 77.3872 81.2868C77.7662 80.9081 78.2803 80.6954 78.8163 80.6954ZM18.1837 108.962H10.0994C9.56336 108.962 9.04928 108.749 8.67026 108.371C8.29123 107.992 8.0783 107.478 8.0783 106.943V101.714L8.66441 102.319C8.8523 102.509 9.07583 102.659 9.32212 102.761C9.56841 102.864 9.83257 102.917 10.0994 102.917C10.3662 102.917 10.6304 102.864 10.8766 102.761C11.1229 102.659 11.3465 102.509 11.5344 102.319C11.7238 102.132 11.8741 101.908 11.9767 101.662C12.0794 101.416 12.1322 101.152 12.1322 100.886C12.1322 100.619 12.0794 100.355 11.9767 100.109C11.8741 99.8633 11.7238 99.64 11.5344 99.4523L8.0783 96.0199V89.5994L8.66441 90.2051C8.8523 90.3943 9.07583 90.5445 9.32212 90.647C9.56841 90.7495 9.83257 90.8023 10.0994 90.8023C10.3662 90.8023 10.6304 90.7495 10.8766 90.647C11.1229 90.5445 11.3465 90.3943 11.5344 90.2051C11.7238 90.0174 11.8741 89.7941 11.9767 89.548C12.0794 89.302 12.1322 89.0381 12.1322 88.7716C12.1322 88.505 12.0794 88.2411 11.9767 87.9951C11.8741 87.7491 11.7238 87.5257 11.5344 87.338L8.0783 83.9057V82.7144C8.0783 82.179 8.29123 81.6654 8.67026 81.2868C9.04928 80.9081 9.56336 80.6954 10.0994 80.6954H18.1837C18.7197 80.6954 19.2338 80.9081 19.6128 81.2868C19.9919 81.6654 20.2048 82.179 20.2048 82.7144V85.9045L16.7488 89.3369C16.5593 89.5246 16.409 89.7479 16.3064 89.9939C16.2037 90.24 16.1509 90.5039 16.1509 90.7704C16.1509 91.0369 16.2037 91.3008 16.3064 91.5469C16.409 91.7929 16.5593 92.0162 16.7488 92.2039C16.9366 92.3932 17.1602 92.5434 17.4065 92.6459C17.6527 92.7484 17.9169 92.8012 18.1837 92.8012C18.4505 92.8012 18.7147 92.7484 18.961 92.6459C19.2073 92.5434 19.4308 92.3932 19.6187 92.2039L20.2048 91.5982V98.0188L16.7488 101.451C16.5593 101.639 16.409 101.862 16.3064 102.108C16.2037 102.354 16.1509 102.618 16.1509 102.885C16.1509 103.151 16.2037 103.415 16.3064 103.661C16.409 103.907 16.5593 104.13 16.7488 104.318C16.9366 104.507 17.1602 104.658 17.4065 104.76C17.6527 104.863 17.9169 104.915 18.1837 104.915C18.4505 104.915 18.7147 104.863 18.961 104.76C19.2073 104.658 19.4308 104.507 19.6187 104.318L20.2048 103.712V106.943C20.2048 107.478 19.9919 107.992 19.6128 108.371C19.2338 108.749 18.7197 108.962 18.1837 108.962ZM24.247 96.8477V92.8096H38.5967C38.6067 92.8833 38.6067 92.958 38.5967 93.0317C38.3544 94.2175 38.3544 95.4399 38.5967 96.6256C38.6067 96.6993 38.6067 96.774 38.5967 96.8477H24.247ZM48.5 100.886C47.4419 100.879 46.4039 100.596 45.4891 100.065C44.5743 99.5339 43.8147 98.7727 43.2856 97.8572C42.49 96.4737 42.273 94.8325 42.6817 93.2901C43.0904 91.7477 44.0918 90.4287 45.4684 89.6196C46.3822 89.0652 47.4309 88.7721 48.5 88.7721C49.5691 88.7721 50.6178 89.0652 51.5316 89.6196C52.6697 90.294 53.5557 91.3219 54.0544 92.5464C54.5531 93.7709 54.637 95.1248 54.2935 96.4014C53.95 97.6781 53.1978 98.8074 52.1518 99.617C51.1057 100.427 49.8232 100.872 48.5 100.886ZM50.5211 84.9354H50.2179C49.7126 84.8307 49.198 84.7766 48.6819 84.7739H48.3181C47.802 84.7766 47.2874 84.8307 46.7821 84.9354H46.4789V46.3718H50.5211V84.9354ZM60.6265 20.1243V16.0862H71.217L72.5105 19.5994L72.753 20.1243H60.6265ZM91.63 30.6233L84.0711 33.4096C83.8246 33.5123 83.5601 33.5652 83.293 33.5652C83.0259 33.5652 82.7614 33.5123 82.5149 33.4096C82.2721 33.2968 82.0542 33.137 81.8738 32.9395C81.6934 32.7419 81.5541 32.5105 81.4639 32.2587L79.6651 27.3726L80.4129 27.7159C80.6759 27.8495 80.9668 27.9187 81.2618 27.9178C81.7243 27.9203 82.1736 27.7643 82.5349 27.4757C82.8961 27.1872 83.1474 26.7836 83.2467 26.3324C83.346 25.8811 83.2874 25.4095 83.0807 24.9962C82.8739 24.5829 82.5315 24.253 82.1106 24.0614L77.6845 22.0424L77.5026 21.5376L75.4815 16.0458L76.2495 16.3891C76.5119 16.5242 76.8032 16.5935 77.0984 16.591C77.5609 16.5935 78.0102 16.4375 78.3714 16.1489C78.7327 15.8604 78.9839 15.4568 79.0833 15.0056C79.1826 14.5543 79.124 14.0827 78.9172 13.6694C78.7105 13.2561 78.3681 12.9262 77.9472 12.7346L73.5008 10.7156L73.0966 9.62531C73.0002 9.37371 72.9552 9.10539 72.9642 8.83615C72.9733 8.56691 73.0361 8.30219 73.1491 8.05759C73.2621 7.813 73.423 7.59347 73.6222 7.41193C73.8215 7.23039 74.0551 7.09052 74.3093 7.00056L81.8479 4.09315C82.0944 3.99041 82.3589 3.93751 82.626 3.93751C82.8931 3.93751 83.1576 3.99041 83.4041 4.09315C83.6469 4.20589 83.8648 4.36568 84.0452 4.56324C84.2256 4.7608 84.365 4.9922 84.4551 5.244L85.5667 8.23217L83.5456 12.6539C83.4335 12.895 83.3702 13.156 83.3594 13.4217C83.3485 13.6873 83.3903 13.9526 83.4823 14.2021C83.5743 14.4516 83.7148 14.6805 83.8956 14.8756C84.0764 15.0708 84.294 15.2283 84.536 15.3392C84.8024 15.4605 85.092 15.5225 85.3848 15.5209C85.7679 15.518 86.1423 15.4064 86.4644 15.1991C86.7865 14.9917 87.0429 14.6972 87.2038 14.3499L87.5676 13.6028L89.7706 19.6599L87.7091 24.1624C87.597 24.4036 87.5337 24.6645 87.5228 24.9302C87.5119 25.1959 87.5537 25.4611 87.6457 25.7106C87.7378 25.9601 87.8782 26.189 88.059 26.3841C88.2398 26.5793 88.4575 26.7368 88.6994 26.8477C88.967 26.9655 89.2558 27.0273 89.5482 27.0294C89.9348 27.0304 90.3135 26.9206 90.6395 26.713C90.9655 26.5054 91.2251 26.2088 91.3874 25.8584L91.731 25.0911L92.8426 28.0793C93.0123 28.5776 92.9805 29.1224 92.754 29.5976C92.5274 30.0728 92.1241 30.4408 91.63 30.6233Z" fill="white"/>
</svg>
