<?xml version="1.0" encoding="utf-8"?>
<!-- Generator: Adobe Illustrator 27.7.0, SVG Export Plug-In . SVG Version: 6.00 Build 0)  -->
<svg version="1.1" id="Vrstva_1" xmlns="http://www.w3.org/2000/svg" xmlns:xlink="http://www.w3.org/1999/xlink" x="0px" y="0px"
	 viewBox="0 0 345.8 367.19" style="enable-background:new 0 0 345.8 367.19;" xml:space="preserve">
<style type="text/css">
	.st0{fill:none;}
	.st1{fill:#CCCCCC;}
	.st2{fill:#FFFFFF;}
</style>
<g>
	<g>
		<path class="st0" d="M203.35,339.9c3.02-12.77,1.63-35.53-3.54-57.99c-2.74-11.91-6.45-23.15-10.71-32.51
			c-4.82-10.56-10.29-18.72-16.25-24.26c-8.34-7.74-17.46-10.11-27.09-7.06l-0.02,0.01c-6.42,2.04-13.31,12.23-17.98,26.6
			c-4.73,14.56-5.83,29.56-2.85,39.14l0.06,0.19l-0.06,0.19c-1.62,4.84-0.37,9.71,3.91,15.31c3.95,5.16,10.14,10.5,16.7,16.15
			c1.29,1.11,2.6,2.24,3.92,3.39c2.17,1.89,4.47,3.93,6.5,5.73c14,12.41,28.47,25.25,37.94,25.25c0.94,0,1.82-0.13,2.63-0.38
			C199.8,348.61,202.05,345.42,203.35,339.9z M194.86,341.34c-0.68,3.37-2.04,5.34-4.05,5.84c-0.34,0.09-0.71,0.13-1.09,0.13
			c-6.78,0-18.38-14.07-30.66-28.97c-7.69-9.32-15.63-18.96-21.94-24.36c-5.89-5.05-9.07-13.83-8.95-24.73
			c0.1-9.41,2.66-19.69,6.84-27.5c4.56-8.52,10.2-12.55,15.46-11.06c9.92,2.8,18.54,9.27,25.61,19.22
			c5.99,8.44,10.81,19.24,14.31,32.09c3.66,13.45,5,25.95,5.48,34.07C196.45,326.06,196.08,335.27,194.86,341.34z"/>
		<path class="st0" d="M129.27,269.27c-0.11,10.57,2.93,19.05,8.57,23.88c6.38,5.47,14.35,15.14,22.07,24.49
			c11.6,14.06,23.57,28.58,29.79,28.58c0.3,0,0.58-0.03,0.85-0.1c1.56-0.39,2.65-2.07,3.24-4.99c2.38-11.82,1.62-36.46-4.46-58.82
			c-9.62-35.35-26.6-47-39.15-50.55c-0.61-0.17-1.24-0.26-1.87-0.26c-4.22,0-8.59,3.83-12.32,10.78
			C131.88,249.93,129.37,260.02,129.27,269.27z"/>
		<path class="st1" d="M233.83,37.54c-1.26,0-2.51,0.02-3.76,0.05c-11.35,0.32-21.29,2.1-30.41,5.45
			c-10.21,3.75-19.15,9.37-27.32,17.17c-6.67,6.37-9.4,10.77-9.12,14.7c0.37,5.15,5.99,9.15,14.49,15.21
			c3.58,2.55,7.7,5.48,12.16,9.02c-0.77-0.82-1.43-1.64-1.97-2.47c-3.54-2.72-6.83-5.07-9.76-7.15
			c-8.33-5.94-13.84-9.86-14.18-14.66c-0.26-3.6,2.42-7.9,8.67-13.91l-0.26-0.27l0.43-0.41l0.26,0.27
			c8.04-7.62,16.82-13.12,26.84-16.8c9.04-3.32,18.91-5.09,30.17-5.41c20.99-0.59,43.04,3.93,66.38,8.71
			c12.55,2.57,25.37,5.19,38.11,6.98v-0.75c-12.68-1.78-25.45-4.39-37.94-6.95C274.63,41.81,253.78,37.54,233.83,37.54z"/>
		<path class="st1" d="M334.58,347.48v-1.07c-1.65,1.71-3.33,3.36-5.03,4.94h1.08C331.96,350.1,333.28,348.81,334.58,347.48z"/>
		<path class="st1" d="M261.07,304.96c0.95-40.24,2.14-90.33-16.55-133.13c-12.99-29.75-27.84-48.82-41.24-61.89
			c-1.23-0.94-2.41-1.82-3.53-2.65c-0.69-0.52-1.36-1.02-2.01-1.51c14.57,13.05,31.51,32.95,46.09,66.35
			c18.63,42.66,17.44,92.65,16.49,132.82c-0.43,18.03-0.8,34.06,0.73,46.42h0.73C260.27,339.06,260.65,323.02,261.07,304.96z"/>
		<path class="st1" d="M230.09,38.33c-11.26,0.32-21.14,2.08-30.17,5.41c-10.02,3.68-18.81,9.18-26.84,16.8l-0.26-0.27l-0.43,0.41
			l0.26,0.27c-6.26,6.01-8.93,10.31-8.67,13.91c0.34,4.8,5.85,8.72,14.18,14.66c2.93,2.09,6.22,4.44,9.76,7.15
			c-0.28-0.44-0.53-0.87-0.74-1.32c-3.13-2.37-6.05-4.45-8.68-6.32c-8.19-5.84-13.61-9.69-13.93-14.21
			c-0.25-3.45,2.44-7.65,8.71-13.64c8.03-7.67,16.82-13.19,26.85-16.88c8.98-3.3,18.79-5.06,29.99-5.37
			c20.92-0.59,42.94,3.92,66.27,8.7c12.57,2.58,25.42,5.2,38.2,6.99v-0.6c-12.74-1.78-25.56-4.41-38.11-6.98
			C273.13,42.26,251.09,37.74,230.09,38.33z"/>
		<path class="st1" d="M334.58,346.41v-0.86c-1.93,2.02-3.9,3.96-5.91,5.81h0.87C331.26,349.77,332.94,348.12,334.58,346.41z"/>
		<path class="st1" d="M203.28,109.93c13.4,13.07,28.25,32.15,41.24,61.89c18.69,42.81,17.51,92.89,16.55,133.13
			c-0.43,18.06-0.81,34.11,0.73,46.4h0.6c-1.53-12.24-1.15-28.3-0.72-46.39c0.95-40.3,2.14-90.46-16.6-133.39
			c-11.97-27.42-25.52-45.79-38.07-58.77C205.71,111.79,204.47,110.84,203.28,109.93z"/>
		<path class="st1" d="M334.58,348.34v-0.85c-1.3,1.33-2.62,2.62-3.96,3.87h0.87C332.54,350.37,333.57,349.37,334.58,348.34z"/>
		<path class="st1" d="M261.07,351.36c-1.54-12.36-1.16-28.39-0.73-46.42c0.95-40.17,2.14-90.16-16.49-132.82
			c-14.58-33.4-31.53-53.3-46.09-66.35c-3.24-2.44-5.92-4.55-7.87-6.63c-4.47-3.54-8.58-6.47-12.16-9.02
			c-8.5-6.06-14.12-10.06-14.49-15.21c-0.28-3.93,2.44-8.33,9.12-14.7c8.17-7.8,17.1-13.41,27.32-17.17
			c9.12-3.35,19.06-5.13,30.41-5.45c1.25-0.03,2.5-0.05,3.76-0.05c19.95,0,40.8,4.27,62.82,8.78c12.48,2.56,25.25,5.17,37.94,6.95
			v-0.6c-12.64-1.78-25.38-4.38-37.84-6.94c-23.42-4.8-45.53-9.33-66.69-8.74c-11.41,0.32-21.42,2.11-30.6,5.49
			c-10.29,3.78-19.29,9.44-27.52,17.3c-6.82,6.51-9.6,11.05-9.3,15.18c0.39,5.43,6.1,9.5,14.74,15.65
			c16.41,11.69,43.87,31.25,65.92,81.75c18.57,42.54,17.39,92.46,16.44,132.57c-0.43,18-0.8,34.02,0.74,46.43H261.07z"/>
		<path class="st1" d="M334.58,330.43v-0.87c-9.24,9.63-19.59,16.95-30.85,21.8h1.48C315.89,346.56,325.74,339.54,334.58,330.43z"/>
		<path class="st1" d="M249.52,56.51c-2.89,0-5.75,0.1-8.58,0.31c-9.58,0.72-17.88,2.69-25.38,6.03
			c-8.4,3.74-15.61,9.09-22.06,16.36c-4.9,5.52-6.92,9.57-6.56,13.13c0.5,4.96,5.55,8.74,13.18,14.45
			c13.8,10.33,36.9,27.61,55.34,70.45c16,37.18,15.28,80.46,14.69,115.23c-0.46,27.54-0.83,49.75,7.49,58.88h0.82
			c-8.55-8.65-8.18-31.03-7.71-58.86c0.59-34.84,1.32-78.19-14.74-115.48c-18.51-42.99-41.69-60.33-55.53-70.7
			c-7.51-5.62-12.47-9.33-12.95-14.03c-0.34-3.33,1.58-7.18,6.21-12.45l-0.22-0.2l0.4-0.45l0.22,0.2
			c26.55-29.69,64.07-23.38,103.79-16.7c12.05,2.03,24.42,4.09,36.66,5.16v-0.6c-12.21-1.07-24.54-3.13-36.56-5.15
			C281.03,59.24,264.83,56.51,249.52,56.51z"/>
		<path class="st1" d="M334.58,331.29v-0.86c-8.85,9.11-18.69,16.13-29.37,20.93h1.44C316.77,346.63,326.13,339.9,334.58,331.29z"/>
		<path class="st1" d="M187.91,96.67c0.53,0.83,1.19,1.65,1.97,2.47c1.95,2.07,4.63,4.19,7.87,6.63c0.65,0.49,1.31,0.99,2.01,1.51
			c1.11,0.83,2.3,1.72,3.53,2.65c1.19,0.91,2.43,1.86,3.72,2.88c13.75,10.9,32.46,28.79,47.91,64.67
			c15.95,37.06,15.23,80.27,14.64,114.99c-0.46,27.26-0.83,49.34,7.29,58.88h0.8c-8.32-9.12-7.96-31.34-7.49-58.88
			c0.59-34.78,1.31-78.06-14.69-115.23c-18.44-42.85-41.54-60.13-55.34-70.45c-7.63-5.71-12.68-9.48-13.18-14.45
			c-0.36-3.56,1.66-7.61,6.56-13.13c6.45-7.27,13.67-12.62,22.06-16.36c7.51-3.34,15.81-5.31,25.38-6.03
			c2.83-0.21,5.69-0.31,8.58-0.31c15.31,0,31.51,2.73,48.51,5.58c12.01,2.02,24.35,4.08,36.56,5.15v-0.6
			c-12.17-1.07-24.47-3.12-36.46-5.14c-20.24-3.4-39.35-6.62-57.23-5.28c-9.64,0.72-18.01,2.71-25.58,6.08
			c-8.48,3.77-15.76,9.17-22.27,16.51c-5.02,5.66-7.08,9.85-6.7,13.59c0.1,1.03,0.39,2,0.84,2.94
			C187.38,95.8,187.63,96.24,187.91,96.67z"/>
		<path class="st1" d="M194.13,79.39l-0.22-0.2l-0.4,0.45l0.22,0.2c-4.63,5.27-6.55,9.12-6.21,12.45c0.48,4.7,5.44,8.41,12.95,14.03
			c13.85,10.36,37.03,27.7,55.53,70.7c16.05,37.3,15.33,80.65,14.74,115.48c-0.47,27.84-0.84,50.21,7.71,58.86h0.87
			c-8.83-8.12-8.46-30.66-7.98-58.86c0.59-34.89,1.32-78.31-14.79-115.72c-10.89-25.31-23.4-41.75-34.68-53.12
			c-4.21-3.38-7.51-6.05-9.57-8.82c-4.23-3.58-8.12-6.49-11.47-8.99c-7.38-5.52-12.26-9.17-12.71-13.61
			c-0.33-3.2,1.6-6.97,6.26-12.22c26.35-29.7,63.79-23.4,103.44-16.73c12.07,2.03,24.47,4.1,36.76,5.17v-0.6
			c-12.25-1.07-24.62-3.14-36.66-5.16C258.21,56.01,220.69,49.7,194.13,79.39z"/>
		<path class="st1" d="M334.58,329.56v-0.86c-9.43,9.93-20.02,17.43-31.57,22.32c-0.28,0.12-0.55,0.22-0.83,0.34h1.54
			C314.99,346.51,325.34,339.19,334.58,329.56z"/>
		<path class="st1" d="M265.82,74.75c-20.29,0-38.29,4.86-51.19,23.47c-4.05,5.84-5.03,9.98-3.3,13.85
			c1.64,3.67,5.61,6.86,11.11,11.26c11.87,9.52,29.81,23.91,44.63,59.04c13.37,31.69,13.1,68.25,12.88,97.62
			c-0.19,25.78-0.35,46.15,9.01,52.43c2.03,1.36,4.4,2.02,7.26,2.02c3.49,0,7.55-0.99,12.42-3.02c9.48-3.92,18.17-9.97,25.95-18.04
			v-0.67c-7.82,8.19-16.57,14.33-26.12,18.28c-4.77,1.99-8.83,2.99-12.23,2.99c-2.75,0-5.08-0.65-7.01-1.95
			c-9.16-6.14-9-26.4-8.81-52.04c0.22-29.42,0.5-66.03-12.91-97.81c-14.87-35.24-32.87-49.67-44.77-59.22
			c-5.42-4.35-9.34-7.49-10.94-11.06c-1.65-3.68-0.74-7.64,3.06-13.19l-0.19-0.13l0.34-0.49l0.19,0.13
			c19.65-28.08,51.25-24.26,84.7-20.22c11.38,1.37,23.14,2.79,34.7,2.99v-0.46c-11.54-0.2-23.29-1.61-34.65-2.99
			C288.19,76.14,276.68,74.75,265.82,74.75z"/>
		<path class="st1" d="M221.87,123.65c0.06,0.05,0.12,0.1,0.19,0.15c11.82,9.48,29.69,23.82,44.46,58.81
			c13.33,31.57,13.05,68.06,12.83,97.38c-0.2,25.96-0.35,46.47,9.28,52.93c2.1,1.41,4.66,2.13,7.59,2.13c3.57,0,7.71-1,12.65-3.07
			c9.38-3.88,17.99-9.82,25.72-17.72v-0.87c-7.78,8.06-16.47,14.11-25.95,18.04c-4.87,2.04-8.93,3.02-12.42,3.02
			c-2.86,0-5.23-0.66-7.26-2.02c-9.36-6.28-9.21-26.65-9.01-52.43c0.22-29.38,0.5-65.93-12.88-97.62
			c-14.83-35.13-32.77-49.52-44.63-59.04c-5.49-4.41-9.46-7.59-11.11-11.26c-1.73-3.87-0.74-8.01,3.3-13.85
			c12.89-18.61,30.89-23.47,51.19-23.47c10.86,0,22.38,1.39,34.12,2.81c11.36,1.37,23.11,2.79,34.65,2.99v-0.6
			c-11.51-0.2-23.23-1.61-34.58-2.98c-33.88-4.09-65.87-7.96-85.87,20.92c-4.18,6.03-5.18,10.35-3.36,14.44
			c0.39,0.86,0.9,1.69,1.52,2.51C214.37,117.6,217.66,120.28,221.87,123.65z"/>
		<path class="st1" d="M215.18,98.24l-0.19-0.13l-0.34,0.49l0.19,0.13c-3.79,5.55-4.71,9.51-3.06,13.19
			c1.6,3.57,5.52,6.71,10.94,11.06c11.91,9.55,29.9,23.98,44.77,59.22c13.41,31.77,13.13,68.39,12.91,97.81
			c-0.19,25.64-0.35,45.9,8.81,52.04c1.93,1.3,4.26,1.95,7.01,1.95c3.41,0,7.46-1,12.23-2.99c9.55-3.95,18.31-10.09,26.12-18.28
			v-0.87c-7.87,8.36-16.7,14.6-26.35,18.6c-8.42,3.52-14.53,3.88-18.68,1.1c-8.89-5.96-8.74-26.08-8.55-51.55
			c0.22-29.47,0.5-66.15-12.96-98.04c-14.93-35.38-33-49.87-44.95-59.46c-5.36-4.3-9.23-7.4-10.77-10.84
			c-1.58-3.52-0.63-7.36,3.17-12.85c19.43-28.05,50.94-24.24,84.31-20.21c11.39,1.38,23.17,2.8,34.77,2.99V81
			c-11.57-0.2-23.33-1.62-34.7-2.99C266.43,73.98,234.83,70.16,215.18,98.24z"/>
		<path class="st1" d="M302.32,92.41l-0.05,0c-6.6-0.39-13.03-0.78-19.18-0.78c-7.01,0-13.66,0.5-19.79,2.05
			c-12.95,3.27-21.69,10.75-27.52,23.55c-4.71,10.35,0.36,14.87,8.76,22.36c9.09,8.1,22.83,20.34,34.14,47.93
			c10.73,26.17,10.89,55.97,11.02,79.9c0.12,21.57,0.21,38.61,8.1,43.9c1.73,1.16,3.74,1.72,6.16,1.72c2.75,0,6.06-0.77,9.83-2.29
			c7.63-3.08,14.57-7.91,20.79-14.42v-0.47c-6,6.34-12.92,11.36-20.91,14.59c-3.75,1.51-6.97,2.27-9.7,2.27
			c-2.34,0-4.33-0.56-5.99-1.67c-7.75-5.19-7.84-22.16-7.96-43.64c-0.13-23.97-0.29-53.8-11.05-80.03
			c-11.34-27.66-25.11-39.93-34.22-48.05c-8.77-7.82-13.21-11.78-8.8-21.71l-0.15-0.07l0.25-0.54l0.15,0.07
			c5.78-12.53,14.43-19.88,27.18-23.1c11.46-2.89,24.78-2.1,38.87-1.26l0.04,0c7.52,0.45,15.29,0.91,23.01,0.81
			c3.26-0.04,6.36,0.17,9.29,0.62v-0.33c-2.93-0.45-6.03-0.66-9.29-0.61C317.59,93.32,309.83,92.86,302.32,92.41z"/>
		<path class="st1" d="M302.29,92.73l-0.04,0c-14.09-0.84-27.41-1.63-38.87,1.26c-12.75,3.22-21.4,10.56-27.18,23.1l-0.15-0.07
			l-0.25,0.54l0.15,0.07c-4.41,9.93,0.03,13.89,8.8,21.71c9.11,8.12,22.89,20.39,34.22,48.05c10.75,26.23,10.92,56.06,11.05,80.03
			c0.12,21.48,0.21,38.44,7.96,43.64c1.66,1.11,3.64,1.67,5.99,1.67c2.73,0,5.95-0.76,9.7-2.27c8-3.23,14.92-8.25,20.91-14.59v-0.86
			c-6.04,6.5-13.03,11.63-21.14,14.9c-6.77,2.73-11.72,2.95-15.13,0.66c-7.48-5.02-7.57-21.84-7.69-43.14
			c-0.13-24.02-0.3-53.91-11.09-80.25c-11.39-27.78-25.22-40.11-34.38-48.27c-8.63-7.69-12.97-11.55-8.53-21.29
			c5.7-12.52,14.25-19.84,26.91-23.04c11.37-2.87,24.64-2.08,38.69-1.24l0.04,0c7.53,0.45,15.32,0.91,23.05,0.81
			c3.26-0.04,6.35,0.17,9.28,0.62v-0.6c-2.93-0.45-6.03-0.66-9.29-0.62C317.58,93.64,309.81,93.18,302.29,92.73z"/>
		<path class="st1" d="M302.35,91.81l-0.05,0c-14.17-0.84-27.55-1.64-39.15,1.29c-13.14,3.32-22.01,10.9-27.92,23.88
			c-4.9,10.75,0.3,15.38,8.91,23.05c9.05,8.06,22.73,20.25,33.99,47.71c10.69,26.07,10.85,55.79,10.98,79.68
			c0.12,21.75,0.21,38.93,8.36,44.39c1.8,1.21,3.99,1.82,6.49,1.82c2.87,0,6.16-0.77,10.05-2.34c7.54-3.04,14.4-7.76,20.57-14.11
			v-0.86c-6.22,6.52-13.16,11.34-20.79,14.42c-3.77,1.52-7.07,2.29-9.83,2.29c-2.42,0-4.43-0.56-6.16-1.72
			c-7.89-5.29-7.98-22.33-8.1-43.9c-0.13-23.94-0.29-53.73-11.02-79.9c-11.31-27.59-25.05-39.83-34.14-47.93
			c-8.4-7.49-13.47-12.01-8.76-22.36c5.83-12.8,14.57-20.28,27.52-23.55c6.13-1.55,12.78-2.05,19.79-2.05
			c6.15,0,12.58,0.38,19.18,0.78l0.05,0c7.51,0.45,15.27,0.91,22.98,0.81c3.26-0.04,6.36,0.17,9.29,0.61v-0.6
			c-2.94-0.44-6.04-0.65-9.3-0.61C317.61,92.72,309.85,92.26,302.35,91.81z"/>
		<path class="st1" d="M315.9,105.89c-4.1,0.22-8.41,0.28-12.58,0.33c-15.53,0.2-31.58,0.4-40.06,9.26
			c-4.53,4.74-6.6,11.5-6.32,20.68l0,0.06l-0.02,0.05c-2.82,7.8,1.62,12.28,8.35,19.06c7.27,7.33,17.22,17.36,25.02,37.31
			c8.06,20.61,8.66,43.63,9.14,62.12c0.45,17.43,0.81,31.19,7.23,35.48c1.42,0.95,3.06,1.41,5.02,1.41c2.06,0,4.5-0.54,7.26-1.6
			c5.72-2.2,10.95-5.79,15.64-10.7v-0.27c-4.7,4.96-9.96,8.58-15.71,10.8c-2.74,1.06-5.13,1.58-7.19,1.58
			c-1.92,0-3.55-0.46-4.92-1.38c-6.34-4.23-6.7-17.96-7.15-35.33c-0.48-18.51-1.08-41.54-9.15-62.19
			c-7.81-19.99-17.78-30.04-25.06-37.37c-6.93-6.99-11.12-11.21-8.28-18.94l0.01-0.02l0-0.02c-0.29-9.16,1.76-15.91,6.27-20.62
			c8.42-8.8,24.44-9.01,39.92-9.2c4.17-0.05,8.48-0.11,12.59-0.33c1.07-0.06,2.15-0.09,3.18-0.09c5.77,0,10.94,0.9,15.49,2.67v-0.2
			c-4.56-1.76-9.73-2.66-15.5-2.66C318.04,105.8,316.98,105.83,315.9,105.89z"/>
		<path class="st1" d="M315.91,106.07c-4.11,0.22-8.42,0.28-12.59,0.33c-15.49,0.2-31.5,0.4-39.92,9.2
			c-4.51,4.71-6.56,11.46-6.27,20.62l0,0.02l-0.01,0.02c-2.84,7.74,1.35,11.96,8.28,18.94c7.28,7.34,17.25,17.39,25.06,37.37
			c8.07,20.64,8.67,43.68,9.15,62.19c0.45,17.37,0.81,31.1,7.15,35.33c1.37,0.92,3.01,1.38,4.92,1.38c2.06,0,4.44-0.53,7.19-1.58
			c5.75-2.21,11-5.84,15.71-10.8v-0.88c-4.75,5.13-10.08,8.87-15.92,11.12c-5.11,1.97-8.89,2.06-11.57,0.27
			c-6.09-4.06-6.44-17.65-6.89-34.85c-0.48-18.55-1.08-41.65-9.19-62.39c-7.86-20.1-17.88-30.2-25.19-37.58
			c-6.77-6.82-10.85-10.94-8.14-18.32l0.05-0.13l0-0.13c-0.28-8.99,1.71-15.6,6.11-20.19c8.25-8.62,24.13-8.82,39.5-9.02
			c4.18-0.05,8.49-0.11,12.61-0.33c1.06-0.06,2.12-0.09,3.15-0.09c5.78,0,10.96,0.91,15.49,2.71v-0.64
			c-4.55-1.77-9.72-2.67-15.49-2.67C318.06,105.98,316.99,106.01,315.91,106.07z"/>
		<path class="st1" d="M264.85,155.75c7.23,7.29,17.13,17.27,24.89,37.11c8.02,20.52,8.62,43.48,9.1,61.92
			c0.46,17.6,0.82,31.5,7.5,35.96c1.5,1,3.3,1.51,5.35,1.51c2.17,0,4.61-0.54,7.47-1.64c5.63-2.17,10.79-5.66,15.42-10.4v-0.86
			c-4.68,4.91-9.92,8.5-15.64,10.7c-2.75,1.06-5.19,1.6-7.26,1.6c-1.96,0-3.6-0.46-5.02-1.41c-6.42-4.29-6.78-18.05-7.23-35.48
			c-0.48-18.49-1.08-41.51-9.14-62.12c-7.8-19.95-17.75-29.99-25.02-37.31c-6.73-6.78-11.17-11.26-8.35-19.06l0.02-0.05l0-0.06
			c-0.28-9.17,1.79-15.94,6.32-20.68c8.47-8.86,24.53-9.06,40.06-9.26c4.17-0.05,8.48-0.11,12.58-0.33
			c1.08-0.06,2.14-0.09,3.19-0.09c5.77,0,10.94,0.89,15.5,2.66v-0.64c-5.41-2.05-11.66-2.9-18.71-2.52
			c-4.09,0.22-8.39,0.28-12.56,0.33c-15.65,0.2-31.83,0.4-40.48,9.44c-4.64,4.85-6.76,11.74-6.49,21.05
			C253.43,144.24,257.97,148.82,264.85,155.75z"/>
		<path class="st1" d="M306.52,118.56c-0.59,0.07-1.17,0.14-1.76,0.2c-9.83,1.13-19.99,2.29-25.07,9.5
			c-3.98,5.65-4.49,14.45-1.57,26.9c1.23,5.26,4.27,9.32,8.12,14.47c4.79,6.41,10.76,14.38,15.66,28.14
			c5.31,14.91,6.31,31.05,7.11,44.01c0.84,13.46,1.5,24.09,6.5,27.41c1.11,0.74,2.39,1.1,3.89,1.1c1.37,0,2.94-0.31,4.68-0.92
			c4.06-1.43,7.52-3.85,10.48-6.89v-0.1c-3.05,3.16-6.53,5.55-10.5,6.95c-1.74,0.61-3.29,0.92-4.67,0.92
			c-1.49,0-2.77-0.36-3.87-1.09c-4.99-3.31-5.65-13.93-6.48-27.37c-0.8-12.97-1.81-29.1-7.12-44.02
			c-4.9-13.77-10.87-21.74-15.67-28.15c-3.85-5.14-6.89-9.2-8.12-14.45c-2.92-12.44-2.41-21.23,1.56-26.87
			c5.07-7.2,15.22-8.36,25.04-9.49c0.59-0.07,1.17-0.13,1.76-0.2c12.02-1.4,21.28,1.05,28.06,7.47V126
			c-5.55-5.23-12.76-7.83-21.77-7.83C310.8,118.17,308.71,118.3,306.52,118.56z"/>
		<path class="st1" d="M306.52,118.6c-0.59,0.07-1.17,0.14-1.76,0.2c-9.82,1.12-19.97,2.29-25.04,9.49
			c-3.97,5.64-4.48,14.43-1.56,26.87c1.23,5.25,4.27,9.31,8.12,14.45c4.8,6.41,10.77,14.38,15.67,28.15
			c5.31,14.92,6.31,31.06,7.12,44.02c0.83,13.45,1.49,24.07,6.48,27.37c1.1,0.73,2.38,1.09,3.87,1.09c1.37,0,2.92-0.31,4.67-0.92
			c3.96-1.4,7.45-3.79,10.5-6.95v-0.85c-3.09,3.31-6.64,5.81-10.7,7.24c-3.45,1.21-6.07,1.18-8.01-0.1
			c-4.74-3.14-5.39-13.63-6.22-26.91c-0.81-13-1.81-29.19-7.15-44.19c-4.93-13.86-10.93-21.87-15.75-28.31
			c-3.8-5.08-6.81-9.1-8.01-14.23c-2.88-12.26-2.4-20.9,1.47-26.39c4.91-6.98,14.93-8.13,24.62-9.24c0.59-0.07,1.17-0.13,1.76-0.2
			c12.06-1.41,21.3,1.12,27.99,7.7v-0.83C327.8,119.65,318.54,117.2,306.52,118.6z"/>
		<path class="st1" d="M306.45,117.96c-0.59,0.07-1.17,0.14-1.76,0.2c-9.96,1.14-20.26,2.32-25.49,9.75
			c-4.08,5.8-4.62,14.75-1.66,27.38c1.26,5.38,4.34,9.49,8.23,14.69c4.77,6.37,10.71,14.31,15.58,27.99
			c5.28,14.83,6.28,30.92,7.08,43.85c0.85,13.62,1.51,24.38,6.77,27.87c1.2,0.79,2.62,1.2,4.22,1.2c1.45,0,3.05-0.31,4.88-0.96
			c3.96-1.39,7.36-3.71,10.29-6.61v-0.84c-2.96,3.05-6.43,5.46-10.48,6.89c-1.74,0.61-3.32,0.92-4.68,0.92
			c-1.5,0-2.78-0.36-3.89-1.1c-5.01-3.32-5.67-13.95-6.5-27.41c-0.8-12.96-1.81-29.1-7.11-44.01c-4.9-13.77-10.87-21.74-15.66-28.14
			c-3.85-5.14-6.89-9.2-8.12-14.47c-2.92-12.45-2.41-21.25,1.57-26.9c5.08-7.22,15.24-8.38,25.07-9.5c0.59-0.07,1.17-0.13,1.76-0.2
			c2.19-0.26,4.29-0.38,6.29-0.38c9.01,0,16.22,2.59,21.77,7.83v-0.81C327.71,118.95,318.42,116.56,306.45,117.96z"/>
		<path class="st1" d="M285.19,141.41c-3.31,10.71,5.6,23.89,13.65,33.05c13.24,15.08,16.15,36.33,18.28,51.84
			c1.5,10.95,2.68,19.61,6.85,22.35c0.95,0.62,1.98,0.93,3.17,0.93c0.71,0,1.48-0.11,2.28-0.34c1.86-0.51,3.58-1.46,5.16-2.8v-1.49
			c-1.66,1.59-3.48,2.69-5.46,3.23c-1.84,0.51-3.33,0.36-4.56-0.45c-3.75-2.47-4.9-10.91-6.37-21.59
			c-2.14-15.65-5.08-37.09-18.54-52.42c-7.87-8.96-16.58-21.78-13.42-32c1.78-5.76,6.86-8.95,11.03-10.02
			c3.85-0.99,7.43-1.49,10.64-1.49c15.2,0,21.89,10.96,26.67,25.04v-3.29c-1.95-5.22-4.25-9.91-7.29-13.7
			c-3.32-4.14-7.2-6.8-11.87-8.15c-5.13-1.47-11.06-1.33-18.14,0.45l0,0l-0.27,0.07c-0.01,0-0.01,0-0.02,0.01l-0.29,0.07l0,0
			C292.31,131.94,287.06,135.35,285.19,141.41z"/>
		<path class="st1" d="M254.11,280.49c-2.34-20.72-7.27-44.2-14.26-67.89c-6.95-23.57-15.61-46.22-25.03-65.5
			c-9.99-20.46-20.61-36.54-30.71-46.5c-10.44-10.3-20.27-14.21-29.2-11.61c-14.06,4.09-25.34,24.12-33.53,59.54l0.36,0.08
			l-0.13,0.58l-0.36-0.08c-0.56,2.44-1.07,4.73-1.52,6.76c-6.81,30.5-8.64,38.7-61.53,80.18c-20.18,15.83-29.06,28.49-27.93,39.84
			c1.66,16.68,24.89,28.39,54.3,43.21c2.79,1.41,5.64,2.84,8.53,4.31c7.73,3.93,16.12,8.64,25,13.63
			c8.32,4.67,17.17,9.63,26.16,14.32h1.6c-9.41-4.87-18.68-10.08-27.39-14.96c-8.89-4.99-17.29-9.71-25.03-13.64
			c-2.89-1.47-5.74-2.9-8.53-4.31c-29.21-14.72-52.28-26.35-53.9-42.62c-0.54-5.39,1.29-11.05,5.57-17.3
			c4.56-6.65,11.78-13.8,22.08-21.88c53.1-41.64,54.94-49.89,61.8-80.6c0.5-2.23,1.01-4.54,1.59-7.05
			c4.19-18.22,9.26-32.52,15.06-42.5c5.37-9.23,11.43-14.88,18.01-16.79c1.71-0.5,3.47-0.75,5.25-0.75c7.22,0,15.04,4.1,23.22,12.17
			c10.04,9.9,20.61,25.91,30.56,46.3c9.4,19.24,18.04,41.85,24.98,65.39c6.98,23.66,11.9,47.09,14.23,67.77
			c2.49,22.08,1.93,40.55-1.63,53.41c-1.84,6.65-4.2,12.46-7.03,17.37h0.85c2.77-4.89,5.08-10.63,6.89-17.18
			C256.04,321.22,256.61,302.66,254.11,280.49z"/>
		<path class="st1" d="M253.04,334.34c3.6-13.03,4.18-31.67,1.67-53.92c-2.34-20.75-7.28-44.26-14.28-67.99
			c-6.96-23.6-15.63-46.29-25.06-65.6c-10.02-20.52-20.68-36.65-30.83-46.66c-10.61-10.47-20.63-14.42-29.79-11.76
			c-14.29,4.16-25.71,24.33-33.94,59.98l-0.07,0.29c-0.01,0.04-0.02,0.08-0.03,0.13l-0.04,0.16c-0.56,2.44-1.07,4.73-1.52,6.77
			c-6.77,30.34-8.59,38.49-61.32,79.84c-20.36,15.97-29.31,28.79-28.16,40.37c1.69,17.01,25.05,28.78,54.62,43.68
			c2.79,1.41,5.64,2.84,8.53,4.31c7.72,3.93,16.1,8.63,24.98,13.62c8.01,4.5,16.51,9.26,25.15,13.8h1.29
			c-8.99-4.69-17.83-9.65-26.16-14.32c-8.88-4.98-17.26-9.69-25-13.63c-2.89-1.47-5.73-2.9-8.53-4.31
			c-29.41-14.82-52.64-26.53-54.3-43.21c-1.13-11.35,7.75-24.01,27.93-39.84c52.89-41.48,54.72-49.68,61.53-80.18
			c0.45-2.03,0.96-4.32,1.52-6.76l0.36,0.08l0.13-0.58l-0.36-0.08c8.18-35.42,19.46-55.45,33.53-59.54
			c8.94-2.6,18.76,1.31,29.2,11.61c10.1,9.96,20.71,26.04,30.71,46.5c9.42,19.28,18.07,41.93,25.03,65.5
			c6.99,23.7,11.92,47.17,14.26,67.89c2.5,22.17,1.93,40.74-1.65,53.69c-1.81,6.55-4.13,12.28-6.89,17.18h0.69
			C248.97,346.48,251.25,340.8,253.04,334.34z"/>
		<path class="st1" d="M253.38,280.57c-2.33-20.68-7.25-44.11-14.23-67.77c-6.94-23.53-15.58-46.15-24.98-65.39
			c-9.96-20.38-20.53-36.39-30.56-46.3c-8.19-8.08-16-12.17-23.22-12.17c-1.78,0-3.55,0.25-5.25,0.75
			c-6.58,1.92-12.65,7.56-18.01,16.79c-5.81,9.98-10.87,24.28-15.06,42.5c-0.58,2.5-1.09,4.81-1.59,7.05
			c-6.86,30.71-8.7,38.96-61.8,80.6c-10.3,8.08-17.52,15.23-22.08,21.88c-4.29,6.25-6.11,11.91-5.57,17.3
			c1.62,16.28,24.69,27.9,53.9,42.62c2.8,1.41,5.64,2.84,8.53,4.31c7.74,3.94,16.13,8.65,25.03,13.64
			c8.7,4.89,17.98,10.09,27.39,14.96h1.3c-9.75-5.02-19.39-10.42-28.41-15.49c-8.9-4.99-17.3-9.71-25.05-13.65
			c-2.89-1.47-5.74-2.91-8.53-4.31c-29.04-14.64-51.98-26.2-53.57-42.15c-0.52-5.25,1.27-10.78,5.47-16.91
			c4.52-6.6,11.7-13.71,21.95-21.75c53.27-41.77,55.12-50.07,62.01-80.94c0.5-2.23,1.01-4.54,1.59-7.04
			c4.18-18.16,9.22-32.41,15-42.33c5.29-9.09,11.23-14.65,17.66-16.52c1.65-0.48,3.36-0.72,5.09-0.72c7.06,0,14.73,4.04,22.8,12
			c9.99,9.86,20.52,25.81,30.45,46.14c9.39,19.21,18.01,41.79,24.95,65.29c6.97,23.62,11.88,47.02,14.21,67.66
			c2.48,22,1.92,40.39-1.61,53.19c-1.86,6.74-4.26,12.6-7.14,17.53h0.69c2.83-4.92,5.19-10.72,7.03-17.37
			C255.3,321.12,255.87,302.65,253.38,280.57z"/>
		<path class="st1" d="M243.53,279.48c-2.87-21.75-8.65-46.54-16.28-69.8c-7.92-24.15-17.34-45.51-27.26-61.79
			C189.11,130,177.94,119,167.7,116.06c-1.93-0.55-3.83-0.83-5.7-0.83c-5.83,0-11.34,2.69-16.45,8.05
			c-7.31,7.66-13.83,20.87-19.38,39.25c-0.85,2.82-1.65,5.56-2.35,7.98c-7.23,24.9-11.59,39.93-52.41,75.13
			c-15.83,13.65-22.69,24.55-21.6,34.31c1.63,14.56,21.04,24.88,45.62,37.96c2.72,1.45,5.8,3.08,8.84,4.72
			c6.67,3.59,13.83,7.81,21.42,12.26c9.2,5.41,19.12,11.23,29.08,16.46h1.29c-10.29-5.35-20.55-11.38-30.05-16.96
			c-7.61-4.47-14.78-8.69-21.46-12.29c-3.02-1.63-5.98-3.2-8.84-4.72C71.29,304.39,52,294.13,50.41,279.89
			c-0.52-4.66,0.84-9.55,4.17-14.94c3.52-5.72,9.16-11.88,17.23-18.84c40.96-35.32,45.34-50.41,52.6-75.42l0.01-0.03
			c0.71-2.46,1.45-4.99,2.25-7.66l-0.29-0.09l0.17-0.57l0.29,0.09c5.5-18.14,11.95-31.17,19.15-38.73
			c6.58-6.9,13.83-9.28,21.55-7.06c10.09,2.9,21.14,13.81,31.95,31.57c9.89,16.24,19.29,37.56,27.2,61.66
			c7.62,23.23,13.39,47.98,16.25,69.69c3.08,23.31,2.82,42.55-0.75,55.64c-1.72,6.29-3.98,11.7-6.72,16.16h0.67
			c2.71-4.47,4.92-9.8,6.62-16.01C246.35,322.19,246.62,302.87,243.53,279.48z"/>
		<path class="st1" d="M242.94,279.55c-2.86-21.71-8.64-46.46-16.25-69.69c-7.9-24.1-17.31-45.43-27.2-61.66
			c-10.81-17.75-21.86-28.67-31.95-31.57c-7.72-2.22-14.97,0.16-21.55,7.06c-7.21,7.56-13.65,20.59-19.15,38.73l-0.29-0.09
			l-0.17,0.57l0.29,0.09c-0.8,2.67-1.54,5.2-2.25,7.66l-0.01,0.03c-7.26,25.01-11.64,40.1-52.6,75.42
			c-8.07,6.96-13.7,13.12-17.23,18.84c-3.32,5.4-4.69,10.29-4.17,14.94c1.59,14.24,20.88,24.5,45.31,37.49
			c2.86,1.52,5.82,3.1,8.84,4.72c6.67,3.6,13.84,7.81,21.46,12.29c9.5,5.58,19.76,11.61,30.05,16.96h1.29
			c-10.62-5.48-21.25-11.72-31.07-17.49c-7.6-4.46-14.77-8.68-21.45-12.28c-3.02-1.63-5.98-3.2-8.84-4.72
			c-24.27-12.91-43.44-23.1-45-37.03c-0.51-4.52,0.83-9.28,4.08-14.56c3.49-5.67,9.08-11.78,17.11-18.7
			c41.09-35.44,45.49-50.59,52.78-75.71l0.01-0.03c0.74-2.54,1.5-5.17,2.34-7.94l0.02-0.07c5.49-18.16,11.91-31.18,19.08-38.7
			c6.41-6.73,13.46-9.05,20.95-6.89c9.94,2.86,20.87,13.68,31.61,31.3c9.87,16.2,19.25,37.48,27.14,61.54
			c7.6,23.19,13.37,47.9,16.23,69.58c3.07,23.23,2.81,42.39-0.74,55.4c-1.75,6.39-4.05,11.85-6.85,16.32h0.71
			c2.74-4.46,5-9.87,6.72-16.16C245.75,322.11,246.01,302.87,242.94,279.55z"/>
		<path class="st1" d="M244.12,279.4c-2.87-21.78-8.66-46.61-16.3-69.91c-7.93-24.19-17.38-45.6-27.31-61.91
			c-10.97-18.01-22.26-29.11-32.65-32.09c-8.19-2.35-15.84,0.13-22.75,7.38c-7.37,7.73-13.94,21.02-19.52,39.49
			c-0.85,2.83-1.65,5.57-2.35,7.99c-7.19,24.79-11.54,39.76-52.23,74.85c-15.99,13.79-22.91,24.85-21.8,34.83
			c1.66,14.87,21.2,25.26,45.94,38.42c2.72,1.45,5.8,3.08,8.83,4.72c6.66,3.59,13.82,7.8,21.42,12.27
			c8.89,5.22,18.45,10.84,28.07,15.93h1.29c-9.96-5.23-19.88-11.05-29.08-16.46c-7.59-4.46-14.75-8.67-21.42-12.26
			c-3.04-1.64-6.12-3.28-8.84-4.72c-24.58-13.07-43.99-23.4-45.62-37.96c-1.09-9.76,5.77-20.66,21.6-34.31
			c40.82-35.2,45.19-50.23,52.41-75.13c0.7-2.42,1.5-5.16,2.35-7.98c5.55-18.38,12.07-31.59,19.38-39.25
			c5.11-5.36,10.62-8.05,16.45-8.05c1.87,0,3.77,0.28,5.7,0.83C177.94,119,189.11,130,200,147.89
			c9.91,16.28,19.34,37.64,27.26,61.79c7.63,23.26,13.41,48.05,16.28,69.8c3.09,23.39,2.82,42.71-0.77,55.88
			c-1.7,6.21-3.92,11.54-6.62,16.01h0.71c2.65-4.45,4.82-9.73,6.49-15.85C246.95,322.27,247.22,302.87,244.12,279.4z"/>
		<path class="st1" d="M234.15,287.88c-2.26-19.36-6.8-40.45-13.13-60.99c-6.54-21.23-14.48-40.07-22.94-54.49
			c-9.48-16.15-19.05-25.95-28.45-29.14c-6.89-2.34-13.55-0.99-19.8,4.02c-6.71,5.37-13,15.03-18.7,28.7l0.21,0.09l-0.23,0.55
			l-0.21-0.09c-1.79,4.34-3.39,8.72-4.94,12.95c-6.98,19.06-14.19,38.77-41.34,65.77c-11.5,11.44-16.34,20.57-15.25,28.76
			c1.67,12.54,17.48,21.54,37.49,32.93c2.77,1.58,5.64,3.21,8.59,4.92c5.62,3.26,11.58,6.97,17.88,10.9
			c10.18,6.34,20.95,13.05,31.54,18.6h1c-10.83-5.62-21.87-12.5-32.3-18.99c-6.31-3.93-12.27-7.64-17.89-10.91
			c-2.98-1.73-5.96-3.42-8.6-4.92c-19.9-11.33-35.62-20.28-37.27-32.59c-1.07-8.03,3.73-17.04,15.12-28.37
			c27.22-27.07,34.45-46.83,41.45-65.93c1.58-4.32,3.22-8.79,5.05-13.22c5.7-13.75,11.99-23.43,18.68-28.79
			c4.16-3.33,8.55-5.02,13.04-5.02c2.08,0,4.2,0.36,6.32,1.08c9.16,3.11,18.91,13.12,28.2,28.94c8.45,14.39,16.37,33.2,22.9,54.4
			c6.23,20.22,10.89,41.85,13.11,60.91c2.36,20.25,1.99,37.01-1.07,48.47c-1.63,6.03-3.77,10.99-6.44,14.95h0.5
			c2.66-3.99,4.8-8.94,6.39-14.83C236.15,325.01,236.52,308.19,234.15,287.88z"/>
		<path class="st1" d="M84.2,254.82c-11.64,11.58-16.54,20.88-15.42,29.26c1.71,12.84,17.63,21.9,37.79,33.37
			c2.77,1.58,5.64,3.21,8.59,4.92c5.61,3.25,11.56,6.96,17.88,10.89c9.87,6.15,20.29,12.64,30.57,18.09h1.27
			c-10.59-5.55-21.36-12.26-31.54-18.6c-6.31-3.93-12.26-7.64-17.88-10.9c-2.95-1.71-5.82-3.34-8.59-4.92
			C86.85,305.54,71.04,296.55,69.36,284c-1.09-8.18,3.76-17.32,15.25-28.76c27.15-27,34.36-46.71,41.34-65.77
			c1.55-4.24,3.15-8.61,4.94-12.95l0.21,0.09l0.23-0.55l-0.21-0.09c5.7-13.67,11.99-23.33,18.7-28.7c6.25-5,12.91-6.36,19.8-4.02
			c9.4,3.19,18.97,13,28.45,29.14c8.47,14.42,16.4,33.26,22.94,54.49c6.33,20.54,10.87,41.63,13.13,60.99
			c2.37,20.31,1.99,37.13-1.09,48.64c-1.59,5.89-3.73,10.84-6.39,14.83h0.72c2.59-3.99,4.68-8.88,6.25-14.68
			c3.1-11.58,3.48-28.48,1.1-48.86c-2.26-19.4-6.81-40.52-13.15-61.1c-6.56-21.27-14.51-40.16-23-54.62
			c-9.55-16.27-19.23-26.17-28.77-29.4c-7.09-2.41-13.95-1.02-20.36,4.12c-6.79,5.44-13.14,15.17-18.88,28.94h0l-0.11,0.28
			c-0.01,0.02-0.02,0.04-0.02,0.06l-0.09,0.22h0c-1.8,4.35-3.4,8.73-4.96,12.98C118.44,208.28,111.25,227.92,84.2,254.82z"/>
		<path class="st1" d="M233.69,287.94c-2.22-19.06-6.88-40.69-13.11-60.91c-6.53-21.2-14.45-40.01-22.9-54.4
			c-9.29-15.82-19.04-25.83-28.2-28.94c-2.12-0.72-4.24-1.08-6.32-1.08c-4.49,0-8.88,1.69-13.04,5.02
			c-6.69,5.36-12.98,15.05-18.68,28.79c-1.83,4.42-3.47,8.89-5.05,13.22c-6.99,19.1-14.23,38.86-41.45,65.93
			c-11.39,11.33-16.19,20.34-15.12,28.37c1.64,12.32,17.36,21.26,37.27,32.59c2.63,1.5,5.62,3.2,8.6,4.92
			c5.63,3.26,11.59,6.98,17.89,10.91c10.42,6.49,21.47,13.37,32.3,18.99h1.3c-11.13-5.7-22.54-12.81-33.28-19.5
			c-6.31-3.93-12.27-7.65-17.91-10.92c-2.98-1.73-5.97-3.43-8.6-4.93c-19.76-11.25-35.36-20.13-36.97-32.15
			c-1.04-7.83,3.71-16.68,14.95-27.86c27.31-27.17,34.57-46.98,41.59-66.15c1.58-4.32,3.21-8.78,5.04-13.19
			c5.66-13.65,11.89-23.26,18.5-28.56c4.05-3.25,8.32-4.89,12.67-4.89c2.01,0,4.07,0.35,6.13,1.05
			c9.02,3.06,18.66,12.98,27.88,28.67c8.43,14.35,16.33,33.12,22.84,54.27c6.22,20.19,10.87,41.78,13.09,60.8
			c2.35,20.18,1.99,36.86-1.06,48.24c-1.66,6.14-3.85,11.15-6.6,15.11h0.73c2.67-3.96,4.82-8.92,6.44-14.95
			C235.69,324.95,236.06,308.19,233.69,287.94z"/>
		<path class="st1" d="M214.7,244.5c-5.19-18.24-11.66-34.55-18.71-47.16c-7.94-14.19-16.25-23.22-24.69-26.82
			c-5.87-2.51-11.75-2.3-17.46,0.62c-6.1,3.11-12.09,9.37-17.81,18.59l0.14,0.08l-0.31,0.51l-0.14-0.08
			c-3.84,6.3-6.93,14.11-10.49,23.13c-6.26,15.82-13.35,33.75-27.38,51.49c-7.24,9.15-10.07,16.49-8.92,23.12
			c1.86,10.71,14.39,18.53,30.25,28.42l0.06,0.04c2.39,1.49,4.87,3.04,7.41,4.65c4.54,2.89,9.28,6.08,14.29,9.46
			c10.88,7.33,22.54,15.18,33.63,20.82h0.68c-11.18-5.63-23-13.58-34.12-21.07l-0.04-0.02c-5.01-3.37-9.74-6.56-14.28-9.45
			c-2.58-1.64-5.07-3.19-7.47-4.69c-15.8-9.86-28.27-17.64-30.11-28.21c-1.13-6.52,1.68-13.79,8.86-22.86
			c14.06-17.78,21.47-36.51,27.43-51.57c3.61-9.13,6.73-17.01,10.63-23.34c8.61-13.97,17.69-21.06,27.01-21.06
			c2.65,0,5.35,0.58,8.03,1.72c8.38,3.58,16.64,12.56,24.54,26.69c7.04,12.59,13.5,28.87,18.68,47.09
			c10.27,36.12,13.75,73.51,8.67,93.03c-1.53,5.79-3.64,10.34-6.35,13.74h0.36c2.7-3.44,4.81-8,6.31-13.66
			C228.47,318.12,224.98,280.67,214.7,244.5z"/>
		<path class="st1" d="M97.36,264.48c-7.35,9.29-10.22,16.79-9.04,23.59c1.9,10.97,14.53,18.85,30.52,28.83l0.06,0.04
			c2.39,1.49,4.87,3.04,7.4,4.65c4.54,2.89,9.27,6.07,14.3,9.46c10.54,7.1,21.83,14.7,32.63,20.31h1.31
			c-11.09-5.64-22.75-13.49-33.63-20.82c-5.01-3.38-9.75-6.57-14.29-9.46c-2.54-1.62-5.01-3.16-7.41-4.65l-0.06-0.04
			c-15.86-9.9-28.39-17.71-30.25-28.42c-1.15-6.62,1.69-13.97,8.92-23.12c14.03-17.74,21.13-35.67,27.38-51.49
			c3.57-9.02,6.66-16.83,10.49-23.13l0.14,0.08l0.31-0.51l-0.14-0.08c5.72-9.22,11.71-15.48,17.81-18.59
			c5.71-2.92,11.59-3.13,17.46-0.62c8.45,3.61,16.76,12.63,24.69,26.82c7.05,12.61,13.52,28.92,18.71,47.16
			c10.28,36.17,13.77,73.63,8.67,93.2c-1.5,5.66-3.61,10.22-6.31,13.66h0.76c2.61-3.46,4.66-7.97,6.12-13.51
			c5.12-19.67,1.64-57.25-8.67-93.51c-5.2-18.29-11.69-34.64-18.76-47.29c-8.01-14.31-16.41-23.42-24.98-27.08
			c-6.04-2.58-12.09-2.37-17.97,0.64c-6.2,3.17-12.27,9.49-18.05,18.81h0l-0.14,0.22c-0.01,0.01-0.01,0.02-0.02,0.03l-0.16,0.25l0,0
			c-3.86,6.35-6.96,14.18-10.54,23.23C118.42,228.92,111.34,246.81,97.36,264.48z"/>
		<path class="st1" d="M214.39,244.59c-5.18-18.22-11.64-34.5-18.68-47.09c-7.9-14.13-16.16-23.11-24.54-26.69
			c-2.68-1.14-5.38-1.72-8.03-1.72c-9.31,0-18.4,7.09-27.01,21.06c-3.9,6.33-7.01,14.21-10.63,23.34
			c-5.96,15.05-13.37,33.79-27.43,51.57c-7.18,9.07-9.99,16.34-8.86,22.86c1.83,10.57,14.31,18.35,30.11,28.21
			c2.41,1.5,4.89,3.05,7.47,4.69c4.54,2.89,9.27,6.08,14.28,9.45l0.04,0.02c11.12,7.49,22.94,15.44,34.12,21.07h1.33
			c-11.45-5.63-23.66-13.85-35.12-21.57l-0.03-0.02c-5.01-3.38-9.75-6.56-14.3-9.46c-2.58-1.64-5.07-3.2-7.48-4.7
			c-15.67-9.78-28.04-17.5-29.83-27.8c-1.1-6.35,1.68-13.46,8.74-22.39c14.12-17.85,21.55-36.63,27.52-51.72
			c3.6-9.1,6.71-16.96,10.58-23.24c8.49-13.78,17.41-20.77,26.5-20.77c2.57,0,5.19,0.56,7.79,1.67
			c8.26,3.52,16.42,12.42,24.25,26.43c7.02,12.55,13.46,28.79,18.63,46.96c10.24,36.03,13.73,73.29,8.67,92.71
			c-1.56,5.92-3.73,10.52-6.53,13.89h0.76c2.71-3.4,4.82-7.95,6.35-13.74C228.14,318.09,224.66,280.71,214.39,244.59z"/>
		<path class="st1" d="M213.67,338.87c4.14-16.35,1.84-46.94-5.7-76.11c-8.54-33.01-21.51-56.71-35.6-65.02
			c-10.28-6.07-20.93-4.06-31.66,5.97c-11.46,10.72-23.15,43.22-29.65,70.67l-0.02,0.06l-0.04,0.05c-3.99,5.1-5.6,9.82-4.94,14.44
			c1.4,9.74,13.03,18.02,26.49,27.62c1.61,1.15,3.44,2.45,5.25,3.76c3.42,2.47,6.91,5.09,10.6,7.86
			c11.59,8.7,24.24,18.19,35.38,23.19h0.42c-11.16-4.93-23.91-14.49-35.69-23.34c-3.69-2.77-7.18-5.39-10.6-7.86
			c-1.76-1.27-3.51-2.52-5.2-3.72l-0.05-0.03c-13.43-9.57-25.03-17.84-26.42-27.5c-0.66-4.58,0.96-9.28,4.95-14.36l0.02-0.03
			c6.45-27.28,18.02-59.54,29.4-70.45l-0.06-0.07l0.44-0.41l0.06,0.07c10.59-9.8,21.1-11.73,31.23-5.75
			c14.04,8.29,26.98,31.95,35.51,64.91c7.54,29.14,9.83,59.69,5.7,76.02c-1.46,5.78-3.66,9.92-6.65,12.53h0.24
			C210.04,348.69,212.25,344.51,213.67,338.87z"/>
		<path class="st1" d="M213.49,338.83c4.13-16.33,1.84-46.87-5.7-76.02c-8.53-32.96-21.47-56.62-35.51-64.91
			c-10.13-5.98-20.64-4.05-31.23,5.75l-0.06-0.07l-0.44,0.41l0.06,0.07c-11.38,10.91-22.95,43.17-29.4,70.45l-0.02,0.03
			c-3.99,5.09-5.61,9.78-4.95,14.36c1.39,9.66,12.99,17.92,26.42,27.5l0.05,0.03c1.69,1.21,3.44,2.45,5.2,3.72
			c3.42,2.47,6.91,5.09,10.6,7.86c11.78,8.84,24.53,18.41,35.69,23.34h1.5c-11.36-4.7-24.62-14.65-36.83-23.81
			c-3.69-2.77-7.18-5.39-10.61-7.86c-1.76-1.27-3.51-2.52-5.21-3.73l-0.05-0.03c-13.32-9.49-24.82-17.69-26.18-27.09
			c-0.64-4.41,0.94-8.96,4.83-13.91l0.09-0.12l0.03-0.15c6.47-27.37,18.08-59.74,29.44-70.36c10.45-9.77,20.79-11.74,30.73-5.87
			c13.91,8.21,26.75,31.74,35.24,64.55c7.52,29.05,9.81,59.48,5.7,75.72c-1.52,6-3.83,10.18-7.01,12.68h0.94
			C209.84,348.74,212.03,344.6,213.49,338.83z"/>
		<path class="st1" d="M208.55,262.62c-8.58-33.16-21.65-56.99-35.87-65.39c-10.53-6.22-21.43-4.18-32.38,6.05
			c-11.55,10.8-23.29,43.38-29.81,70.9c-4.06,5.22-5.7,10.07-5.02,14.84c1.44,9.99,13.16,18.35,26.74,28.02
			c1.61,1.15,3.44,2.45,5.24,3.75c3.42,2.47,6.9,5.08,10.6,7.86c11.2,8.4,23.39,17.55,34.31,22.7h1.42
			c-11.14-5-23.79-14.49-35.38-23.19c-3.69-2.77-7.18-5.39-10.6-7.86c-1.81-1.31-3.64-2.61-5.25-3.76
			c-13.46-9.6-25.09-17.88-26.49-27.62c-0.66-4.61,0.95-9.33,4.94-14.44l0.04-0.05l0.02-0.06c6.5-27.45,18.18-59.95,29.65-70.67
			c10.73-10.03,21.39-12.04,31.66-5.97c14.08,8.31,27.06,32.01,35.6,65.02c7.55,29.17,9.84,59.75,5.7,76.11
			c-1.43,5.64-3.63,9.82-6.58,12.49h0.86c2.81-2.76,4.92-6.88,6.3-12.34C218.41,322.57,216.12,291.87,208.55,262.62z"/>
		<path class="st1" d="M127.14,244.5c-4.75,14.62-5.86,29.73-2.88,39.44l0.03,0.09l-0.03,0.09c-3.59,11,7.73,20.75,20.83,32.04
			c1.3,1.12,2.6,2.24,3.91,3.38c2.15,1.87,4.36,3.83,6.5,5.73c14.09,12.49,28.65,25.4,38.39,25.4c0.99,0,1.93-0.14,2.79-0.41
			c1.06-0.34,2.02-0.92,2.89-1.68c-0.86,0.75-1.83,1.3-2.9,1.64c-0.86,0.27-1.81,0.41-2.81,0.41c-9.69,0-24.25-12.91-38.33-25.4
			c-2.03-1.8-4.33-3.84-6.5-5.73c-1.32-1.15-2.63-2.27-3.91-3.38c-6.58-5.67-12.8-11.02-16.78-16.24
			c-4.42-5.77-5.69-10.81-4.01-15.86l0-0.01l0-0.01c-3.01-9.7-1.92-24.84,2.85-39.51c4.66-14.34,11.57-24.6,18.09-26.89l-0.01-0.02
			l0.57-0.18l0.01,0.02c9.76-3,18.98-0.55,27.41,7.28c6.03,5.59,11.54,13.81,16.39,24.45c4.28,9.39,8,20.67,10.75,32.62
			c5.19,22.54,6.58,45.41,3.54,58.26c-0.58,2.46-1.35,4.48-2.32,6.07c0.98-1.61,1.78-3.61,2.36-6.06
			c3.04-12.85,1.65-35.73-3.54-58.28c-2.75-11.95-6.47-23.24-10.75-32.63c-4.85-10.64-10.37-18.87-16.4-24.46
			c-6.12-5.68-12.65-8.53-19.5-8.53c-2.7,0-5.45,0.44-8.24,1.33C138.93,219.58,131.88,229.93,127.14,244.5z"/>
		<path class="st1" d="M199.73,348.44c0.28-0.26,0.54-0.53,0.8-0.83C200.27,347.91,200.01,348.19,199.73,348.44z"/>
		<path class="st1" d="M201.49,346.31c-0.23,0.36-0.46,0.69-0.71,1C201.02,347,201.26,346.66,201.49,346.31z"/>
		<path class="st1" d="M200.4,281.78c-2.75-11.95-6.47-23.23-10.75-32.62c-4.85-10.63-10.37-18.86-16.39-24.45
			c-8.44-7.82-17.66-10.27-27.41-7.28l-0.01-0.02l-0.57,0.18l0.01,0.02c-6.52,2.3-13.42,12.55-18.09,26.89
			c-4.77,14.67-5.86,29.81-2.85,39.51l0,0.01l0,0.01c-1.68,5.05-0.41,10.09,4.01,15.86c3.99,5.21,10.2,10.57,16.78,16.24
			c1.29,1.11,2.6,2.24,3.91,3.38c2.17,1.89,4.47,3.93,6.5,5.73c14.08,12.49,28.64,25.4,38.33,25.4c1,0,1.95-0.14,2.81-0.41
			c1.07-0.34,2.04-0.89,2.9-1.64c0.05-0.05,0.1-0.09,0.16-0.14c0.28-0.25,0.54-0.53,0.8-0.83c0.08-0.1,0.17-0.2,0.25-0.3
			c0.25-0.31,0.48-0.65,0.71-1c0.04-0.07,0.08-0.13,0.12-0.2c0.97-1.59,1.74-3.61,2.32-6.07
			C206.97,327.19,205.58,304.32,200.4,281.78z M193.87,350.04c-9.46,0-23.94-12.83-37.94-25.25c-2.03-1.8-4.33-3.84-6.5-5.73
			c-1.32-1.15-2.63-2.28-3.92-3.39c-6.56-5.65-12.75-10.98-16.7-16.15c-4.29-5.6-5.53-10.46-3.91-15.31l0.06-0.19l-0.06-0.19
			c-2.97-9.59-1.88-24.59,2.85-39.14c4.67-14.37,11.56-24.56,17.98-26.6l0.02-0.01c9.63-3.05,18.75-0.68,27.09,7.06
			c5.97,5.53,11.44,13.7,16.25,24.26c4.27,9.35,7.97,20.59,10.71,32.51c5.17,22.46,6.56,45.22,3.54,57.99
			c-1.31,5.52-3.55,8.71-6.85,9.76C195.69,349.91,194.8,350.04,193.87,350.04z"/>
		<path class="st1" d="M144.72,316.62c1.28,1.1,2.58,2.23,3.9,3.37c2.15,1.87,4.36,3.83,6.5,5.73
			c14.17,12.56,28.82,25.55,38.79,25.55c1.06,0,2.06-0.15,2.97-0.44c3.71-1.17,6.29-4.76,7.69-10.65
			c3.06-12.94,1.67-35.92-3.54-58.55c-2.76-11.99-6.49-23.31-10.79-32.74c-4.89-10.71-10.45-19-16.54-24.65
			c-8.7-8.07-18.23-10.53-28.33-7.33c-6.79,2.16-13.99,12.66-18.79,27.4c-4.77,14.68-5.89,29.88-2.91,39.71
			C120.04,295.36,131.47,305.21,144.72,316.62z M153.78,216.15c6.85,0,13.38,2.85,19.5,8.53c6.03,5.59,11.55,13.82,16.4,24.46
			c4.28,9.39,8,20.67,10.75,32.63c5.19,22.55,6.58,45.42,3.54,58.28c-0.58,2.45-1.38,4.45-2.36,6.06c-0.04,0.07-0.08,0.13-0.12,0.2
			c-0.23,0.36-0.46,0.69-0.71,1c-0.08,0.1-0.17,0.21-0.25,0.3c-0.26,0.3-0.52,0.58-0.8,0.83c-0.05,0.05-0.1,0.09-0.16,0.14
			c-0.87,0.77-1.82,1.35-2.89,1.68c-0.86,0.27-1.8,0.41-2.79,0.41c-9.74,0-24.31-12.91-38.39-25.4c-2.14-1.9-4.35-3.86-6.5-5.73
			c-1.31-1.14-2.62-2.27-3.91-3.38c-13.1-11.29-24.42-21.04-20.83-32.04l0.03-0.09l-0.03-0.09c-2.97-9.71-1.87-24.82,2.88-39.44
			c4.74-14.56,11.78-24.92,18.4-27.02C148.33,216.6,151.08,216.15,153.78,216.15z"/>
		<path class="st1" d="M190.38,282.01c-3.5-12.86-8.31-23.65-14.31-32.09c-7.07-9.95-15.69-16.42-25.61-19.22
			c-5.26-1.49-10.89,2.54-15.46,11.06c-4.18,7.8-6.74,18.08-6.84,27.5c-0.11,10.9,3.06,19.68,8.95,24.73
			c6.31,5.41,14.25,15.04,21.94,24.36c12.28,14.9,23.89,28.97,30.66,28.97c0.38,0,0.74-0.04,1.09-0.13c2.01-0.5,3.37-2.47,4.05-5.84
			c1.22-6.08,1.59-15.28,1-25.26C195.38,307.96,194.04,295.46,190.38,282.01z M148.3,231.49c0.63,0,1.26,0.09,1.87,0.26
			c12.55,3.55,29.54,15.2,39.15,50.55c6.09,22.36,6.84,47,4.46,58.82c-0.59,2.92-1.68,4.6-3.24,4.99c-0.27,0.07-0.55,0.1-0.85,0.1
			c-6.22,0-18.19-14.52-29.79-28.58c-7.71-9.35-15.69-19.02-22.07-24.49c-5.64-4.83-8.68-13.31-8.57-23.88
			c0.1-9.25,2.61-19.34,6.71-26.99C139.71,235.32,144.08,231.49,148.3,231.49z"/>
		<path class="st1" d="M23.13,172.41c9.34,15.66,20.27,25.13,31.59,27.37c1.8,0.36,3.64,0.54,5.46,0.54c7.22,0,14.63-2.8,22.02-8.33
			c10.84-8.11,19.06-27,28.58-48.89c11.31-25.98,25.38-58.31,48.98-84.52c5.69-6.32,9.58-17.48,11.57-33.17
			c0.38-3,0.68-6.14,0.91-9.38h-0.77c-1.24,17.87-4.89,33.87-12.25,42.05c-23.69,26.3-37.78,58.69-49.11,84.72
			c-9.48,21.79-17.67,40.6-28.35,48.59c-7.27,5.44-14.51,8.18-21.58,8.18c-1.78,0-3.55-0.17-5.31-0.52
			c-11.11-2.2-21.87-11.54-31.1-27.02c-4.1-6.87-7.01-20.82-7.79-37.32c-0.68-14.47-0.05-37.83,6.89-66.93
			c3.6-15.12,9.15-32.71,17.68-51.75h-0.81c-8.47,18.97-14,36.5-17.59,51.58C10.04,118.45,15.43,159.5,23.13,172.41z"/>
		<path class="st1" d="M54.61,200.37c1.84,0.36,3.71,0.55,5.58,0.55c7.35,0,14.88-2.84,22.37-8.45
			c10.97-8.2,19.22-27.17,28.77-49.13c11.29-25.94,25.34-58.22,48.88-84.36c5.77-6.41,9.71-17.68,11.72-33.5
			c0.38-3.02,0.68-6.18,0.91-9.45h-0.6c-0.23,3.24-0.53,6.38-0.91,9.38c-1.99,15.69-5.88,26.86-11.57,33.17
			c-23.61,26.21-37.68,58.54-48.98,84.52c-9.52,21.88-17.75,40.78-28.58,48.89c-7.39,5.53-14.8,8.33-22.02,8.33
			c-1.82,0-3.66-0.18-5.46-0.54c-11.32-2.24-22.25-11.71-31.59-27.37c-7.7-12.91-13.1-53.96-0.99-104.8
			C25.74,52.54,31.27,35,39.74,16.04h-0.65c-8.43,18.91-13.93,36.39-17.52,51.44c-12.15,51-6.7,92.25,1.05,105.25
			C32.05,188.53,43.11,198.09,54.61,200.37z"/>
		<path class="st1" d="M15.98,134.72c0.78,16.5,3.69,30.45,7.79,37.32c9.23,15.48,19.99,24.82,31.1,27.02
			c1.76,0.35,3.53,0.52,5.31,0.52c7.07,0,14.31-2.74,21.58-8.18c10.68-7.99,18.87-26.8,28.35-48.59
			c11.33-26.03,25.42-58.42,49.11-84.72c7.37-8.18,11.01-24.18,12.25-42.05h-0.59c-1.23,17.73-4.83,33.57-12.11,41.65
			c-23.75,26.37-37.87,58.81-49.21,84.88c-9.45,21.71-17.6,40.45-28.16,48.35c-8.97,6.71-17.85,9.25-26.42,7.55
			c-10.94-2.17-21.56-11.41-30.7-26.74c-4.05-6.79-6.93-20.63-7.71-37.04c-0.68-14.43-0.05-37.73,6.87-66.76
			c3.61-15.15,9.18-32.79,17.76-51.89h-0.65c-8.53,19.04-14.08,36.63-17.68,51.75C15.93,96.89,15.3,120.25,15.98,134.72z"/>
		<path class="st1" d="M33.18,153.85c9.51,13.12,18.79,20.21,28.36,21.67c1.2,0.18,2.42,0.28,3.64,0.28c6.2,0,12.57-2.4,18.93-7.13
			c9.6-7.1,16.61-22.48,25.5-41.94c10.02-21.95,22.48-49.25,43.1-72.1h0c5.29-5.85,8.97-15.86,10.94-29.76
			c0.4-2.82,0.72-5.77,0.96-8.82H164c-0.24,3.02-0.56,5.95-0.96,8.74c-1.93,13.59-5.66,23.77-10.79,29.44
			c-20.68,22.92-33.17,50.27-43.2,72.25c-8.5,18.62-15.84,34.7-25.31,41.71c-6.27,4.66-12.5,7.01-18.57,7.01
			c-1.19,0-2.37-0.09-3.54-0.27c-9.4-1.44-18.55-8.45-27.96-21.43c-3.66-5.04-6.31-17.15-6.91-31.59
			c-0.53-12.61,0.17-33.08,6.53-58.99c3.36-13.7,8.5-29.65,16.36-46.87h-0.66C41.16,33.2,36.04,49.1,32.7,62.76
			C21.39,108.86,26.3,144.37,33.18,153.85z"/>
		<path class="st1" d="M26.75,121.9c0.61,14.44,3.25,26.55,6.91,31.59c9.41,12.98,18.56,19.99,27.96,21.43
			c1.17,0.18,2.35,0.27,3.54,0.27c6.08,0,12.31-2.35,18.57-7.01c9.47-7.01,16.81-23.09,25.31-41.71
			c10.03-21.98,22.52-49.33,43.2-72.25c5.13-5.68,8.86-15.86,10.79-29.44c0.4-2.79,0.71-5.71,0.96-8.74h-0.6
			c-0.24,2.99-0.56,5.89-0.95,8.65c-1.91,13.47-5.59,23.54-10.64,29.12c-20.74,22.99-33.25,50.39-43.3,72.4
			c-8.47,18.54-15.78,34.56-25.12,41.48c-7.36,5.48-14.65,7.71-21.67,6.63c-9.24-1.41-18.26-8.34-27.57-21.19
			c-3.59-4.95-6.2-16.93-6.8-31.27c-0.53-12.57,0.17-32.98,6.51-58.83c3.37-13.73,8.53-29.74,16.43-47.01h-0.66
			c-7.85,17.22-13,33.17-16.36,46.87C26.92,88.82,26.22,109.29,26.75,121.9z"/>
		<path class="st1" d="M32.69,154.2c9.61,13.25,19.02,20.42,28.75,21.91c1.23,0.19,2.48,0.28,3.73,0.28
			c6.33,0,12.82-2.44,19.28-7.25c9.72-7.19,16.77-22.63,25.69-42.18c10-21.9,22.44-49.16,43-71.94l0,0
			c5.37-5.94,9.1-16.06,11.09-30.08c0.4-2.84,0.72-5.82,0.97-8.9h-0.6c-0.24,3.05-0.56,6-0.96,8.82
			c-1.97,13.9-5.65,23.91-10.94,29.76h0c-20.62,22.85-33.08,50.15-43.1,72.1c-8.89,19.47-15.9,34.84-25.5,41.94
			c-6.36,4.73-12.73,7.13-18.93,7.13c-1.21,0-2.44-0.09-3.64-0.28c-9.57-1.46-18.85-8.55-28.36-21.67
			c-6.88-9.48-11.78-44.98-0.48-91.08c3.35-13.66,8.47-29.56,16.28-46.73h-0.66C40.55,33.15,35.46,49,32.11,62.62
			C20.77,108.9,25.75,144.63,32.69,154.2z"/>
		<path class="st1" d="M37.05,97.17c-0.85,18.09,1.63,33.4,6.17,38.1c5.62,5.82,12.38,12.11,19.9,14.69
			c2.39,0.82,4.79,1.23,7.16,1.23c5.2,0,10.34-1.92,15.72-5.88c8.34-6.12,14.55-18.86,22.41-34.99
			c8.73-17.91,19.6-40.19,37.22-59.68l0,0c5.98-6.58,9.89-18.82,11.37-34.61h-0.49c-0.27,2.84-0.61,5.58-1.03,8.19
			c-1.91,11.85-5.44,20.88-10.19,26.11c-17.67,19.54-28.55,41.85-37.3,59.79c-7.84,16.07-14.03,28.77-22.27,34.82
			c-5.26,3.86-10.37,5.78-15.46,5.78c-2.33,0-4.66-0.4-7-1.2c-7.42-2.55-14.13-8.8-19.71-14.58c-3.71-3.84-7.02-17.01-6.04-37.76
			C38.7,72,45.92,43.81,57.84,17.81c0.27-0.6,0.57-1.18,0.84-1.77h-0.51c-0.25,0.53-0.51,1.05-0.75,1.58
			C45.48,43.67,38.24,71.92,37.05,97.17z"/>
		<path class="st1" d="M37.51,97.2c-0.98,20.75,2.33,33.91,6.04,37.76c5.58,5.78,12.29,12.03,19.71,14.58c2.34,0.8,4.66,1.2,7,1.2
			c5.09,0,10.2-1.92,15.46-5.78c8.24-6.05,14.43-18.75,22.27-34.82c8.74-17.93,19.62-40.25,37.3-59.79
			c4.75-5.23,8.28-14.26,10.19-26.11c0.42-2.61,0.76-5.35,1.03-8.19h-0.6c-0.26,2.81-0.6,5.51-1.02,8.09
			c-1.9,11.73-5.37,20.66-10.05,25.81c-17.73,19.6-28.63,41.96-37.39,59.93c-7.8,16-13.96,28.64-22.09,34.6
			c-7.5,5.51-14.67,6.98-21.91,4.49c-7.3-2.51-13.95-8.7-19.48-14.43c-3.62-3.75-6.84-16.74-5.87-37.31
			c1.18-25.12,8.38-53.24,20.28-79.16c0.31-0.68,0.65-1.35,0.96-2.02h-0.66c-0.28,0.59-0.57,1.18-0.84,1.77
			C45.92,43.81,38.7,72,37.51,97.2z"/>
		<path class="st1" d="M42.79,135.69c5.67,5.87,12.49,12.22,20.13,14.84c2.45,0.84,4.92,1.27,7.35,1.27
			c5.33,0,10.59-1.96,16.08-5.99c8.45-6.21,14.69-19.01,22.6-35.21c8.71-17.87,19.56-40.12,37.13-59.54
			c6.06-6.68,10.03-19.05,11.52-35.01H157c-1.48,15.8-5.39,28.03-11.37,34.61l0,0c-17.63,19.49-28.49,41.77-37.22,59.68
			c-7.86,16.13-14.08,28.87-22.41,34.99c-5.39,3.95-10.53,5.88-15.72,5.88c-2.36,0-4.77-0.41-7.16-1.23
			c-7.52-2.58-14.28-8.87-19.9-14.69c-4.54-4.7-7.02-20.01-6.17-38.1c1.19-25.25,8.42-53.51,20.37-79.55
			c0.24-0.53,0.51-1.05,0.75-1.58h-0.66c-0.21,0.45-0.43,0.89-0.63,1.33C44.9,43.48,37.65,71.82,36.45,97.15
			C35.6,115.38,38.14,130.87,42.79,135.69z"/>
		<path class="st1" d="M47.78,106.21c1.09,5.9,2.96,9.52,5.42,10.46l0.06,0.02l0.05,0.05c5.15,5.44,10.46,8.8,15.77,9.98
			c1.44,0.32,2.91,0.48,4.37,0.48c4.8,0,9.66-1.75,14.45-5.22c7.12-5.15,12.56-15.31,19.45-28.17
			c7.42-13.85,16.65-31.09,31.22-47.14l0,0c5.54-6.06,9.27-16.9,10.8-30.64h-0.31c-1.53,13.65-5.24,24.41-10.73,30.42
			c-14.6,16.08-23.84,33.34-31.27,47.21c-6.87,12.82-12.29,22.95-19.35,28.06c-4.76,3.44-9.52,5.16-14.25,5.16
			c-6.74,0-13.42-3.48-19.98-10.44l-0.03-0.03l-0.04-0.01c-2.36-0.83-4.24-4.47-5.31-10.25c-3.8-20.55,3.55-50.9,11-70.65
			c2.23-5.91,5.01-12.47,8.46-19.47H67.2c-3.42,6.95-6.19,13.48-8.4,19.35C46.86,67.05,45.4,93.33,47.78,106.21z"/>
		<path class="st1" d="M47.19,106.32c1.12,6.07,3.1,9.83,5.73,10.88c5.22,5.5,10.62,8.9,16.03,10.1c1.49,0.33,3,0.5,4.5,0.5
			c4.93,0,9.91-1.79,14.8-5.33c7.24-5.23,12.7-15.44,19.63-28.37c7.4-13.82,16.62-31.03,31.14-47.02
			c5.62-6.16,9.41-17.14,10.96-31.04h-0.6c-1.54,13.74-5.27,24.58-10.8,30.64l0,0c-14.57,16.05-23.8,33.29-31.22,47.14
			c-6.89,12.86-12.32,23.01-19.45,28.17c-4.79,3.46-9.65,5.22-14.45,5.22c-1.45,0-2.92-0.16-4.37-0.48
			c-5.31-1.18-10.62-4.54-15.77-9.98l-0.05-0.05l-0.06-0.02c-2.46-0.94-4.33-4.56-5.42-10.46C45.4,93.33,46.86,67.05,58.8,35.39
			c2.22-5.88,4.98-12.4,8.4-19.35h-0.67c-3.37,6.87-6.1,13.33-8.3,19.14C46.26,66.95,44.8,93.36,47.19,106.32z"/>
		<path class="st1" d="M48.1,106.15c1.07,5.78,2.95,9.42,5.31,10.25l0.04,0.01l0.03,0.03c6.57,6.96,13.25,10.45,19.98,10.44
			c4.73,0,9.49-1.72,14.25-5.16c7.06-5.11,12.49-15.23,19.35-28.06c7.43-13.87,16.67-31.13,31.27-47.21
			c5.5-6.02,9.2-16.78,10.73-30.42h-0.6c-1.52,13.48-5.17,24.1-10.58,30.02c-14.65,16.13-23.91,33.43-31.35,47.33
			c-6.83,12.75-12.22,22.82-19.18,27.85c-4.64,3.35-9.27,5.03-13.89,5.03c-6.59,0-13.13-3.42-19.56-10.24l-0.13-0.13l-0.17-0.06
			c-2.15-0.76-3.89-4.24-4.92-9.8c-3.77-20.43,3.55-50.65,10.97-70.33c2.25-5.97,5.07-12.6,8.57-19.68h-0.67
			c-3.45,7-6.23,13.56-8.46,19.47C51.65,55.25,44.3,85.6,48.1,106.15z"/>
		<path class="st1" d="M59.12,94.76c1,2.32,2.4,3.47,4.08,3.35l0.1-0.01l0.09,0.06c4.89,3.24,9.45,4.81,13.96,4.81
			c4.27,0,8.34-1.41,12.45-4.31c6-4.24,10.76-11.91,16.78-21.61c6.05-9.75,13.58-21.89,24.93-34.33c5.21-5.67,8.76-15,10.33-26.67
			h-0.18c-1.57,11.62-5.1,20.91-10.28,26.55c-11.36,12.45-18.89,24.6-24.95,34.36c-6.01,9.69-10.75,17.34-16.73,21.56
			c-4.09,2.89-8.16,4.33-12.35,4.33c-4.46,0-9.06-1.63-13.97-4.91l-0.03-0.02l-0.03,0c-1.66,0.19-3.01-0.89-4.02-3.22
			c-3.53-8.18-2.08-30.16,7.53-56.36c2.79-7.6,6.08-15.05,9.83-22.29h-0.21c-3.73,7.22-7.02,14.64-9.8,22.22
			C57.03,64.51,55.58,86.55,59.12,94.76z"/>
		<path class="st1" d="M59.29,94.68c1.01,2.33,2.36,3.42,4.02,3.22l0.03,0l0.03,0.02c4.91,3.27,9.51,4.91,13.97,4.91
			c4.19,0,8.26-1.44,12.35-4.33c5.97-4.22,10.72-11.87,16.73-21.56c6.05-9.76,13.59-21.91,24.95-34.36
			c5.18-5.64,8.71-14.93,10.28-26.55h-0.6c-1.55,11.46-5.03,20.6-10.12,26.15c-11.4,12.49-18.95,24.66-25.01,34.44
			c-5.97,9.63-10.69,17.24-16.57,21.38c-8.21,5.79-16.36,5.61-25.64-0.59l-0.21-0.14l-0.25,0.03c-1.36,0.16-2.51-0.8-3.4-2.87
			c-3.48-8.07-2.01-29.86,7.54-55.92c2.81-7.68,6.15-15.19,9.95-22.49h-0.68c-3.75,7.24-7.05,14.68-9.83,22.29
			C57.21,64.52,55.76,86.51,59.29,94.68z"/>
		<path class="st1" d="M58.57,94.99c1.37,3.17,3.22,3.78,4.57,3.71c4.96,3.27,9.6,4.85,14.21,4.85c4.34,0,8.64-1.49,12.79-4.42
			c6.1-4.31,10.89-12.02,16.94-21.78c6.04-9.73,13.55-21.84,24.86-34.24c5.3-5.77,8.9-15.24,10.49-27.08h-0.6
			c-1.57,11.67-5.12,21-10.33,26.67c-11.35,12.44-18.88,24.58-24.93,34.33c-6.02,9.7-10.77,17.37-16.78,21.61
			c-4.11,2.9-8.18,4.31-12.45,4.31c-4.51,0-9.07-1.57-13.96-4.81l-0.09-0.06l-0.1,0.01c-1.67,0.13-3.08-1.03-4.08-3.35
			c-3.54-8.21-2.1-30.25,7.52-56.49c2.78-7.58,6.06-15,9.8-22.22h-0.68c-3.69,7.16-6.93,14.51-9.68,22.02
			C56.41,64.45,54.98,86.68,58.57,94.99z"/>
		<path class="st1" d="M68.58,63.63c-1.09,7.46-0.79,13.04,0.81,15.32c0.54,0.76,1.2,1.14,1.97,1.14c0.56,0,1.18-0.2,1.85-0.59
			l0.08-0.04l0.09,0c6.04,0.25,11.98,0.12,18.31-4.15c5.41-3.66,9.82-9.15,15.92-16.75c4.3-5.36,9.66-12.04,16.82-19.82v0
			c5.23-5.65,8.35-13.9,9.87-22.7h-0.04c-1.65,9.54-5.05,17.48-9.86,22.67c-7.16,7.79-12.52,14.46-16.82,19.82
			c-6.1,7.6-10.5,13.09-15.91,16.75c-6.34,4.28-12.07,4.41-18.38,4.14h-0.01l-0.01,0c-0.7,0.42-1.33,0.63-1.9,0.63
			c-0.76,0-1.41-0.37-1.94-1.12c-1.62-2.29-1.92-7.86-0.84-15.27c0.84-5.72,2.87-15.17,7.8-27.66c2.08-5.27,5.17-12.23,9.47-19.97
			h-0.05c-4.29,7.73-7.38,14.69-9.46,19.96C72.53,45.68,69.77,55.5,68.58,63.63z"/>
		<path class="st1" d="M134.3,16.04c-1.52,8.81-4.64,17.06-9.87,22.7v0c-7.16,7.79-12.52,14.46-16.82,19.82
			c-6.1,7.6-10.5,13.09-15.92,16.75c-6.33,4.27-12.27,4.4-18.31,4.15l-0.09,0l-0.08,0.04c-0.67,0.39-1.29,0.59-1.85,0.59
			c-0.77,0-1.44-0.38-1.97-1.14c-1.61-2.28-1.91-7.86-0.81-15.32c1.19-8.13,3.95-17.95,7.77-27.64c2.08-5.26,5.16-12.22,9.46-19.96
			h-0.68c-4.23,7.64-7.27,14.52-9.33,19.74c-3.84,9.73-6.61,19.6-7.81,27.77c-1.11,7.61-0.78,13.35,0.92,15.75
			c0.64,0.91,1.5,1.4,2.46,1.4c0.64,0,1.34-0.21,2.07-0.63c6.11,0.25,12.14,0.09,18.58-4.26c5.49-3.71,9.92-9.23,16.05-16.87
			c4.3-5.35,9.64-12.02,16.79-19.79h0c5.32-5.74,8.47-14.14,10-23.11H134.3z"/>
		<path class="st1" d="M68.6,63.66c-1.09,7.41-0.78,12.98,0.84,15.27c0.53,0.75,1.18,1.12,1.94,1.12c0.57,0,1.21-0.21,1.9-0.63
			l0.01,0h0.01c6.31,0.27,12.05,0.14,18.38-4.14c5.41-3.65,9.81-9.14,15.91-16.75c4.3-5.36,9.65-12.03,16.82-19.82
			c4.81-5.19,8.2-13.13,9.86-22.67h-0.6c-1.64,9.38-4.98,17.18-9.69,22.27c-7.18,7.8-12.54,14.48-16.85,19.85
			c-6.06,7.56-10.44,13.02-15.78,16.62c-6.19,4.18-11.82,4.3-18.02,4.04l-0.19-0.01l-0.16,0.1c-1.35,0.81-2.32,0.71-3.05-0.32
			c-3.05-4.32-1.26-21.35,7.03-42.36c2.1-5.32,5.23-12.36,9.59-20.19h-0.68c-4.3,7.74-7.39,14.7-9.47,19.97
			C71.47,48.5,69.44,57.94,68.6,63.66z"/>
		<path class="st1" d="M78.03,61.59c0.23,1.16,0.73,1.85,1.48,2.06c0.14,0.04,0.29,0.06,0.45,0.06c1,0,2.21-0.8,3.7-2.45
			c6.26-6.92,10.37-8.98,14.72-11.16c4.82-2.41,10.28-5.14,19.42-14.92c5.56-5.95,8.34-13.15,9.73-19.14h-1.13
			c-1.37,5.8-4.08,12.69-9.41,18.39c-9.01,9.64-14.14,12.2-19.11,14.69c-4.45,2.22-8.65,4.32-15.05,11.4
			c-1.9,2.1-2.76,2.15-3.04,2.07c-0.4-0.11-0.6-0.72-0.7-1.21c-0.84-4.19,2.17-16.75,9.41-31.79c1.74-3.62,4.23-8.37,7.43-13.54
			h-1.29c-3.05,4.99-5.44,9.56-7.13,13.07C81.09,42.49,77,56.46,78.03,61.59z"/>
		<path class="st1" d="M218.72,33.7c19.66,0.22,46.59,0.52,84.64,7.18c11.81,2.07,22.04,4.23,31.22,6.24v-0.76
			c-9.15-2-19.34-4.15-31.09-6.21c-38.12-6.67-65.08-6.97-84.76-7.19c-18.93-0.21-30.35-0.34-35.94-6.59
			c-2.16-2.42-3.49-5.83-4.19-10.33h-0.75c0.74,4.99,2.18,8.35,4.39,10.82C188.04,33.36,199.59,33.49,218.72,33.7z"/>
		<path class="st1" d="M218.73,32.96c19.69,0.22,46.65,0.52,84.76,7.19c11.75,2.06,21.94,4.21,31.09,6.21v-0.61
			c-9.12-1.99-19.27-4.14-30.99-6.19c-38.16-6.68-65.15-6.98-84.86-7.2c-18.76-0.21-30.09-0.34-35.5-6.39
			c-2.07-2.31-3.34-5.6-4.03-9.93h-0.6c0.7,4.51,2.03,7.92,4.19,10.33C188.38,32.62,199.8,32.75,218.73,32.96z"/>
		<path class="st1" d="M218.72,34.3c19.64,0.22,46.54,0.52,84.55,7.17c11.85,2.07,22.11,4.24,31.32,6.26v-0.61
			c-9.18-2.01-19.41-4.17-31.22-6.24c-38.06-6.66-64.98-6.96-84.64-7.18c-19.13-0.21-30.68-0.34-36.48-6.84
			c-2.21-2.48-3.65-5.84-4.39-10.82h-0.6c0.75,5.17,2.24,8.65,4.54,11.22C187.77,33.95,199.42,34.08,218.72,34.3z"/>
		<path class="st1" d="M243.34,25.61c17.14,0.43,40.62,1.02,72.98,6.73c6.59,1.17,12.64,2.37,18.26,3.53v-0.63
			c-5.6-1.16-11.61-2.35-18.16-3.51c-32.41-5.72-55.92-6.31-73.08-6.74c-17.79-0.45-28.52-0.71-33.89-6.7
			c-0.6-0.67-1.15-1.42-1.63-2.25h-0.71c0.55,0.99,1.17,1.88,1.88,2.66C214.55,24.89,225.38,25.16,243.34,25.61z"/>
		<path class="st1" d="M243.35,24.99c17.16,0.43,40.66,1.02,73.08,6.74c6.55,1.16,12.56,2.35,18.16,3.51v-0.61
			c-5.57-1.16-11.55-2.34-18.05-3.49c-32.46-5.73-55.99-6.32-73.17-6.75c-17.62-0.44-28.26-0.71-33.46-6.5
			c-0.5-0.56-0.96-1.18-1.38-1.85h-0.7c0.49,0.83,1.03,1.58,1.63,2.25C214.83,24.28,225.57,24.54,243.35,24.99z"/>
		<path class="st1" d="M243.32,26.21c17.12,0.43,40.57,1.02,72.89,6.72c6.63,1.18,12.71,2.38,18.37,3.56v-0.61
			c-5.63-1.17-11.67-2.37-18.26-3.53c-32.37-5.71-55.84-6.3-72.98-6.73c-17.95-0.45-28.79-0.72-34.34-6.91
			c-0.71-0.79-1.33-1.67-1.88-2.66h-0.68c0.61,1.16,1.31,2.17,2.11,3.06C214.28,25.48,225.21,25.75,243.32,26.21z"/>
		<path class="st1" d="M329.27,23.79c1.82,0.33,3.58,0.66,5.31,0.99v-0.51c-1.7-0.32-3.44-0.65-5.22-0.97
			c-26.72-4.76-46.71-5.61-61.31-6.24c-6.47-0.28-11.94-0.51-16.52-1.03h-3.64c5.26,0.89,11.89,1.18,20.14,1.53
			C282.61,18.19,302.59,19.04,329.27,23.79z"/>
		<path class="st1" d="M329.36,23.3c1.79,0.32,3.52,0.65,5.22,0.97v-0.61c-1.67-0.32-3.37-0.64-5.12-0.95
			c-26.76-4.77-46.77-5.62-61.39-6.24c-3.29-0.14-6.32-0.27-9.1-0.43h-7.44c4.58,0.52,10.05,0.75,16.52,1.03
			C282.65,17.69,302.64,18.54,329.36,23.3z"/>
		<path class="st1" d="M329.17,24.38c1.85,0.33,3.65,0.67,5.42,1.01v-0.61c-1.73-0.33-3.49-0.66-5.31-0.99
			c-26.69-4.76-46.66-5.61-61.24-6.23c-8.24-0.35-14.88-0.64-20.14-1.53h-2.98c5.7,1.38,13.26,1.71,23.09,2.13
			C282.57,18.78,302.52,19.63,329.17,24.38z"/>
	</g>
	<g>
		<g>
			<g>
				<g>
					<rect x="31.26" y="183.59" class="st2" width="9.57" height="0.65"/>
				</g>
			</g>
			<g>
				<g>
					<rect x="35.71" y="179.13" class="st2" width="0.65" height="9.57"/>
				</g>
			</g>
		</g>
		<g>
			<g>
				<g>
					<rect x="96.97" y="183.59" class="st2" width="9.57" height="0.65"/>
				</g>
			</g>
			<g>
				<g>
					<rect x="101.43" y="179.13" class="st2" width="0.65" height="9.57"/>
				</g>
			</g>
		</g>
		<g>
			<g>
				<g>
					<rect x="162.69" y="183.59" class="st2" width="9.57" height="0.65"/>
				</g>
			</g>
			<g>
				<g>
					<rect x="167.14" y="179.13" class="st2" width="0.65" height="9.57"/>
				</g>
			</g>
		</g>
		<g>
			<g>
				<g>
					<rect x="228.4" y="183.59" class="st2" width="9.57" height="0.65"/>
				</g>
			</g>
			<g>
				<g>
					<rect x="232.86" y="179.13" class="st2" width="0.65" height="9.57"/>
				</g>
			</g>
		</g>
		<g>
			<g>
				<g>
					<rect x="294.12" y="183.59" class="st2" width="9.57" height="0.65"/>
				</g>
			</g>
			<g>
				<g>
					<rect x="298.57" y="179.13" class="st2" width="0.65" height="9.57"/>
				</g>
			</g>
		</g>
		<g>
			<g>
				<g>
					<g>
						<rect x="167.14" y="310.56" class="st2" width="0.65" height="9.57"/>
					</g>
				</g>
				<g>
					<g>
						<rect x="162.69" y="315.02" class="st2" width="9.57" height="0.65"/>
					</g>
				</g>
			</g>
			<g>
				<g>
					<g>
						<rect x="167.14" y="244.85" class="st2" width="0.65" height="9.57"/>
					</g>
				</g>
				<g>
					<g>
						<rect x="162.69" y="249.3" class="st2" width="9.57" height="0.65"/>
					</g>
				</g>
			</g>
			<g>
				<g>
					<g>
						<rect x="167.14" y="113.42" class="st2" width="0.65" height="9.57"/>
					</g>
				</g>
				<g>
					<g>
						<rect x="162.69" y="117.87" class="st2" width="9.57" height="0.65"/>
					</g>
				</g>
			</g>
			<g>
				<g>
					<g>
						<rect x="167.14" y="47.7" class="st2" width="0.65" height="9.57"/>
					</g>
				</g>
				<g>
					<g>
						<rect x="162.69" y="52.16" class="st2" width="9.57" height="0.65"/>
					</g>
				</g>
			</g>
		</g>
		<g>
			<g>
				<g>
					<g>
						<rect x="101.1" y="310.56" class="st2" width="0.65" height="9.57"/>
					</g>
				</g>
				<g>
					<g>
						<rect x="96.65" y="315.02" class="st2" width="9.57" height="0.65"/>
					</g>
				</g>
			</g>
			<g>
				<g>
					<g>
						<rect x="101.1" y="244.85" class="st2" width="0.65" height="9.57"/>
					</g>
				</g>
				<g>
					<g>
						<rect x="96.65" y="249.3" class="st2" width="9.57" height="0.65"/>
					</g>
				</g>
			</g>
			<g>
				<g>
					<g>
						<rect x="101.1" y="113.42" class="st2" width="0.65" height="9.57"/>
					</g>
				</g>
				<g>
					<g>
						<rect x="96.65" y="117.87" class="st2" width="9.57" height="0.65"/>
					</g>
				</g>
			</g>
			<g>
				<g>
					<g>
						<rect x="101.1" y="47.7" class="st2" width="0.65" height="9.57"/>
					</g>
				</g>
				<g>
					<g>
						<rect x="96.65" y="52.16" class="st2" width="9.57" height="0.65"/>
					</g>
				</g>
			</g>
		</g>
		<g>
			<g>
				<g>
					<g>
						<rect x="232.86" y="310.56" class="st2" width="0.65" height="9.57"/>
					</g>
				</g>
				<g>
					<g>
						<rect x="228.4" y="315.02" class="st2" width="9.57" height="0.65"/>
					</g>
				</g>
			</g>
			<g>
				<g>
					<g>
						<rect x="232.86" y="244.85" class="st2" width="0.65" height="9.57"/>
					</g>
				</g>
				<g>
					<g>
						<rect x="228.4" y="249.3" class="st2" width="9.57" height="0.65"/>
					</g>
				</g>
			</g>
			<g>
				<g>
					<g>
						<rect x="232.86" y="113.42" class="st2" width="0.65" height="9.57"/>
					</g>
				</g>
				<g>
					<g>
						<rect x="228.4" y="117.87" class="st2" width="9.57" height="0.65"/>
					</g>
				</g>
			</g>
			<g>
				<g>
					<g>
						<rect x="232.86" y="47.7" class="st2" width="0.65" height="9.57"/>
					</g>
				</g>
				<g>
					<g>
						<rect x="228.4" y="52.16" class="st2" width="9.57" height="0.65"/>
					</g>
				</g>
			</g>
		</g>
		<g>
			<g>
				<g>
					<g>
						<rect x="232.86" y="310.89" class="st2" width="0.65" height="9.57"/>
					</g>
				</g>
				<g>
					<g>
						<rect x="228.4" y="315.34" class="st2" width="9.57" height="0.65"/>
					</g>
				</g>
			</g>
			<g>
				<g>
					<g>
						<rect x="232.86" y="245.17" class="st2" width="0.65" height="9.57"/>
					</g>
				</g>
				<g>
					<g>
						<rect x="228.4" y="249.63" class="st2" width="9.57" height="0.65"/>
					</g>
				</g>
			</g>
			<g>
				<g>
					<g>
						<rect x="232.86" y="113.74" class="st2" width="0.65" height="9.57"/>
					</g>
				</g>
				<g>
					<g>
						<rect x="228.4" y="118.2" class="st2" width="9.57" height="0.65"/>
					</g>
				</g>
			</g>
			<g>
				<g>
					<g>
						<rect x="232.86" y="48.03" class="st2" width="0.65" height="9.57"/>
					</g>
				</g>
				<g>
					<g>
						<rect x="228.4" y="52.49" class="st2" width="9.57" height="0.65"/>
					</g>
				</g>
			</g>
		</g>
		<g>
			<g>
				<g>
					<g>
						<rect x="298.57" y="310.89" class="st2" width="0.65" height="9.57"/>
					</g>
				</g>
				<g>
					<g>
						<rect x="294.12" y="315.34" class="st2" width="9.57" height="0.65"/>
					</g>
				</g>
			</g>
			<g>
				<g>
					<g>
						<rect x="298.57" y="245.17" class="st2" width="0.65" height="9.57"/>
					</g>
				</g>
				<g>
					<g>
						<rect x="294.12" y="249.63" class="st2" width="9.57" height="0.65"/>
					</g>
				</g>
			</g>
			<g>
				<g>
					<g>
						<rect x="298.57" y="113.74" class="st2" width="0.65" height="9.57"/>
					</g>
				</g>
				<g>
					<g>
						<rect x="294.12" y="118.2" class="st2" width="9.57" height="0.65"/>
					</g>
				</g>
			</g>
			<g>
				<g>
					<g>
						<rect x="298.57" y="48.03" class="st2" width="0.65" height="9.57"/>
					</g>
				</g>
				<g>
					<g>
						<rect x="294.12" y="52.49" class="st2" width="9.57" height="0.65"/>
					</g>
				</g>
			</g>
		</g>
		<g>
			<g>
				<g>
					<g>
						<rect x="35.39" y="310.56" class="st2" width="0.65" height="9.57"/>
					</g>
				</g>
				<g>
					<g>
						<rect x="30.93" y="315.02" class="st2" width="9.57" height="0.65"/>
					</g>
				</g>
			</g>
			<g>
				<g>
					<g>
						<rect x="35.39" y="244.85" class="st2" width="0.65" height="9.57"/>
					</g>
				</g>
				<g>
					<g>
						<rect x="30.93" y="249.3" class="st2" width="9.57" height="0.65"/>
					</g>
				</g>
			</g>
			<g>
				<g>
					<g>
						<rect x="35.39" y="113.42" class="st2" width="0.65" height="9.57"/>
					</g>
				</g>
				<g>
					<g>
						<rect x="30.93" y="117.87" class="st2" width="9.57" height="0.65"/>
					</g>
				</g>
			</g>
			<g>
				<g>
					<g>
						<rect x="35.39" y="47.7" class="st2" width="0.65" height="9.57"/>
					</g>
				</g>
				<g>
					<g>
						<rect x="30.93" y="52.16" class="st2" width="9.57" height="0.65"/>
					</g>
				</g>
			</g>
		</g>
	</g>
</g>
</svg>
