<?xml version="1.0" encoding="utf-8"?>
<!-- Generator: Adobe Illustrator 27.7.0, SVG Export Plug-In . SVG Version: 6.00 Build 0)  -->
<svg version="1.1" id="Vrstva_1" xmlns="http://www.w3.org/2000/svg" xmlns:xlink="http://www.w3.org/1999/xlink" x="0px" y="0px"
	 viewBox="0 0 345.8 367.19" style="enable-background:new 0 0 345.8 367.19;" xml:space="preserve">
<style type="text/css">
	.st0{fill:none;}
	.st1{fill:#CCCCCC;}
	.st2{fill:#FFFFFF;}
</style>
<g>
	<g>
		<path class="st0" d="M313.75,60.32c-5.58,0-11.43,0.93-17.38,2.75l-0.86,0.26c-18.02,5.51-45.26,13.85-45.26,30.1
			c0,1.76,0.66,3.31,1.96,4.59c6.24,6.2,25.94,6.05,41.77,5.92c2.05-0.02,4.17-0.03,6.17-0.03c9.75,0,18.91-2.77,25.78-7.81
			c7.09-5.19,10.99-12.35,10.99-20.17c0-4.68-1.83-8.41-5.45-11.08C327.56,61.97,321.1,60.32,313.75,60.32z M314.97,90.82
			c-5.17,3.11-11.94,4.97-18.1,4.97c-1.29,0-2.65,0.02-3.96,0.04c-1.37,0.02-2.78,0.04-4.18,0.04c-11.32,0-14.76-1.85-16.79-3.85
			c-1.58-1.56-2.39-3.67-2.39-6.26c0-5.18,2.56-8.48,7.83-10.1c4.51-1.38,10.51-1.39,16.3-1.39h0.44c3.7,0,8-0.87,12.16-1.7
			c6.66-1.34,12.95-2.61,16.01-0.1c1.26,1.03,1.87,2.58,1.87,4.72C324.17,82.4,320.9,87.25,314.97,90.82z"/>
		<path class="st0" d="M306.5,73.62c-4.21,0.85-8.57,1.72-12.38,1.72h-0.67c-5.33,0-11.38,0-15.75,1.34
			c-4.75,1.46-7.06,4.42-7.06,9.06c0,2.32,0.67,4.12,2.06,5.49c3.78,3.73,12.12,3.61,20.18,3.5c1.32-0.02,2.68-0.04,3.98-0.04
			c5.98,0,12.54-1.8,17.54-4.81c5.6-3.37,8.68-7.88,8.68-12.72c0-1.8-0.48-3.06-1.48-3.88C318.95,71.11,312.9,72.33,306.5,73.62z"/>
		<path class="st0" d="M142.35,165.89c-4.69-3.21-27.61-11.13-34.16-9.1c-1.69,0.52-7.55,5.38-13.34,11.04
			c-7.27,7.11-10.39,11.49-10.25,12.68c0.02,0.14,0.07,0.24,0.2,0.32c1.34,0.94,7.23-0.51,13.47-2.04
			c5.79-1.42,12.34-3.02,18.54-3.72c13.72-1.55,25.5-5.78,26.12-8.24C142.95,166.72,143.04,166.36,142.35,165.89z M124.26,165.32
			c-1.63,2.33-14.11,7.05-21.62,7.05c-0.68,0-1.31-0.04-1.88-0.11c-1.42-0.19-1.79-0.9-1.85-1.46c-0.16-1.56,2.15-3.67,3.55-4.79
			c2.15-1.73,4.76-3.26,6.8-3.98c4.13-1.45,13.46,0.15,14.94,2.1C124.49,164.52,124.52,164.96,124.26,165.32z"/>
		<path class="st0" d="M109.62,163.06L109.62,163.06c-5.01,1.77-9.76,6.34-9.63,7.63c0.03,0.31,0.51,0.44,0.9,0.49
			c6.66,0.89,20.62-4.17,22.41-6.41C122.33,163.6,113.82,161.58,109.62,163.06z"/>
		<path class="st0" d="M154.68,164.11c-6.24-2.41-13.94-4.99-18.72-6.28c-5.09-1.37-10.09-4.06-14.51-6.42
			c-5.1-2.74-9.51-5.11-12.5-4.68l-0.01,0c-5.97,0.86-16.33,12.97-25.46,23.66c-2.6,3.04-5.04,5.89-7.37,8.49
			c-3.26,3.63-6.9,8.01-6.13,9.6c0.74,1.52,6.2,1.18,11.98,0.82c6-0.37,20.39-4.52,35.63-8.91l0.1-0.03
			c18.82-5.42,38.28-11.02,45.6-10.64c1.82,0.09,2.48-0.06,2.71-0.14C165.57,168.97,162.81,167.25,154.68,164.11z M143.98,167.11
			c-0.99,3.98-16.62,7.88-27.05,9.06c-6.13,0.69-12.65,2.29-18.4,3.7c-5.15,1.26-9.6,2.35-12.2,2.35c-0.99,0-1.7-0.16-2.16-0.48
			c-0.38-0.26-0.61-0.64-0.66-1.1c-0.12-1.09,1.09-4.3,10.58-13.58c6.09-5.96,11.89-10.72,13.78-11.31c6.78-2.1,30.3,5.96,35.1,9.24
			C144.05,165.73,144.12,166.55,143.98,167.11z"/>
		<path class="st1" d="M104.5,19.04c2.07,1.09,5.17,1.04,7.9,1c2.07-0.03,4.41-0.07,4.81,0.58c0.16,0.27-0.04,0.77-0.23,1.14l0,0
			c-1.05,1.99-4.08,3.94-7.9,5.08c-3.82,1.15-7.44,1.2-9.44,0.14c-2.09-1.1-3.62-2.95-4.32-5.21c-0.59-1.91-0.51-3.91,0.19-5.75
			h-1.16c-0.66,1.96-0.7,4.06-0.07,6.07c0.78,2.53,2.51,4.61,4.85,5.85c1.13,0.59,2.6,0.9,4.37,0.9c6.47,0,12.81-3.47,14.45-6.58
			c0.49-0.92,0.55-1.65,0.2-2.23c-0.73-1.18-2.95-1.15-5.76-1.1c-2.6,0.04-5.54,0.09-7.37-0.87c-1.03-0.54-1.94-1.28-2.77-2.04
			h-1.61C101.74,17.1,102.98,18.24,104.5,19.04z"/>
		<path class="st1" d="M140.73,17.67l-0.05,0.2l0.1,0.18c0.8,1.47-4.53,5.77-8.05,8.62c-2.02,1.63-3.93,3.18-5.12,4.4
			c-3.97,3.73-10.29,6.21-17.35,6.79c-7.19,0.59-14.29-0.74-20-3.75c-7.43-3.92-11.86-8.4-13.53-13.69
			c-0.44-1.4-0.68-2.86-0.74-4.37h-1.1c0.05,1.63,0.31,3.19,0.79,4.7c1.76,5.58,6.37,10.27,14.07,14.33
			c4.93,2.6,11.06,4.04,17.27,4.04c8.55,0,16.53-2.71,21.37-7.26c1.15-1.19,3.04-2.71,5.04-4.32c5.6-4.52,9.24-7.67,8.42-9.79
			c0.12-0.62,0.14-1.17,0.07-1.69h-1.11C140.88,16.52,140.87,17.06,140.73,17.67z"/>
		<path class="st1" d="M77.62,41.86c9.53,5.03,20.44,7.8,30.73,7.8l0.27,0c10.83-0.05,20.32-3.04,27.48-8.65
			c1.88-1.57,5.53-4.05,9.76-6.93c9.73-6.61,20.73-14.1,21.93-18.04h-1.16c-1.6,3.69-12.99,11.43-21.39,17.14
			c-4.25,2.89-7.92,5.38-9.83,6.98c-6.95,5.45-16.22,8.35-26.8,8.41l-0.27,0c-10.12,0-20.85-2.72-30.22-7.67
			C65.45,34.2,58,26.94,55.39,18.71c-0.28-0.88-0.5-1.77-0.67-2.67h-1.12c0.19,1.02,0.44,2.02,0.75,3.01
			C57.05,27.56,64.67,35.02,77.62,41.86z"/>
		<path class="st1" d="M65.14,48.56c13.62,7.19,27.95,11.24,41.43,11.71c0.87,0.03,1.75,0.05,2.61,0.05
			c13.11,0,24.98-3.55,34.32-10.26c2.4-1.79,7.36-4.91,13.11-8.52c13-8.16,30.27-19.01,35.53-25.5h-1.4
			c-5.61,6.29-22.17,16.7-34.71,24.58c-5.77,3.62-10.75,6.75-13.17,8.57c-9.78,7.03-22.32,10.49-36.25,10
			C93.3,58.72,79.13,54.71,65.65,47.6C47.46,38,37.3,28.25,33.69,16.93c-0.09-0.29-0.17-0.6-0.25-0.89H32.3
			c0.11,0.41,0.22,0.82,0.35,1.23C36.36,28.87,46.68,38.82,65.14,48.56z"/>
		<path class="st1" d="M52.62,55.23c17.53,9.25,35.47,14.66,51.87,15.63c1.86,0.11,3.73,0.17,5.54,0.17
			c15.5,0,29.24-4.02,40.84-11.95l0.04-0.03c2.84-1.98,8.48-5.37,15.61-9.67l0.03-0.02c16.53-9.95,40.23-24.22,49.3-33.33h-1.53
			c-9.35,8.92-32.25,22.71-48.34,32.4c-7.19,4.33-12.86,7.74-15.72,9.74c-12.78,8.73-28.16,12.63-45.7,11.6
			c-16.25-0.96-34.03-6.33-51.42-15.51C30.12,42.12,17.1,29.95,12.27,16.04h-1.15C15.95,30.38,29.15,42.85,52.62,55.23z"/>
		<path class="st1" d="M102.4,81.43c2.78,0.21,5.55,0.32,8.24,0.32c17.84,0,33.84-4.6,47.57-13.67l0.03-0.02
			c3.22-2.15,9.65-5.92,17.79-10.69c20.92-12.26,50.66-29.7,63.31-41.34h-1.63c-13.19,11.64-42.99,29.11-62.24,40.39
			c-8.16,4.78-14.6,8.56-17.84,10.72c-13.57,8.97-29.35,13.5-46.99,13.5c-2.68,0-5.4-0.1-8.16-0.31c-19.42-1.47-40.24-8-61.88-19.42
			C24.78,52.57,12.83,44.24,4.34,35.58v1.56c8.52,8.47,20.32,16.6,35.75,24.75C61.87,73.38,82.83,79.95,102.4,81.43z"/>
		<path class="st1" d="M262.71,16.04h-1.64c-3.72,3.16-8.39,6.63-13.67,10.28c3.88-2.45,7.85-4.94,11.9-7.44
			C260.51,17.9,261.65,16.96,262.71,16.04z"/>
		<path class="st1" d="M226.39,39.95c-14.36,8.87-29.69,17.69-41.69,24.6c-8.68,5-15.61,8.98-19.31,11.34l0,0l-0.38,0.24
			c-24.76,15.99-68.62,27.48-136.93-8.57c-9-4.75-16.87-9.44-23.73-14.14v1.33c6.75,4.58,14.45,9.15,23.22,13.77
			c30.12,15.89,58.24,23.95,83.59,23.95c20.27,0,38.59-5.19,54.45-15.43c3.58-2.31,10.66-6.39,19.64-11.55
			c7.34-4.22,15.92-9.16,24.77-14.39c0.89-0.62,1.78-1.24,2.68-1.86C217.12,46.17,221.69,43.08,226.39,39.95z"/>
		<path class="st1" d="M247.71,27.41c-7.19,4.56-14.09,9.03-20.71,13.44C234.34,36.3,241.43,31.74,247.71,27.41z"/>
		<path class="st1" d="M147.19,131.87c0,1.83,0.79,3.54,2.34,5.09c6.45,6.43,26.4,10.55,60.99,12.6
			c24.13,1.42,51.42,1.62,74.94,1.62c5.82,0,11.46-0.01,16.86-0.02l0.46,0c4.83-0.01,9.4-0.02,13.75-0.02
			c8.15,0,15.87-0.66,23.12-1.93v-1.1c-7.25,1.28-14.97,1.95-23.12,1.95c-4.35,0-8.92,0.01-13.75,0.02l-0.5,0
			c-54.86,0.12-137.77,0.31-151.98-13.87c-1.34-1.34-2.02-2.79-2.02-4.32c0-35.18,64.79-73.54,116.85-104.37
			c6.63-3.93,13.11-7.76,19.23-11.46h-2.11c-5.66,3.41-11.6,6.93-17.68,10.53C212.27,57.53,147.19,96.07,147.19,131.87z"/>
		<path class="st1" d="M202.22,76.33c-23.31,17.98-34.64,33.63-34.64,47.85c0,1.8,0.77,3.48,2.28,4.99
			c5.82,5.8,22.93,9.51,52.31,11.34c20.5,1.28,44.47,1.44,63.07,1.44c5.26,0,10.3-0.01,15.17-0.03l0.43,0
			c4.36-0.01,8.49-0.02,12.41-0.02c9.46,0,18.3-1.01,26.4-2.98v-1.13c-8.09,1.99-16.93,3.02-26.4,3.02c-4.05,0-8.32,0.01-12.84,0.02
			c-23.72,0.06-53.25,0.14-78.17-1.41c-29.1-1.81-45.98-5.42-51.61-11.03c-1.3-1.3-1.96-2.72-1.96-4.22
			c0-13.86,11.19-29.23,34.21-46.99c20.02-15.44,45.7-30.19,68.37-43.21c11.13-6.39,21.7-12.46,30.41-17.95h-2.05
			c-8.4,5.23-18.4,10.98-28.9,17C248.02,46.08,222.3,60.85,202.22,76.33z"/>
		<path class="st1" d="M276.89,39.62c-19.43,10.66-41.45,22.75-58.82,35.77c-20.25,15.16-30.09,28.61-30.09,41.1
			c0,1.79,0.75,3.44,2.23,4.92c9.97,9.94,51.36,11.31,94.6,11.31c4.72,0,9.32-0.01,13.78-0.03l0.12,0
			c3.96-0.01,7.71-0.02,11.27-0.02c10.9,0,20.87-1.57,29.68-4.61v-1.16c-8.78,3.08-18.76,4.68-29.68,4.68
			c-3.56,0-7.3,0.01-11.27,0.02l-0.12,0c-19.64,0.06-44.08,0.14-64.65-1.23c-23.93-1.59-37.98-4.78-42.96-9.74
			c-1.27-1.27-1.91-2.66-1.91-4.15c0-12.13,9.7-25.29,29.65-40.23c17.31-12.97,39.3-25.03,58.71-35.69
			c9.35-5.13,18.18-9.98,25.32-14.31c7.6-4.61,15.65-6.95,23.92-6.95c0.19,0,0.38,0,0.57,0c4.14,0.05,8.32,0.73,12.42,1.96v-1.14
			c-4.09-1.2-8.27-1.86-12.4-1.91c-8.67-0.11-17.11,2.27-25.07,7.1c-7.12,4.32-15.94,9.16-25.27,14.28L276.89,39.62z"/>
		<path class="st1" d="M300.12,37.57c-4.95,2.71-10.79,5.68-16.99,8.84c-31.55,16.08-74.76,38.11-74.76,62.4
			c0,1.81,0.74,3.46,2.21,4.92c8.63,8.6,41.01,9.78,74.71,9.78c3.99,0,7.86-0.02,11.6-0.03c3.45-0.01,6.71-0.03,9.81-0.03
			c12.54,0,23.71-2.51,32.96-7.31v-1.23c-9.19,4.89-20.37,7.45-32.96,7.45c-3.1,0-6.36,0.01-9.81,0.03h-0.04
			c-31.96,0.12-75.73,0.29-85.5-9.44c-1.25-1.25-1.89-2.64-1.89-4.15c0-23.61,42.87-45.47,74.17-61.43
			c6.19-3.16,12.05-6.14,17.02-8.86c6.61-3.62,13.62-5.45,20.84-5.45c0.58,0,1.17,0.01,1.76,0.04c5.62,0.23,11.21,1.61,16.41,4v-1.2
			c-5.2-2.32-10.77-3.66-16.37-3.89C315.24,31.69,307.45,33.56,300.12,37.57z"/>
		<path class="st1" d="M319.6,45.79c-7.35-0.46-14.79,0.93-21.53,4.01c-2.66,1.22-5.57,2.5-8.66,3.87
			c-12.26,5.42-27.51,12.17-39.53,20.03c-14.21,9.29-21.12,18.26-21.12,27.43c0,1.88,0.75,3.57,2.22,5.03
			c3.36,3.34,10.6,5.58,22.14,6.84c10.5,1.15,23.15,1.3,32.99,1.3c3.2,0,6.4-0.02,9.22-0.03c2.84-0.01,5.52-0.03,8.08-0.03
			c13.62,0,25.96-3.93,34.73-11.06c0.52-0.42,1.02-0.85,1.51-1.29v-1.49c-0.7,0.67-1.43,1.32-2.19,1.94
			c-8.58,6.97-20.67,10.81-34.05,10.81c-2.52,0-5.16,0.01-7.95,0.03l-0.14,0c-23.4,0.12-55.46,0.29-63.58-7.79
			c-1.26-1.25-1.89-2.68-1.89-4.26c0-8.77,6.75-17.44,20.62-26.51c11.95-7.81,27.16-14.54,39.38-19.94l0.06-0.02
			c3.07-1.36,5.96-2.64,8.61-3.85c5.72-2.62,12.05-4,18.31-4c0.9,0,1.81,0.03,2.7,0.08c6.83,0.43,13.24,2.45,18.53,5.85
			c0.55,0.35,1.08,0.72,1.59,1.09v-1.32c-0.33-0.23-0.66-0.46-1.01-0.68C333.21,48.31,326.62,46.23,319.6,45.79z"/>
		<path class="st1" d="M296.05,62.03l-0.86,0.26c-18.33,5.61-46.03,14.08-46.03,31.14c0,2.06,0.77,3.87,2.28,5.37
			c5.56,5.51,20.4,6.27,35.61,6.27c2.36,0,4.69-0.02,6.94-0.03c2.05-0.02,4.17-0.03,6.16-0.03c9.98,0,19.37-2.85,26.43-8.02
			c7.37-5.4,11.43-12.87,11.43-21.05c0-5.05-1.98-9.07-5.89-11.96C323.51,57.63,307.8,58.42,296.05,62.03z M336.92,75.94
			c0,7.82-3.9,14.98-10.99,20.17c-6.88,5.03-16.03,7.81-25.78,7.81c-2,0-4.12,0.02-6.17,0.03c-15.83,0.12-35.53,0.27-41.77-5.92
			c-1.3-1.29-1.96-2.83-1.96-4.59c0-16.26,27.24-24.59,45.26-30.1l0.86-0.26c5.95-1.83,11.79-2.75,17.38-2.75
			c7.35,0,13.81,1.66,17.72,4.55C335.08,67.53,336.92,71.26,336.92,75.94z"/>
		<path class="st1" d="M322.3,72.45c-3.06-2.5-9.35-1.24-16.01,0.1c-4.16,0.84-8.46,1.7-12.16,1.7h-0.44c-5.8,0-11.8,0.01-16.3,1.39
			c-5.27,1.62-7.83,4.92-7.83,10.1c0,2.59,0.8,4.7,2.39,6.26c2.03,2,5.47,3.85,16.79,3.85c1.4,0,2.81-0.02,4.18-0.04
			c1.31-0.02,2.67-0.04,3.96-0.04c6.17,0,12.93-1.86,18.1-4.97c5.94-3.57,9.21-8.42,9.21-13.65
			C324.17,75.03,323.56,73.48,322.3,72.45z M314.4,89.89c-5.01,3.01-11.57,4.81-17.54,4.81c-1.3,0-2.66,0.02-3.98,0.04
			c-8.06,0.11-16.4,0.23-20.18-3.5c-1.39-1.37-2.06-3.16-2.06-5.49c0-4.64,2.31-7.6,7.06-9.06c4.37-1.34,10.42-1.34,15.75-1.34h0.67
			c3.81,0,8.16-0.88,12.38-1.72c6.4-1.29,12.45-2.51,15.11-0.33c0.99,0.81,1.48,2.08,1.48,3.88C323.08,82,320,86.52,314.4,89.89z"/>
		<path class="st1" d="M155.59,179.29l-0.64,0.13c-36.95,7.75-72.82,18.33-106.62,31.44c-15.08,5.85-29.77,12.23-43.99,19.06v1.18
			c14.34-6.9,29.16-13.35,44.37-19.25c33.75-13.09,69.56-23.65,106.45-31.39l0.64-0.13c37.61-7.89,76.51-16.05,111.65-16.05
			c11,0,21.31,0.82,30.62,2.44c15.93,2.76,29.66,7.86,41.57,15.44v-1.27c-11.9-7.46-25.58-12.48-41.39-15.22
			C255.71,158.29,204.81,168.97,155.59,179.29z"/>
		<path class="st1" d="M296.73,180.03c-18.84-2.78-40.91-2.34-67.47,1.37c-23.51,3.28-47.15,8.55-71.33,14.12
			c-33.59,7.74-66.04,17.87-96.47,30.12c-19.97,8.04-39.11,17.02-57.12,26.76v1.21c18.12-9.82,37.39-18.88,57.51-26.98
			c30.38-12.23,62.78-22.35,96.31-30.07c24.15-5.56,47.77-10.83,71.23-14.1c26.46-3.69,48.43-4.14,67.17-1.37
			c10.74,1.59,20.65,4.29,29.44,8.03c4.8,2.04,9.35,4.43,13.64,7.15v-1.25c-4.17-2.6-8.59-4.9-13.23-6.88
			C317.55,184.36,307.56,181.63,296.73,180.03z"/>
		<path class="st1" d="M256.2,193.8c-30.91,2.24-64.07,9.88-95.3,17.81c-30.23,7.67-59.27,17.33-86.31,28.7
			c-22.48,9.45-43.6,20.08-62.79,31.61c-2.57,1.54-5.05,3.07-7.46,4.59v1.26c2.58-1.63,5.24-3.28,8-4.94
			c19.15-11.5,40.23-22.11,62.66-31.54c26.99-11.35,55.98-20.99,86.16-28.65c31.18-7.91,64.28-15.55,95.11-17.78
			c35.07-2.54,62.01,2.27,82.34,14.69c0.35,0.22,0.69,0.46,1.04,0.68v-1.27c-0.17-0.1-0.32-0.22-0.49-0.32
			C318.65,196.1,291.51,191.25,256.2,193.8z"/>
		<path class="st1" d="M301.72,209.65c-12.93-1.94-27.81-2.23-44.22-0.88c-32.97,2.72-67.35,11.54-93.62,18.92
			c-26.89,7.55-52.51,16.68-76.14,27.13c-19.75,8.73-38.1,18.37-54.55,28.65c-11.74,7.34-21.35,14.3-28.85,20.36v1.36
			c7.55-6.15,17.34-13.27,29.41-20.81c16.4-10.25,34.71-19.87,54.41-28.58c23.59-10.43,49.16-19.54,76-27.08
			c26.23-7.37,60.55-16.17,93.42-18.89c16.32-1.35,31.12-1.06,43.97,0.87c14.37,2.15,26.86,6.42,37.13,12.69
			c0.33,0.2,0.64,0.42,0.97,0.63v-1.27c-0.14-0.09-0.27-0.18-0.41-0.27C328.86,216.14,316.23,211.83,301.72,209.65z"/>
		<path class="st1" d="M11.87,342.28c0.26-4.16,1.81-8.18,4.62-11.97l0.07-0.12l0.01-0.12c0.32-2.74,3.85-7.54,9.67-13.17
			c6.9-6.67,16.56-14.08,27.94-21.44c20.89-13.52,57.46-33.28,112.99-50.65c34.89-10.91,65.78-17.68,91.81-20.12
			c7.46-0.7,14.68-1.05,21.47-1.05c7.87,0,15.32,0.48,22.13,1.41c14.19,1.96,26.36,5.99,36.18,11.99c0.31,0.19,0.6,0.39,0.9,0.59
			v-1.27c-0.12-0.07-0.23-0.15-0.35-0.23c-9.95-6.08-22.26-10.16-36.59-12.14c-12.82-1.77-27.57-1.89-43.84-0.37
			c-25.99,2.43-56.81,9.17-91.6,20.03v0l-0.86,0.27v0c-55.29,17.33-91.78,37.03-112.67,50.53c-25.11,16.22-37.38,29.65-38.22,35.35
			c-2.87,3.9-4.46,8.08-4.73,12.41c-0.19,2.98,0.26,6.04,1.32,9.14h1.12C12.14,348.27,11.68,345.23,11.87,342.28z"/>
		<path class="st1" d="M47.13,336.97l0.11-0.18l-0.04-0.21c-0.45-2.32,1.7-6.38,5.9-11.13c4.98-5.64,12.65-12.12,22.18-18.74
			c16.64-11.55,46.61-28.88,94.89-45.83c22.27-7.81,56-17.88,90.27-21.49c8.36-0.88,16.36-1.33,23.79-1.33
			c22.81,0,41.16,4.17,54.55,12.4c0.3,0.18,0.58,0.38,0.87,0.57v-1.27c-0.11-0.07-0.21-0.14-0.31-0.2
			c-18.02-11.07-44.6-14.84-79.01-11.22c-34.16,3.6-67.77,13.59-90.09,21.4v0l-0.85,0.3c-48.15,16.94-78.08,34.25-94.73,45.81
			c-22.1,15.35-29.18,26.09-28.56,30.73c-2.88,4.65-3.61,9.61-2.17,14.78h1.12C43.59,346.3,44.28,341.48,47.13,336.97z"/>
		<path class="st1" d="M77.8,343.59l0.12-0.25l-0.13-0.24c-0.69-1.22-0.68-2.85,0.03-4.86c2.35-6.68,11.87-16.13,26.12-25.95
			c17.47-12.03,41.42-24.25,69.26-35.33c28.58-11.38,60.95-19.79,88.83-23.07c9.14-1.07,17.86-1.62,25.94-1.62
			c5.96,0,11.67,0.3,16.96,0.89c13.77,1.53,25.17,5.05,33.86,10.45c0.3,0.19,0.59,0.39,0.88,0.58v-1.27
			c-0.11-0.07-0.21-0.14-0.32-0.21c-8.83-5.49-20.37-9.06-34.31-10.61c-12.59-1.4-27.11-1.15-43.14,0.74
			c-27.83,3.27-60.12,11.64-88.68,22.97l0,0l-0.83,0.33v0c-27.74,11.07-51.61,23.27-69.05,35.28c-14.43,9.94-24.1,19.58-26.52,26.47
			c-0.77,2.19-0.8,4.03-0.08,5.49c-1.14,2.57-1.48,5.23-1.02,7.97h1.08C76.3,348.67,76.64,346.08,77.8,343.59z"/>
		<path class="st1" d="M108.34,351.36c0.02-0.41,0.06-0.81,0.13-1.22l0.05-0.28l-0.2-0.2c-1.46-1.43-2-3.33-1.6-5.66
			c1.72-9.99,20.88-28.62,69.48-50.96c25.68-11.81,58.38-21.12,87.48-24.91c15.85-2.07,30.19-2.51,42.61-1.3
			c13.54,1.31,24.45,4.54,32.42,9.62c0.33,0.21,0.64,0.43,0.95,0.64v-1.28c-0.13-0.08-0.25-0.17-0.38-0.26
			c-8.12-5.17-19.18-8.46-32.89-9.78c-12.5-1.21-26.92-0.77-42.85,1.31c-29.2,3.81-62.01,13.15-87.79,25
			c-22.49,10.34-40.2,20.56-52.65,30.38c-10.26,8.09-16.45,15.68-17.43,21.37c-0.45,2.58,0.13,4.74,1.71,6.4
			c-0.06,0.38-0.09,0.75-0.1,1.13H108.34z"/>
		<path class="st1" d="M134.38,348.73c0.28-9.9,16.21-23.96,44.84-39.61c23.03-12.58,55.25-22.73,86.21-27.13
			c15.55-2.21,30.22-2.85,42.42-1.84c13.3,1.1,23.64,4.05,30.73,8.77c0.37,0.25,0.72,0.5,1.08,0.76v-1.3
			c-0.16-0.11-0.32-0.23-0.49-0.34c-7.24-4.83-17.75-7.84-31.22-8.95c-12.28-1.02-27.03-0.38-42.65,1.84
			c-31.06,4.42-63.43,14.61-86.59,27.26c-28.98,15.84-45.1,30.23-45.4,40.52c-0.03,0.93,0.08,1.82,0.31,2.66h1.12
			C134.49,350.53,134.35,349.66,134.38,348.73z"/>
		<path class="st1" d="M332.13,350.62c-0.26,0.25-0.53,0.49-0.8,0.73h1.57c2.54-2.45,4.79-5.08,6.75-7.93v-1.94
			C337.52,344.8,335.03,347.83,332.13,350.62z"/>
		<path class="st1" d="M326.16,343.32c-3.59,2.89-7.65,5.57-12.14,8.04h2.17c3.89-2.24,7.44-4.64,10.63-7.21
			c5.3-4.26,9.59-8.96,12.84-14.03v-2.02C336.38,333.63,331.87,338.73,326.16,343.32z"/>
		<path class="st1" d="M309.93,292.06c-12.36-0.91-27.14-0.16-42.74,2.17c-33.38,4.98-65.36,16.22-85.53,30.07
			c-15.6,10.71-23.57,19.79-23.75,27.06h1.06c0.16-6.87,7.97-15.66,23.3-26.18c20.05-13.77,51.86-24.94,85.09-29.9
			c11.26-1.68,21.98-2.53,31.85-2.53c3.72,0,7.3,0.12,10.66,0.37c12.89,0.94,22.81,3.71,28.67,7.99c0.4,0.29,0.77,0.59,1.14,0.89
			v-1.36c-0.17-0.13-0.33-0.27-0.51-0.4C333.12,295.85,323.02,293.02,309.93,292.06z"/>
		<path class="st1" d="M108.51,104.07C72.65,100.08,33.8,82.11,4.34,67.23v1.23c29.47,14.86,68.2,32.7,104.05,36.7
			c7.5,0.83,11.65,2.8,12.68,6.02c2.51,7.82-13.36,22.07-30.17,37.17c-8.17,7.34-16.63,14.93-23.14,22
			c-7.83,8.5-32.64,28.96-60.6,48.5c-0.94,0.66-1.87,1.29-2.81,1.94v1.33c1.14-0.79,2.28-1.57,3.44-2.37
			c28.02-19.58,52.91-40.11,60.78-48.65c6.48-7.03,14.91-14.61,23.07-21.93c17.08-15.33,33.2-29.82,30.48-38.31
			C120.94,107.18,116.49,104.96,108.51,104.07z"/>
		<path class="st1" d="M49.85,170.54c5.84-6.37,13.34-13.2,20.6-19.82c15.65-14.27,30.44-27.76,27.9-35.67
			c-1.09-3.38-5.09-5.42-12.24-6.26c-27.72-3.33-56.85-15.95-81.76-28.43v1.22c24.88,12.43,53.92,24.96,81.63,28.29
			c6.68,0.78,10.39,2.59,11.33,5.51c2.33,7.24-12.21,20.5-27.59,34.53c-7.27,6.63-14.79,13.48-20.66,19.88
			c-6.38,6.99-23.97,21.83-44.71,36.96v1.35C25.42,192.78,43.37,177.64,49.85,170.54z"/>
		<path class="st1" d="M31.15,169.98c5.23-5.75,11.84-11.89,18.26-17.84c14.15-13.13,27.51-25.54,25.16-32.85
			c-0.99-3.08-4.55-4.97-10.88-5.78c-19.74-2.52-40.47-10.72-59.35-19.85v1.21c18.83,9.07,39.49,17.2,59.21,19.72
			c5.87,0.75,9.13,2.39,9.98,5.03c2.13,6.65-10.98,18.82-24.86,31.71c-6.42,5.96-13.06,12.13-18.32,17.91
			c-4.39,4.83-13.84,13.22-26,22.77v1.39C16.87,183.6,26.65,174.93,31.15,169.98z"/>
		<path class="st1" d="M12.44,169.43c4.58-5.08,10.28-10.49,15.79-15.72c12.71-12.07,24.71-23.46,22.55-30.19
			c-0.89-2.78-4.01-4.51-9.52-5.28c-12.25-1.7-24.78-5.97-36.93-11.33v1.19c12.1,5.3,24.57,9.52,36.78,11.22
			c5.05,0.7,7.88,2.19,8.63,4.53c1.95,6.08-9.81,17.24-22.27,29.07c-5.53,5.25-11.24,10.67-15.85,15.78
			c-1.72,1.9-4.2,4.34-7.29,7.16v1.47C7.81,174.2,10.57,171.5,12.44,169.43z"/>
		<path class="st1" d="M27.02,127.73c-0.8-2.49-3.46-4.05-8.15-4.77c-4.79-0.74-9.66-1.99-14.52-3.59v1.15
			c4.81,1.57,9.61,2.79,14.36,3.53c4.24,0.66,6.62,1.97,7.28,4.03c1.77,5.52-8.67,15.71-19.73,26.51c-0.63,0.62-1.27,1.24-1.91,1.87
			v1.53c0.89-0.88,1.79-1.75,2.67-2.62C18.32,144.32,28.99,133.9,27.02,127.73z"/>
		<path class="st1" d="M269.22,155.71c-46.47,0-83.14-0.65-84.17-0.67c-4.68-0.49-9.82-0.83-14.78-1.15
			c-18.8-1.22-38.25-2.48-42.62-12.22c-2.68-5.97,0.49-14.62,9.69-26.43c14.09-18.08,39.65-39.99,75.96-65.11
			c4.43-3.07,8.99-6.16,13.69-9.29c6.62-4.41,13.51-8.88,20.71-13.44c5.89-3.73,11.98-7.52,18.29-11.37h-2.08
			c-1.55,0.95-3.09,1.9-4.61,2.84c-4.06,2.51-8.03,4.99-11.9,7.44c-7.3,4.62-14.3,9.16-21.01,13.63c-4.7,3.13-9.27,6.23-13.7,9.3
			c-0.9,0.62-1.79,1.24-2.68,1.86c-34.98,24.41-59.71,45.76-73.52,63.48c-9.47,12.16-12.69,21.17-9.83,27.54
			c4.64,10.33,24.41,11.62,43.54,12.86c4.96,0.32,10.1,0.66,14.76,1.15l0.04,0c0.36,0.01,37.55,0.67,84.22,0.67
			c21.87,0,46.4-0.15,70.44-0.59v-1.09C315.62,155.56,291.09,155.71,269.22,155.71z"/>
		<path class="st1" d="M155.11,163.09c-6.21-2.4-13.97-5-18.87-6.32c-4.97-1.34-9.91-3.99-14.28-6.34
			c-5.27-2.83-9.82-5.27-13.16-4.79c-6.38,0.91-16.88,13.2-26.15,24.04c-2.58,3.02-5.02,5.87-7.35,8.47
			c-5.39,6.01-7.15,9.04-6.3,10.81c0.6,1.24,2.32,1.75,5.92,1.75c1.96,0,4.39-0.14,7.12-0.31c6.12-0.38,20.57-4.54,35.88-8.95
			c18.77-5.41,38.17-11,45.33-10.62c2.23,0.11,3.74-0.01,3.9-1.01C167.24,169.22,167.45,167.86,155.11,163.09z M163.3,169.72
			c-7.32-0.38-26.78,5.22-45.6,10.64l-0.1,0.03c-15.24,4.39-29.63,8.53-35.63,8.91c-5.78,0.36-11.25,0.7-11.98-0.82
			c-0.77-1.59,2.87-5.97,6.13-9.6c2.33-2.6,4.77-5.46,7.37-8.49c9.14-10.69,19.5-22.8,25.46-23.66l0.01,0
			c2.99-0.43,7.4,1.94,12.5,4.68c4.41,2.37,9.41,5.05,14.51,6.42c4.78,1.29,12.48,3.87,18.72,6.28c8.13,3.14,10.89,4.86,11.33,5.47
			C165.78,169.67,165.12,169.82,163.3,169.72z"/>
		<path class="st1" d="M142.97,164.99c-4.8-3.28-28.31-11.34-35.1-9.24c-1.89,0.59-7.69,5.34-13.78,11.31
			c-9.48,9.29-10.7,12.5-10.58,13.58c0.05,0.45,0.28,0.84,0.66,1.1c0.46,0.32,1.17,0.48,2.16,0.48c2.59,0,7.04-1.09,12.2-2.35
			c5.75-1.41,12.27-3.01,18.4-3.7c10.43-1.18,26.07-5.09,27.05-9.06C144.12,166.55,144.05,165.73,142.97,164.99z M142.92,166.84
			c-0.61,2.46-12.4,6.69-26.12,8.24c-6.2,0.7-12.75,2.31-18.54,3.72c-6.24,1.53-12.13,2.97-13.47,2.04
			c-0.12-0.09-0.18-0.18-0.2-0.32c-0.13-1.19,2.99-5.57,10.25-12.68c5.79-5.67,11.65-10.52,13.34-11.04
			c6.55-2.03,29.46,5.89,34.16,9.1C143.04,166.36,142.95,166.72,142.92,166.84z"/>
		<path class="st1" d="M109.26,162.03c-2.04,0.72-4.65,2.24-6.8,3.98c-1.39,1.12-3.71,3.24-3.55,4.79c0.06,0.56,0.43,1.27,1.85,1.46
			c0.57,0.08,1.2,0.11,1.88,0.11c7.52,0,20-4.72,21.62-7.05c0.25-0.36,0.23-0.81-0.06-1.19
			C122.72,162.18,113.39,160.58,109.26,162.03z M100.9,171.18c-0.39-0.05-0.87-0.18-0.9-0.49c-0.13-1.28,4.62-5.86,9.62-7.62l0,0
			c4.19-1.48,12.7,0.54,13.69,1.71C121.52,167.01,107.56,172.07,100.9,171.18z"/>
	</g>
	<g>
		<g>
			<g>
				<g>
					<rect x="35.95" y="183.21" class="st2" width="9.57" height="0.65"/>
				</g>
			</g>
			<g>
				<g>
					<rect x="40.41" y="178.75" class="st2" width="0.65" height="9.57"/>
				</g>
			</g>
		</g>
		<g>
			<g>
				<g>
					<rect x="101.67" y="183.21" class="st2" width="9.57" height="0.65"/>
				</g>
			</g>
			<g>
				<g>
					<rect x="106.12" y="178.75" class="st2" width="0.65" height="9.57"/>
				</g>
			</g>
		</g>
		<g>
			<g>
				<g>
					<rect x="167.38" y="183.21" class="st2" width="9.57" height="0.65"/>
				</g>
			</g>
			<g>
				<g>
					<rect x="171.84" y="178.75" class="st2" width="0.65" height="9.57"/>
				</g>
			</g>
		</g>
		<g>
			<g>
				<g>
					<rect x="233.1" y="183.21" class="st2" width="9.57" height="0.65"/>
				</g>
			</g>
			<g>
				<g>
					<rect x="237.55" y="178.75" class="st2" width="0.65" height="9.57"/>
				</g>
			</g>
		</g>
		<g>
			<g>
				<g>
					<rect x="298.81" y="183.21" class="st2" width="9.57" height="0.65"/>
				</g>
			</g>
			<g>
				<g>
					<rect x="303.27" y="178.75" class="st2" width="0.65" height="9.57"/>
				</g>
			</g>
		</g>
		<g>
			<g>
				<g>
					<g>
						<rect x="171.84" y="310.18" class="st2" width="0.65" height="9.57"/>
					</g>
				</g>
				<g>
					<g>
						<rect x="167.38" y="314.64" class="st2" width="9.57" height="0.65"/>
					</g>
				</g>
			</g>
			<g>
				<g>
					<g>
						<rect x="171.84" y="244.47" class="st2" width="0.65" height="9.57"/>
					</g>
				</g>
				<g>
					<g>
						<rect x="167.38" y="248.92" class="st2" width="9.57" height="0.65"/>
					</g>
				</g>
			</g>
			<g>
				<g>
					<g>
						<rect x="171.84" y="113.04" class="st2" width="0.65" height="9.57"/>
					</g>
				</g>
				<g>
					<g>
						<rect x="167.38" y="117.49" class="st2" width="9.57" height="0.65"/>
					</g>
				</g>
			</g>
			<g>
				<g>
					<g>
						<rect x="171.84" y="47.32" class="st2" width="0.65" height="9.57"/>
					</g>
				</g>
				<g>
					<g>
						<rect x="167.38" y="51.78" class="st2" width="9.57" height="0.65"/>
					</g>
				</g>
			</g>
		</g>
		<g>
			<g>
				<g>
					<g>
						<rect x="105.8" y="310.18" class="st2" width="0.65" height="9.57"/>
					</g>
				</g>
				<g>
					<g>
						<rect x="101.34" y="314.64" class="st2" width="9.57" height="0.65"/>
					</g>
				</g>
			</g>
			<g>
				<g>
					<g>
						<rect x="105.8" y="244.47" class="st2" width="0.65" height="9.57"/>
					</g>
				</g>
				<g>
					<g>
						<rect x="101.34" y="248.92" class="st2" width="9.57" height="0.65"/>
					</g>
				</g>
			</g>
			<g>
				<g>
					<g>
						<rect x="105.8" y="113.04" class="st2" width="0.65" height="9.57"/>
					</g>
				</g>
				<g>
					<g>
						<rect x="101.34" y="117.49" class="st2" width="9.57" height="0.65"/>
					</g>
				</g>
			</g>
			<g>
				<g>
					<g>
						<rect x="105.8" y="47.32" class="st2" width="0.65" height="9.57"/>
					</g>
				</g>
				<g>
					<g>
						<rect x="101.34" y="51.78" class="st2" width="9.57" height="0.65"/>
					</g>
				</g>
			</g>
		</g>
		<g>
			<g>
				<g>
					<g>
						<rect x="237.55" y="310.18" class="st2" width="0.65" height="9.57"/>
					</g>
				</g>
				<g>
					<g>
						<rect x="233.1" y="314.64" class="st2" width="9.57" height="0.65"/>
					</g>
				</g>
			</g>
			<g>
				<g>
					<g>
						<rect x="237.55" y="244.47" class="st2" width="0.65" height="9.57"/>
					</g>
				</g>
				<g>
					<g>
						<rect x="233.1" y="248.92" class="st2" width="9.57" height="0.65"/>
					</g>
				</g>
			</g>
			<g>
				<g>
					<g>
						<rect x="237.55" y="113.04" class="st2" width="0.65" height="9.57"/>
					</g>
				</g>
				<g>
					<g>
						<rect x="233.1" y="117.49" class="st2" width="9.57" height="0.65"/>
					</g>
				</g>
			</g>
			<g>
				<g>
					<g>
						<rect x="237.55" y="47.32" class="st2" width="0.65" height="9.57"/>
					</g>
				</g>
				<g>
					<g>
						<rect x="233.1" y="51.78" class="st2" width="9.57" height="0.65"/>
					</g>
				</g>
			</g>
		</g>
		<g>
			<g>
				<g>
					<g>
						<rect x="237.55" y="310.51" class="st2" width="0.65" height="9.57"/>
					</g>
				</g>
				<g>
					<g>
						<rect x="233.1" y="314.96" class="st2" width="9.57" height="0.65"/>
					</g>
				</g>
			</g>
			<g>
				<g>
					<g>
						<rect x="237.55" y="244.79" class="st2" width="0.65" height="9.57"/>
					</g>
				</g>
				<g>
					<g>
						<rect x="233.1" y="249.25" class="st2" width="9.57" height="0.65"/>
					</g>
				</g>
			</g>
			<g>
				<g>
					<g>
						<rect x="237.55" y="113.36" class="st2" width="0.65" height="9.57"/>
					</g>
				</g>
				<g>
					<g>
						<rect x="233.1" y="117.82" class="st2" width="9.57" height="0.65"/>
					</g>
				</g>
			</g>
			<g>
				<g>
					<g>
						<rect x="237.55" y="47.65" class="st2" width="0.65" height="9.57"/>
					</g>
				</g>
				<g>
					<g>
						<rect x="233.1" y="52.1" class="st2" width="9.57" height="0.65"/>
					</g>
				</g>
			</g>
		</g>
		<g>
			<g>
				<g>
					<g>
						<rect x="303.27" y="310.51" class="st2" width="0.65" height="9.57"/>
					</g>
				</g>
				<g>
					<g>
						<rect x="298.81" y="314.96" class="st2" width="9.57" height="0.65"/>
					</g>
				</g>
			</g>
			<g>
				<g>
					<g>
						<rect x="303.27" y="244.79" class="st2" width="0.65" height="9.57"/>
					</g>
				</g>
				<g>
					<g>
						<rect x="298.81" y="249.25" class="st2" width="9.57" height="0.65"/>
					</g>
				</g>
			</g>
			<g>
				<g>
					<g>
						<rect x="303.27" y="113.36" class="st2" width="0.65" height="9.57"/>
					</g>
				</g>
				<g>
					<g>
						<rect x="298.81" y="117.82" class="st2" width="9.57" height="0.65"/>
					</g>
				</g>
			</g>
			<g>
				<g>
					<g>
						<rect x="303.27" y="47.65" class="st2" width="0.65" height="9.57"/>
					</g>
				</g>
				<g>
					<g>
						<rect x="298.81" y="52.1" class="st2" width="9.57" height="0.65"/>
					</g>
				</g>
			</g>
		</g>
		<g>
			<g>
				<g>
					<g>
						<rect x="40.08" y="310.18" class="st2" width="0.65" height="9.57"/>
					</g>
				</g>
				<g>
					<g>
						<rect x="35.63" y="314.64" class="st2" width="9.57" height="0.65"/>
					</g>
				</g>
			</g>
			<g>
				<g>
					<g>
						<rect x="40.08" y="244.47" class="st2" width="0.65" height="9.57"/>
					</g>
				</g>
				<g>
					<g>
						<rect x="35.63" y="248.92" class="st2" width="9.57" height="0.65"/>
					</g>
				</g>
			</g>
			<g>
				<g>
					<g>
						<rect x="40.08" y="113.04" class="st2" width="0.65" height="9.57"/>
					</g>
				</g>
				<g>
					<g>
						<rect x="35.63" y="117.49" class="st2" width="9.57" height="0.65"/>
					</g>
				</g>
			</g>
			<g>
				<g>
					<g>
						<rect x="40.08" y="47.32" class="st2" width="0.65" height="9.57"/>
					</g>
				</g>
				<g>
					<g>
						<rect x="35.63" y="51.78" class="st2" width="9.57" height="0.65"/>
					</g>
				</g>
			</g>
		</g>
	</g>
</g>
</svg>
