<?xml version="1.0" encoding="utf-8"?>
<!-- Generator: Adobe Illustrator 27.7.0, SVG Export Plug-In . SVG Version: 6.00 Build 0)  -->
<svg version="1.1" id="Vrstva_1" xmlns="http://www.w3.org/2000/svg" xmlns:xlink="http://www.w3.org/1999/xlink" x="0px" y="0px"
	 viewBox="0 0 345.8 367.19" style="enable-background:new 0 0 345.8 367.19;" xml:space="preserve">
<style type="text/css">
	.st0{fill:#CCCCCC;}
	.st1{fill:#FFFFFF;}
</style>
<g>
	<g>
		<path class="st0" d="M130.34,126.55c41.04-30.27,83.76-54.03,123.56-68.71c21.18-7.81,41.26-12.93,59.7-15.22
			c8.98-1.12,17.59-1.55,25.77-1.32v-0.9c-8.22-0.23-16.86,0.21-25.88,1.33c-18.5,2.3-38.66,7.44-59.89,15.27
			c-39.87,14.71-82.67,38.51-123.78,68.83c-54.26,40.03-86.7,68.65-108.47,95.7c-6.5,8.08-11.94,15.9-16.7,23.76v1.75
			c4.93-8.26,10.57-16.47,17.4-24.95C43.76,195.1,76.15,166.53,130.34,126.55z"/>
		<path class="st0" d="M331.66,351.06h2.27c1.82-0.79,3.63-1.57,5.43-2.36v-0.98C336.81,348.83,334.24,349.95,331.66,351.06z"/>
		<path class="st0" d="M12.43,350.66c-0.35-15.63,2.36-32.89,7.64-48.6c8.53-25.38,15.9-47.3,33.74-71.53
			c18.25-24.79,47.27-51.69,94.11-87.21l0,0c36.49-27.78,74.84-49.86,110.9-63.86c19.26-7.48,37.62-12.52,54.57-15
			c8.19-1.2,16.06-1.8,23.57-1.8c0.81,0,1.6,0.01,2.4,0.03v-0.9c-8.27-0.14-16.99,0.45-26.1,1.78
			c-17.01,2.49-35.44,7.55-54.76,15.05c-36.15,14.03-74.57,36.15-111.12,63.98l0,0c-46.91,35.57-75.99,62.53-94.29,87.39
			c-17.92,24.35-25.31,46.33-33.86,71.78c-5.31,15.8-8.04,33.17-7.69,48.9c0,0.13,0.01,0.25,0.01,0.37h0.9
			C12.44,350.92,12.43,350.8,12.43,350.66z"/>
		<path class="st0" d="M56.07,345.24c-0.9-13.33,0.69-28.41,4.47-42.48l0.5-1.85c12.41-46.22,19.9-74.12,104.46-140.81
			c32.02-25.25,66.01-45.63,98.31-58.93c17.35-7.15,33.98-12.12,49.42-14.8c9.13-1.58,17.86-2.36,26.13-2.33v-0.9
			c-8.32-0.03-17.1,0.75-26.28,2.35c-15.51,2.69-32.2,7.69-49.61,14.86c-32.38,13.33-66.45,33.75-98.53,59.05
			c-84.79,66.88-92.31,94.89-104.77,141.28l-0.5,1.85c-3.81,14.16-5.4,29.35-4.5,42.78c0.13,1.96,0.32,3.88,0.55,5.75h0.9
			C56.4,349.16,56.21,347.23,56.07,345.24z"/>
		<path class="st0" d="M339.36,343.45c-5.78,2.56-11.64,5.1-17.56,7.61h2.3c5.14-2.19,10.23-4.4,15.26-6.63V343.45z"/>
		<path class="st0" d="M339.36,339.58c-8.75,3.93-17.66,7.78-26.61,11.48h2.33c8.16-3.4,16.29-6.91,24.28-10.5V339.58z"/>
		<path class="st0" d="M101.01,303.45c0.3-1.69,0.6-3.35,0.89-4.98c6.81-38.4,11.31-63.77,81.17-121.59
			c27.42-22.69,56.98-41.35,85.5-53.96c15.41-6.81,30.28-11.73,44.21-14.62c9.29-1.93,18.18-2.95,26.58-3.08v-0.9
			c-8.46,0.12-17.41,1.15-26.76,3.09c-13.99,2.9-28.92,7.84-44.39,14.68c-28.59,12.64-58.23,31.35-85.71,54.09
			c-32.88,27.21-52.76,48.32-64.47,68.44c-10.78,18.51-13.67,34.82-17.01,53.69c-0.29,1.64-0.58,3.29-0.89,4.98
			c-1.75,9.72-4.08,29.31,0.85,47.77h0.92C96.94,332.7,99.27,313.14,101.01,303.45z"/>
		<path class="st0" d="M143.37,334.63c-1.92-8.92-2.55-19.19-1.89-30.52c0.14-2.3,0.25-4.57,0.36-6.76
			c0.79-15.64,1.48-29.14,8.95-44.96c8.16-17.26,24-35.93,49.86-58.75c33.24-29.35,71.58-51.83,105.18-61.66
			c11.84-3.47,23.05-5.39,33.52-5.77v-0.9c-10.56,0.38-21.85,2.32-33.77,5.81c-33.73,9.87-72.19,32.42-105.52,61.85
			c-25.95,22.91-41.86,41.67-50.07,59.04c-7.55,15.98-8.24,29.56-9.04,45.3c-0.11,2.19-0.23,4.45-0.36,6.75
			c-0.67,11.41-0.03,21.75,1.9,30.76c1.29,6,3.16,11.42,5.6,16.24h1C146.59,346.21,144.68,340.72,143.37,334.63z"/>
		<path class="st0" d="M339.36,337.28v-0.98c-3.38,1.54-6.76,3.05-10.14,4.53c-8.36,3.66-16.57,7.07-24.59,10.23h2.44
			c7.35-2.93,14.87-6.07,22.51-9.41C332.84,340.22,336.1,338.76,339.36,337.28z"/>
		<path class="st0" d="M194.71,344.39c-4.79-6.52-10.06-16.33-12.77-39.64c-0.29-2.46-0.6-4.87-0.91-7.21
			c-3.34-25.34-5.98-45.35,37.21-87.15c26.65-25.79,58.77-46.37,88.14-56.47c11.57-3.98,22.61-6.32,32.98-7v-0.9
			c-10.47,0.69-21.6,3.04-33.27,7.05c-29.49,10.14-61.73,30.79-88.47,56.67c-43.51,42.11-40.85,62.32-37.47,87.91
			c0.31,2.33,0.62,4.74,0.91,7.19c1.53,13.19,4.27,28.27,12.93,40.07c1.65,2.24,3.48,4.28,5.46,6.13h1.3
			C198.53,349.07,196.52,346.85,194.71,344.39z"/>
		<path class="st0" d="M339.36,333.69c-15.32,6.95-30.01,12.78-43.67,17.37h2.78c12.87-4.42,26.61-9.92,40.89-16.38V333.69z"/>
		<path class="st0" d="M339.36,331.8c-20.66,8.82-39.49,14.39-54.74,16.07c-3.48,0.38-6.8,0.57-9.97,0.57
			c-14.56,0-25.97-4.04-34.69-12.24c-8.98-8.44-13.23-19.53-16.64-28.43c-0.32-0.82-0.62-1.62-0.92-2.4
			c-0.83-2.14-1.69-4.23-2.52-6.25c-4.12-10.03-8.01-19.5-6.88-30.55c1.25-12.25,8.52-25.41,22.86-41.4
			c19.61-21.87,46.19-41.04,71.09-51.28c9.35-3.85,20.54-7.3,32.43-8.56v-0.92c-10.41,1.08-21.38,3.96-32.77,8.65
			c-13.2,5.43-26.5,13.06-39.51,22.67c-11.69,8.63-22.72,18.61-31.9,28.84c-14.48,16.14-21.81,29.46-23.08,41.91
			c-1.15,11.27,2.78,20.85,6.95,30.98c0.83,2.02,1.69,4.11,2.52,6.24c0.3,0.77,0.61,1.57,0.92,2.39
			c3.45,8.99,7.74,20.18,16.87,28.77c8.89,8.36,20.5,12.48,35.3,12.48c3.21,0,6.57-0.19,10.08-0.58
			c15.25-1.68,34.04-7.22,54.65-15.99V331.8z"/>
		<path class="st0" d="M275.4,218.53c-8.97,7.85-16.82,16.44-22.7,24.85c-9.46,13.55-12.65,24.63-10.02,34.88
			c2.37,9.24,9.28,16.97,16.6,25.14c0.93,1.04,1.86,2.08,2.8,3.15c1.04,1.17,2.1,2.44,3.22,3.79c4.77,5.71,10.7,12.82,19.59,17.85
			c7.8,4.41,16.7,6.59,26.98,6.59c3.43,0,7.02-0.24,10.77-0.73c5.37-0.69,10.98-1.96,16.71-3.67v-0.93
			c-5.77,1.74-11.42,3.02-16.82,3.72c-33.42,4.31-46.78-11.7-56.54-23.4c-1.13-1.35-2.19-2.63-3.24-3.81
			c-0.94-1.06-1.88-2.11-2.81-3.15c-7.24-8.09-14.08-15.73-16.4-24.77c-2.56-9.98,0.58-20.83,9.88-34.14
			c5.83-8.35,13.63-16.89,22.55-24.69c9.77-8.54,20.65-15.95,31.48-21.42c8.83-4.46,19.81-8.74,31.88-10.69v-0.91
			c-12.23,1.95-23.35,6.28-32.29,10.8C296.18,202.49,285.23,209.94,275.4,218.53z"/>
		<path class="st0" d="M307.52,218.88c-17.28,11.1-31.92,27.34-37.29,41.37c-4.23,11.03-2.91,20.32,4.02,28.4
			c6.63,7.73,17.59,13.56,28.45,18.72c1.43,0.68,2.89,1.4,4.43,2.17c8.53,4.24,18.51,9.19,32.23,10.56v-0.91
			c-13.53-1.37-23.4-6.26-31.84-10.45c-1.54-0.77-3-1.49-4.44-2.18c-10.77-5.11-21.63-10.89-28.15-18.49
			c-6.7-7.81-7.97-16.8-3.87-27.5c5.31-13.86,19.81-29.93,36.94-40.94c10.01-6.43,20.51-10.97,31.2-13.49
			c0.05-0.01,0.11-0.02,0.16-0.04v-0.92c-0.12,0.03-0.25,0.05-0.37,0.08C328.21,207.81,317.61,212.39,307.52,218.88z"/>
		<path class="st0" d="M298.26,250.46c-7.97,9.71-11.89,19.74-10.48,26.82c1.35,6.79,6.1,13.05,13.76,18.11
			c9.49,6.27,22.66,10.41,37.83,12.3v-0.89c-14.98-1.87-27.98-5.97-37.34-12.15c-7.45-4.92-12.07-10.99-13.37-17.54
			c-1.35-6.83,2.5-16.58,10.3-26.08c5.03-6.13,13.97-14.91,27.96-21.91c4.05-2.03,8.21-3.75,12.45-5.15v-0.94
			c-4.38,1.43-8.67,3.2-12.85,5.29C312.38,235.39,303.35,244.26,298.26,250.46z"/>
		<path class="st0" d="M34.4,86.09c27.64,0,52.9,4.27,74.35,12.8c6.23,2.48,9.56,5.73,10.16,9.94
			c2.01,13.97-26.64,36.39-56.98,60.12c-16.56,12.95-33.68,26.35-47.02,39.26c-3.74,3.62-7.14,7.16-10.27,10.61v1.33
			c3.3-3.67,6.91-7.44,10.89-11.29c13.31-12.88,30.41-26.26,46.95-39.2c15.51-12.13,30.15-23.59,40.88-33.96
			c12.17-11.77,17.39-20.35,16.44-26.99c-0.65-4.49-4.25-8.07-10.72-10.64C80.03,86.51,44.04,82.74,4.64,86.76v0.89
			C14.81,86.61,24.75,86.09,34.4,86.09z"/>
		<path class="st0" d="M54.8,165.18c12.74-10.46,24.77-20.34,33.44-29.2c9.83-10.05,13.92-17.38,12.86-23.05
			c-0.81-4.33-4.55-7.54-11.45-9.83c-25.42-8.41-53.88-10.68-85.01-6.81v0.9c31.04-3.88,59.4-1.63,84.72,6.75
			c6.56,2.17,10.12,5.16,10.85,9.14c2.2,11.83-21.21,31.05-45.99,51.4c-13.17,10.81-26.78,21.99-37.86,33.02
			c-4.38,4.36-8.25,8.62-11.73,12.73v1.4c3.64-4.35,7.71-8.86,12.36-13.49C28.05,187.14,41.65,175.98,54.8,165.18z"/>
		<path class="st0" d="M46.93,161.09c20.54-18.05,38.28-33.64,35.83-43.94c-0.99-4.14-5.09-7.08-12.55-9
			c-18.43-4.75-36.89-6.1-56.43-4.13c-3.01,0.3-6.06,0.7-9.13,1.16v0.91c3.11-0.47,6.18-0.87,9.22-1.17
			c19.44-1.96,37.79-0.61,56.12,4.11c7.11,1.83,11,4.56,11.91,8.34c2.33,9.77-16.07,25.94-35.55,43.06
			c-9.75,8.57-19.83,17.43-28.51,26.4c-5.1,5.27-9.42,10.4-13.19,15.28v1.48c3.92-5.13,8.44-10.56,13.84-16.13
			C27.13,178.49,37.2,169.64,46.93,161.09z"/>
		<path class="st0" d="M38.79,157.73c15.48-15.03,28.84-28,26.27-36.4c-1.23-4-5.9-6.66-14.29-8.15
			c-16.02-2.83-31.14-2.94-46.12-0.3v0.91c14.93-2.64,30-2.55,45.97,0.28c8.03,1.42,12.47,3.88,13.59,7.53
			c2.42,7.87-10.77,20.67-26.03,35.5c-6.3,6.12-12.82,12.45-18.87,19.02c-5.94,6.45-10.67,12.77-14.65,18.54v1.58
			c4.11-6.03,9.04-12.7,15.31-19.51C25.98,170.16,32.49,163.84,38.79,157.73z"/>
		<path class="st0" d="M21.43,166c2.89-3.38,5.78-6.63,8.58-9.77c11.91-13.39,21.31-23.97,18.59-30.8
			c-1.58-3.97-7.23-6.32-17.28-7.2c-10.11-0.88-18.8-0.56-26.67,0.75v0.9c5.01-0.84,10.23-1.25,15.75-1.25
			c3.49,0,7.09,0.17,10.85,0.49c9.68,0.84,15.08,3.01,16.52,6.63c2.52,6.33-7.19,17.24-18.43,29.88c-2.8,3.14-5.69,6.4-8.59,9.79
			c-6.96,8.14-11.8,15.94-16.08,22.82c-0.01,0.01-0.02,0.03-0.03,0.04v1.7c0.26-0.42,0.52-0.84,0.79-1.27
			C9.69,181.86,14.51,174.09,21.43,166z"/>
		<path class="st0" d="M22.91,155.28c9.8-12.88,14.62-20.84,12.02-26.02c-2.14-4.26-9.47-6.15-23.06-5.98
			c-2.52,0.03-4.92,0.15-7.22,0.34v0.9c2.3-0.2,4.71-0.31,7.23-0.35c0.59-0.01,1.16-0.01,1.72-0.01c12.1,0,18.64,1.76,20.53,5.5
			c2.38,4.74-2.57,12.78-11.93,25.07c-4.64,6.09-8.16,12.18-11.27,17.55c-2.16,3.74-4.16,7.17-6.28,10.24v1.56
			c2.44-3.38,4.67-7.23,7.06-11.35C14.79,167.38,18.3,161.32,22.91,155.28z"/>
		<path class="st0" d="M18.27,155.79c1.88-3.68,3.82-7.49,6.13-11.25c3.62-5.89,4.47-10.16,2.6-13.06c-2.45-3.8-9.33-5.2-22.36-4.35
			v0.9c12.56-0.81,19.36,0.47,21.6,3.94c1.66,2.58,0.81,6.54-2.61,12.11c-2.33,3.79-4.28,7.62-6.16,11.32
			c-3.75,7.37-7.2,14.13-12.83,19.27v1.15C10.82,170.4,14.48,163.22,18.27,155.79z"/>
		<path class="st0" d="M132.89,94.49c0.63,0.58,1.7,1.08,3.9,1.08c4.72,0,14.64-2.29,36.53-10.95
			c21.08-8.33,47.47-20.19,72.99-31.66c28.47-12.8,55.37-24.88,71.11-30.34c7.28-2.52,14.04-4.57,20.28-6.28h-3.33
			c-5.39,1.54-11.13,3.32-17.25,5.44c-15.78,5.47-42.7,17.56-71.19,30.37c-25.51,11.47-51.9,23.32-72.96,31.65
			c-23.41,9.25-36.7,12.63-39.5,10.04c-6.52-6.04-9.61-19.46-9.79-30.09c-0.2-11.57,2.33-29.18,15.48-47.41h-1.1
			c-12.96,18.24-15.47,35.83-15.28,47.42C123.03,76.96,126.99,89.02,132.89,94.49z"/>
		<path class="st0" d="M153.94,70.88c0.66,0.59,1.77,1.1,4.07,1.1c4.3,0,12.73-1.79,30.1-8.27c17.52-6.53,39.43-16,60.62-25.16
			c20.36-8.8,39.74-17.18,53.56-22.22h-2.58c-13.66,5.11-32.05,13.06-51.34,21.4c-21.18,9.15-43.08,18.62-60.58,25.14
			c-19.41,7.23-30.6,9.7-33.27,7.33c-5.4-4.78-8.23-14.5-7.39-25.36c0.73-9.44,4.11-19.27,9.7-28.51h-1.04
			c-5.49,9.23-8.82,19.02-9.55,28.44C145.38,56.09,148.25,65.85,153.94,70.88z"/>
		<path class="st0" d="M175,47.28c0.91,0.76,2.4,1.15,4.52,1.15c4.65,0,12.33-1.85,23.45-5.61c14-4.74,31.47-11.83,48.36-18.7
			c6.63-2.69,13.12-5.33,19.28-7.78h-2.42c-5.53,2.21-11.31,4.55-17.19,6.95c-28.24,11.47-59.75,24.27-71.49,24.27
			c-1.81,0-3.15-0.3-3.94-0.97c-3.56-2.99-5.56-7.42-5.8-12.81c-0.24-5.39,1.24-11.33,4.22-17.44h-0.99
			c-2.91,6.11-4.36,12.07-4.13,17.48C169.13,39.46,171.25,44.12,175,47.28z"/>
		<path class="st0" d="M196.06,23.67c1.15,0.92,3,1.33,5.41,1.33c7.26,0,19.67-3.72,33.95-8.66h-2.77
			c-17.32,5.9-31.97,9.87-36.04,6.63c-2.39-1.91-3.86-4.13-4.4-6.63h-0.91C191.85,19.12,193.43,21.58,196.06,23.67z"/>
		<path class="st0" d="M55.37,76.21c15.21-1.02,28.36-1.91,34.72-1.19c2.42,0.27,4.4,0.43,6.02,0.43c7.01,0,7.43-2.87,8.66-11.46
			c0.99-6.85,2.48-17.2,8.13-32.95c1.98-5.51,3.98-10.36,5.95-14.69h-0.98c-1.93,4.26-3.88,9.01-5.81,14.39
			c-5.68,15.84-7.18,26.24-8.17,33.13c-0.73,5.04-1.16,8.09-2.84,9.51c-1.74,1.47-5.16,1.4-10.86,0.76
			c-6.45-0.72-19.63,0.16-34.88,1.19c-16.13,1.09-35.24,2.37-50.67,1.93v0.92c2.13,0.06,4.33,0.09,6.59,0.09
			C25.05,78.25,40.95,77.18,55.37,76.21z"/>
		<path class="st0" d="M55.14,64.11c9.89-0.86,18.43-1.61,23.01-1.45c10.68,0.38,11.05-1.82,12.64-11.07
			c0.91-5.28,2.28-13.25,6.27-24.69c1.34-3.84,2.75-7.35,4.18-10.58h-0.98c-1.38,3.15-2.74,6.56-4.04,10.28
			c-4.02,11.5-5.4,19.52-6.31,24.83c-1.59,9.25-1.83,10.67-11.73,10.32c-4.64-0.17-13.21,0.58-23.12,1.45
			c-15.56,1.36-35.91,3.13-50.42,2.03v0.92c3.17,0.24,6.62,0.35,10.23,0.35C27.6,66.52,42.44,65.22,55.14,64.11z"/>
		<path class="st0" d="M55.85,51.55c4.26-0.55,7.93-1.03,10.38-1.24c8.45-0.72,8.97-3.17,10.69-11.3c0.82-3.85,1.94-9.12,4.31-16.22
			c0.76-2.27,1.58-4.42,2.44-6.46h-0.97c-0.81,1.96-1.6,4.01-2.33,6.18c-2.39,7.15-3.51,12.45-4.34,16.32
			c-1.75,8.22-2.11,9.93-9.89,10.59c-2.47,0.21-6.16,0.69-10.42,1.24c-14.53,1.89-38.63,5.01-51.09,1.93v0.92
			c3.86,0.94,8.71,1.31,14.03,1.31C30.72,54.82,45.16,52.94,55.85,51.55z"/>
		<path class="st0" d="M22.9,43.15c11.14,0,24.77-3.18,31.45-5.21c6.32-1.92,7.09-4.78,9.14-12.45c0.53-1.96,1.12-4.19,1.92-6.82
			c0.24-0.79,0.5-1.57,0.78-2.34h-0.95c-0.24,0.69-0.48,1.38-0.69,2.08c-0.8,2.65-1.4,4.88-1.93,6.85
			c-2.01,7.52-2.69,10.05-8.53,11.82c-5.8,1.76-15.84,4.1-25.05,4.9c-7.99,0.7-18.2,0.46-21.44-4.64c-1.06-1.68-2.05-3.27-2.96-4.8
			v1.74c0.72,1.19,1.46,2.37,2.21,3.54C9.36,41.79,15.6,43.15,22.9,43.15z"/>
		<path class="st0" d="M9.84,20.26c2.3,2.08,4.92,4.44,7.61,7.2c2.76,2.82,6.28,4.28,10.22,4.28c1.7,0,3.49-0.27,5.32-0.82
			c7.29-2.19,13.98-8.36,16.1-14.57h-0.95c-2.13,5.85-8.48,11.63-15.41,13.71c-5.73,1.72-10.93,0.58-14.64-3.22
			c-2.71-2.78-5.33-5.14-7.65-7.24c-1.3-1.17-2.49-2.25-3.54-3.25H5.62C6.84,17.54,8.26,18.83,9.84,20.26z"/>
	</g>
	<g>
		<g>
			<g>
				<g>
					<rect x="35.95" y="183.21" class="st1" width="9.57" height="0.65"/>
				</g>
			</g>
			<g>
				<g>
					<rect x="40.41" y="178.75" class="st1" width="0.65" height="9.57"/>
				</g>
			</g>
		</g>
		<g>
			<g>
				<g>
					<rect x="101.67" y="183.21" class="st1" width="9.57" height="0.65"/>
				</g>
			</g>
			<g>
				<g>
					<rect x="106.12" y="178.75" class="st1" width="0.65" height="9.57"/>
				</g>
			</g>
		</g>
		<g>
			<g>
				<g>
					<rect x="167.38" y="183.21" class="st1" width="9.57" height="0.65"/>
				</g>
			</g>
			<g>
				<g>
					<rect x="171.84" y="178.75" class="st1" width="0.65" height="9.57"/>
				</g>
			</g>
		</g>
		<g>
			<g>
				<g>
					<rect x="233.1" y="183.21" class="st1" width="9.57" height="0.65"/>
				</g>
			</g>
			<g>
				<g>
					<rect x="237.55" y="178.75" class="st1" width="0.65" height="9.57"/>
				</g>
			</g>
		</g>
		<g>
			<g>
				<g>
					<rect x="298.81" y="183.21" class="st1" width="9.57" height="0.65"/>
				</g>
			</g>
			<g>
				<g>
					<rect x="303.27" y="178.75" class="st1" width="0.65" height="9.57"/>
				</g>
			</g>
		</g>
		<g>
			<g>
				<g>
					<g>
						<rect x="171.84" y="310.18" class="st1" width="0.65" height="9.57"/>
					</g>
				</g>
				<g>
					<g>
						<rect x="167.38" y="314.64" class="st1" width="9.57" height="0.65"/>
					</g>
				</g>
			</g>
			<g>
				<g>
					<g>
						<rect x="171.84" y="244.47" class="st1" width="0.65" height="9.57"/>
					</g>
				</g>
				<g>
					<g>
						<rect x="167.38" y="248.92" class="st1" width="9.57" height="0.65"/>
					</g>
				</g>
			</g>
			<g>
				<g>
					<g>
						<rect x="171.84" y="113.04" class="st1" width="0.65" height="9.57"/>
					</g>
				</g>
				<g>
					<g>
						<rect x="167.38" y="117.49" class="st1" width="9.57" height="0.65"/>
					</g>
				</g>
			</g>
			<g>
				<g>
					<g>
						<rect x="171.84" y="47.32" class="st1" width="0.65" height="9.57"/>
					</g>
				</g>
				<g>
					<g>
						<rect x="167.38" y="51.78" class="st1" width="9.57" height="0.65"/>
					</g>
				</g>
			</g>
		</g>
		<g>
			<g>
				<g>
					<g>
						<rect x="105.8" y="310.18" class="st1" width="0.65" height="9.57"/>
					</g>
				</g>
				<g>
					<g>
						<rect x="101.34" y="314.64" class="st1" width="9.57" height="0.65"/>
					</g>
				</g>
			</g>
			<g>
				<g>
					<g>
						<rect x="105.8" y="244.47" class="st1" width="0.65" height="9.57"/>
					</g>
				</g>
				<g>
					<g>
						<rect x="101.34" y="248.92" class="st1" width="9.57" height="0.65"/>
					</g>
				</g>
			</g>
			<g>
				<g>
					<g>
						<rect x="105.8" y="113.04" class="st1" width="0.65" height="9.57"/>
					</g>
				</g>
				<g>
					<g>
						<rect x="101.34" y="117.49" class="st1" width="9.57" height="0.65"/>
					</g>
				</g>
			</g>
			<g>
				<g>
					<g>
						<rect x="105.8" y="47.32" class="st1" width="0.65" height="9.57"/>
					</g>
				</g>
				<g>
					<g>
						<rect x="101.34" y="51.78" class="st1" width="9.57" height="0.65"/>
					</g>
				</g>
			</g>
		</g>
		<g>
			<g>
				<g>
					<g>
						<rect x="237.55" y="310.18" class="st1" width="0.65" height="9.57"/>
					</g>
				</g>
				<g>
					<g>
						<rect x="233.1" y="314.64" class="st1" width="9.57" height="0.65"/>
					</g>
				</g>
			</g>
			<g>
				<g>
					<g>
						<rect x="237.55" y="244.47" class="st1" width="0.65" height="9.57"/>
					</g>
				</g>
				<g>
					<g>
						<rect x="233.1" y="248.92" class="st1" width="9.57" height="0.65"/>
					</g>
				</g>
			</g>
			<g>
				<g>
					<g>
						<rect x="237.55" y="113.04" class="st1" width="0.65" height="9.57"/>
					</g>
				</g>
				<g>
					<g>
						<rect x="233.1" y="117.49" class="st1" width="9.57" height="0.65"/>
					</g>
				</g>
			</g>
			<g>
				<g>
					<g>
						<rect x="237.55" y="47.32" class="st1" width="0.65" height="9.57"/>
					</g>
				</g>
				<g>
					<g>
						<rect x="233.1" y="51.78" class="st1" width="9.57" height="0.65"/>
					</g>
				</g>
			</g>
		</g>
		<g>
			<g>
				<g>
					<g>
						<rect x="237.55" y="310.51" class="st1" width="0.65" height="9.57"/>
					</g>
				</g>
				<g>
					<g>
						<rect x="233.1" y="314.96" class="st1" width="9.57" height="0.65"/>
					</g>
				</g>
			</g>
			<g>
				<g>
					<g>
						<rect x="237.55" y="244.79" class="st1" width="0.65" height="9.57"/>
					</g>
				</g>
				<g>
					<g>
						<rect x="233.1" y="249.25" class="st1" width="9.57" height="0.65"/>
					</g>
				</g>
			</g>
			<g>
				<g>
					<g>
						<rect x="237.55" y="113.36" class="st1" width="0.65" height="9.57"/>
					</g>
				</g>
				<g>
					<g>
						<rect x="233.1" y="117.82" class="st1" width="9.57" height="0.65"/>
					</g>
				</g>
			</g>
			<g>
				<g>
					<g>
						<rect x="237.55" y="47.65" class="st1" width="0.65" height="9.57"/>
					</g>
				</g>
				<g>
					<g>
						<rect x="233.1" y="52.1" class="st1" width="9.57" height="0.65"/>
					</g>
				</g>
			</g>
		</g>
		<g>
			<g>
				<g>
					<g>
						<rect x="303.27" y="310.51" class="st1" width="0.65" height="9.57"/>
					</g>
				</g>
				<g>
					<g>
						<rect x="298.81" y="314.96" class="st1" width="9.57" height="0.65"/>
					</g>
				</g>
			</g>
			<g>
				<g>
					<g>
						<rect x="303.27" y="244.79" class="st1" width="0.65" height="9.57"/>
					</g>
				</g>
				<g>
					<g>
						<rect x="298.81" y="249.25" class="st1" width="9.57" height="0.65"/>
					</g>
				</g>
			</g>
			<g>
				<g>
					<g>
						<rect x="303.27" y="113.36" class="st1" width="0.65" height="9.57"/>
					</g>
				</g>
				<g>
					<g>
						<rect x="298.81" y="117.82" class="st1" width="9.57" height="0.65"/>
					</g>
				</g>
			</g>
			<g>
				<g>
					<g>
						<rect x="303.27" y="47.65" class="st1" width="0.65" height="9.57"/>
					</g>
				</g>
				<g>
					<g>
						<rect x="298.81" y="52.1" class="st1" width="9.57" height="0.65"/>
					</g>
				</g>
			</g>
		</g>
		<g>
			<g>
				<g>
					<g>
						<rect x="40.08" y="310.18" class="st1" width="0.65" height="9.57"/>
					</g>
				</g>
				<g>
					<g>
						<rect x="35.63" y="314.64" class="st1" width="9.57" height="0.65"/>
					</g>
				</g>
			</g>
			<g>
				<g>
					<g>
						<rect x="40.08" y="244.47" class="st1" width="0.65" height="9.57"/>
					</g>
				</g>
				<g>
					<g>
						<rect x="35.63" y="248.92" class="st1" width="9.57" height="0.65"/>
					</g>
				</g>
			</g>
			<g>
				<g>
					<g>
						<rect x="40.08" y="113.04" class="st1" width="0.65" height="9.57"/>
					</g>
				</g>
				<g>
					<g>
						<rect x="35.63" y="117.49" class="st1" width="9.57" height="0.65"/>
					</g>
				</g>
			</g>
			<g>
				<g>
					<g>
						<rect x="40.08" y="47.32" class="st1" width="0.65" height="9.57"/>
					</g>
				</g>
				<g>
					<g>
						<rect x="35.63" y="51.78" class="st1" width="9.57" height="0.65"/>
					</g>
				</g>
			</g>
		</g>
	</g>
</g>
</svg>
