<?xml version="1.0" encoding="utf-8"?>
<!-- Generator: Adobe Illustrator 27.7.0, SVG Export Plug-In . SVG Version: 6.00 Build 0)  -->
<svg version="1.1" id="Vrstva_1" xmlns="http://www.w3.org/2000/svg" xmlns:xlink="http://www.w3.org/1999/xlink" x="0px" y="0px"
	 viewBox="0 0 345.8 367.19" style="enable-background:new 0 0 345.8 367.19;" xml:space="preserve">
<style type="text/css">
	.st0{fill:none;}
	.st1{fill:#CCCCCC;}
	.st2{fill:#FFFFFF;}
</style>
<g>
	<g>
		<path class="st0" d="M51.23,195.88c12.17,1.47,23.67,2.85,31.42,7.55c3.81,2.31,11.74,3.14,22.93,2.39
			c10.17-0.68,22.81-2.69,35.58-5.64c12.74-2.95,25.02-6.7,34.56-10.56c10.46-4.24,17.33-8.45,19.89-12.19
			c1.84-2.69,1.39-5.03-1.39-7.16c-10.87-8.31-22.3-13.97-33.35-19.45c-14.69-7.27-28.57-14.14-39.58-26.4
			c-9.13-10.16-18.16-14.56-29.39-14.56c-13.27,0-29.62,6.14-52.85,16.13c-8.47,3.64-26.65,16.83-32.37,32.22
			c-2.52,6.78-2.34,13.22,0.54,19.15C14.04,191.41,32.95,193.68,51.23,195.88z M20.35,161.29c4.06-11.87,18.04-22.32,24.62-25.27
			c17.53-7.87,28.86-12.32,38.52-13.3c10.63-1.08,18.33,2.37,24.97,11.17c5.71,3.19,11.66,6.22,17.97,9.42
			c15.08,7.66,30.68,15.58,44.4,26.69c2.54,2.06,2.88,4.55,0.97,7.2c-5.41,7.5-26.99,14.86-43.83,18.88
			c-10.88,2.6-24.01,4.8-33.9,4.8c-5.47,0-9.94-0.67-12.52-2.32c-5.99-3.83-15.07-5.19-24.7-6.63
			c-14.54-2.17-29.58-4.42-35.53-15.59C18.84,171.72,18.51,166.65,20.35,161.29z"/>
		<path class="st0" d="M305.64,49.08c-11.79-8.77-23.93-14.79-35.12-17.41c-4.43-1.04-8.71-1.56-12.82-1.56
			c-13.85,0-25.82,5.88-35.71,17.58c-6.23,7.37-8.5,13.17-6.75,17.25c2.96,6.89,16.83,7.67,24.29,8.09
			c5.89,0.33,13.54,2.85,24.13,6.34c11.41,3.76,25.62,8.44,44.17,12.57c6.67,1.48,12.16-0.91,14.67-6.4
			c2.07-4.51,1.84-10.61-0.61-16.73C319.04,61.69,313.42,54.86,305.64,49.08z M311.42,75.55c-1.04,0.92-2.7,1.29-4.82,1.29
			c-3.8,0-9.05-1.19-14.82-2.49c-5.36-1.21-10.91-2.47-16.21-3.03c-30.29-3.22-44.64-8.83-45.18-17.68c-0.2-3.34,2.55-6.34,4.9-8.27
			c2.65-2.18,6.09-4.05,8.79-4.77c8.77-2.33,18.19-2.23,28.01,0.31c10.41,2.69,18.68,7.47,23.78,11.01
			c9.49,6.57,16.22,14.54,16.75,19.85C312.79,73.43,312.38,74.7,311.42,75.55z"/>
		<path class="st0" d="M62.66,186.19c7.29,1.45,14.17,2.83,18.73,6.01c4.06,2.83,16.96,2.07,32.86-1.92
			c15.62-3.93,28.56-9.66,32.19-14.26c1.48-1.87,1.43-3.47-0.16-4.88c-12.57-11.22-33.43-23.72-51.67-26.33l-0.17-0.02l-0.11-0.14
			c-3.76-4.67-8.04-6.85-13.6-6.85c-1.01,0-2.06,0.07-3.15,0.21c-6.79,0.88-14.97,4.36-25.96,9.69
			c-3.96,1.92-13.45,8.92-15.85,17.19c-1,3.46-0.59,6.69,1.22,9.61C41.64,182,52.33,184.13,62.66,186.19z M49.54,167.81
			c0.76-4.42,5.26-8.53,7.91-10.08c10.66-6.23,18.4-9.04,23.86-3.79c6.94-2.51,14.94-1.46,23.78,3.15
			c9.26,4.82,16.01,11.81,17.86,13.84c0.96,1.05,1.61,2.83-0.75,5.31c-5.5,5.77-25.22,12.45-35.96,12.45
			c-2.72,0-4.86-0.43-6.05-1.41c-2.88-2.39-7.49-3.79-12.36-5.29c-6.36-1.95-12.93-3.96-16.68-8.4
			C49.72,171.89,49.17,169.95,49.54,167.81z"/>
		<path class="st0" d="M56.97,191.06c9.72,1.45,18.9,2.82,25.05,6.76c5.76,3.68,23.71,2.66,45.73-2.6c10-2.39,19.68-5.44,27.27-8.6
			c8.29-3.45,13.84-6.88,16.04-9.94c1.63-2.26,1.37-4.22-0.8-5.98c-13.65-11.05-29.2-18.95-44.24-26.59
			c-6.34-3.22-12.34-6.26-18.08-9.48l-0.08-0.05l-0.06-0.08c-5.68-7.57-12.17-11.08-20.7-11.08c-1.14,0-2.31,0.06-3.52,0.18
			c-9.53,0.97-20.8,5.39-38.24,13.22c-6.46,2.9-20.16,13.13-24.14,24.74c-1.75,5.11-1.44,9.94,0.91,14.35
			C27.84,186.7,42.65,188.92,56.97,191.06z M34.9,164.63c2.48-8.57,12.25-15.78,16.32-17.75c11.08-5.37,19.33-8.88,26.24-9.77
			c7.33-0.95,12.88,1.22,17.46,6.83c18.39,2.7,39.33,15.25,51.96,26.52c1.95,1.74,2.05,3.86,0.27,6.11
			c-4.63,5.86-20.5,11.51-32.68,14.57c-7.34,1.85-14.55,3.08-20.31,3.49c-1.46,0.1-2.82,0.15-4.07,0.15c-4.36,0-7.45-0.62-9.22-1.85
			c-4.41-3.07-11.2-4.43-18.39-5.86c-10.52-2.1-21.39-4.27-26.26-12.11C34.27,171.81,33.82,168.34,34.9,164.63z"/>
		<path class="st0" d="M295.36,52.66c-5.05-3.49-13.22-8.22-23.5-10.88c-9.67-2.5-18.94-2.61-27.55-0.32
			c-4.77,1.27-13.34,6.84-13.02,12.12c0.21,3.46,2.76,6.34,7.79,8.81c7.15,3.51,19.46,6.21,36.59,8.03
			c5.35,0.57,10.93,1.83,16.32,3.05c8.37,1.89,16.27,3.68,18.84,1.41c0.74-0.66,1.04-1.65,0.9-3.03
			C311.22,66.8,304.64,59.08,295.36,52.66z"/>
		<path class="st0" d="M66.52,171.46c6.02,1.86,11.31,6.28,13.68,9.59c1.07,1.5,6.66,0.26,11.95-2.66c4.35-2.4,6.74-4.97,6.09-6.55
			c-1.12-2.74-7.7-10.64-15.89-12.2c-0.94-0.18-1.86-0.27-2.78-0.27c-4.15,0-8.02,1.85-11.53,5.51c-0.27,0.28-0.6,0.6-0.96,0.93
			c-1.29,1.21-3.06,2.88-2.79,4.07C64.45,170.52,65.2,171.05,66.52,171.46z"/>
		<path class="st0" d="M68.1,181.14c4.96,1.52,9.65,2.95,12.67,5.45c2.34,1.94,10.09,1.48,19.74-1.16
			c9.46-2.59,17.92-6.53,21.04-9.81c2.28-2.4,1.12-3.67,0.74-4.09c-1.82-2-8.48-8.89-17.61-13.64c-8.72-4.54-16.57-5.55-23.32-3
			l-0.27,0.1l-0.2-0.21c-1.84-1.86-4-2.68-6.5-2.68c-4.39,0-9.83,2.52-16.48,6.4c-2.12,1.24-6.75,5.18-7.48,9.46
			c-0.32,1.86,0.16,3.56,1.41,5.05C55.42,177.26,61.86,179.23,68.1,181.14z M66.48,165.16c0.35-0.32,0.67-0.63,0.92-0.9
			c4.51-4.71,9.59-6.56,15.12-5.51c8.65,1.64,15.34,9.78,16.55,12.74c0.47,1.16-0.01,2.5-1.43,3.99c-1.16,1.22-2.91,2.5-5.07,3.68
			c-3.11,1.72-7.51,3.39-10.43,3.39c-1.22,0-2.19-0.29-2.69-1c-2.28-3.2-7.39-7.45-13.21-9.26c-1.67-0.52-2.6-1.24-2.82-2.22
			C63.04,168.39,64.95,166.6,66.48,165.16z"/>
		<path class="st1" d="M66.26,172.31c5.82,1.8,10.93,6.06,13.21,9.26c0.5,0.71,1.47,1,2.69,1c2.92,0,7.31-1.68,10.43-3.39
			c2.15-1.19,3.9-2.46,5.07-3.68c1.42-1.49,1.9-2.83,1.43-3.99c-1.21-2.96-7.91-11.09-16.55-12.74c-5.53-1.05-10.62,0.8-15.12,5.51
			c-0.25,0.26-0.58,0.57-0.92,0.9c-1.53,1.44-3.44,3.23-3.05,4.92C63.66,171.07,64.58,171.79,66.26,172.31z M67.09,165.82
			c0.35-0.33,0.69-0.65,0.96-0.93c3.51-3.67,7.38-5.51,11.53-5.51c0.91,0,1.84,0.09,2.78,0.27c8.19,1.56,14.77,9.46,15.89,12.2
			c0.65,1.58-1.75,4.15-6.09,6.55c-5.29,2.92-10.88,4.16-11.95,2.66c-2.37-3.31-7.66-7.73-13.68-9.59
			c-1.32-0.41-2.07-0.94-2.21-1.57C64.03,168.69,65.8,167.03,67.09,165.82z"/>
		<path class="st1" d="M67.83,181.99c4.88,1.49,9.48,2.9,12.36,5.29c1.19,0.98,3.33,1.41,6.05,1.41c10.73,0,30.46-6.68,35.96-12.45
			c2.36-2.48,1.71-4.26,0.75-5.31c-1.85-2.03-8.6-9.02-17.86-13.84c-8.84-4.6-16.84-5.66-23.78-3.15
			c-5.46-5.25-13.19-2.44-23.86,3.79c-2.66,1.55-7.15,5.66-7.91,10.08c-0.37,2.13,0.18,4.08,1.61,5.78
			C54.9,178.04,61.48,180.05,67.83,181.99z M50.42,167.97c0.74-4.27,5.36-8.22,7.48-9.46c6.64-3.88,12.09-6.4,16.48-6.4
			c2.5,0,4.66,0.82,6.5,2.68l0.2,0.21l0.27-0.1c6.75-2.55,14.6-1.54,23.32,3c9.13,4.75,15.79,11.65,17.61,13.64
			c0.38,0.42,1.54,1.69-0.74,4.09c-3.13,3.28-11.58,7.22-21.04,9.81c-9.65,2.64-17.4,3.09-19.74,1.16
			c-3.02-2.5-7.71-3.93-12.67-5.45c-6.23-1.91-12.68-3.88-16.26-8.12C50.58,171.52,50.1,169.83,50.42,167.97z"/>
		<path class="st1" d="M62.48,187.07c7.19,1.43,13.99,2.79,18.39,5.86c1.77,1.23,4.86,1.85,9.22,1.85c1.25,0,2.61-0.05,4.07-0.15
			c5.76-0.4,12.97-1.64,20.31-3.49c12.18-3.06,28.05-8.72,32.68-14.57c1.78-2.25,1.69-4.36-0.27-6.11
			c-12.63-11.28-33.58-23.83-51.96-26.52c-4.57-5.61-10.12-7.78-17.46-6.83c-6.91,0.89-15.16,4.4-26.24,9.77
			c-4.07,1.97-13.84,9.19-16.32,17.75c-1.08,3.71-0.63,7.19,1.32,10.34C41.09,182.8,51.96,184.97,62.48,187.07z M35.76,164.87
			c2.4-8.28,11.89-15.27,15.85-17.19c11-5.33,19.17-8.81,25.96-9.69c1.1-0.14,2.15-0.21,3.15-0.21c5.56,0,9.84,2.18,13.6,6.85
			l0.11,0.14l0.17,0.02c18.24,2.61,39.1,15.11,51.67,26.33c1.59,1.42,1.64,3.01,0.16,4.88c-3.64,4.6-16.58,10.33-32.19,14.26
			c-15.91,4-28.8,4.75-32.86,1.92c-4.56-3.18-11.44-4.55-18.73-6.01c-10.33-2.06-21.01-4.19-25.67-11.7
			C35.17,171.57,34.76,168.33,35.76,164.87z"/>
		<path class="st1" d="M56.84,191.94c9.62,1.44,18.71,2.8,24.7,6.63c2.57,1.65,7.05,2.32,12.52,2.32c9.89,0,23.02-2.2,33.9-4.8
			c16.84-4.02,38.43-11.38,43.83-18.88c1.91-2.65,1.58-5.14-0.97-7.2c-13.72-11.11-29.32-19.03-44.4-26.69
			c-6.31-3.2-12.26-6.23-17.97-9.42c-6.64-8.8-14.34-12.25-24.97-11.17c-9.66,0.98-20.99,5.43-38.52,13.3
			c-6.58,2.95-20.55,13.4-24.62,25.27c-1.83,5.35-1.51,10.42,0.97,15.06C27.26,187.52,42.3,189.77,56.84,191.94z M21.19,161.58
			c3.97-11.61,17.68-21.84,24.14-24.74c17.45-7.83,28.71-12.26,38.24-13.22c1.21-0.12,2.38-0.18,3.52-0.18
			c8.53,0,15.02,3.51,20.7,11.08l0.06,0.08l0.08,0.05c5.75,3.22,11.74,6.26,18.08,9.48c15.04,7.64,30.6,15.53,44.24,26.59
			c2.17,1.76,2.44,3.72,0.8,5.98c-2.2,3.05-7.75,6.49-16.04,9.94c-7.59,3.15-17.27,6.21-27.27,8.6c-22.02,5.26-39.97,6.28-45.73,2.6
			c-6.15-3.93-15.33-5.3-25.05-6.76c-14.32-2.14-29.13-4.35-34.87-15.12C19.75,171.52,19.45,166.69,21.19,161.58z"/>
		<path class="st1" d="M51.13,196.77c12.07,1.45,23.48,2.83,31.07,7.43c3.28,1.99,8.94,2.8,15.83,2.8c12.64,0,29.44-2.73,43.35-5.94
			c21.47-4.96,48.75-14,54.98-23.13c2.1-3.08,1.55-5.97-1.58-8.37c-10.94-8.37-22.41-14.05-33.5-19.54
			c-14.61-7.23-28.41-14.07-39.31-26.19c-5.11-5.68-10.22-9.59-15.64-11.96c-5.32-2.32-11.12-3.23-17.74-2.77
			c-6.15,0.43-13.08,2-21.82,4.94c-8.94,3.01-19.2,7.32-28.06,11.13c-8.59,3.7-27.04,17.09-32.86,32.73
			c-0.58,1.56-1.01,3.1-1.32,4.62v9.75c0.4,1.87,1.02,3.7,1.89,5.48C13.45,192.24,32.6,194.54,51.13,196.77z M6.68,158.22
			c5.72-15.39,23.91-28.58,32.37-32.22c23.22-9.99,39.57-16.13,52.85-16.13c11.23,0,20.26,4.39,29.39,14.56
			c11.01,12.26,24.89,19.13,39.58,26.4c11.06,5.47,22.49,11.13,33.35,19.45c2.77,2.12,3.23,4.46,1.39,7.16
			c-2.55,3.74-9.43,7.96-19.89,12.19c-9.54,3.87-21.81,7.62-34.56,10.56c-12.77,2.95-25.41,4.96-35.58,5.64
			c-11.19,0.75-19.11-0.08-22.93-2.39c-7.75-4.71-19.25-6.09-31.42-7.55c-18.29-2.2-37.19-4.48-44.02-18.51
			C4.34,171.45,4.16,165.01,6.68,158.22z"/>
		<path class="st1" d="M82.85,209.84c3.98,2.33,10.83,3.29,19.17,3.29c15.37,0,35.82-3.25,52.73-7.07
			c15.53-3.51,30.43-7.97,41.96-12.56c8.92-3.55,20.36-9,24.17-14.79c2.32-3.52,1.58-6.84-2.16-9.6
			c-12.24-9-24.19-15.02-35.74-20.84c-17.54-8.84-34.1-17.18-47.53-34.53c-5.81-7.51-11.86-12.68-18.49-15.8
			c-6.42-3.02-13.59-4.2-21.91-3.6c-16.64,1.19-37.31,9.39-62.61,19.99c-6.7,2.81-18.34,10.39-27.91,20.51v1.3
			C14.1,125.79,26,118,32.78,115.16C58,104.59,78.61,96.41,95.11,95.23c1.37-0.1,2.7-0.15,4.01-0.15c6.49,0,12.23,1.21,17.46,3.67
			c6.5,3.06,12.44,8.14,18.17,15.53c13.55,17.51,30.2,25.9,47.83,34.78c11.52,5.81,23.44,11.81,35.61,20.76
			c3.38,2.5,4.01,5.24,1.94,8.38c-2.92,4.43-11.14,9.42-23.76,14.45c-11.49,4.57-26.34,9.02-41.82,12.52
			c-15.5,3.5-30.86,5.88-43.25,6.7c-13.64,0.9-23.32-0.08-28-2.82c-9.36-5.48-23.19-6.88-37.83-8.37
			c-14.9-1.51-30.14-3.06-40.95-9.12v1.04c10.93,5.94,26.06,7.47,40.86,8.97C59.92,203.06,73.66,204.45,82.85,209.84z"/>
		<path class="st1" d="M83.5,215.47c5.04,2.88,13.91,3.73,22.67,3.73c3.76,0,7.49-0.16,10.9-0.38c14.66-0.96,32.79-3.72,51.06-7.78
			c18.26-4.06,35.75-9.21,49.23-14.51c10.43-4.1,23.77-10.38,28.05-17.04c2.54-3.96,1.6-7.7-2.73-10.81
			c-13.63-9.78-26.32-16.21-38.59-22.42c-21.05-10.66-39.22-19.86-55.14-42.61c-6.52-9.31-13.49-15.72-21.32-19.58
			c-7.52-3.71-16.06-5.16-26.09-4.44C82,81.03,57.98,90.4,26.17,103.49c-5.37,2.21-13.44,7-21.65,13.56v1.13
			c8.32-6.72,16.55-11.62,21.99-13.86c31.73-13.05,55.69-22.4,75.08-23.8c9.87-0.71,18.25,0.71,25.63,4.35
			c7.69,3.79,14.56,10.1,20.99,19.29c16.05,22.93,34.32,32.18,55.47,42.89c12.24,6.2,24.9,12.61,38.48,22.35
			c3.99,2.86,4.81,6,2.5,9.6c-3.28,5.11-12.83,10.88-27.62,16.69c-13.44,5.28-30.88,10.42-49.1,14.47
			c-18.22,4.05-36.31,6.81-50.92,7.76c-16.09,1.05-27.53-0.07-33.07-3.24c-10.97-6.27-27.13-7.69-44.24-9.19
			c-12.17-1.07-24.53-2.16-35.18-5.08v0.93c10.67,2.89,22.98,3.98,35.1,5.04C56.63,207.89,72.7,209.3,83.5,215.47z"/>
		<path class="st1" d="M328.84,20.76c3.82,2.82,7.49,5.9,11,9.21v-1.24c-3.35-3.11-6.85-6.01-10.47-8.69c-1.9-1.4-3.85-2.72-5.82-4
			h-1.66C324.25,17.53,326.58,19.09,328.84,20.76z"/>
		<path class="st1" d="M207.41,17.29c-11.29,10.32-21.8,24.68-31.24,42.67c-11.85,22.59-13.79,39.19-5.77,49.34
			c6.67,8.44,20.12,12.39,39.97,11.73c16.86-0.56,34.63-4.32,46.57-7.36c20.9-5.34,48.7-2.1,82.9,9.61v-0.94
			c-23.5-8.02-44.01-12.06-61.35-12.06c-7.92,0-15.18,0.84-21.77,2.52c-20.62,5.26-70.24,15.41-85.62-4.05
			c-7.79-9.85-5.82-26.13,5.86-48.37c9.39-17.9,19.84-32.18,31.05-42.43c0.71-0.65,1.43-1.29,2.16-1.91h-1.36
			C208.34,16.45,207.88,16.86,207.41,17.29z"/>
		<path class="st1" d="M299.47,26.05c10.43,4.42,19.71,10.59,27.57,18.35c4.92,4.85,9.19,10.24,12.8,16.07v-1.68
			c-3.48-5.43-7.54-10.47-12.17-15.03c-7.94-7.83-17.31-14.07-27.85-18.53c-6.91-2.93-17.07-7.22-28.81-9.19h-7.86
			C278.02,16.99,291.13,22.52,299.47,26.05z"/>
		<path class="st1" d="M192.06,87.04c4.59,6.79,18.07,13.48,56.19,6.76c20.53-3.62,49.69,6.33,77.89,15.95
			c4.45,1.52,9.06,3.09,13.56,4.59c0.05,0.02,0.09,0.03,0.14,0.04v-0.94c-4.46-1.48-9.01-3.03-13.41-4.54
			c-24.21-8.26-49.12-16.76-68.81-16.76c-3.33,0-6.52,0.24-9.52,0.77c-11.74,2.07-21.99,2.98-30.48,2.7
			c-12.67-0.42-21.02-3.47-24.81-9.08c-4.68-6.92-2.43-17.86,6.69-32.51c14.74-23.7,33.2-36.47,54.85-37.99h-7.05
			c-18.96,3.56-35.27,16.14-48.56,37.51C189.41,68.53,187.16,79.8,192.06,87.04z"/>
		<path class="st1" d="M306.18,48.36c-11.88-8.84-24.14-14.91-35.45-17.56c-19.73-4.62-36.36,0.87-49.42,16.32
			c-6.47,7.65-8.78,13.77-6.89,18.18c3.18,7.4,17.41,8.2,25.06,8.63c5.78,0.33,13.38,2.83,23.9,6.3
			c11.43,3.77,25.66,8.46,44.26,12.6c1.38,0.31,2.71,0.46,3.99,0.46c5.28,0,9.52-2.6,11.69-7.36c2.17-4.73,1.95-11.09-0.59-17.44
			C319.81,61.2,314.09,54.24,306.18,48.36z M322.5,85.55c-2.52,5.49-8,7.89-14.67,6.4c-18.55-4.13-32.76-8.81-44.17-12.57
			c-10.59-3.49-18.23-6.01-24.13-6.34c-7.45-0.42-21.32-1.2-24.29-8.09c-1.75-4.07,0.52-9.88,6.75-17.25
			c9.89-11.7,21.86-17.58,35.71-17.58c4.11,0,8.38,0.52,12.82,1.56c11.19,2.62,23.33,8.64,35.12,17.41
			c7.77,5.78,13.39,12.61,16.25,19.74C324.35,74.94,324.57,81.04,322.5,85.55z"/>
		<path class="st1" d="M295.87,51.92c-5.11-3.53-13.38-8.31-23.78-11.01c-9.82-2.54-19.24-2.65-28.01-0.31
			c-2.69,0.72-6.14,2.59-8.79,4.77c-2.35,1.93-5.1,4.94-4.9,8.27c0.54,8.84,14.89,14.46,45.18,17.68c5.3,0.56,10.85,1.82,16.21,3.03
			c5.76,1.3,11.02,2.49,14.82,2.49c2.11,0,3.77-0.37,4.82-1.29c0.96-0.85,1.36-2.12,1.2-3.79
			C312.09,66.46,305.36,58.49,295.87,51.92z M310.83,74.88c-2.57,2.27-10.48,0.49-18.84-1.41c-5.39-1.22-10.96-2.48-16.32-3.05
			c-17.12-1.82-29.43-4.52-36.59-8.03c-5.03-2.47-7.58-5.35-7.79-8.81c-0.32-5.28,8.25-10.85,13.02-12.12
			c8.62-2.29,17.88-2.19,27.55,0.32c10.28,2.66,18.45,7.38,23.5,10.88c9.28,6.43,15.86,14.14,16.37,19.2
			C311.87,73.23,311.57,74.22,310.83,74.88z"/>
		<path class="st1" d="M302.09,215.15c7.52,12.12,12.35,26.46,17.47,41.64c5.45,16.16,11.05,32.76,20.28,47.57v-1.73
			c-8.72-14.4-14.16-30.47-19.43-46.12c-5.14-15.23-9.99-29.62-17.56-41.83c-12.37-19.95-23.83-35.37-35.03-47.16
			c-9.46-9.96-16.71-15.19-22.53-19.39c-6.7-4.83-11.13-8.03-13.8-15.26c-0.34-0.91-0.24-1.71,0.3-2.45
			c2.78-3.84,16.39-5.78,40.56-5.78c6.8,0,14.45,0.15,22.92,0.46c17.05,0.62,32.09,8.14,44.59,15.05v-1.03
			c-12.5-6.89-27.51-14.3-44.56-14.92c-39.42-1.43-60.43,0.43-64.23,5.69c-0.71,0.99-0.85,2.09-0.41,3.28
			c2.77,7.49,7.29,10.75,14.12,15.68C256.44,157.29,274.1,170.02,302.09,215.15z"/>
		<path class="st1" d="M265.46,152.51c-0.87,1.27-1.04,2.65-0.5,4.08c2.56,6.86,6.82,10.1,13.27,14.99
			c10.07,7.64,25.3,19.19,49.37,54.2c4.91,7.14,8.69,15.04,12.23,23.38v-2.28c-3.33-7.67-6.92-14.95-11.49-21.61
			c-24.16-35.13-39.45-46.73-49.57-54.4c-6.55-4.97-10.5-7.97-12.98-14.59c-0.44-1.16-0.31-2.23,0.4-3.26
			c3.58-5.24,21.42-8.68,46.55-8.97c0.2,0,0.39,0,0.59,0c9.7,0,18.6,2.76,26.5,6.09v-0.97c-8.06-3.37-17.15-6.12-27.1-6.01
			C286.93,143.45,269.26,146.94,265.46,152.51z"/>
		<path class="st1" d="M330.18,162.09c-14.77,1.5-26.63,6.22-30.2,12.02c-1.21,1.96-1.44,3.94-0.69,5.89
			c2.43,6.36,6.41,9.54,13.01,14.79c6.36,5.07,15.18,12.09,27.55,25.83v-1.34c-12.06-13.3-20.71-20.2-26.99-25.2
			c-6.48-5.16-10.39-8.28-12.73-14.41c-0.64-1.68-0.43-3.39,0.62-5.1c3.43-5.57,15.02-10.12,29.53-11.6
			c1.46-0.15,2.9-0.22,4.31-0.22c1.8,0,3.55,0.11,5.26,0.31v-0.9C336.76,161.82,333.54,161.74,330.18,162.09z"/>
		<path class="st1" d="M334.43,192.31c-1.79,3.81-2.09,7.86-0.83,11.09c1.38,3.54,3.36,6.21,6.23,9v-1.25
			c-2.47-2.5-4.16-4.9-5.4-8.07c-1.17-3.01-0.88-6.79,0.8-10.39c1.08-2.3,2.66-4.36,4.6-6.12v-1.21
			C337.53,187.3,335.67,189.66,334.43,192.31z"/>
		<path class="st1" d="M59.5,39.03c13.31,3.42,27.06,6.96,36.19,14.41c16.43,13.42,34.87,27.51,48.38,27.51
			c1.01,0,1.99-0.08,2.93-0.24c4.42-0.76,8-3.33,10.63-7.64c7.03-11.54,25.21-36.99,41.32-57.03h-1.13
			c-16.05,20.01-33.98,45.11-40.96,56.56c-2.49,4.08-5.85,6.51-10.01,7.22c-0.91,0.16-1.84,0.23-2.81,0.23
			c-13.19,0-31.49-13.99-47.79-27.31c-9.28-7.58-23.13-11.14-36.53-14.58c-17.76-4.56-34.59-8.9-37.56-22.13h-0.92
			C24.17,29.94,41.36,34.37,59.5,39.03z"/>
		<path class="st1" d="M70.12,32.93c11.23,2.84,22.85,5.78,30.56,12.08c14.56,11.9,29.63,23.39,40.87,23.39
			c0.86,0,1.69-0.07,2.5-0.21c3.73-0.64,6.75-2.81,8.97-6.46c5.65-9.28,19.83-29.2,32.92-45.69h-1.12
			c-13.01,16.44-26.97,36.04-32.56,45.23c-2.11,3.47-4.85,5.45-8.36,6.05c-11.07,1.89-27.14-10.32-42.66-23
			c-7.87-6.43-19.58-9.39-30.91-12.26c-13.75-3.48-26.84-6.79-30.73-16.02h-0.98C42.45,25.93,55.94,29.35,70.12,32.93z"/>
		<path class="st1" d="M80.73,26.83c9.16,2.26,18.63,4.6,24.94,9.75c12.46,10.18,24.39,19.28,33.39,19.27c0.7,0,1.38-0.06,2.04-0.17
			c3.04-0.52,5.5-2.3,7.32-5.29c4.28-7.03,14.56-21.54,24.56-34.36h-1.12c-9.9,12.72-19.97,26.95-24.2,33.89
			c-1.7,2.8-3.9,4.39-6.71,4.87c-0.58,0.1-1.18,0.15-1.8,0.15c-9.58,0-23.51-11.38-32.92-19.06c-6.47-5.28-16.04-7.64-25.29-9.93
			c-9.53-2.35-18.67-4.61-23.05-9.92h-1.18C61.07,21.98,70.69,24.35,80.73,26.83z"/>
		<path class="st1" d="M110.66,28.15c8.32,6.8,18.55,15.15,25.99,15.15c0.51,0,1.02-0.04,1.5-0.12c2.35-0.4,4.26-1.79,5.68-4.11
			c2.92-4.8,9.45-14.09,16.25-23.02h-1.11c-6.69,8.8-13.03,17.84-15.91,22.56c-1.29,2.12-2.95,3.33-5.06,3.69
			c-7.12,1.22-18.02-7.68-26.78-14.84c-5.06-4.13-12.49-5.89-19.67-7.59c-4.6-1.09-9.07-2.16-12.59-3.82h-1.98
			c3.8,2.18,9,3.42,14.36,4.69C98.44,22.41,105.76,24.14,110.66,28.15z"/>
		<path class="st1" d="M116.32,20.25c6.32,5.17,12.83,10.5,17.82,10.5c0.36,0,0.72-0.03,1.07-0.09c1.66-0.28,3.02-1.27,4.03-2.94
			c1.57-2.57,4.59-6.96,8.06-11.69h-1.1c-3.33,4.55-6.2,8.73-7.72,11.22c-0.88,1.45-2,2.28-3.42,2.52
			c-4.69,0.8-11.85-5.05-18.17-10.22l-0.66-0.54c-1.58-1.29-3.48-2.23-5.52-2.98h-2.89c2.96,0.84,5.72,1.94,7.85,3.68L116.32,20.25z
			"/>
		<path class="st1" d="M132.23,18.16c0.98-0.16,1.79-0.76,2.41-1.77c0.07-0.11,0.14-0.23,0.22-0.35h-1.07
			c-0.46,0.71-1.02,1.12-1.71,1.23c-1.08,0.18-2.4-0.35-3.85-1.23h-1.64c1.83,1.29,3.54,2.17,5.05,2.17
			C131.84,18.2,132.03,18.19,132.23,18.16z"/>
		<path class="st1" d="M39.42,41.33c11.63,5.32,24.51,9.27,35.86,12.75c13.14,4.03,24.49,7.51,27.84,11.5
			c1.2,1.43,1.62,2.52,1.28,3.33c-1.19,2.83-11.57,3.59-28.76,4.84c-3.67,0.27-7.82,0.57-12.26,0.92
			c-14.89,1.18-36.19,15.07-56.79,28.51c-0.69,0.45-1.38,0.9-2.07,1.35v1.07c0.85-0.55,1.7-1.11,2.56-1.67
			c20.5-13.38,41.7-27.21,56.37-28.36c4.44-0.35,8.59-0.65,12.26-0.92c18.72-1.37,28.12-2.05,29.52-5.39
			c0.48-1.15,0.02-2.54-1.42-4.25c-3.51-4.19-14.44-7.54-28.26-11.78c-11.33-3.48-24.18-7.41-35.75-12.71
			c-13.85-6.34-21.13-16.28-26.9-24.48h-1.1C17.69,24.42,25.06,34.76,39.42,41.33z"/>
		<path class="st1" d="M8.56,20.34c4.07,5.67,8.68,12.1,16.19,17.53c2.41,1.74,5.05,3.32,7.85,4.7c9.07,4.45,18.25,7.8,26.34,10.75
			c11.34,4.13,20.29,7.4,22.55,11.45c0.72,1.29,0.88,2.26,0.49,2.98c-1.31,2.46-9.14,3.1-22.1,4.16c-3.46,0.28-7.38,0.6-11.7,1
			C36.49,73.98,20.39,83.59,4.52,93.4v1.05C20.46,84.6,36.66,74.86,48.27,73.8c4.31-0.39,8.23-0.71,11.69-1
			c14.17-1.16,21.28-1.74,22.82-4.63c0.54-1.01,0.38-2.27-0.5-3.84c-2.42-4.34-11.52-7.66-23.03-11.86
			c-8.08-2.94-17.23-6.28-26.26-10.71c-2.76-1.35-5.35-2.91-7.72-4.62c-7.4-5.34-11.96-11.71-15.99-17.32
			c-0.94-1.31-1.85-2.58-2.76-3.78H5.4C6.44,17.38,7.48,18.83,8.56,20.34z"/>
		<path class="st1" d="M40.2,71.28c12.88-1.35,19.34-2.02,20.76-4.67c0.44-0.82,0.37-1.78-0.2-2.92
			c-0.16-5.21-6.96-8.14-17.23-12.56c-5.19-2.23-11.07-4.76-17.32-8.12c-2.35-1.26-4.44-2.59-6.4-4.05
			c-6.21-4.59-10.12-9.91-13.57-14.59c-0.58-0.79-1.14-1.55-1.7-2.29v1.5c0.32,0.44,0.65,0.88,0.98,1.33
			c3.49,4.74,7.44,10.11,13.76,14.78c1.99,1.49,4.13,2.83,6.51,4.12c6.28,3.38,12.18,5.92,17.39,8.16
			c9.66,4.16,16.63,7.16,16.69,11.85l0,0.11l0.05,0.09c0.47,0.9,0.56,1.62,0.26,2.18c-1.19,2.23-8.3,2.97-20.06,4.2
			c-2.2,0.23-4.57,0.48-7.11,0.76c-7.92,0.87-18.08,5.95-28.47,11.73v1.03c10.46-5.84,20.7-11,28.57-11.87
			C35.63,71.75,38,71.5,40.2,71.28z"/>
		<path class="st1" d="M28.02,49.25c-2.52-1.42-5.38-3.03-8.6-4.99c-1.88-1.15-3.54-2.28-5.09-3.47c-4.25-3.27-7.24-6.83-9.8-10.12
			v1.45c2.44,3.08,5.31,6.34,9.26,9.38c1.57,1.21,3.26,2.36,5.17,3.53c3.23,1.97,6.09,3.58,8.62,5c9.16,5.15,12.95,7.29,10.74,12.86
			l-0.05,0.13l0.03,0.14c0.17,0.68,0.09,1.22-0.23,1.68c-1.34,1.96-6.89,2.71-16.08,3.96c-1.32,0.18-2.72,0.37-4.19,0.57
			c-3.94,0.55-8.49,2.16-13.27,4.23v0.98c4.85-2.12,9.46-3.77,13.4-4.32c1.47-0.2,2.87-0.39,4.19-0.57
			c9.76-1.32,15.14-2.05,16.7-4.34c0.44-0.64,0.57-1.4,0.39-2.26C41.58,56.88,37.03,54.32,28.02,49.25z"/>
		<path class="st1" d="M17.57,62.51l0.01-0.01c2.92-3.64,4.52-5.64,4.24-7.8c-0.32-2.43-3.04-4.66-9.18-9.18
			c-1.1-0.81-2.41-1.79-3.79-2.91c-1.65-1.34-3.06-2.7-4.33-4.03v1.29c1.12,1.14,2.36,2.29,3.77,3.44c1.39,1.13,2.71,2.12,3.82,2.93
			c5.79,4.26,8.55,6.5,8.82,8.57c0.23,1.77-1.29,3.67-4.05,7.12l-0.14,0.17l-0.02,0.1c-0.6,2.63-4.96,3.61-12.2,5.03v0.91
			C12.38,66.61,16.76,65.63,17.57,62.51z"/>
		<path class="st1" d="M8.96,52.18c0.18-1.62-1.12-3.6-4.43-6.7v1.24c2.59,2.5,3.68,4.16,3.54,5.36c-0.13,1.17-1.52,2.1-3.54,3.23
			v1.03C7.01,54.96,8.76,53.86,8.96,52.18z"/>
		<path class="st1" d="M295.3,239.1c-13.56-15.25-28.28-26.48-41.47-31.63c-10.54-4.12-19.88-4.44-27.76-0.94
			c-16.83,7.48-42.07,13.81-69.26,17.37c-33.45,4.37-67.92,4.32-99.69-0.15c-18.66-2.62-36.58-2.44-52.6-0.27v0.89
			c15.97-2.16,33.84-2.35,52.48,0.27c31.84,4.48,66.4,4.53,99.93,0.15c27.27-3.56,52.6-9.92,69.51-17.43
			c7.65-3.4,16.76-3.08,27.07,0.95c13.06,5.1,27.66,16.25,41.12,31.39c13.41,15.08,25.16,33.52,33.1,51.91
			c4.33,10.04,8.48,19.67,12.12,28.84v-2.42c-3.44-8.55-7.29-17.49-11.29-26.78C320.58,272.77,308.77,254.25,295.3,239.1z"/>
		<path class="st1" d="M254.76,241.16c-16.97-14.8-32.93-20.36-44.93-15.66c-14.3,5.6-35.1,10.25-57.07,12.75
			c-27.51,3.13-55.7,2.79-81.52-0.99c-25.97-3.79-46.47-0.81-59.1,2.36c-2.64,0.66-5.17,1.4-7.61,2.2v0.94
			c2.51-0.83,5.12-1.59,7.83-2.28c8.36-2.1,20.19-4.11,34.78-4.11c7.32,0,15.35,0.51,23.98,1.77c25.9,3.79,54.17,4.14,81.76,0.99
			c22.04-2.51,42.92-7.18,57.29-12.8c25.19-9.86,64.85,28.57,83.48,69.52c8.08,17.75,16.51,37.96,19.32,55.51h0.94
			c-1.6-10.45-5.86-26.01-19.44-55.88C285.01,274.71,270.54,254.91,254.76,241.16z"/>
		<path class="st1" d="M13.61,307.59c-3.74-13.06-4.23-22.05-4.4-30.14l0-0.08l-0.03-0.08c-1.3-3.2-0.58-6.67,2.08-10.04
			c4.65-5.89,14.65-11.03,27.44-14.1c8.34-2.01,17.49-3.02,26.82-3.02c6.55,0,13.2,0.5,19.72,1.5c46.63,7.25,90.24-0.56,108.65-6.33
			c9.35-2.93,21.67,1.79,34.7,13.28c12.01,10.59,23.3,25.71,30.97,41.49c10.06,20.68,15.21,37.46,15.75,51.27h0.9
			c-0.54-13.94-5.72-30.85-15.84-51.67c-7.72-15.88-19.09-31.1-31.19-41.77c-13.27-11.71-25.9-16.49-35.57-13.47
			c-18.34,5.74-61.78,13.52-108.25,6.3c-15.92-2.45-32.57-1.91-46.89,1.53c-12.98,3.12-23.16,8.37-27.93,14.42
			c-2.85,3.61-3.62,7.36-2.24,10.85c0.18,8.13,0.68,17.17,4.44,30.29c3.72,12.99,9.91,27.31,18.79,43.52h1.02
			C23.57,335.03,17.34,320.63,13.61,307.59z"/>
		<path class="st1" d="M61.08,347.78c-10.22-17.99-16.45-32.24-19.02-43.56c-2.15-9.45-1.71-16.87,1.33-22.69l0.08-0.15l-0.04-0.16
			c-0.5-2.1,0.3-4.36,2.33-6.52c5.72-6.1,20.16-10.92,37.55-10.92c5.14,0,10.53,0.42,16.03,1.35c35.43,6.09,68.84,0.9,78.24-0.84
			c9.06-1.68,18.89,5.07,25.55,11.02c8.41,7.52,16.55,18.09,22.35,29.01c8.74,16.45,12.66,31.23,11.66,43.94
			c-0.08,1.05-0.21,2.08-0.36,3.09h0.91c0.14-0.99,0.27-1.99,0.35-3.02c1.02-12.89-2.94-27.84-11.76-44.43
			c-5.85-11-14.07-21.67-22.55-29.25c-6.8-6.09-16.89-12.98-26.31-11.24c-9.36,1.73-42.64,6.9-77.92,0.84
			c-14.54-2.46-26.32-1.17-33.65,0.35c-9.34,1.94-16.9,5.39-20.73,9.49c-2.19,2.34-3.08,4.81-2.58,7.17
			c-3.08,6-3.52,13.57-1.34,23.16c2.6,11.41,8.85,25.73,19.12,43.8c0.57,1.01,1.26,2.06,2.06,3.14h1.12
			C62.52,350.12,61.73,348.92,61.08,347.78z"/>
		<path class="st1" d="M82.84,332.42c-7.68-14.76-11.48-24.49-12.33-31.55c-0.87-7.18,1.28-11.9,6.95-15.3l0.17-0.1l0.04-0.19
			c0.58-2.69,4.91-5.27,11.3-6.75c3.61-0.83,7.53-1.25,11.6-1.25c4.22,0,8.58,0.45,12.87,1.34c15.44,3.21,30.24,3.85,41.05,4.32
			c2.56,0.11,4.77,0.21,6.72,0.32c10.61,0.65,23.09,13.57,30.19,25.3c7.57,12.5,10.2,24.86,7.63,35.75
			c-0.58,2.44-1.42,4.79-2.5,7.04h1c1.02-2.19,1.81-4.48,2.37-6.83c2.63-11.12-0.04-23.71-7.73-36.42
			c-7.22-11.93-19.97-25.07-30.9-25.73c-1.95-0.12-4.17-0.21-6.73-0.32c-10.78-0.46-25.54-1.1-40.91-4.3
			c-8.56-1.78-17.38-1.81-24.85-0.09c-6.68,1.54-11.11,4.24-11.92,7.24c-11.19,6.83-9.86,18.97,5.21,47.94
			c3.67,7.05,10.65,13.27,19.12,18.52h1.71C92.32,344.94,85.81,338.12,82.84,332.42z"/>
		<path class="st1" d="M104.62,317.09c-4.53-10.83-7.2-17.67-4.9-21.89c1.5-2.76,5.15-4.52,11.83-5.71
			c1.08-0.19,2.19-0.28,3.33-0.28c16.67,0,38.58,19.5,42.48,23.66c5.73,6.12,8.13,12.6,7.12,19.28
			c-1.13,7.43-6.39,14.18-12.28,19.21h1.35c5.71-5.08,10.71-11.74,11.82-19.07c1.05-6.96-1.42-13.7-7.35-20.03
			c-4.22-4.5-29.3-26.73-46.62-23.65c-6.97,1.24-10.82,3.14-12.46,6.16c-2.5,4.59,0.08,11.26,4.86,22.67
			c3.24,7.73,8.61,16.83,14.38,24.34c3.15,4.1,5.98,7.21,8.51,9.58h1.34C118.53,342.75,108.99,327.53,104.62,317.09z"/>
	</g>
	<g>
		<g>
			<g>
				<g>
					<rect x="36.13" y="183.21" class="st2" width="9.57" height="0.65"/>
				</g>
			</g>
			<g>
				<g>
					<rect x="40.59" y="178.75" class="st2" width="0.65" height="9.57"/>
				</g>
			</g>
		</g>
		<g>
			<g>
				<g>
					<rect x="101.85" y="183.21" class="st2" width="9.57" height="0.65"/>
				</g>
			</g>
			<g>
				<g>
					<rect x="106.31" y="178.75" class="st2" width="0.65" height="9.57"/>
				</g>
			</g>
		</g>
		<g>
			<g>
				<g>
					<rect x="167.56" y="183.21" class="st2" width="9.57" height="0.65"/>
				</g>
			</g>
			<g>
				<g>
					<rect x="172.02" y="178.75" class="st2" width="0.65" height="9.57"/>
				</g>
			</g>
		</g>
		<g>
			<g>
				<g>
					<rect x="233.28" y="183.21" class="st2" width="9.57" height="0.65"/>
				</g>
			</g>
			<g>
				<g>
					<rect x="237.73" y="178.75" class="st2" width="0.65" height="9.57"/>
				</g>
			</g>
		</g>
		<g>
			<g>
				<g>
					<rect x="298.99" y="183.21" class="st2" width="9.57" height="0.65"/>
				</g>
			</g>
			<g>
				<g>
					<rect x="303.45" y="178.75" class="st2" width="0.65" height="9.57"/>
				</g>
			</g>
		</g>
		<g>
			<g>
				<g>
					<g>
						<rect x="172.02" y="310.18" class="st2" width="0.65" height="9.57"/>
					</g>
				</g>
				<g>
					<g>
						<rect x="167.56" y="314.64" class="st2" width="9.57" height="0.65"/>
					</g>
				</g>
			</g>
			<g>
				<g>
					<g>
						<rect x="172.02" y="244.47" class="st2" width="0.65" height="9.57"/>
					</g>
				</g>
				<g>
					<g>
						<rect x="167.56" y="248.92" class="st2" width="9.57" height="0.65"/>
					</g>
				</g>
			</g>
			<g>
				<g>
					<g>
						<rect x="172.02" y="113.04" class="st2" width="0.65" height="9.57"/>
					</g>
				</g>
				<g>
					<g>
						<rect x="167.56" y="117.49" class="st2" width="9.57" height="0.65"/>
					</g>
				</g>
			</g>
			<g>
				<g>
					<g>
						<rect x="172.02" y="47.32" class="st2" width="0.65" height="9.57"/>
					</g>
				</g>
				<g>
					<g>
						<rect x="167.56" y="51.78" class="st2" width="9.57" height="0.65"/>
					</g>
				</g>
			</g>
		</g>
		<g>
			<g>
				<g>
					<g>
						<rect x="105.98" y="310.18" class="st2" width="0.65" height="9.57"/>
					</g>
				</g>
				<g>
					<g>
						<rect x="101.52" y="314.64" class="st2" width="9.57" height="0.65"/>
					</g>
				</g>
			</g>
			<g>
				<g>
					<g>
						<rect x="105.98" y="244.47" class="st2" width="0.65" height="9.57"/>
					</g>
				</g>
				<g>
					<g>
						<rect x="101.52" y="248.92" class="st2" width="9.57" height="0.65"/>
					</g>
				</g>
			</g>
			<g>
				<g>
					<g>
						<rect x="105.98" y="113.04" class="st2" width="0.65" height="9.57"/>
					</g>
				</g>
				<g>
					<g>
						<rect x="101.52" y="117.49" class="st2" width="9.57" height="0.65"/>
					</g>
				</g>
			</g>
			<g>
				<g>
					<g>
						<rect x="105.98" y="47.32" class="st2" width="0.65" height="9.57"/>
					</g>
				</g>
				<g>
					<g>
						<rect x="101.52" y="51.78" class="st2" width="9.57" height="0.65"/>
					</g>
				</g>
			</g>
		</g>
		<g>
			<g>
				<g>
					<g>
						<rect x="237.73" y="310.18" class="st2" width="0.65" height="9.57"/>
					</g>
				</g>
				<g>
					<g>
						<rect x="233.28" y="314.64" class="st2" width="9.57" height="0.65"/>
					</g>
				</g>
			</g>
			<g>
				<g>
					<g>
						<rect x="237.73" y="244.47" class="st2" width="0.65" height="9.57"/>
					</g>
				</g>
				<g>
					<g>
						<rect x="233.28" y="248.92" class="st2" width="9.57" height="0.65"/>
					</g>
				</g>
			</g>
			<g>
				<g>
					<g>
						<rect x="237.73" y="113.04" class="st2" width="0.65" height="9.57"/>
					</g>
				</g>
				<g>
					<g>
						<rect x="233.28" y="117.49" class="st2" width="9.57" height="0.65"/>
					</g>
				</g>
			</g>
			<g>
				<g>
					<g>
						<rect x="237.73" y="47.32" class="st2" width="0.65" height="9.57"/>
					</g>
				</g>
				<g>
					<g>
						<rect x="233.28" y="51.78" class="st2" width="9.57" height="0.65"/>
					</g>
				</g>
			</g>
		</g>
		<g>
			<g>
				<g>
					<g>
						<rect x="237.73" y="310.51" class="st2" width="0.65" height="9.57"/>
					</g>
				</g>
				<g>
					<g>
						<rect x="233.28" y="314.96" class="st2" width="9.57" height="0.65"/>
					</g>
				</g>
			</g>
			<g>
				<g>
					<g>
						<rect x="237.73" y="244.79" class="st2" width="0.65" height="9.57"/>
					</g>
				</g>
				<g>
					<g>
						<rect x="233.28" y="249.25" class="st2" width="9.57" height="0.65"/>
					</g>
				</g>
			</g>
			<g>
				<g>
					<g>
						<rect x="237.73" y="113.36" class="st2" width="0.65" height="9.57"/>
					</g>
				</g>
				<g>
					<g>
						<rect x="233.28" y="117.82" class="st2" width="9.57" height="0.65"/>
					</g>
				</g>
			</g>
			<g>
				<g>
					<g>
						<rect x="237.73" y="47.65" class="st2" width="0.65" height="9.57"/>
					</g>
				</g>
				<g>
					<g>
						<rect x="233.28" y="52.1" class="st2" width="9.57" height="0.65"/>
					</g>
				</g>
			</g>
		</g>
		<g>
			<g>
				<g>
					<g>
						<rect x="303.45" y="310.51" class="st2" width="0.65" height="9.57"/>
					</g>
				</g>
				<g>
					<g>
						<rect x="298.99" y="314.96" class="st2" width="9.57" height="0.65"/>
					</g>
				</g>
			</g>
			<g>
				<g>
					<g>
						<rect x="303.45" y="244.79" class="st2" width="0.65" height="9.57"/>
					</g>
				</g>
				<g>
					<g>
						<rect x="298.99" y="249.25" class="st2" width="9.57" height="0.65"/>
					</g>
				</g>
			</g>
			<g>
				<g>
					<g>
						<rect x="303.45" y="113.36" class="st2" width="0.65" height="9.57"/>
					</g>
				</g>
				<g>
					<g>
						<rect x="298.99" y="117.82" class="st2" width="9.57" height="0.65"/>
					</g>
				</g>
			</g>
			<g>
				<g>
					<g>
						<rect x="303.45" y="47.65" class="st2" width="0.65" height="9.57"/>
					</g>
				</g>
				<g>
					<g>
						<rect x="298.99" y="52.1" class="st2" width="9.57" height="0.65"/>
					</g>
				</g>
			</g>
		</g>
		<g>
			<g>
				<g>
					<g>
						<rect x="40.26" y="310.18" class="st2" width="0.65" height="9.57"/>
					</g>
				</g>
				<g>
					<g>
						<rect x="35.81" y="314.64" class="st2" width="9.57" height="0.65"/>
					</g>
				</g>
			</g>
			<g>
				<g>
					<g>
						<rect x="40.26" y="244.47" class="st2" width="0.65" height="9.57"/>
					</g>
				</g>
				<g>
					<g>
						<rect x="35.81" y="248.92" class="st2" width="9.57" height="0.65"/>
					</g>
				</g>
			</g>
			<g>
				<g>
					<g>
						<rect x="40.26" y="113.04" class="st2" width="0.65" height="9.57"/>
					</g>
				</g>
				<g>
					<g>
						<rect x="35.81" y="117.49" class="st2" width="9.57" height="0.65"/>
					</g>
				</g>
			</g>
			<g>
				<g>
					<g>
						<rect x="40.26" y="47.32" class="st2" width="0.65" height="9.57"/>
					</g>
				</g>
				<g>
					<g>
						<rect x="35.81" y="51.78" class="st2" width="9.57" height="0.65"/>
					</g>
				</g>
			</g>
		</g>
	</g>
</g>
</svg>
