<?xml version="1.0" encoding="utf-8"?>
<!-- Generator: Adobe Illustrator 27.7.0, SVG Export Plug-In . SVG Version: 6.00 Build 0)  -->
<svg version="1.1" id="Vrstva_1" xmlns="http://www.w3.org/2000/svg" xmlns:xlink="http://www.w3.org/1999/xlink" x="0px" y="0px"
	 viewBox="0 0 345.8 367.19" style="enable-background:new 0 0 345.8 367.19;" xml:space="preserve">
<style type="text/css">
	.st0{fill:none;}
	.st1{fill:#CCCCCC;}
	.st2{fill:#FFFFFF;}
</style>
<g>
	<g>
		<path class="st0" d="M291.83,145.86c-2.68-0.03-5.45-0.06-7.58-1.13c-3.72-1.87-6.91-2.87-9.04-2.87c-0.73,0-1.33,0.12-1.78,0.35
			c-0.61,0.32-0.96,0.85-1.08,1.63c-0.61,4.13-6.18,15.78-8.85,17.72c-0.31,0.23-0.27,0.37-0.25,0.43
			c0.35,1.27,6.03,3.34,12.17,3.94c5.1,0.5,16.78-1.61,21.9-7.61c2.36-2.76,3.07-6.03,2.1-9.73
			C298.74,145.94,295.54,145.9,291.83,145.86z M290.67,157.9c-3.12,3.65-9.44,4.96-12.85,4.96c-0.36,0-0.69-0.01-0.98-0.04
			c-2.55-0.25-7.02-1.1-7.58-2.67c-0.09-0.24-0.16-0.71,0.32-1.2c1.17-1.19,4.47-8.5,5.38-11.18c0.22-0.64,0.6-1.08,1.15-1.3
			c1.44-0.58,3.61,0.54,5.91,1.72c0.31,0.16,0.62,0.32,0.93,0.47c1.2,0.6,2.76,0.53,4.28,0.45c2.15-0.1,4.37-0.21,4.93,1.96
			C292.82,153.66,292.32,155.96,290.67,157.9z"/>
		<path class="st0" d="M301,137.53c-4.77-0.23-9.71-0.47-13.3-2.28c-4.86-2.44-11.02-4.24-15.62-4.24c-1.92,0-3.57,0.31-4.74,1.02
			c-1.25,0.75-1.88,1.89-1.91,3.47c-0.15,7.42-10.13,27.01-15.26,29.95c-0.69,0.4-0.62,0.72-0.6,0.84
			c0.5,2.35,11.88,6.56,22.83,7.64c3.8,0.38,11.21-0.02,19.6-2.38c6.25-1.75,14.79-5.13,20-11.22c4.17-4.87,5.42-10.64,3.72-17.15
			C314.42,138.18,307.9,137.86,301,137.53z M305.34,159.91c-6.67,7.8-21.08,11.02-29.2,11.02c-0.85,0-1.62-0.04-2.32-0.1
			c-3.99-0.39-8.35-1.33-11.96-2.56c-2.68-0.92-5.96-2.34-6.33-3.92c-0.08-0.35-0.09-1.03,0.82-1.59
			c3.55-2.22,11.28-17.58,11.64-23.15c0.1-1.48,0.75-2.58,1.95-3.26c3.46-1.98,10.95,0.09,16.43,2.85
			c2.69,1.35,6.44,1.48,10.07,1.61c5.57,0.2,10.83,0.38,12,4.86C309.85,151.06,308.81,155.85,305.34,159.91z"/>
		<path class="st0" d="M296.41,141.7c-3.73-0.13-7.58-0.27-10.44-1.71c-3.99-2.01-8.86-3.54-12.37-3.54c-1.29,0-2.4,0.21-3.21,0.67
			c-0.93,0.53-1.42,1.36-1.5,2.54c-0.38,5.88-8.27,21.48-12.06,23.85c-0.5,0.31-0.44,0.54-0.42,0.63c0.43,1.82,8.99,4.95,17.5,5.79
			c7.18,0.71,23.59-2.23,30.75-10.61c3.26-3.82,4.24-8.34,2.91-13.44C306.58,142.06,301.64,141.88,296.41,141.7z M298,158.9
			c-4.83,5.65-15.21,7.99-21.03,7.99c-0.6,0-1.15-0.02-1.64-0.07c-5.8-0.57-12.39-2.56-12.94-4.6c-0.08-0.3-0.11-0.87,0.59-1.39
			c2.31-1.68,7.87-12.89,8.49-17.13c0.16-1.07,0.68-1.84,1.55-2.29c2.95-1.53,9.12,1.25,11.64,2.51c1.94,0.98,4.61,1.01,7.19,1.04
			c3.9,0.04,7.59,0.09,8.45,3.4C301.33,152.36,300.56,155.91,298,158.9z"/>
		<path class="st0" d="M62.96,170.67c17.26,6.96,33.73,11.98,46.38,14.13c19.11,3.25,37.61-1.17,49.77-5.45
			c15.81-5.56,27.79-13.17,33.73-18.43c5.6-5,11.72-15.53,16.37-28.18c4.09-11.14,5.87-21.01,4.24-23.45
			c-2.2-3.29-4.75-2.35-16.4,2.68c-5.26,2.27-12.48,5.38-22.22,9.08c-6.07,2.31-14.16,4.57-24.04,6.73
			c-17.97,3.92-40.95,7.34-63.06,9.39c-22.58,2.09-41.39,2.45-51.59,0.98c-3.83-0.55-8.36-1.09-12.33-1.09
			c-4.09,0-7.57,0.58-9.07,2.32c-0.9,1.05-1.06,2.49-0.47,4.38C15.68,148.36,37.07,160.18,62.96,170.67z M23.97,142
			c2.08-2.63,8.02-3.16,19.87-1.79c19.13,2.22,70.49-2.89,105.67-10.51c9.11-1.98,16.57-4.03,22.16-6.12
			c8.59-3.2,15.09-5.92,19.83-7.9c10.92-4.57,14.21-5.95,16.37-1.88c1.63,3.08-1.08,13.56-4.28,21.99
			c-6.31,16.63-12.85,23.53-15.37,25.73c-5.56,4.85-16.68,11.86-31.21,16.98c-8.58,3.02-20.62,6.14-33.72,6.14
			c-3.92,0-7.93-0.28-11.98-0.92c-11.79-1.88-26.9-6.31-42.56-12.49c-21.05-8.37-43.31-19.47-45.13-24.5
			C22.92,144.78,23.04,143.18,23.97,142z"/>
		<path class="st0" d="M287.26,150.01c-1.55,0.07-3.32,0.16-4.72-0.55c-0.31-0.16-0.62-0.32-0.93-0.48
			c-1.63-0.84-3.45-1.78-4.62-1.78c-0.21,0-0.39,0.03-0.55,0.09c-0.29,0.12-0.5,0.37-0.63,0.76c-0.83,2.45-4.2,10.11-5.59,11.52
			c-0.15,0.15-0.13,0.23-0.11,0.26c0.22,0.61,2.72,1.68,6.83,2.08c3.02,0.3,9.96-0.99,13.06-4.61c1.46-1.7,1.89-3.73,1.29-6.02
			C290.91,149.9,289.51,149.9,287.26,150.01z"/>
		<path class="st0" d="M75.22,170.13c13.93,5.34,27.55,9.16,38.35,10.74c26.71,3.9,56.35-9.39,68.87-20.08
			c4.73-4.04,9.78-12.27,13.86-22.59c3.39-8.57,5.29-16.76,4.42-19.05c-0.37-0.98-0.81-1.53-1.41-1.79
			c-1.74-0.76-5.37,0.71-12.59,3.64c-4.24,1.72-10.06,4.08-17.56,6.81c-5.2,1.89-12.11,3.77-20.53,5.58
			c-32.32,6.94-79.59,12.13-97.28,10.67c-2.73-0.22-5.51-0.4-8.02-0.4c-4.16,0-7.56,0.49-8.7,2.07c-0.59,0.81-0.57,1.92,0.06,3.38
			C36.26,152.79,53.31,161.63,75.22,170.13z M43.85,148.4c1.11-1.74,4.04-2.73,15.16-2.28c15.92,0.65,59.69-4.7,88.37-10.8
			c7.64-1.63,13.91-3.3,18.66-4.97c6.2-2.19,11.08-4.07,15-5.59c8.12-3.13,11.48-4.43,13.16-3.33c0.86,0.56,1.02,1.65,1.06,2.45
			c1.69,4.56-7.4,29.18-17.43,37.53c-6.11,5.08-15.68,10.2-25.6,13.7c-7.17,2.53-17.36,5.2-28.41,5.2c-2.7,0-5.46-0.16-8.24-0.52
			c-9.94-1.29-22.53-4.61-34.54-9.09c-16.34-6.1-34.87-14.49-36.94-18.52C43.31,150.65,43.22,149.38,43.85,148.4z"/>
		<path class="st0" d="M305.58,133.36c-5.82-0.33-11.84-0.67-16.17-2.85c-5.67-2.85-13.12-4.95-18.83-4.95
			c-2.56,0-4.76,0.42-6.31,1.38c-1.55,0.97-2.33,2.45-2.31,4.4c0.08,8.97-11.99,32.55-18.45,36.04c-0.89,0.48-0.81,0.92-0.78,1.06
			c0.34,1.68,5.27,3.94,9.38,5.36c5.73,1.98,12.76,3.52,18.78,4.12c4.64,0.46,13.7-0.03,23.97-2.9c7.65-2.14,18.11-6.25,24.47-13.7
			c5.07-5.93,6.6-12.95,4.54-20.86C322.26,134.3,314.16,133.85,305.58,133.36z M312.68,160.91c-8.5,9.95-26.95,14.05-37.37,14.05
			c-1.09,0-2.1-0.05-2.99-0.13c-10.04-0.99-22.91-5.03-23.62-8.34c-0.11-0.5-0.01-1.21,1.03-1.81c4.84-2.77,14.67-22.14,14.81-29.19
			c0.04-1.89,0.82-3.3,2.34-4.22c2.61-1.57,6.77-1.24,9.8-0.69c3.73,0.68,7.89,2.1,11.42,3.87c3.43,1.72,8.26,1.96,12.94,2.18
			c7.24,0.35,14.08,0.68,15.55,6.32C318.36,149.76,317.05,155.8,312.68,160.91z"/>
		<path class="st0" d="M93.6,169.32c8.7,2.92,18.3,4.98,26.32,5.65c18.77,1.57,38.36-7.74,46.94-14.39
			c7.72-5.98,15.15-23.06,14.83-26.6l-0.01-0.1l0.03-0.09c0.44-1.29,0.33-1.76,0.16-1.94c-0.81-0.81-5.13,0.67-11.69,2.91
			c-2.74,0.93-5.84,1.99-9.52,3.19c-3.94,1.28-9.07,2.58-15.25,3.85c-22.46,4.64-58.53,10.08-71.2,11.12
			c-4.93,0.4-9.06,0.84-9.65,2.19c-0.2,0.46,0.04,1.12,0.71,1.98C67.11,159.39,77.96,164.07,93.6,169.32z M73.71,157.9
			c0.45-1.48,3.32-2.08,8-2.91c2.21-0.39,5.3-0.92,8.99-1.56c14.07-2.43,37.63-6.49,53.47-9.69c5.37-1.09,9.88-2.19,13.4-3.26
			c2.4-0.73,4.57-1.41,6.48-2.01c8.23-2.58,11.63-3.65,12.66-2.4c0.6,0.73,0.11,1.92-0.47,2.99c-0.51,3.34-6.89,16.91-14.04,22.17
			c-8.54,6.28-23.8,12.72-38.03,12.72c-0.73,0-1.46-0.02-2.18-0.05c-7.23-0.35-15.23-1.77-22.52-3.99
			c-14.32-4.38-22.61-7.58-24.62-9.52C74.22,159.78,73.41,158.86,73.71,157.9z"/>
		<path class="st0" d="M75.47,159.74c1.31,1.27,6.58,3.91,24.26,9.31c7.22,2.21,15.14,3.61,22.3,3.96c0.71,0.03,1.43,0.05,2.15,0.05
			c14.02,0,29.07-6.35,37.49-12.54c7.04-5.17,13.29-18.55,13.69-21.65l0.01-0.08l0.04-0.07c0.83-1.52,0.7-1.95,0.61-2.07
			c-0.65-0.79-5.52,0.75-11.7,2.69c-1.92,0.6-4.09,1.28-6.49,2.01c-3.55,1.08-8.08,2.18-13.48,3.28c-15.86,3.21-39.42,7.27-53.5,9.7
			c-3.68,0.64-6.77,1.17-8.99,1.56c-3.11,0.55-6.98,1.23-7.3,2.29C74.43,158.61,74.98,159.27,75.47,159.74z M83.61,161
			c0.17-1.14,1.88-1.86,5.64-3.04c7.7-2.42,28.69-6.51,45.55-9.79c2.94-0.57,5.74-1.12,8.3-1.62c4.55-0.9,8.47-1.8,11.65-2.69
			c2.28-0.63,4.3-1.23,6.08-1.76c6.09-1.8,8.87-2.62,9.78-1.48c0.51,0.64,0.29,1.65-0.75,3.5c-0.14,0.25-0.32,0.58-0.53,0.95
			c-2,3.66-6.69,12.23-12.35,16.11c-7.77,5.33-20.94,10.72-32.85,10.76c-0.07,0-0.15,0-0.22,0c-6.14,0-12.63-0.81-18.3-2.29
			c-9.35-2.44-17.96-4.77-20.49-6.51C84.35,162.6,83.48,161.88,83.61,161z"/>
		<path class="st0" d="M310.17,129.2c-6.86-0.42-13.96-0.86-19.03-3.41c-4.87-2.45-10.82-4.34-16.33-5.18
			c-2.05-0.31-3.96-0.47-5.69-0.47c-3.38,0-6.1,0.59-7.91,1.74c-1.86,1.19-2.77,2.98-2.7,5.33c0.28,10.54-13.87,38.1-21.64,42.13
			c-1.1,0.57-1,1.1-0.96,1.28c0.66,3.42,17.66,9.76,33.5,11.32c5.48,0.54,16.2-0.03,28.33-3.41c16.41-4.58,24.8-11.33,28.95-16.18
			c5.97-6.99,7.77-15.26,5.35-24.57C330.11,130.43,320.42,129.83,310.17,129.2z M320.02,161.92
			c-10.33,12.09-32.82,17.07-45.54,17.07c-1.34,0-2.57-0.06-3.67-0.16c-6.09-0.6-13.19-2.16-18.98-4.16
			c-3.51-1.22-9.48-3.62-9.97-6.03c-0.11-0.56,0.01-1.37,1.23-2.03c2.79-1.51,7.22-7.61,11.29-15.54c4.16-8.11,6.72-15.66,6.69-19.7
			c-0.02-2.29,0.9-4.03,2.73-5.17c3.18-1.98,8.29-1.66,12.01-1.04c4.66,0.77,9.77,2.44,14,4.57c4.16,2.1,10.09,2.43,15.82,2.75
			c8.91,0.5,17.34,0.98,19.11,7.78C326.88,148.46,325.29,155.75,320.02,161.92z"/>
		<path class="st0" d="M85.63,162.39c1.57,1.08,5.89,2.47,11.16,3.96c-0.52-0.16-0.99-0.32-1.37-0.48c-1-0.42-2.02-0.97-2.06-1.85
			c-0.04-0.89,0.88-1.73,3.41-3.07c8.19-4.37,36.71-9.98,45.26-11.59c3.5-0.66,6.93-1.39,9.91-2.12c0.85-0.21,1.67-0.41,2.45-0.6
			c7.06-1.74,9.95-2.39,10.71-1.16c0.45,0.73-0.02,1.8-1.62,3.7c-0.36,0.43-0.8,0.98-1.31,1.62c-2.27,2.86-6.08,7.66-10.4,10.34
			c-6.05,3.75-15.92,8.04-25.47,8.84c-1.76,0.15-3.51,0.22-5.22,0.22c-3.29,0-6.44-0.27-9.3-0.81c-0.88-0.17-1.75-0.32-2.63-0.48
			c-2.73-0.12-4.67-0.38-5.67-1.05c-2.16-0.41-4.13-0.82-5.7-1.23c2.56,0.71,5.31,1.44,8.06,2.15c5.67,1.48,12.16,2.28,18.29,2.26
			c11.72-0.04,24.69-5.35,32.35-10.6c5.48-3.76,10.1-12.19,12.07-15.8c0.21-0.38,0.39-0.71,0.53-0.96c1.06-1.87,0.93-2.37,0.83-2.5
			c-0.11-0.13-0.35-0.19-0.71-0.19c-1.4,0-4.57,0.93-8.11,1.98c-1.78,0.53-3.81,1.12-6.09,1.76c-3.2,0.89-7.14,1.8-11.72,2.7
			c-2.56,0.5-5.36,1.05-8.3,1.62c-16.84,3.28-37.81,7.37-45.45,9.77c-1.83,0.58-4.9,1.54-5.02,2.31
			C84.47,161.3,84.59,161.68,85.63,162.39z"/>
		<path class="st0" d="M30.08,79.18c0.5,0.71,3.57,0.15,6.78-1.61c2.39-1.32,3.83-2.8,3.5-3.61c-0.65-1.58-4.45-6.15-9.19-7.05
			c-2.99-0.57-5.76,0.45-8.23,3.03c-0.16,0.17-0.36,0.36-0.57,0.55c-0.69,0.64-1.72,1.62-1.58,2.21c0.07,0.29,0.48,0.57,1.17,0.79
			C25.53,74.59,28.67,77.21,30.08,79.18z"/>
		<path class="st0" d="M109.27,168.01c1.31,0.06,2.71,0.08,4.06,0.1c1.55,0.02,3.15,0.05,4.69,0.12
			c13.05,0.57,30.73-8.17,38.49-14.71c2.54-2.14,2.35-2.73,2.33-2.79c-0.48-1-7.24,0.32-12.18,1.27c-1.81,0.35-3.68,0.71-5.53,1.04
			c-10.2,1.81-30.91,6.55-36.23,11.58c-0.98,0.93-1.43,1.67-1.26,2.1c0.04,0.1,0.12,0.2,0.22,0.29c1.32,0.25,2.7,0.5,4.11,0.76
			C108.39,167.85,108.83,167.93,109.27,168.01z"/>
		<path class="st0" d="M104.27,163.97c2.4-2.26,7.82-4.64,16.12-7.06c6.08-1.77,13.77-3.55,20.58-4.75
			c1.85-0.33,3.71-0.69,5.52-1.04c8.14-1.58,12.42-2.33,13.16-0.78c0.41,0.85-0.36,2.01-2.56,3.87
			c-7.61,6.42-24.69,14.94-37.82,14.94c-0.43,0-0.86-0.01-1.29-0.03c-0.64-0.03-1.29-0.05-1.94-0.06c3.21,0.3,6.66,0.31,10.18,0.02
			c9.39-0.78,19.11-5.01,25.07-8.71c4.19-2.6,7.93-7.31,10.17-10.13c0.51-0.65,0.96-1.21,1.33-1.64c1.75-2.07,1.6-2.57,1.55-2.64
			c-0.45-0.72-5.17,0.44-9.74,1.56c-0.78,0.19-1.6,0.39-2.45,0.6c-2.99,0.73-6.44,1.46-9.95,2.13c-8.51,1.61-36.92,7.19-45,11.5
			c-2.45,1.31-2.95,1.94-2.93,2.24c0.01,0.16,0.21,0.51,1.52,1.06c1.39,0.58,3.93,1.16,6.95,1.75
			C102.58,166.02,103.07,165.11,104.27,163.97z"/>
		<path class="st0" d="M81.35,169.86c11.95,4.46,24.47,7.76,34.34,9.04c13.94,1.81,27.4-1.52,36.23-4.64
			c9.83-3.47,19.3-8.53,25.33-13.55c9.76-8.12,18.82-32.62,17.15-36.57l-0.03-0.07l0-0.08c-0.05-1.28-0.4-1.65-0.66-1.82
			c-1.29-0.85-5.22,0.67-12.34,3.42c-3.93,1.52-8.82,3.4-15.03,5.59c-4.78,1.69-11.09,3.37-18.77,5
			c-28.73,6.11-72.62,11.47-88.59,10.82c-1.71-0.07-3.46-0.13-5.13-0.13c-4.39,0-8.22,0.39-9.24,1.99c-0.44,0.7-0.35,1.64,0.29,2.89
			C46.55,154.99,61.88,162.6,81.35,169.86z M53.76,151.74c0.99-1.93,5.05-2.18,11.2-2.56c0.52-0.03,1.06-0.07,1.61-0.1
			c13.89-0.89,53.52-5.44,79.75-10.95c6.89-1.45,12.58-2.93,16.9-4.4c4.95-1.68,9.05-3.18,12.34-4.38c8.05-2.94,11.38-4.16,12.8-3
			c0.75,0.61,0.7,1.75,0.59,2.6c1,4.47-7.47,25.28-16.32,32.41c-8.61,6.94-28.54,16.82-48.62,16.82c-2.1,0-4.19-0.11-6.28-0.34
			c-9.03-0.99-20.15-3.69-30.53-7.39c-13.72-4.9-30.56-11.9-32.84-15.53C53.52,153.61,53.33,152.58,53.76,151.74z"/>
		<path class="st0" d="M87.48,169.59c10.32,3.68,21.37,6.36,30.33,7.35c21.82,2.4,44.85-8.72,54.24-16.29
			c8.95-7.21,16.95-28.03,15.99-31.58l-0.02-0.09l0.01-0.09c0.15-0.99,0.06-1.6-0.25-1.86c-1.02-0.84-5.13,0.66-11.92,3.15
			c-3.3,1.2-7.4,2.7-12.36,4.39c-4.36,1.48-10.08,2.97-17.01,4.43c-26.27,5.52-65.96,10.07-79.87,10.97
			c-0.55,0.04-1.09,0.07-1.61,0.1c-5.42,0.34-9.7,0.6-10.45,2.08c-0.27,0.53-0.09,1.27,0.54,2.28
			C56.85,157.21,69.86,163.3,87.48,169.59z M63.75,154.76c0.79-1.81,4.63-2.26,10.4-2.72c12.65-1.03,48.65-6.46,71.09-11.1
			c6.14-1.27,11.24-2.56,15.15-3.83c3.68-1.19,6.78-2.25,9.51-3.19c8.07-2.76,11.41-3.9,12.61-2.69c0.66,0.67,0.4,1.82,0.08,2.78
			c0.2,3.96-7.16,21.08-15.19,27.29c-8.03,6.22-25.59,14.75-43.22,14.75c-1.45,0-2.89-0.06-4.34-0.18
			c-8.09-0.68-17.76-2.75-26.53-5.69c-6.01-2.02-25.85-8.88-28.73-12.52C63.68,156.5,63.41,155.56,63.75,154.76z"/>
		<path class="st0" d="M31.02,82.93c1.31,1.12,6.35,0.68,12.55-1.11c6.06-1.75,11.39-4.22,12.96-6.03c0.75-0.86,0.36-1.2,0.18-1.37
			c-2.7-2.39-6.9-5.73-11.51-8.06c-5.86-2.95-10.85-3.53-14.86-1.72l-0.27,0.12l-0.22-0.21c-0.96-0.91-2.09-1.32-3.38-1.32
			c-2.49,0-5.57,1.5-9.2,3.72c-1.14,0.7-3.6,2.87-3.93,5.16c-0.14,0.99,0.14,1.89,0.85,2.67c2.11,2.35,5.77,3.55,9.3,4.71
			C26.43,80.47,29.22,81.38,31.02,82.93z M19.9,72.9c-0.25-1.1,0.91-2.19,1.84-3.07c0.2-0.19,0.39-0.37,0.54-0.52
			c2.69-2.81,5.73-3.92,9.05-3.29c5.14,0.98,9.13,5.83,9.85,7.59c0.78,1.91-2.46,3.95-3.89,4.74c-1.73,0.96-4.39,2.01-6.21,2.01
			c-0.77,0-1.4-0.19-1.73-0.66c-1.32-1.85-4.28-4.32-7.66-5.36C20.63,74.01,20.05,73.54,19.9,72.9z"/>
		<path class="st0" d="M69.09,170.4c15.59,6.15,30.64,10.57,42.37,12.43c17.39,2.77,34.21-1.29,45.26-5.18
			c14.41-5.07,25.42-12.01,30.92-16.81c11.85-10.34,21.95-41.89,19.45-46.63c-1.77-3.35-4.35-2.26-15.23,2.29
			c-4.75,1.99-11.26,4.71-19.87,7.92c-5.63,2.1-13.13,4.17-22.29,6.15c-35.26,7.64-86.76,12.75-105.97,10.53
			c-3.4-0.39-7.07-0.74-10.32-0.74c-4.06,0-7.44,0.54-8.74,2.19c-0.74,0.93-0.81,2.2-0.2,3.87
			C25.98,150.58,45.16,160.89,69.09,170.4z M33.9,145.21c1.96-2.73,8.43-2.78,17.52-2.03c17.62,1.45,64.77-3.73,97.02-10.66
			c8.38-1.8,15.24-3.67,20.41-5.54c7.49-2.72,13.3-5.08,17.53-6.79c7.69-3.12,11.2-4.54,13.29-3.63c0.83,0.36,1.43,1.09,1.89,2.3
			c0.96,2.51-0.91,10.79-4.43,19.69c-1.95,4.94-7.24,17.07-14.11,22.94c-5.14,4.39-15.3,10.72-28.41,15.34
			c-7.87,2.77-18.98,5.67-31.05,5.67c-3.32,0-6.71-0.22-10.12-0.72c-10.87-1.59-24.55-5.42-38.55-10.79
			c-18.38-7.13-39.06-16.91-41.03-21.51C33.12,147.71,33.13,146.28,33.9,145.21z"/>
		<path class="st1" d="M29.35,79.7c0.34,0.47,0.96,0.66,1.73,0.66c1.82,0,4.47-1.06,6.21-2.01c1.43-0.79,4.67-2.83,3.89-4.74
			c-0.72-1.76-4.71-6.61-9.85-7.59c-3.31-0.63-6.36,0.48-9.05,3.29c-0.14,0.15-0.33,0.33-0.54,0.52c-0.93,0.88-2.1,1.97-1.84,3.07
			c0.15,0.64,0.73,1.12,1.78,1.44C25.06,75.38,28.02,77.85,29.35,79.7z M20.77,72.7c-0.14-0.6,0.9-1.57,1.58-2.21
			c0.21-0.2,0.41-0.38,0.57-0.55c2.47-2.58,5.24-3.59,8.23-3.03c4.74,0.9,8.55,5.47,9.19,7.05c0.33,0.81-1.11,2.3-3.5,3.61
			c-3.2,1.77-6.28,2.32-6.78,1.61c-1.41-1.97-4.55-4.59-8.13-5.7C21.26,73.27,20.84,72.99,20.77,72.7z"/>
		<path class="st1" d="M30.44,83.61c0.71,0.61,1.96,0.83,3.44,0.83c3.47,0,8.17-1.25,9.95-1.76c5.25-1.51,11.43-4.05,13.39-6.3
			c1.21-1.38,0.47-2.3,0.1-2.63c-2.74-2.43-7-5.82-11.7-8.19c-5.98-3.01-11.14-3.64-15.36-1.85c-3.21-2.78-7.71-1.02-13.45,2.49
			c-1.49,0.91-3.98,3.29-4.35,5.79c-0.18,1.27,0.18,2.41,1.07,3.4c2.27,2.53,6.04,3.77,9.69,4.96
			C26.07,81.29,28.77,82.18,30.44,83.61z M13.34,72.11c0.33-2.29,2.79-4.46,3.93-5.16c3.63-2.22,6.72-3.72,9.2-3.72
			c1.29,0,2.42,0.4,3.38,1.32l0.22,0.21l0.27-0.12c4-1.81,9-1.23,14.86,1.72c4.61,2.33,8.81,5.67,11.51,8.06
			c0.19,0.16,0.57,0.51-0.18,1.37c-1.57,1.8-6.9,4.28-12.96,6.03c-6.2,1.79-11.24,2.23-12.55,1.11c-1.8-1.54-4.58-2.46-7.53-3.43
			c-3.53-1.16-7.19-2.36-9.3-4.71C13.48,74,13.19,73.1,13.34,72.11z"/>
		<path class="st1" d="M20.8,83.76c4.19,0.95,8.15,1.85,10.68,3.69c0.99,0.73,2.8,1.04,5.13,1.04c8.29,0,23.19-4,31.45-7.82
			c4.13-1.91,6.28-3.6,6.38-5.04c0.03-0.44-0.11-1.07-0.95-1.63c-7.77-5.1-23.81-15.62-35.31-15.62c-0.09,0-0.18,0-0.27,0
			c-5.72-6.59-13.75-3.26-24.44,2.16c-1.98,1-6.31,4.26-8.24,8.23v3c0.04-0.31,0.09-0.61,0.17-0.93c1.17-4.49,6.31-8.41,8.47-9.5
			c5.79-2.94,10.44-5.01,14.28-5.57c0.69-0.1,1.36-0.15,1.99-0.15c2.94,0,5.22,1.12,7.23,3.5l0.14,0.17l0.22-0.01
			c0.15,0,0.31-0.01,0.47-0.01c11.22,0,27.12,10.43,34.81,15.47c0.58,0.38,0.55,0.71,0.55,0.81c-0.04,0.49-0.68,1.89-5.87,4.29
			c-5.21,2.41-13.2,4.92-20.35,6.41c-7.79,1.61-13.52,1.79-15.33,0.47c-2.68-1.95-6.72-2.87-11.01-3.84
			c-5.87-1.33-11.94-2.71-14.74-6.87c-0.56-0.83-0.9-1.72-1.02-2.65v2.69c0.09,0.15,0.17,0.31,0.27,0.46
			C8.52,80.97,14.76,82.39,20.8,83.76z"/>
		<path class="st1" d="M32.51,91.29c1.41,0.95,3.89,1.3,6.79,1.3c5.94,0,13.65-1.47,17.62-2.32c11.1-2.38,22.73-6.15,28.93-9.39
			c3.46-1.81,5.15-3.35,5.17-4.73c0.01-0.73-0.43-1.35-1.31-1.85c-14.17-7.98-31.98-17.6-44.18-21.23
			c-7.94-10.04-18.69-5.99-35.4,1.86c-1.19,0.56-2.99,1.67-4.9,3.17v1.16c1.98-1.64,3.92-2.88,5.28-3.52
			c9.24-4.34,15.65-6.97,21.04-7.6c0.79-0.09,1.54-0.14,2.27-0.14c4.56,0,8.04,1.82,11.1,5.74l0.09,0.11l0.14,0.04
			c12.12,3.57,29.95,13.2,44.13,21.19c0.57,0.32,0.86,0.68,0.86,1.06c-0.01,0.57-0.63,1.83-4.69,3.95
			c-6.14,3.2-17.67,6.95-28.7,9.31c-12.08,2.59-20.95,3.02-23.73,1.15c-3.59-2.42-8.96-3.38-14.65-4.4
			c-4.6-0.82-9.29-1.66-13.13-3.31v0.97c3.86,1.59,8.45,2.42,12.97,3.23C23.8,88.03,29.08,88.98,32.51,91.29z"/>
		<path class="st1" d="M33.53,95.12c1.66,1.06,4.65,1.53,8.52,1.53c16.47,0,48.75-8.47,60.73-15.16c3.27-1.83,4.85-3.4,4.83-4.81
			c-0.01-0.83-0.57-1.54-1.66-2.1c-5.91-3.04-12.62-6.38-19.72-9.93c-11.85-5.92-24.11-12.04-33.1-16.94
			c-4.86-6.42-10.5-8.92-18.28-8.13c-7.05,0.72-15.31,3.97-28.07,9.71c-0.45,0.2-0.98,0.48-1.55,0.79v1.02c0.7-0.4,1.35-0.74,1.92-1
			c12.68-5.7,20.86-8.93,27.79-9.63c0.88-0.09,1.74-0.14,2.57-0.14c6.16,0,10.85,2.53,14.96,7.99l0.06,0.08l0.09,0.05
			c9.01,4.91,21.31,11.05,33.21,17c7.1,3.54,13.8,6.89,19.71,9.93c0.77,0.4,1.17,0.84,1.18,1.31c0.01,0.58-0.54,1.88-4.37,4.01
			c-7.06,3.94-21.76,8.72-36.59,11.91c-16.17,3.47-28.03,4.13-31.74,1.75c-4.51-2.89-11.22-3.9-18.32-4.98
			c-3.54-0.53-7.11-1.08-10.46-1.87v0.92c3.32,0.77,6.84,1.3,10.32,1.83C22.57,91.33,29.19,92.33,33.53,95.12z"/>
		<path class="st1" d="M34.56,98.95c2,1.24,5.59,1.79,10.23,1.79c20.41,0,61-10.54,74.63-18.48c3.27-1.9,4.83-3.55,4.78-5.03
			c-0.04-0.93-0.71-1.72-2.01-2.35c-5.25-2.53-10.98-4.99-17.05-7.59C88.29,60.07,70.88,52.6,60.71,42.36
			c-7.34-7.39-14.31-10.29-23.3-9.68c-8.42,0.57-18.27,4.17-32.17,10.21v0.98c14-6.09,23.87-9.73,32.23-10.29
			c0.74-0.05,1.47-0.08,2.19-0.08c7.67,0,13.89,2.92,20.42,9.49c10.3,10.37,27.79,17.87,44.7,25.12c6.06,2.6,11.79,5.05,17.02,7.58
			c0.97,0.47,1.48,1,1.5,1.58c0.02,0.62-0.51,1.99-4.33,4.22c-7.98,4.65-25.8,10.43-44.34,14.4c-20.17,4.31-34.97,5.18-39.59,2.31
			c-5.43-3.37-13.48-4.44-22.01-5.57c-2.6-0.35-5.22-0.7-7.78-1.11v0.91c2.53,0.41,5.1,0.75,7.66,1.09
			C21.33,94.62,29.29,95.68,34.56,98.95z"/>
		<path class="st1" d="M35.58,102.77c2.24,1.36,6.36,2.03,12,2.03c8.76,0,21.21-1.61,36.01-4.76c22.3-4.75,43.33-11.55,52.31-16.94
			c3.36-2.01,4.95-3.75,4.86-5.32c-0.06-1.04-0.85-1.92-2.35-2.61c-5.3-2.44-10.88-4.79-16.79-7.28
			c-20.28-8.54-41.25-17.37-53.35-30.91c-8.15-9.12-16.58-12.85-27.35-12.1c-7.16,0.5-15.55,2.53-35.7,10.97v0.97
			c16.49-6.95,28.51-11.14,38.42-11.14c9.17,0,16.53,3.59,23.96,11.9c12.23,13.69,33.29,22.56,53.67,31.13
			c5.9,2.49,11.48,4.83,16.76,7.27c1.18,0.54,1.79,1.16,1.83,1.84c0.04,0.82-0.69,2.26-4.43,4.5c-8.91,5.34-29.82,12.1-52.04,16.83
			c-24.13,5.13-41.84,6.2-47.36,2.85c-6.35-3.85-15.75-4.97-25.71-6.17c-1.7-0.2-3.4-0.41-5.09-0.63v0.9
			c1.66,0.21,3.32,0.41,4.99,0.61C20.08,97.91,29.39,99.02,35.58,102.77z"/>
		<path class="st1" d="M38.19,17.93c-4.29,0.78-9.05,2.07-14.6,3.93c-5.74,1.93-12.04,4.4-18.34,7v0.97
			C22.52,22.72,34.45,18.72,44.55,18c0.44-0.03,0.87-0.05,1.31-0.07H38.19z"/>
		<path class="st1" d="M75.16,32.18c14.13,17.06,38.59,27.17,62.25,36.95c5.9,2.44,11.47,4.74,16.88,7.15
			c1.38,0.61,2.11,1.32,2.16,2.11c0.06,0.88-0.69,2.43-4.59,4.82c-9.69,5.94-34.25,13.85-59.71,19.24
			c-28.07,5.94-48.66,7.2-55.1,3.37c-7.27-4.33-18.03-5.52-29.41-6.77c-0.8-0.09-1.6-0.18-2.4-0.27v0.9
			c0.77,0.09,1.54,0.17,2.3,0.26c11.29,1.24,21.94,2.42,29.05,6.65c2.8,1.67,7.68,2.3,13.47,2.3c14.5,0,34.7-3.96,42.27-5.57
			c25.96-5.5,50.07-13.27,59.99-19.35c3.48-2.13,5.12-3.98,5.02-5.64c-0.07-1.14-0.98-2.11-2.69-2.87c-5.42-2.41-11-4.72-16.9-7.16
			c-23.56-9.74-47.91-19.81-61.9-36.7c-6.16-7.44-12.61-11.88-20.1-13.68h-6.4C59.47,18.37,67.39,22.8,75.16,32.18z"/>
		<path class="st1" d="M82.71,26.78c16,20.46,43.73,31.74,70.55,42.64c5.74,2.33,11.67,4.74,17.27,7.17
			c1.59,0.69,2.42,1.49,2.49,2.37c0.07,0.95-0.7,2.62-4.79,5.16c-10.62,6.61-38.33,15.51-67.37,21.63
			c-31.99,6.75-55.47,8.2-62.8,3.89c-8.13-4.78-20.12-6.04-32.83-7.34v0.9c12.57,1.29,24.43,2.54,32.37,7.21
			c3.04,1.78,8.43,2.57,15.37,2.56c32.13,0,97.44-16.72,115.72-28.1c3.64-2.26,5.34-4.22,5.21-5.99c-0.09-1.25-1.11-2.3-3.03-3.13
			c-5.61-2.43-11.55-4.84-17.29-7.18c-26.71-10.86-54.34-22.08-70.19-42.36c-2.54-3.25-5.15-6.01-7.86-8.3h-1.41
			C77.09,20.3,79.93,23.22,82.71,26.78z"/>
		<path class="st1" d="M17.9,17.93h-2.57c-3.26,1.23-6.62,2.55-10.09,3.96v0.97C9.64,21.07,13.86,19.42,17.9,17.93z"/>
		<path class="st1" d="M90.27,21.39c17.91,23.97,48.98,36.38,79.02,48.38c5.79,2.31,11.78,4.71,17.5,7.12
			c1.79,0.76,2.74,1.65,2.82,2.65c0.12,1.47-1.63,3.39-5.05,5.55c-11.57,7.29-42.42,17.16-75.02,24.01
			c-35.88,7.53-62.22,9.17-70.45,4.39c-8.48-4.93-20.71-6.4-33.84-7.69v0.9c13,1.28,25.09,2.74,33.39,7.56
			c3.22,1.87,9.1,2.79,17.15,2.79c13,0,31.66-2.4,53.94-7.08c32.69-6.86,63.66-16.78,75.32-24.12c3.83-2.41,5.61-4.5,5.46-6.38
			c-0.11-1.35-1.24-2.5-3.36-3.4c-5.73-2.42-11.72-4.81-17.52-7.13c-29.93-11.95-60.87-24.32-78.63-48.09
			c-0.76-1.02-1.53-1.99-2.3-2.92H87.5C88.43,19.03,89.35,20.16,90.27,21.39z"/>
		<path class="st1" d="M184.63,69.8c6.08,2.4,12.36,4.87,18.41,7.39c2,0.83,3.06,1.81,3.15,2.91c0.14,1.58-1.69,3.62-5.28,5.9
			c-12.5,7.96-46.49,18.82-82.66,26.39c-18.17,3.8-34.84,6.35-48.2,7.36c-14.86,1.12-25.22,0.28-29.95-2.45
			c-8.82-5.08-21.32-6.75-34.86-8.05v0.9c13.4,1.29,25.76,2.95,34.41,7.93c3.71,2.14,10.29,3.07,18.77,3.07
			c39.81,0,121.36-20.62,142.97-34.39c4-2.55,5.86-4.75,5.69-6.74c-0.13-1.46-1.37-2.69-3.7-3.66c-6.06-2.52-12.34-5-18.42-7.39
			c-31.86-12.57-64.76-25.55-84.56-51.04h-1.12C119.17,43.98,152.43,57.1,184.63,69.8z"/>
		<path class="st1" d="M147.07,46.41c16.38,9.18,34.9,16.4,52.8,23.38c6.39,2.49,13.01,5.07,19.41,7.7c2.2,0.9,3.38,1.97,3.49,3.17
			c0.15,1.68-1.76,3.85-5.52,6.27c-13.43,8.64-50.56,20.46-90.3,28.77c-19.94,4.17-38.24,6.96-52.92,8.07
			c-16.33,1.24-27.72,0.33-32.92-2.64c-9.16-5.23-21.94-7.08-35.87-8.43v0.9c13.79,1.33,26.44,3.17,35.43,8.31
			c3.87,2.21,10.91,3.3,20.55,3.3c15.81,0,38.63-2.93,65.91-8.63c39.83-8.32,77.09-20.2,90.6-28.89c4.18-2.69,6.12-5.01,5.93-7.1
			c-0.14-1.56-1.5-2.88-4.04-3.92c-6.41-2.63-13.03-5.21-19.42-7.71c-17.88-6.97-36.37-14.19-52.69-23.33
			c-14.68-8.23-26.3-17.34-35.26-27.69h-1.19C120.15,28.6,132.01,37.97,147.07,46.41z"/>
		<path class="st1" d="M178.02,49.46c13.15,8.91,27.9,16.08,43.86,21.31c18.4,6.03,37.95,9.3,58.1,9.7
			c0.36,0.01,0.72,0.01,1.08,0.01c15.5,0,38.58-6.49,59.5-24.55v-1.19c-21.37,18.71-45.1,25.14-60.56,24.83
			c-20.06-0.4-39.52-3.65-57.84-9.66c-15.88-5.21-30.56-12.34-43.64-21.2c-15.48-10.49-25.99-21.52-31.92-30.79h-1.04
			C151.52,27.42,162.2,38.74,178.02,49.46z"/>
		<path class="st1" d="M185.22,46.36c11.62,7.97,24.76,14.44,39.05,19.25c16.39,5.51,33.9,8.65,52.05,9.35
			c0.66,0.02,1.33,0.04,2.02,0.04c8.22,0,17.74-1.83,27.07-5.21c11.62-4.22,22.84-10.81,32.44-19.05c0.89-0.77,1.8-1.58,2.71-2.41
			V47.1c-1.11,1.04-2.21,2.02-3.29,2.95c-9.52,8.17-20.64,14.7-32.16,18.89c-9.99,3.63-20.19,5.45-28.74,5.12
			c-18.06-0.69-35.49-3.82-51.8-9.3c-14.22-4.78-27.28-11.22-38.83-19.14c-10-6.86-18.49-14.61-24.55-22.44
			c-1.38-1.78-2.61-3.54-3.69-5.25h-1.06C161.7,26.58,171.15,36.71,185.22,46.36z"/>
		<path class="st1" d="M192.36,43.27c10.11,7.04,21.65,12.83,34.28,17.21c14.39,4.99,29.87,8.01,46.02,8.96
			c0.95,0.06,1.94,0.09,2.98,0.09c14.15,0,36.21-5.41,56.25-21.08c2.81-2.19,5.73-4.72,8.65-7.6v-1.26
			c-3.11,3.12-6.22,5.83-9.2,8.16c-21.32,16.66-44.91,21.62-58.63,20.8c-16.07-0.95-31.47-3.95-45.78-8.92
			c-12.56-4.35-24.02-10.11-34.07-17.1c-8.77-6.1-16.17-13-21.4-19.94c-1.18-1.57-2.24-3.13-3.17-4.66h-1.04
			c1.01,1.71,2.17,3.45,3.49,5.2C176.05,30.15,183.52,37.11,192.36,43.27z"/>
		<path class="st1" d="M199.44,40.19c13.03,9.24,35.67,20.86,69.57,23.74c1.38,0.12,2.82,0.18,4.32,0.18
			c6.58,0,14.13-1.12,21.75-3.26c10.93-3.07,21.61-8.13,30.88-14.65c4.7-3.3,9.72-7.46,14.6-12.62v-1.32
			c-5.03,5.44-10.24,9.79-15.11,13.21c-9.19,6.45-19.77,11.47-30.61,14.52c-9.24,2.59-18.39,3.68-25.75,3.06
			c-33.7-2.86-56.2-14.4-69.13-23.58c-9.36-6.64-16.72-14.32-20.96-21.52h-1.02C182.26,25.39,189.8,33.35,199.44,40.19z"/>
		<path class="st1" d="M206.42,37.13c10.77,7.84,29.74,17.9,58.93,21.27c1.8,0.21,3.76,0.32,5.86,0.32
			c13.28,0,31.99-4.31,48.79-14.75c6.62-4.11,13.89-9.79,20.55-17.47v-1.38c-6.77,8.02-14.24,13.88-21.02,18.09
			c-19.27,11.97-41.05,15.81-54.08,14.31c-29-3.35-47.83-13.33-58.51-21.11c-7.87-5.73-13.94-12.25-17.43-18.48h-1.01
			C192.04,24.41,198.28,31.21,206.42,37.13z"/>
		<path class="st1" d="M213.27,34.13c8.59,6.48,23.97,14.99,48.43,18.75c2.26,0.35,4.86,0.53,7.73,0.53
			c12.21,0,29.21-3.34,44.63-11.62c8.6-4.62,18.36-11.67,26.51-22.19v-1.48c-8.19,10.93-18.17,18.17-26.93,22.88
			c-18.85,10.13-40.07,12.8-51.79,11c-24.27-3.73-39.51-12.17-48.02-18.58c-6.4-4.82-11.23-10.24-14-15.49h-1
			C201.61,23.44,206.61,29.11,213.27,34.13z"/>
		<path class="st1" d="M219.91,31.22c9.36,7.41,22.54,13,38.12,16.15c2.8,0.57,6.43,0.91,10.64,0.91c13.95,0,34.26-3.73,51.66-15.35
			c6.43-4.29,11.92-9.3,16.48-14.99h-1.14c-4.42,5.39-9.7,10.15-15.84,14.25c-17.24,11.51-37.33,15.21-51.12,15.21
			c-4.15,0-7.73-0.34-10.49-0.89c-15.44-3.13-28.49-8.65-37.74-15.97c-4.98-3.94-8.65-8.29-10.72-12.58h-0.98
			C210.87,22.48,214.69,27.08,219.91,31.22z"/>
		<path class="st1" d="M226.22,28.44c6.61,5.63,16.34,10.27,28.14,13.41c3.2,0.85,8.26,1.53,14.59,1.53c3.61,0,7.63-0.22,11.95-0.75
			c9.01-1.11,22.39-4,34.96-11.44c6.28-3.72,11.66-8.15,16.14-13.25h-1.19c-4.32,4.79-9.45,8.96-15.4,12.48
			c-12.44,7.36-25.69,10.22-34.61,11.32c-11.78,1.45-21.26,0.56-26.21-0.75c-21.55-5.74-32.05-15.07-35.44-23.05h-0.98
			C219.62,21.54,222.36,25.14,226.22,28.44z"/>
		<path class="st1" d="M250.68,36.32c4.08,1.45,11.32,2.6,20.03,2.6c12.03,0,26.85-2.18,40.04-8.77
			c6.57-3.28,12.19-7.36,16.84-12.21h-1.27c-4.46,4.5-9.78,8.32-15.97,11.41c-22.5,11.24-49.78,9.54-59.38,6.13
			c-16.4-5.82-21.72-12.8-23.33-17.54h-0.95C228.89,25.03,237.33,31.58,250.68,36.32z"/>
		<path class="st1" d="M246.99,30.79c4.35,2.12,12.04,3.57,21.22,3.57c5.82,0,12.25-0.58,18.8-1.95c9.57-2,21.54-6.1,32.38-14.48
			h-1.49c-10.46,7.8-21.88,11.68-31.07,13.6c-16.69,3.48-32.47,1.85-39.44-1.55c-7.52-3.67-11.87-7.8-12.76-12.05h-0.92
			C234.57,22.53,239.11,26.93,246.99,30.79z"/>
		<path class="st1" d="M243.28,25.23c2.83,2.07,8.1,3.83,14.46,4.82c3.1,0.49,7.39,0.94,12.58,0.94c3.14,0,6.61-0.17,10.34-0.59
			c9.29-1.05,17.99-3.44,25.86-7.1c3.38-1.57,6.56-3.37,9.55-5.37h-1.67c-2.61,1.68-5.36,3.21-8.26,4.56
			c-7.78,3.62-16.39,5.98-25.58,7.02c-16.81,1.91-31.48-1.16-36.75-5c-2.51-1.83-4-3.6-4.56-5.35c-0.24-0.41-0.41-0.82-0.52-1.22
			h-0.63C238.22,20.38,239.93,22.78,243.28,25.23z"/>
		<path class="st1" d="M239.53,19.6c2.73,3.96,11.15,7.22,21.97,8.53c3.25,0.39,6.74,0.61,10.39,0.61
			c13.45,0,29.01-2.95,42.36-10.81h-1.77c-16.52,9.22-36.19,11.08-50.87,9.31c-10.42-1.26-18.8-4.45-21.34-8.15
			c-0.28-0.4-0.46-0.79-0.59-1.16h-0.95c0.11,0.4,0.28,0.81,0.52,1.22C239.33,19.31,239.43,19.46,239.53,19.6z"/>
		<path class="st1" d="M219.48,329.71c-7.44-13.73-14.47-26.71-23.66-37.44c-33.75-39.4-61.91-58.15-80.54-70.56
			c-12.73-8.47-21.13-14.07-24.81-21.47c-0.27-0.55-0.32-0.94-0.16-1.18c0.33-0.48,1.44-0.65,3.09-0.65c2.05,0,4.94,0.27,8.22,0.58
			c13.74,1.3,36.73,3.47,61.31-5.84c14.02-5.31,45.38,7.13,68.28,16.22c10.04,3.98,17.97,7.13,22.17,7.88
			c12.27,2.2,15.09,1.23,21.28-0.88c4.96-1.7,12.46-4.26,29.58-6.37c8.56-1.05,21.39-0.29,36.32,2.79v-0.91
			c-14.96-3.07-27.83-3.83-36.43-2.77c-17.21,2.12-24.76,4.7-29.76,6.41c-6.03,2.06-8.79,3-20.83,0.85
			c-4.11-0.74-12.4-4.02-21.99-7.83c-23.04-9.14-54.59-21.65-68.93-16.22c-24.39,9.23-47.25,7.07-60.91,5.78
			c-7.15-0.68-11.09-1.05-12.13,0.46c-0.37,0.53-0.34,1.22,0.1,2.09c3.78,7.61,12.27,13.26,25.12,21.82
			c18.59,12.38,46.68,31.09,80.35,70.39c9.13,10.66,16.14,23.59,23.56,37.28c4.18,7.71,8.42,15.53,13.15,23.11h1.05
			C228.07,345.54,223.74,337.57,219.48,329.71z"/>
		<path class="st1" d="M306.32,217.16c-15.25,1.79-22.41,3.89-27.15,5.27c-6.18,1.81-8.74,2.56-20.26,0.47
			c-3.75-0.68-11.22-3.56-19.87-6.9c-21.2-8.18-50.24-19.39-63.14-14.25c-21.47,8.56-41.64,7.24-53.69,6.46
			c-6.66-0.43-10.32-0.67-11.31,0.81c-0.36,0.55-0.33,1.24,0.11,2.11c3.59,7.2,11.64,12.6,23.84,20.78
			c17.07,11.44,42.85,28.72,73.85,63.99c8.59,9.77,15.21,21.53,22.21,33.97c4.4,7.82,8.88,15.76,13.97,23.38h1.08
			c-5.2-7.75-9.77-15.84-14.26-23.82c-7.03-12.49-13.67-24.28-22.32-34.12c-31.07-35.36-56.92-52.68-74.02-64.14
			c-12.08-8.09-20.06-13.44-23.54-20.43c-0.28-0.56-0.33-0.97-0.17-1.22c0.37-0.55,1.73-0.74,3.73-0.74c1.82,0,4.17,0.15,6.78,0.32
			c12.13,0.79,32.42,2.12,54.08-6.52c12.57-5.01,41.42,6.12,62.48,14.25c9.05,3.49,16.2,6.25,20.03,6.94
			c11.73,2.13,14.53,1.31,20.68-0.49c4.71-1.38,11.82-3.47,27-5.24c8.03-0.94,20.11-0.18,34.13,2.75v-0.91
			C326.5,216.97,314.39,216.21,306.32,217.16z"/>
		<path class="st1" d="M308.52,225.21c-13.16,1.45-19.88,3.07-24.33,4.15c-6.41,1.55-8.81,2.13-19.9,0.09h0
			c-3.37-0.62-10.01-3.09-17.7-5.96c-19.39-7.23-45.93-17.14-57.39-12.28c-18.56,7.87-36.04,7.37-46.49,7.08
			c-5.95-0.17-9.54-0.27-10.48,1.2c-0.36,0.56-0.31,1.27,0.13,2.16c3.4,6.81,11.04,11.96,22.62,19.77
			c15.54,10.48,39.01,26.32,67.29,57.54c8.04,8.88,14.27,19.45,20.87,30.64c4.68,7.95,9.46,16.04,15.02,23.66h1.11
			c-5.7-7.75-10.57-16.01-15.35-24.12c-6.62-11.23-12.87-21.84-20.97-30.79c-28.35-31.31-51.88-47.18-67.46-57.68
			c-11.46-7.73-19.03-12.84-22.32-19.43c-0.29-0.58-0.35-1-0.18-1.27c0.45-0.7,2.38-0.88,5.12-0.88c1.36,0,2.91,0.04,4.58,0.09
			c10.52,0.3,28.12,0.8,46.87-7.15c11.12-4.71,38.56,5.52,56.72,12.3c8.04,3,14.39,5.37,17.85,6v0c11.27,2.08,13.91,1.44,20.27-0.1
			c4.69-1.13,11.11-2.68,24.22-4.13c8.01-0.88,19.32,0.02,31.94,2.7v-0.9c-0.19-0.04-0.38-0.09-0.57-0.13
			C327.76,225.23,316.58,224.32,308.52,225.21z"/>
		<path class="st1" d="M310.71,233.25c-10.85,1.1-16.79,2.22-21.13,3.04c-7,1.32-9.11,1.71-19.92-0.31h0
			c-2.99-0.56-8.77-2.62-15.47-5.02c-17.59-6.29-41.68-14.9-51.69-10.32c-5.86,2.68-15.66,7.16-39.31,7.63
			c-5.45,0.11-8.74,0.17-9.63,1.65c-0.35,0.59-0.3,1.31,0.16,2.22c3.21,6.42,10.48,11.36,21.48,18.83
			c14.83,10.07,35.15,23.87,60.66,51.04c7.5,7.98,13.33,17.35,19.5,27.27c5.05,8.12,10.21,16.4,16.42,23.98h1.16
			c-6.36-7.66-11.62-16.1-16.82-24.46c-6.2-9.96-12.05-19.37-19.61-27.41c-25.58-27.24-45.94-41.07-60.81-51.17
			c-10.88-7.39-18.07-12.27-21.18-18.49c-0.46-0.91-0.26-1.24-0.19-1.35c0.63-1.05,4.27-1.12,8.88-1.21
			c8.91-0.18,23.84-0.47,39.67-7.71c1.82-0.83,4.17-1.19,6.91-1.19c11.82,0,30.74,6.77,44.11,11.55c7.01,2.51,12.54,4.48,15.61,5.05
			h0c10.97,2.06,13.31,1.62,20.25,0.31c4.32-0.81,10.25-1.93,21.06-3.03c6.97-0.71,17.55,0.05,29.75,2.65v-0.91
			C328.32,233.29,317.72,232.54,310.71,233.25z"/>
		<path class="st1" d="M312.91,241.3c-8.07,0.73-13.26,1.43-17.05,1.94c-8.27,1.11-9.99,1.34-20.82-0.73h0
			c-2.6-0.49-7.49-2.15-13.15-4.06c-15.82-5.36-37.5-12.69-46.1-8.37c-12.77,6.42-24.44,7.41-32.15,8.06
			c-4.95,0.42-7.93,0.67-8.76,2.16c-0.35,0.62-0.28,1.38,0.19,2.32c3.05,6.05,9.97,10.78,20.44,17.94
			c13.19,9.02,31.25,21.37,53.92,44.48c6.94,7.07,12.62,15.61,18.12,23.86c5.61,8.42,11.29,16.94,18.46,24.35h1.26
			c-7.42-7.52-13.27-16.29-18.97-24.85c-5.52-8.29-11.22-16.86-18.22-23.99c-22.73-23.17-40.84-35.55-54.05-44.59
			c-10.36-7.08-17.2-11.76-20.15-17.6c-0.33-0.65-0.4-1.13-0.21-1.47c0.6-1.07,3.73-1.34,8.06-1.71c7.79-0.66,19.56-1.66,32.48-8.15
			c1.67-0.84,3.91-1.2,6.56-1.2c10.43,0,27.05,5.62,38.85,9.62c5.93,2.01,10.61,3.59,13.27,4.09c10.97,2.1,12.92,1.84,21.1,0.74
			c3.78-0.51,8.96-1.21,17.02-1.94c6.44-0.59,16.28,0.16,27.57,2.6v-0.91C329.24,241.46,319.38,240.71,312.91,241.3z"/>
		<path class="st1" d="M280.41,327.93c-5.1-7.03-10.37-14.3-16.79-20.49c-19.75-19.05-35.55-29.92-47.08-37.85
			c-9.95-6.85-16.53-11.37-19.33-16.88c-0.36-0.71-0.44-1.25-0.24-1.65c0.56-1.13,3.36-1.63,7.22-2.32
			c6.09-1.09,15.3-2.74,25.33-8.43c1.52-0.86,3.68-1.23,6.27-1.23c9.09,0,23.42,4.51,33.67,7.73c4.78,1.5,8.56,2.69,10.79,3.12
			c11.71,2.3,12.68,2.21,24.6,1.17c2.73-0.24,6.12-0.53,10.33-0.86c5.92-0.46,15.01,0.29,25.38,2.55v-0.92
			c-10.39-2.25-19.5-2.99-25.45-2.53c-4.22,0.33-7.61,0.62-10.34,0.86c-12.05,1.05-12.77,1.11-24.35-1.16h0
			c-2.18-0.42-6.12-1.66-10.69-3.1c-13.32-4.19-33.44-10.52-40.65-6.43c-9.89,5.62-19.01,7.25-25.04,8.33
			c-4.43,0.79-7.1,1.27-7.87,2.8c-0.34,0.67-0.26,1.48,0.24,2.46c2.9,5.72,9.56,10.29,19.62,17.22
			c11.51,7.92,27.27,18.76,46.97,37.76c6.37,6.14,11.61,13.38,16.69,20.37c6.36,8.77,12.92,17.81,21.76,24.79h1.47
			C293.71,346.25,286.95,336.95,280.41,327.93z"/>
		<path class="st1" d="M292.44,327.34c-4.65-5.73-9.45-11.65-15.26-16.87c-16.54-14.87-29.95-24.11-39.74-30.86
			c-9.75-6.72-16.2-11.17-18.88-16.41c-0.41-0.8-0.51-1.43-0.3-1.93c0.51-1.24,2.98-2.05,6.39-3.16c4.67-1.52,11.07-3.6,18.21-8.39
			c1.35-0.91,3.47-1.28,6.06-1.28c8,0,20.48,3.55,28.75,5.91c3.48,0.99,6.22,1.77,7.95,2.11c1.24,0.25,2.35,0.48,3.37,0.68
			c9.52,1.95,10.74,2.2,28.37,1.14c5.41-0.32,13.77,0.43,23.2,2.5v-0.93c-9.2-2.01-17.54-2.8-23.25-2.46
			c-17.51,1.05-18.72,0.8-28.14-1.12c-1.02-0.21-2.13-0.44-3.38-0.68c-1.69-0.34-4.56-1.15-7.88-2.1
			c-11.82-3.36-29.69-8.45-35.56-4.51c-7.03,4.72-13.36,6.78-17.98,8.28c-3.78,1.23-6.27,2.04-6.94,3.67
			c-0.31,0.76-0.21,1.63,0.33,2.68c2.79,5.45,9.3,9.94,19.17,16.74c9.77,6.74,23.16,15.96,39.65,30.79
			c5.76,5.17,10.54,11.07,15.16,16.77c8.19,10.09,16.08,19.83,28.74,25.34h2.45C309.2,347.99,300.97,337.87,292.44,327.34z"/>
		<path class="st1" d="M319.51,265.44c-12.56,0.45-15.88-0.36-21.9-1.84c-1.8-0.44-3.84-0.94-6.44-1.48
			c-1.09-0.23-2.73-0.63-4.62-1.1c-9.85-2.43-26.33-6.5-30.93-2.58c-4.21,3.59-7.97,5.8-10.99,7.57c-4.64,2.72-7.44,4.36-5.52,8.09
			c2.73,5.3,9.39,9.86,19.48,16.76c8.32,5.7,18.68,12.79,31.58,23.33c5.05,4.13,9.3,8.62,13.41,12.96
			c5.93,6.27,11.53,12.19,18.87,16.35c5.46,3.09,11.38,4.9,18.12,5.52v-0.88c-17.43-1.63-26.31-11.01-36.34-21.61
			c-4.13-4.36-8.39-8.87-13.49-13.04c-12.93-10.57-23.3-17.67-31.64-23.38c-9.97-6.83-16.56-11.34-19.19-16.43
			c-1.46-2.83,0.19-3.98,5.18-6.9c2.89-1.69,6.85-4.01,11.12-7.66c1.2-1.03,3.41-1.43,6.16-1.43c6.98,0,17.48,2.59,23.97,4.2
			c1.9,0.47,3.55,0.88,4.65,1.11c2.58,0.53,4.61,1.03,6.41,1.47c5.9,1.45,9.46,2.32,22.15,1.86c4.93-0.18,12.57,0.57,21.01,2.42
			v-0.91C332.1,266,324.45,265.26,319.51,265.44z"/>
		<path class="st1" d="M321.6,273.49c-8.94,0-12.88-1.26-17.43-2.71c-2.23-0.71-4.53-1.45-7.62-2.12l-0.9-0.2
			c-11.24-2.47-24.41-4.75-26.79-0.53c-7.8,6.78-11.24,11.22-8.41,16.66c2.83,5.43,9.99,10.17,21.86,18.03
			c5.82,3.85,13.07,8.65,21.43,14.63c4.08,2.92,7.58,5.87,10.97,8.73c8.19,6.91,15.15,12.74,25.84,14.42v-0.9
			c-10.41-1.69-17.23-7.43-25.26-14.21c-3.4-2.87-6.92-5.83-11.03-8.77c-8.37-5.99-15.63-10.79-21.46-14.65
			c-11.75-7.77-18.84-12.47-21.56-17.69c-2.58-4.95,0.61-8.98,8.26-15.62l0.06-0.06l0.04-0.08c0.5-0.95,2.09-1.93,6.59-1.93
			c1.3,0,2.84,0.08,4.67,0.27c5.47,0.57,11.41,1.87,14.59,2.57l0.9,0.2c3.05,0.66,5.33,1.39,7.54,2.09
			c4.63,1.48,8.62,2.75,17.7,2.75c0.06,0,0.12,0,0.18,0c4.64,0,11.48,0.73,18.78,2.31v-0.91c-7.66-1.62-14.6-2.3-18.79-2.3
			C321.71,273.49,321.66,273.49,321.6,273.49z"/>
		<path class="st1" d="M309.91,277.96c-2.41-1.01-4.9-2.05-7.98-2.77c-2.91-0.67-15-2.25-18.74,0.54c-0.65,0.48-1.02,1.08-1.1,1.77
			c-3.32,5.06-3.43,11.62-0.28,17.59c3.49,6.63,14.34,12.92,34.05,24.35l1.5,0.87c1.9,1.1,3.68,2.16,5.39,3.19
			c6.74,4.03,12.05,7.19,17.82,8.66v-0.95c-5.59-1.47-10.79-4.55-17.36-8.48c-1.72-1.02-3.49-2.08-5.4-3.19l-1.5-0.87
			c-19.56-11.35-30.33-17.59-33.71-23.99c-3.01-5.71-2.9-11.98,0.3-16.77l0.07-0.1l0.01-0.12c0.03-0.48,0.28-0.88,0.75-1.23
			c1.4-1.04,4.43-1.4,7.69-1.4c3.9,0,8.14,0.52,10.31,1.02c3.01,0.69,5.46,1.72,7.84,2.72c3.86,1.62,7.85,3.29,14.32,3.64
			c1.6,0.09,8.6,0.54,16.67,2.14v-0.9c-8.07-1.59-15.02-2.05-16.62-2.13C317.61,281.19,313.7,279.55,309.91,277.96z"/>
		<path class="st1" d="M326.17,289.58c-4.03-0.62-7.43-2.47-10.73-4.26c-2.72-1.48-5.28-2.87-8.13-3.59
			c-2.61-0.66-9.45,0.16-11.55,2.71c-0.68,0.83-0.81,1.78-0.38,2.76c0.19,4.42,4.43,12.24,6.98,16.93c0.29,0.53,0.55,1.02,0.79,1.46
			c3.12,5.82,12.22,11.64,27.83,17.79c3.55,1.4,6.69,2.41,9.58,3.05v-0.63c-4.02-0.8-7.11-1.99-9.5-3.36
			c-15.25-6.04-24.12-11.69-27.12-17.28c-0.24-0.44-0.5-0.94-0.79-1.47c-2.52-4.65-6.74-12.43-6.87-16.62l0-0.09l-0.04-0.08
			c-0.33-0.69-0.26-1.31,0.22-1.89c1.44-1.75,5.76-2.59,8.67-2.59c0.79,0,1.48,0.06,1.97,0.19c2.74,0.69,5.26,2.06,7.92,3.51
			c3.36,1.83,6.83,3.71,11.02,4.36c1.45,0.22,3.34,0.42,5.52,0.64c2.7,0.27,5.83,0.6,9,1.06v-0.9c-3.15-0.46-6.23-0.78-8.91-1.05
			C329.47,290,327.6,289.8,326.17,289.58z"/>
		<path class="st1" d="M340.56,324.9c-9.36-1.9-13.47-5.96-15.27-9.24c-2.27-4.14-11.75-15.78-15.85-19.46
			c-1.87-1.68-1.51-3.38-0.88-4.51c0.85-1.53,2.54-2.59,3.57-2.59c0.12,0,0.23,0.01,0.33,0.04h0c2.48,0.73,5.58,2.9,8.58,5.01
			c2.6,1.82,5.06,3.55,7.1,4.35c2.26,0.89,6.18,0.68,10.33,0.46c0.7-0.04,1.4-0.07,2.1-0.1v-0.9c-0.72,0.03-1.43,0.07-2.15,0.11
			c-4.05,0.21-7.87,0.42-9.95-0.4c-1.94-0.76-4.36-2.46-6.91-4.25c-3.06-2.15-6.22-4.36-8.84-5.13h0c-1.47-0.43-3.83,0.98-4.93,2.97
			c-1.1,1.98-0.71,4.02,1.07,5.62c4.05,3.63,13.42,15.13,15.67,19.22c1.12,2.05,3.11,4.39,6.56,6.36c2.39,1.37,5.48,2.56,9.5,3.36
			V324.9z"/>
		<path class="st1" d="M260.26,206.84c2.25,0.22,4.95,0.35,8.03,0.35c11.49,0,28.31-1.76,46.84-6.88
			c9.91-2.74,18.31-5.89,25.42-9.22v-0.99c-7.15,3.37-15.63,6.57-25.66,9.34c-23.38,6.47-44,7.55-54.54,6.51
			c-30.3-2.99-64.35-15.7-65.49-22.38c-0.17-1.03,0.51-1.88,2.09-2.62c6.98-3.23,17.45-16.69,26.67-34.28
			c7.4-14.12,14.98-33.18,14.08-44.32c-0.38-4.73,1.33-8.42,5.1-10.96c3.91-2.63,9.98-3.99,17.55-3.99c2.91,0,6.03,0.2,9.34,0.61
			c10.87,1.33,22.74,4.83,31.76,9.37c9.49,4.77,23.07,5.81,36.21,6.81c0.97,0.07,1.93,0.15,2.89,0.22v-0.9
			c-0.94-0.07-1.87-0.15-2.82-0.22c-13.05-0.99-26.55-2.02-35.88-6.71c-9.11-4.58-21.09-8.12-32.05-9.46
			c-12.15-1.49-21.91-0.23-27.5,3.53c-4.06,2.73-5.91,6.7-5.5,11.78c0.74,9.16-4.61,25.96-13.98,43.83
			c-9.13,17.43-19.44,30.73-26.25,33.88c-1.97,0.91-2.85,2.12-2.6,3.58C195.29,191.44,231.22,203.98,260.26,206.84z"/>
		<path class="st1" d="M203.23,178.2c-2.28,1.07-2.57,2.42-2.4,3.36c0.3,1.77,2.45,3.8,6.39,6.05c3.6,2.05,8.63,4.23,14.53,6.28
			c12.53,4.37,27.49,7.71,40.03,8.95c2.07,0.2,4.55,0.32,7.39,0.32c10.58,0,26.06-1.62,43.11-6.34c11.5-3.18,20.78-6.97,28.28-10.92
			v-1.01c-7.52,4-16.88,7.84-28.52,11.06c-21.51,5.95-40.47,6.95-50.17,5.99c-27.81-2.75-59.1-14.4-60.15-20.54
			c-0.06-0.34-0.24-1.39,1.9-2.39c6.4-2.99,16.03-15.42,24.52-31.65c6.82-13.02,13.82-30.6,13.04-40.87
			c-0.33-4.33,1.25-7.71,4.7-10.02c3.56-2.38,9.07-3.61,15.93-3.61c2.71,0,5.64,0.19,8.74,0.58c9.96,1.25,20.87,4.49,29.19,8.67
			c8.75,4.4,21.26,5.34,33.35,6.24c2.52,0.19,5.02,0.38,7.47,0.59v-0.9c-2.42-0.21-4.89-0.4-7.41-0.59
			c-12.01-0.9-24.42-1.83-33.01-6.15c-17.05-8.58-43.73-12.98-54.77-5.58c-3.74,2.51-5.46,6.15-5.1,10.83
			c0.64,8.43-4.32,23.91-12.94,40.39C218.93,163.02,209.46,175.29,203.23,178.2z"/>
		<path class="st1" d="M209.87,176.27c-2.1,1-2.36,2.26-2.21,3.14c0.78,4.45,13.61,9.37,19.09,11.28
			c11.4,3.97,25.06,7.02,36.52,8.15c1.89,0.19,4.16,0.29,6.75,0.29c9.67,0,23.81-1.48,39.39-5.8c13.4-3.71,23.52-8.32,31.15-12.99
			v-1.06c-7.61,4.73-17.79,9.42-31.39,13.18c-19.64,5.44-36.95,6.35-45.81,5.48c-25.33-2.5-53.85-13.11-54.82-18.7
			c-0.05-0.31-0.22-1.26,1.71-2.17c5.83-2.76,14.61-14.15,22.38-29.03c6.23-11.93,12.65-28.02,12-37.42
			c-0.28-3.94,1.17-6.99,4.3-9.08c3.39-2.26,8.49-3.24,14.34-3.24c11.01,0,24.7,3.49,34.74,8.54c8.01,4.03,19.44,4.87,30.48,5.68
			c4.13,0.3,8.21,0.6,12.06,1.05v-0.9c-3.84-0.45-7.89-0.75-11.99-1.05c-10.96-0.8-22.29-1.63-30.15-5.58
			c-15.59-7.84-39.95-11.92-49.98-5.24c-3.42,2.28-5,5.61-4.7,9.89c0.54,7.7-4.02,21.86-11.9,36.94
			C224.16,162.35,215.53,173.59,209.87,176.27z"/>
		<path class="st1" d="M216.52,174.34c-1.93,0.93-2.16,2.1-2.02,2.91c1.07,6,27.85,15.37,50.28,17.59c1.71,0.17,3.76,0.26,6.11,0.26
			c8.75,0,21.56-1.34,35.66-5.25c15.9-4.41,26.71-10.22,34.01-15.72V173c-7.21,5.56-18.06,11.5-34.25,15.99
			c-17.76,4.93-33.42,5.75-41.44,4.96c-10.33-1.02-22.59-3.75-32.81-7.31c-11.78-4.1-16.34-7.62-16.68-9.54
			c-0.05-0.28-0.2-1.12,1.52-1.95c4.18-2.01,11.69-10,20.24-26.41c5.65-10.83,11.49-25.44,10.96-33.96
			c-0.23-3.54,1.09-6.28,3.9-8.14c3-1.99,7.51-2.85,12.7-2.85c9.97,0,22.45,3.2,31.59,7.8c7.28,3.66,17.62,4.4,27.62,5.11
			c5.88,0.42,11.63,0.83,16.64,1.79v-0.92c-5.03-0.95-10.74-1.35-16.58-1.77c-9.91-0.71-20.17-1.44-27.28-5.02
			c-6.99-3.52-16.08-6.27-24.33-7.36c-9.2-1.22-16.61-0.34-20.86,2.47c-3.1,2.05-4.55,5.06-4.3,8.95
			c0.44,6.97-3.72,19.8-10.86,33.49C229.39,161.68,221.6,171.89,216.52,174.34z"/>
		<path class="st1" d="M223.16,172.4c-1.75,0.86-1.96,1.94-1.82,2.69c0.67,3.68,11.02,7.65,15.44,9.19
			c9.16,3.18,20.19,5.63,29.51,6.55c1.53,0.15,3.37,0.24,5.47,0.24c7.84,0,19.31-1.2,31.93-4.71c19.93-5.54,30.94-13.53,36.87-19.78
			v-1.32c-5.68,6.26-16.61,14.54-37.11,20.24c-15.89,4.41-29.9,5.15-37.07,4.44c-9.25-0.91-20.21-3.35-29.3-6.51
			c-10.48-3.64-14.54-6.78-14.86-8.5c-0.04-0.24-0.18-0.98,1.33-1.73c3.72-1.82,10.42-9.02,18.1-23.79
			c5.06-9.74,10.32-22.87,9.91-30.51c-0.17-3.14,1-5.57,3.5-7.2c2.61-1.71,6.53-2.46,11.06-2.46c8.92,0,20.19,2.91,28.45,7.06
			c6.54,3.29,15.8,3.93,24.76,4.54c7.98,0.55,15.69,1.08,21.22,3.38v-0.98c-5.63-2.22-13.27-2.75-21.16-3.29
			c-8.87-0.61-18.04-1.24-24.42-4.45c-6.38-3.21-14.31-5.64-21.75-6.67c-8.22-1.13-14.84-0.38-18.65,2.11
			c-2.79,1.83-4.1,4.52-3.91,8c0.33,6.24-3.43,17.75-9.81,30.04C234.62,161.01,227.67,170.2,223.16,172.4z"/>
		<path class="st1" d="M229.8,170.47c-1.58,0.79-1.76,1.78-1.63,2.47c0.61,3.29,9.73,6.79,13.62,8.14c8.04,2.79,17.76,4.95,26,5.76
			c1.35,0.13,2.97,0.21,4.82,0.21c6.92,0,17.06-1.06,28.21-4.17c19.17-5.33,29-13.25,33.87-18.94c2.65-3.1,4.6-6.4,5.86-9.9v-3.17
			c-1.09,4.48-3.26,8.66-6.54,12.5c-4.79,5.6-14.47,13.39-33.43,18.66c-14.01,3.9-26.37,4.55-32.7,3.93
			c-18.39-1.81-38.09-9.19-38.83-13.17c-0.04-0.21-0.16-0.85,1.15-1.5c9.09-4.57,25.33-36.11,24.82-48.21
			c-0.12-2.74,0.92-4.85,3.1-6.27c2.28-1.48,5.65-2.13,9.53-2.13c7.8,0,17.7,2.62,25.19,6.38c5.8,2.92,13.98,3.46,21.89,3.98
			c11.93,0.79,23.2,1.53,25.42,10.04c0.14,0.55,0.27,1.1,0.39,1.65v-3.29c-3.18-7.8-14.15-8.54-25.75-9.3
			c-7.82-0.51-15.91-1.05-21.55-3.89c-11.45-5.76-28.49-8.82-35.61-4.21c-2.47,1.6-3.65,3.97-3.51,7.06
			c0.23,5.51-3.13,15.7-8.78,26.59C239.84,160.34,233.74,168.49,229.8,170.47z"/>
		<path class="st1" d="M310.22,128.3c-6.77-0.42-13.78-0.85-18.68-3.32c-4.95-2.49-11-4.41-16.59-5.27
			c-8.01-1.23-12.16,0.09-14.23,1.4c-2.15,1.37-3.2,3.43-3.12,6.11c0.13,4.78-2.84,13.65-7.74,23.15
			c-4.79,9.29-10.06,16.42-13.42,18.16c-1.4,0.73-1.55,1.62-1.43,2.25c0.87,4.55,20.06,10.64,34.29,12.05
			c1.3,0.13,2.76,0.19,4.35,0.19c15.01,0,41.54-5.86,53.71-20.1c6.17-7.23,8.04-15.76,5.53-25.38
			C330.81,129.57,320.81,128.96,310.22,128.3z M326.68,162.34c-4.15,4.86-12.54,11.61-28.95,16.18
			c-12.14,3.39-22.85,3.96-28.33,3.41c-15.84-1.56-32.84-7.91-33.5-11.32c-0.03-0.18-0.14-0.71,0.96-1.28
			c7.77-4.03,21.92-31.59,21.64-42.13c-0.07-2.35,0.84-4.14,2.7-5.33c1.81-1.15,4.53-1.74,7.91-1.74c1.74,0,3.65,0.16,5.69,0.47
			c5.51,0.84,11.46,2.73,16.33,5.18c5.07,2.55,12.17,2.99,19.03,3.41c10.26,0.63,19.94,1.23,21.86,8.58
			C334.45,147.09,332.65,155.35,326.68,162.34z"/>
		<path class="st1" d="M305.63,132.47c-5.73-0.32-11.65-0.66-15.82-2.75c-4.24-2.13-9.34-3.8-14-4.57
			c-3.72-0.62-8.83-0.94-12.01,1.04c-1.84,1.14-2.76,2.88-2.73,5.17c0.04,4.05-2.53,11.6-6.69,19.7
			c-4.07,7.94-8.51,14.04-11.29,15.54c-1.22,0.66-1.34,1.47-1.23,2.03c0.49,2.42,6.46,4.82,9.97,6.03c5.8,2,12.89,3.56,18.98,4.16
			c1.1,0.11,2.33,0.16,3.67,0.16c12.71,0,35.21-4.98,45.54-17.07c5.27-6.17,6.86-13.46,4.72-21.67
			C322.97,133.44,314.55,132.97,305.63,132.47z M319.34,161.34c-6.37,7.45-16.82,11.56-24.47,13.7c-10.26,2.87-19.33,3.35-23.97,2.9
			c-6.02-0.59-13.04-2.13-18.78-4.12c-4.12-1.42-9.05-3.68-9.38-5.36c-0.03-0.14-0.12-0.58,0.78-1.06
			c6.46-3.49,18.53-27.07,18.45-36.04c-0.02-1.95,0.76-3.43,2.31-4.4c1.54-0.96,3.75-1.38,6.31-1.38c5.71,0,13.16,2.09,18.83,4.95
			c4.33,2.18,10.35,2.52,16.17,2.85c8.58,0.48,16.68,0.94,18.29,7.11C325.93,148.39,324.41,155.41,319.34,161.34z"/>
		<path class="st1" d="M301.04,136.64c-4.68-0.23-9.52-0.46-12.94-2.18c-3.53-1.78-7.7-3.19-11.42-3.87
			c-3.03-0.56-7.19-0.89-9.8,0.69c-1.52,0.91-2.3,2.33-2.34,4.22c-0.14,7.05-9.97,26.42-14.81,29.19c-1.04,0.6-1.13,1.31-1.03,1.81
			c0.71,3.31,13.58,7.35,23.62,8.34c0.9,0.09,1.9,0.13,2.99,0.13c10.42,0,28.87-4.1,37.37-14.05c4.37-5.11,5.68-11.15,3.91-17.96
			C315.12,137.32,308.28,136.99,301.04,136.64z M312,160.33c-5.21,6.1-13.75,9.47-20,11.22c-8.39,2.36-15.8,2.76-19.6,2.38
			c-10.95-1.08-22.33-5.29-22.83-7.64c-0.03-0.12-0.1-0.45,0.6-0.84c5.13-2.94,15.11-22.53,15.26-29.95
			c0.03-1.58,0.65-2.71,1.91-3.47c1.17-0.7,2.82-1.02,4.74-1.02c4.6,0,10.76,1.79,15.62,4.24c3.6,1.81,8.53,2.05,13.3,2.28
			c6.9,0.33,13.42,0.65,14.73,5.65C317.42,149.69,316.17,155.46,312,160.33z"/>
		<path class="st1" d="M296.45,140.8c-3.63-0.13-7.38-0.26-10.07-1.61c-5.49-2.76-12.97-4.83-16.43-2.85
			c-1.2,0.68-1.85,1.78-1.95,3.26c-0.36,5.56-8.09,20.92-11.64,23.15c-0.9,0.57-0.9,1.24-0.82,1.59c0.37,1.58,3.64,3,6.33,3.92
			c3.61,1.23,7.96,2.17,11.96,2.56c0.69,0.07,1.47,0.1,2.32,0.1c8.12,0,22.54-3.22,29.2-11.02c3.46-4.05,4.51-8.85,3.1-14.24
			C307.28,141.18,302.02,141,296.45,140.8z M304.66,159.32c-7.16,8.38-23.57,11.32-30.75,10.61c-8.51-0.84-17.07-3.97-17.5-5.79
			c-0.02-0.09-0.07-0.32,0.42-0.63c3.79-2.37,11.68-17.97,12.06-23.85c0.08-1.18,0.57-2.01,1.5-2.54c0.81-0.47,1.92-0.67,3.21-0.67
			c3.52,0,8.39,1.54,12.37,3.54c2.86,1.44,6.71,1.58,10.44,1.71c5.23,0.18,10.16,0.36,11.16,4.19
			C308.9,150.99,307.92,155.51,304.66,159.32z"/>
		<path class="st1" d="M291.84,144.96c-2.58-0.03-5.24-0.06-7.19-1.04c-2.52-1.27-8.69-4.04-11.64-2.51
			c-0.87,0.45-1.39,1.22-1.55,2.29c-0.62,4.24-6.18,15.44-8.49,17.13c-0.7,0.51-0.67,1.09-0.59,1.39c0.56,2.04,7.14,4.03,12.94,4.6
			c0.49,0.05,1.04,0.07,1.64,0.07c5.82,0,16.2-2.34,21.03-7.99c2.56-3,3.33-6.54,2.29-10.54
			C299.43,145.05,295.74,145.01,291.84,144.96z M297.32,158.32c-5.13,6-16.81,8.11-21.9,7.61c-6.14-0.61-11.82-2.67-12.17-3.94
			c-0.02-0.06-0.05-0.2,0.25-0.43c2.67-1.95,8.24-13.59,8.85-17.72c0.11-0.78,0.47-1.31,1.08-1.63c0.46-0.24,1.06-0.35,1.78-0.35
			c2.13,0,5.32,1,9.04,2.87c2.13,1.07,4.9,1.1,7.58,1.13c3.7,0.04,6.9,0.08,7.59,2.73C300.39,152.29,299.68,155.56,297.32,158.32z"
			/>
		<path class="st1" d="M287.21,149.11c-1.52,0.07-3.08,0.15-4.28-0.45c-0.31-0.15-0.62-0.31-0.93-0.47c-2.3-1.18-4.47-2.3-5.91-1.72
			c-0.54,0.22-0.93,0.66-1.15,1.3c-0.91,2.68-4.21,9.99-5.38,11.18c-0.48,0.49-0.41,0.96-0.32,1.2c0.57,1.57,5.04,2.42,7.58,2.67
			c0.29,0.03,0.62,0.04,0.98,0.04c3.4,0,9.72-1.31,12.85-4.96c1.66-1.94,2.15-4.24,1.48-6.83
			C291.58,148.9,289.36,149.01,287.21,149.11z M289.98,157.32c-3.1,3.62-10.04,4.91-13.06,4.61c-4.11-0.41-6.61-1.47-6.83-2.08
			c-0.01-0.04-0.04-0.11,0.11-0.26c1.39-1.41,4.76-9.07,5.59-11.52c0.13-0.39,0.34-0.64,0.63-0.76c0.16-0.06,0.34-0.09,0.55-0.09
			c1.16,0,2.98,0.94,4.62,1.78c0.31,0.16,0.63,0.32,0.93,0.48c1.41,0.71,3.17,0.62,4.72,0.55c2.26-0.11,3.66-0.1,4.02,1.29
			C291.87,153.59,291.44,155.61,289.98,157.32z"/>
		<path class="st1" d="M190.7,353.25h0.9c0.29-3.53,0.55-7.18,0.78-10.98c1.25-20.64-12.7-46.23-41.46-76.06
			c-30.21-31.33-76.84-66.81-127.95-97.34c-6.02-3.6-11.94-7.02-17.73-10.27v1.03c5.64,3.17,11.41,6.51,17.27,10.01
			c51.04,30.5,97.61,65.92,127.77,97.2c13.53,14.04,23.9,27.32,30.81,39.49c7.54,13.27,11.04,25.35,10.4,35.9
			C191.26,346.04,190.99,349.7,190.7,353.25z"/>
		<path class="st1" d="M137.73,267.13c-35.46-35.9-88.41-72.35-132.49-96.93v1.03c5.04,2.81,10.2,5.77,15.44,8.88
			c45.81,27.18,88.25,59.12,116.42,87.65c13.25,13.41,23.43,26.11,30.28,37.74c7.49,12.72,11.02,24.27,10.52,34.32
			c-0.24,4.69-0.53,9.16-0.87,13.42h0.9c0.34-4.25,0.63-8.7,0.87-13.38c0.52-10.23-3.06-21.95-10.64-34.83
			C161.27,293.35,151.03,280.6,137.73,267.13z"/>
		<path class="st1" d="M124.3,267.89c-33.04-32.51-80.07-64.56-119.06-86.06v1.01c4.4,2.44,8.91,5.01,13.51,7.71
			c40.53,23.82,78.77,52.24,104.92,77.98c13.02,12.81,23.08,24.95,29.9,36.07c7.48,12.21,11.09,23.26,10.72,32.84
			c-0.22,5.61-0.53,10.87-0.92,15.82h0.9c0.38-4.94,0.7-10.18,0.91-15.78c0.38-9.76-3.27-20.98-10.85-33.34
			C147.48,292.95,137.38,280.75,124.3,267.89z"/>
		<path class="st1" d="M110.54,268.42c-24.11-22.93-58.14-47.81-93.37-68.26c-4.07-2.36-8.05-4.61-11.92-6.72v1.03
			c3.74,2.04,7.57,4.2,11.47,6.47c35.17,20.42,69.14,45.25,93.21,68.14c12.88,12.25,22.88,23.86,29.73,34.51
			c7.55,11.74,11.27,22.33,11.04,31.47c-0.16,6.58-0.48,12.62-0.91,18.21h0.9c0.43-5.58,0.74-11.62,0.9-18.18
			c0.23-9.32-3.53-20.08-11.18-31.97C133.51,292.38,123.46,280.72,110.54,268.42z"/>
		<path class="st1" d="M96.29,268.65c-26.59-24.26-61.87-47.89-91.05-63.57v1.02c3.02,1.63,6.12,3.34,9.28,5.15
			c29.72,16.96,59.31,38.12,81.17,58.06c18.98,17.31,41.56,42.35,41.4,63.34c-0.05,6.28-0.1,13.08-0.65,20.6h0.74
			c0.46-6.15,0.74-12.97,0.8-20.59C138.14,311.34,115.4,286.08,96.29,268.65z"/>
		<path class="st1" d="M81.33,268.47c-19.5-16.89-44.58-34.3-68.79-47.76c-2.49-1.39-4.93-2.7-7.31-3.95v1.02
			c2.24,1.18,4.53,2.41,6.87,3.72c24.16,13.43,49.18,30.81,68.64,47.66c35.04,30.34,42.58,49.99,42.74,61.12
			c0.13,8.77-0.13,16.34-0.65,22.98h0.9c0.52-6.65,0.77-14.23,0.64-23C124.22,318.93,116.62,299.03,81.33,268.47z"/>
		<path class="st1" d="M65.36,267.76c-16.75-13.56-36.98-27.01-55.5-36.89c-1.57-0.84-3.1-1.63-4.62-2.4v1
			c1.37,0.7,2.77,1.42,4.19,2.19c18.48,9.86,38.66,23.27,55.36,36.8c16.46,13.33,44.21,38.78,45.09,59.43
			c0.43,10.11,0.24,18.4-0.37,25.37h0.9c0.61-6.99,0.79-15.29,0.36-25.41C109.89,306.85,81.94,281.18,65.36,267.76z"/>
		<path class="st1" d="M5.24,351.69v1.02c0.33,0.18,0.66,0.36,1,0.54h1.84C7.12,352.72,6.18,352.2,5.24,351.69z"/>
		<path class="st1" d="M81.54,296.44c-8.35-9.51-19.9-19.83-33.39-29.82c-13.56-10.04-28.2-19.12-41.2-25.55
			c-0.58-0.29-1.14-0.55-1.7-0.83v0.99c12.66,6.14,27.87,15.38,42.37,26.11c13.45,9.96,24.95,20.22,33.25,29.69
			c9.59,10.93,14.77,20.5,15.42,28.47c0.96,11.83,0.83,20.7,0.01,27.75h0.91c0.81-7.09,0.93-15.99-0.02-27.82
			C96.52,317.27,91.26,307.52,81.54,296.44z"/>
		<path class="st1" d="M65.5,294.16c-9.24-9.4-21.6-19.32-34.8-27.93c-9.34-6.09-18.09-10.9-25.45-14.09v1.01
			c7.27,3.19,15.89,7.92,24.97,13.83c13.15,8.57,25.46,18.45,34.65,27.8c10.62,10.81,16.78,20.61,17.83,28.34
			c1.85,13.68,2.17,23.08,1.02,30.12h0.89c1.14-7.07,0.84-16.41-1.03-30.24C82.5,315.08,76.25,305.11,65.5,294.16z"/>
		<path class="st1" d="M5.24,345.83c4.43,2.17,8.99,4.65,13.49,7.42h1.7c-5.06-3.17-10.21-6-15.19-8.42V345.83z"/>
		<path class="st1" d="M50.39,293.39c-9.6-8.84-21.87-17.61-32.83-23.47c-3.25-1.74-7.87-4-12.32-5.47v0.95
			c3.45,1.16,7.46,2.94,11.9,5.32c10.89,5.83,23.09,14.55,32.64,23.34c10.87,10.01,17.73,19.49,19.31,26.72
			c3.84,17.57,4.14,25.92-0.16,32.48h1.04c4.1-6.72,3.77-15.42,0-32.68C68.82,315.34,64.5,306.38,50.39,293.39z"/>
		<path class="st1" d="M5.24,339.33c7.91,3.28,17.02,7.98,25.31,13.92h1.52c-8.73-6.41-18.47-11.45-26.83-14.89V339.33z"/>
		<path class="st1" d="M38.52,295.92c-8.58-7.45-18.08-13.54-25.41-16.27c-3.15-1.18-5.78-1.69-7.87-1.57v0.9
			c0.2-0.01,0.39-0.03,0.6-0.03c1.88,0,4.22,0.51,6.95,1.53c7.24,2.7,16.64,8.73,25.14,16.11c8.96,7.79,15.37,15.74,17.57,21.83
			c6.2,17.09,5.74,21.12-3.32,28.73c-3.42,2.88-12.05,2.73-20.56-2.5c-9.79-6.01-20.85-10.2-25.16-11.72
			c-0.42-0.15-0.83-0.32-1.23-0.5v0.97c0.31,0.13,0.62,0.27,0.93,0.38c4.28,1.51,15.27,5.67,24.99,11.64
			c3.98,2.44,8.41,4.01,12.47,4.4c0.7,0.07,1.38,0.1,2.03,0.1c3.01,0,5.49-0.72,7.11-2.08c9.36-7.87,9.9-12.32,3.58-29.72
			C54.09,311.89,47.59,303.8,38.52,295.92z"/>
		<path class="st1" d="M35.63,336.89c2.07,0,4.02-0.29,5.76-0.97c4.5-1.76,6.82-3.55,7.52-5.81c1.07-3.43-1.53-7.53-6.22-14.48
			c-3.17-4.7-7.93-10.02-12.74-14.24c-3.96-3.47-9.71-7.75-14.61-8.4c-2.13-0.28-3.88,0.16-5.22,1.32c-1.63,1.41-3.33,3.19-4.88,5.2
			v1.49c1.68-2.35,3.62-4.42,5.47-6.01c0.91-0.79,2.07-1.18,3.45-1.18c0.34,0,0.7,0.02,1.07,0.07c8.3,1.1,21.07,13.86,26.73,22.26
			c4.4,6.53,7.05,10.69,6.1,13.72c-0.62,1.98-2.77,3.59-6.99,5.24c-1.66,0.65-3.53,0.93-5.51,0.93c-10.8,0-24.93-8.34-27.75-10.35
			c-0.96-0.69-1.8-1.41-2.57-2.16v1.23c0.64,0.57,1.31,1.12,2.05,1.66C10.15,328.44,24.52,336.89,35.63,336.89z"/>
		<path class="st1" d="M104.93,189.62c5.91,1.1,11.76,1.57,17.45,1.57c16.23,0,31.1-3.82,41.83-7.59
			c18.8-6.61,32.8-15.64,39.63-21.89c12.35-11.29,23.69-42.75,24.27-56.52c0.13-3.18-0.3-5.34-1.29-6.42
			c-3.77-4.08-7.47-2.39-19.76,3.19c-6.27,2.85-14.85,6.75-26.91,11.49c-27.67,10.86-92.17,19.67-133.42,19.67
			c-10.32,0-19.19-0.55-25.66-1.76c-6.44-1.21-11.68-1.83-15.84-1.87v0.91c4.11,0.04,9.31,0.65,15.68,1.84
			c14.87,2.78,44.92,2.2,78.43-1.52c34.28-3.81,64.61-9.95,81.14-16.43c12.08-4.74,20.67-8.65,26.95-11.5
			c12.14-5.52,15.4-7,18.73-3.4c0.57,0.61,1.21,2.11,1.06,5.77c-0.58,13.63-11.79,44.75-23.98,55.9
			c-6.77,6.19-20.65,15.14-39.33,21.7c-14.38,5.05-36.25,10.19-58.82,5.98c-18.4-3.44-44.63-12.59-70.16-24.47
			c-12.17-5.66-22.45-11.17-29.69-15.8v1.05c8.21,5.18,19.29,10.9,29.32,15.56C60.15,176.99,86.46,186.17,104.93,189.62z"/>
		<path class="st1" d="M107.05,187.65c5.31,0.96,10.58,1.37,15.7,1.37c15.15,0,29.05-3.58,39.05-7.1
			c17.35-6.11,30.41-14.48,36.83-20.27c6.18-5.59,12.87-17.32,17.87-31.37c3.87-10.85,6.6-23.25,3.99-26.51
			c-3.24-4.05-6.84-2.46-18.76,2.83c-5.74,2.55-13.61,6.03-24.41,10.23c-6.51,2.51-15.14,4.95-25.67,7.26
			c-41.66,9.14-100.28,14.02-122.99,10.22c-12.37-2.07-19.9-1.96-23.43,0.37v1.12c1.62-1.37,4.59-2.06,9.01-2.06
			c3.73,0,8.47,0.49,14.27,1.46c22.79,3.81,81.58-1.06,123.33-10.23c10.57-2.32,19.25-4.78,25.8-7.3
			c10.82-4.2,18.7-7.69,24.45-10.24c11.73-5.2,14.89-6.6,17.7-3.09c2.01,2.51,0.27,13.29-4.14,25.65
			c-4.96,13.92-11.55,25.51-17.63,31c-6.36,5.73-19.3,14.02-36.53,20.09c-13.27,4.67-33.47,9.46-54.29,5.69
			c-13.47-2.39-31.37-8.01-50.39-15.83c-25.2-10.38-46.35-21.93-51.59-27.93v1.28c6.99,7.04,30.01,18.74,51.24,27.48
			C75.56,179.61,93.52,185.25,107.05,187.65z"/>
		<path class="st1" d="M29.33,155.99c9.06,4.98,20.88,10.49,33.3,15.52c17.32,6.99,33.85,12.02,46.56,14.18
			c4.67,0.79,9.29,1.13,13.8,1.13c14.14,0,27.12-3.35,36.42-6.63c15.93-5.61,28.02-13.29,34.03-18.6
			c12.95-11.55,24.53-47.17,20.76-52.8c-2.7-4.03-6.13-2.55-17.5,2.35c-5.26,2.27-12.46,5.37-22.19,9.07
			c-6.02,2.29-14.07,4.54-23.92,6.69c-17.94,3.91-40.88,7.33-62.95,9.38c-22.52,2.09-41.24,2.45-51.38,0.99
			c-12.87-1.85-19.72-1.38-22.2,1.53c-1.1,1.29-1.32,3.05-0.65,5.23C14.39,147.22,22.61,152.29,29.33,155.99z M14.74,139.38
			c1.49-1.74,4.98-2.32,9.07-2.32c3.97,0,8.5,0.54,12.33,1.09c10.2,1.47,29.01,1.11,51.59-0.98c22.1-2.05,45.09-5.47,63.06-9.39
			c9.89-2.16,17.98-4.42,24.04-6.73c9.75-3.7,16.96-6.81,22.22-9.08c11.65-5.02,14.2-5.97,16.4-2.68
			c1.64,2.45-0.15,12.31-4.24,23.45c-4.64,12.65-10.76,23.19-16.37,28.18c-5.94,5.26-17.92,12.87-33.73,18.43
			c-12.16,4.28-30.67,8.7-49.77,5.45c-12.65-2.15-29.12-7.17-46.38-14.13c-25.89-10.49-47.28-22.32-48.69-26.91
			C13.68,141.87,13.83,140.43,14.74,139.38z"/>
		<path class="st1" d="M68.76,171.24c15.65,6.17,30.77,10.61,42.56,12.49c4.05,0.64,8.06,0.92,11.98,0.92
			c13.1,0,25.14-3.12,33.72-6.14c14.53-5.11,25.65-12.12,31.21-16.98c2.52-2.2,9.06-9.1,15.37-25.73c3.2-8.44,5.91-18.92,4.28-21.99
			c-2.15-4.07-5.45-2.69-16.37,1.88c-4.75,1.99-11.24,4.71-19.83,7.9c-5.59,2.08-13.05,4.14-22.16,6.12
			c-35.19,7.62-86.54,12.73-105.67,10.51C32,138.84,26.05,139.38,23.97,142c-0.94,1.18-1.05,2.77-0.34,4.74
			C25.45,151.77,47.71,162.87,68.76,171.24z M24.68,142.56c1.31-1.65,4.69-2.19,8.74-2.19c3.25,0,6.92,0.34,10.32,0.74
			c19.21,2.23,70.71-2.89,105.97-10.53c9.15-1.98,16.65-4.05,22.29-6.15c8.61-3.2,15.11-5.93,19.87-7.92
			c10.87-4.55,13.46-5.63,15.23-2.29c2.5,4.73-7.6,36.29-19.45,46.63c-5.5,4.8-16.51,11.73-30.92,16.81
			c-11.05,3.89-27.88,7.94-45.26,5.18c-11.73-1.87-26.77-6.28-42.37-12.43c-23.93-9.52-43.11-19.82-44.61-23.97
			C23.87,144.76,23.94,143.49,24.68,142.56z"/>
		<path class="st1" d="M74.9,170.97c13.99,5.37,27.68,9.2,38.55,10.79c3.42,0.5,6.81,0.72,10.12,0.72c12.07,0,23.18-2.89,31.05-5.67
			c13.11-4.62,23.27-10.95,28.41-15.34c6.87-5.87,12.16-18,14.11-22.94c3.52-8.9,5.38-17.18,4.43-19.69
			c-0.46-1.2-1.06-1.93-1.89-2.3c-2.09-0.91-5.6,0.51-13.29,3.63c-4.24,1.72-10.04,4.07-17.53,6.79
			c-5.17,1.88-12.03,3.74-20.41,5.54c-32.25,6.93-79.4,12.11-97.02,10.66c-9.1-0.75-15.56-0.69-17.52,2.03
			c-0.77,1.08-0.79,2.51-0.04,4.25C35.84,154.06,56.52,163.84,74.9,170.97z M34.63,145.73c1.14-1.58,4.54-2.07,8.7-2.07
			c2.51,0,5.29,0.18,8.02,0.4c17.69,1.46,64.96-3.73,97.28-10.67c8.42-1.81,15.32-3.69,20.53-5.58c7.51-2.73,13.32-5.09,17.56-6.81
			c7.23-2.93,10.85-4.4,12.59-3.64c0.6,0.26,1.04,0.81,1.41,1.79c0.87,2.28-1.03,10.47-4.42,19.05
			c-4.08,10.31-9.13,18.54-13.86,22.59c-12.52,10.69-42.16,23.99-68.87,20.08c-10.8-1.58-24.42-5.39-38.35-10.74
			c-21.91-8.5-38.95-17.35-40.53-21.03C34.06,147.65,34.05,146.54,34.63,145.73z"/>
		<path class="st1" d="M81.04,170.7c12.01,4.48,24.6,7.8,34.54,9.09c2.78,0.36,5.53,0.52,8.24,0.52c11.05,0,21.24-2.67,28.41-5.2
			c9.92-3.5,19.49-8.62,25.6-13.7c10.04-8.35,19.13-32.96,17.43-37.53c-0.04-0.8-0.2-1.89-1.06-2.45c-1.68-1.1-5.04,0.2-13.16,3.33
			c-3.92,1.51-8.81,3.4-15,5.59c-4.74,1.67-11.02,3.35-18.66,4.97c-28.68,6.1-72.45,11.45-88.37,10.8
			c-11.13-0.45-14.05,0.54-15.16,2.28c-0.62,0.97-0.54,2.25,0.25,3.78C46.17,156.21,64.7,164.61,81.04,170.7z M44.6,148.88
			c1.02-1.6,4.84-1.99,9.24-1.99c1.67,0,3.42,0.06,5.13,0.13c15.97,0.65,59.86-4.71,88.59-10.82c7.67-1.63,13.99-3.32,18.77-5
			c6.21-2.19,11.1-4.08,15.03-5.59c7.13-2.75,11.05-4.27,12.34-3.42c0.26,0.17,0.61,0.54,0.66,1.82l0,0.08l0.03,0.07
			c1.67,3.95-7.39,28.45-17.15,36.57c-6.03,5.02-15.5,10.08-25.33,13.55c-8.83,3.12-22.29,6.45-36.23,4.64
			c-9.87-1.29-22.39-4.58-34.34-9.04c-19.47-7.26-34.8-14.87-36.45-18.09C44.25,150.52,44.16,149.58,44.6,148.88z"/>
		<path class="st1" d="M87.18,170.44c10.38,3.7,21.51,6.4,30.53,7.39c2.09,0.23,4.18,0.34,6.28,0.34c20.09,0,40.02-9.88,48.62-16.82
			c8.85-7.13,17.32-27.94,16.32-32.41c0.12-0.84,0.16-1.98-0.59-2.6c-1.42-1.16-4.75,0.06-12.8,3c-3.29,1.2-7.39,2.7-12.34,4.38
			c-4.32,1.47-10.01,2.95-16.9,4.4c-26.23,5.51-65.86,10.06-79.75,10.95c-0.55,0.04-1.08,0.07-1.61,0.1
			c-6.15,0.38-10.21,0.63-11.2,2.56c-0.43,0.83-0.24,1.87,0.58,3.17C56.62,158.53,73.45,165.54,87.18,170.44z M54.55,152.15
			c0.76-1.48,5.04-1.74,10.45-2.08c0.52-0.03,1.06-0.07,1.61-0.1c13.91-0.89,53.6-5.45,79.87-10.97c6.93-1.46,12.65-2.95,17.01-4.43
			c4.96-1.69,9.06-3.19,12.36-4.39c6.79-2.48,10.9-3.98,11.92-3.15c0.32,0.26,0.4,0.87,0.25,1.86l-0.01,0.09l0.02,0.09
			c0.95,3.54-7.04,24.36-15.99,31.58c-9.39,7.57-32.42,18.69-54.24,16.29c-8.96-0.99-20.01-3.66-30.33-7.35
			c-17.62-6.29-30.63-12.38-32.38-15.16C54.46,153.43,54.28,152.68,54.55,152.15z"/>
		<path class="st1" d="M93.32,170.17c8.77,2.94,18.44,5.02,26.53,5.69c1.44,0.12,2.89,0.18,4.34,0.18
			c17.64,0,35.19-8.53,43.22-14.75c8.03-6.22,15.39-23.33,15.19-27.29c0.32-0.96,0.58-2.11-0.08-2.78c-1.2-1.2-4.54-0.06-12.61,2.69
			c-2.73,0.93-5.83,1.99-9.51,3.19c-3.91,1.27-9.01,2.56-15.15,3.83c-22.44,4.64-58.44,10.07-71.09,11.1
			c-5.77,0.47-9.61,0.91-10.4,2.72c-0.35,0.8-0.07,1.74,0.83,2.89C67.47,161.3,87.31,168.16,93.32,170.17z M64.58,155.12
			c0.59-1.35,4.72-1.79,9.65-2.19c12.67-1.03,48.73-6.47,71.2-11.12c6.17-1.28,11.3-2.58,15.25-3.85c3.69-1.2,6.79-2.26,9.52-3.19
			c6.55-2.24,10.88-3.72,11.69-2.91c0.17,0.17,0.28,0.65-0.16,1.94l-0.03,0.09l0.01,0.1c0.31,3.54-7.11,20.62-14.83,26.6
			c-8.58,6.64-28.16,15.96-46.94,14.39c-8.02-0.67-17.61-2.73-26.32-5.65c-15.65-5.25-26.5-9.94-28.31-12.23
			C64.62,156.24,64.38,155.58,64.58,155.12z"/>
		<path class="st1" d="M99.47,169.91c7.29,2.23,15.29,3.65,22.52,3.99c0.72,0.03,1.45,0.05,2.18,0.05
			c14.23,0,29.49-6.44,38.03-12.72c7.15-5.26,13.52-18.83,14.04-22.17c0.58-1.08,1.08-2.26,0.47-2.99
			c-1.03-1.25-4.43-0.18-12.66,2.4c-1.91,0.6-4.08,1.28-6.48,2.01c-3.52,1.07-8.03,2.17-13.4,3.26c-15.84,3.21-39.4,7.27-53.47,9.69
			c-3.69,0.64-6.78,1.17-8.99,1.56c-4.68,0.82-7.55,1.43-8,2.91c-0.29,0.96,0.51,1.88,1.14,2.49
			C76.86,162.33,85.14,165.53,99.47,169.91z M74.56,158.16c0.32-1.06,4.19-1.74,7.3-2.29c2.21-0.39,5.3-0.92,8.99-1.56
			c14.08-2.43,37.64-6.49,53.5-9.7c5.4-1.1,9.94-2.2,13.48-3.28c2.4-0.73,4.57-1.41,6.49-2.01c6.18-1.94,11.05-3.47,11.7-2.69
			c0.09,0.11,0.22,0.55-0.61,2.07l-0.04,0.07l-0.01,0.08c-0.4,3.1-6.66,16.48-13.69,21.65c-8.42,6.19-23.47,12.54-37.49,12.54
			c-0.72,0-1.43-0.02-2.15-0.05c-7.16-0.34-15.08-1.75-22.3-3.96c-17.67-5.4-22.94-8.04-24.26-9.31
			C74.98,159.27,74.43,158.61,74.56,158.16z"/>
		<path class="st1" d="M85.13,163.13c2.53,1.74,11.14,4.07,20.49,6.51c5.67,1.48,12.16,2.29,18.3,2.29c0.07,0,0.15,0,0.22,0
			c11.91-0.04,25.08-5.43,32.85-10.76c5.66-3.88,10.35-12.45,12.35-16.11c0.21-0.38,0.38-0.7,0.53-0.95
			c1.04-1.85,1.26-2.86,0.75-3.5c-0.9-1.13-3.68-0.31-9.78,1.48c-1.78,0.53-3.8,1.12-6.08,1.76c-3.18,0.89-7.1,1.79-11.65,2.69
			c-2.56,0.5-5.36,1.05-8.3,1.62c-16.86,3.29-37.85,7.38-45.55,9.79c-3.76,1.18-5.47,1.9-5.64,3.04
			C83.48,161.88,84.35,162.6,85.13,163.13z M84.5,161.13c0.12-0.78,3.19-1.74,5.02-2.31c7.65-2.4,28.61-6.49,45.45-9.77
			c2.94-0.57,5.74-1.12,8.3-1.62c4.57-0.9,8.52-1.81,11.72-2.7c2.29-0.64,4.31-1.23,6.09-1.76c3.55-1.05,6.71-1.98,8.11-1.98
			c0.36,0,0.6,0.06,0.71,0.19c0.1,0.13,0.23,0.63-0.83,2.5c-0.14,0.26-0.32,0.58-0.53,0.96c-1.97,3.6-6.59,12.04-12.07,15.8
			c-7.66,5.25-20.63,10.56-32.35,10.6c-6.13,0.01-12.62-0.78-18.29-2.26c-2.75-0.72-5.5-1.44-8.06-2.15
			c-0.35-0.09-0.68-0.18-0.99-0.28c-5.27-1.48-9.59-2.88-11.16-3.96C84.59,161.68,84.47,161.3,84.5,161.13z"/>
		<path class="st1" d="M102.79,167.05c-0.03-0.08-0.05-0.17-0.07-0.26c-3.02-0.59-5.56-1.17-6.95-1.75c-1.3-0.55-1.51-0.9-1.52-1.06
			c-0.01-0.3,0.48-0.93,2.93-2.24c8.08-4.31,36.49-9.9,45-11.5c3.52-0.67,6.96-1.4,9.95-2.13c0.85-0.21,1.67-0.41,2.45-0.6
			c4.57-1.12,9.29-2.28,9.74-1.56c0.05,0.08,0.2,0.58-1.55,2.64c-0.37,0.44-0.81,0.99-1.33,1.64c-2.24,2.82-5.98,7.54-10.17,10.13
			c-5.96,3.7-15.68,7.93-25.07,8.71c-3.52,0.29-6.97,0.28-10.18-0.02c-0.91-0.02-1.82-0.04-2.72-0.05
			c-1.54-0.02-2.93-0.05-4.16-0.11c0.88,0.16,1.75,0.32,2.63,0.48c2.86,0.54,6.01,0.81,9.3,0.81c1.71,0,3.46-0.07,5.22-0.22
			c9.55-0.8,19.42-5.09,25.47-8.84c4.32-2.68,8.13-7.47,10.4-10.34c0.51-0.64,0.95-1.19,1.31-1.62c1.61-1.9,2.08-2.97,1.62-3.7
			c-0.76-1.23-3.65-0.57-10.71,1.16c-0.78,0.19-1.6,0.39-2.45,0.6c-2.98,0.72-6.41,1.46-9.91,2.12
			c-8.55,1.61-37.07,7.22-45.26,11.59c-2.52,1.35-3.45,2.18-3.41,3.07c0.04,0.88,1.07,1.43,2.06,1.85c0.38,0.16,0.84,0.32,1.37,0.48
			c0.31,0.09,0.64,0.18,0.99,0.28c1.56,0.41,3.53,0.82,5.7,1.23C103.15,167.64,102.92,167.37,102.79,167.05z"/>
		<path class="st1" d="M107.96,167.77c-1.41-0.26-2.79-0.51-4.11-0.76c0.72,0.64,2.88,0.89,5.42,1
			C108.83,167.93,108.39,167.85,107.96,167.77z"/>
		<path class="st1" d="M116.04,169.06c0.65,0.02,1.3,0.03,1.94,0.06c0.43,0.02,0.85,0.03,1.29,0.03c13.12,0,30.2-8.52,37.82-14.94
			c2.2-1.86,2.97-3.01,2.56-3.87c-0.74-1.55-5.02-0.8-13.16,0.78c-1.81,0.35-3.67,0.71-5.52,1.04c-6.81,1.2-14.5,2.98-20.58,4.75
			c-8.3,2.42-13.72,4.8-16.12,7.06c-1.2,1.14-1.7,2.04-1.55,2.82c0.02,0.09,0.03,0.17,0.07,0.26c0.12,0.32,0.36,0.58,0.69,0.8
			c1.01,0.66,2.94,0.92,5.67,1.05c1.23,0.05,2.62,0.08,4.16,0.11C114.22,169.02,115.13,169.04,116.04,169.06z M103.63,166.73
			c-0.17-0.43,0.28-1.18,1.26-2.1c5.33-5.03,26.03-9.78,36.23-11.58c1.85-0.33,3.72-0.69,5.53-1.04c4.94-0.96,11.7-2.27,12.18-1.27
			c0.03,0.06,0.21,0.65-2.33,2.79c-7.75,6.54-25.44,15.28-38.49,14.71c-1.54-0.07-3.14-0.09-4.69-0.12
			c-1.35-0.02-2.75-0.04-4.06-0.1c-2.53-0.11-4.7-0.36-5.42-1C103.75,166.92,103.67,166.83,103.63,166.73z"/>
		<path class="st1" d="M208.69,326.44c-1.52-0.68-2.91-0.65-4.14,0.08c-2.19,1.3-4.92,12.06-6.36,18.35
			c-0.62,2.73-1.21,5.55-1.76,8.39h0.92c2.53-13.04,5.8-24.87,7.65-25.96c0.5-0.3,1.02-0.44,1.59-0.44c0.54,0,1.12,0.14,1.73,0.41
			c4.96,2.21,11.32,12.91,16.18,26h0.9C220.63,340.32,214.19,328.89,208.69,326.44z"/>
		<path class="st1" d="M324.05,74.3c-1.06,0.31-2.26,0.65-3.53,1.01c-11.26,3.21-21.5,6.29-23.18,8.64
			c-0.18,0.25-0.33,0.68-0.03,1.28c1.82,3.64,22.1,11.93,34.37,12.19c2.04,0.04,4,0.07,5.86,0.07c1.04,0,2.05-0.01,3.02-0.03v-0.89
			c-2.95,0.07-6.02,0.01-8.86-0.05c-5.27-0.11-13-1.88-20.67-4.73c-6.82-2.53-12.13-5.4-12.92-6.97c-0.12-0.24-0.06-0.32-0.04-0.36
			c1.63-2.28,14.82-6.05,22.69-8.3c1.28-0.36,2.47-0.71,3.54-1.02h0c5.14-1.5,10.86-1.21,16.25,0.71v-0.95
			C335.07,73.03,329.28,72.78,324.05,74.3z"/>
		<path class="st1" d="M5.24,122.19c1.97-0.22,2.65-0.46,2.72-1.04c0.07-0.6-0.6-1.03-2.72-1.75v0.95c0.91,0.32,1.38,0.53,1.61,0.67
			c-0.33,0.1-0.91,0.18-1.61,0.26V122.19z"/>
	</g>
	<g>
		<g>
			<g>
				<g>
					<rect x="36.85" y="185.1" class="st2" width="9.57" height="0.65"/>
				</g>
			</g>
			<g>
				<g>
					<rect x="41.31" y="180.65" class="st2" width="0.65" height="9.57"/>
				</g>
			</g>
		</g>
		<g>
			<g>
				<g>
					<rect x="102.56" y="185.1" class="st2" width="9.57" height="0.65"/>
				</g>
			</g>
			<g>
				<g>
					<rect x="107.02" y="180.65" class="st2" width="0.65" height="9.57"/>
				</g>
			</g>
		</g>
		<g>
			<g>
				<g>
					<rect x="168.28" y="185.1" class="st2" width="9.57" height="0.65"/>
				</g>
			</g>
			<g>
				<g>
					<rect x="172.73" y="180.65" class="st2" width="0.65" height="9.57"/>
				</g>
			</g>
		</g>
		<g>
			<g>
				<g>
					<rect x="233.99" y="185.1" class="st2" width="9.57" height="0.65"/>
				</g>
			</g>
			<g>
				<g>
					<rect x="238.45" y="180.65" class="st2" width="0.65" height="9.57"/>
				</g>
			</g>
		</g>
		<g>
			<g>
				<g>
					<rect x="299.71" y="185.1" class="st2" width="9.57" height="0.65"/>
				</g>
			</g>
			<g>
				<g>
					<rect x="304.16" y="180.65" class="st2" width="0.65" height="9.57"/>
				</g>
			</g>
		</g>
		<g>
			<g>
				<g>
					<g>
						<rect x="172.73" y="312.07" class="st2" width="0.65" height="9.57"/>
					</g>
				</g>
				<g>
					<g>
						<rect x="168.28" y="316.53" class="st2" width="9.57" height="0.65"/>
					</g>
				</g>
			</g>
			<g>
				<g>
					<g>
						<rect x="172.73" y="246.36" class="st2" width="0.65" height="9.57"/>
					</g>
				</g>
				<g>
					<g>
						<rect x="168.28" y="250.82" class="st2" width="9.57" height="0.65"/>
					</g>
				</g>
			</g>
			<g>
				<g>
					<g>
						<rect x="172.73" y="114.93" class="st2" width="0.65" height="9.57"/>
					</g>
				</g>
				<g>
					<g>
						<rect x="168.28" y="119.39" class="st2" width="9.57" height="0.65"/>
					</g>
				</g>
			</g>
			<g>
				<g>
					<g>
						<rect x="172.73" y="49.22" class="st2" width="0.65" height="9.57"/>
					</g>
				</g>
				<g>
					<g>
						<rect x="168.28" y="53.67" class="st2" width="9.57" height="0.65"/>
					</g>
				</g>
			</g>
		</g>
		<g>
			<g>
				<g>
					<g>
						<rect x="106.69" y="312.07" class="st2" width="0.65" height="9.57"/>
					</g>
				</g>
				<g>
					<g>
						<rect x="102.24" y="316.53" class="st2" width="9.57" height="0.65"/>
					</g>
				</g>
			</g>
			<g>
				<g>
					<g>
						<rect x="106.69" y="246.36" class="st2" width="0.65" height="9.57"/>
					</g>
				</g>
				<g>
					<g>
						<rect x="102.24" y="250.82" class="st2" width="9.57" height="0.65"/>
					</g>
				</g>
			</g>
			<g>
				<g>
					<g>
						<rect x="106.69" y="114.93" class="st2" width="0.65" height="9.57"/>
					</g>
				</g>
				<g>
					<g>
						<rect x="102.24" y="119.39" class="st2" width="9.57" height="0.65"/>
					</g>
				</g>
			</g>
			<g>
				<g>
					<g>
						<rect x="106.69" y="49.22" class="st2" width="0.65" height="9.57"/>
					</g>
				</g>
				<g>
					<g>
						<rect x="102.24" y="53.67" class="st2" width="9.57" height="0.65"/>
					</g>
				</g>
			</g>
		</g>
		<g>
			<g>
				<g>
					<g>
						<rect x="238.45" y="312.07" class="st2" width="0.65" height="9.57"/>
					</g>
				</g>
				<g>
					<g>
						<rect x="233.99" y="316.53" class="st2" width="9.57" height="0.65"/>
					</g>
				</g>
			</g>
			<g>
				<g>
					<g>
						<rect x="238.45" y="246.36" class="st2" width="0.65" height="9.57"/>
					</g>
				</g>
				<g>
					<g>
						<rect x="233.99" y="250.82" class="st2" width="9.57" height="0.65"/>
					</g>
				</g>
			</g>
			<g>
				<g>
					<g>
						<rect x="238.45" y="114.93" class="st2" width="0.65" height="9.57"/>
					</g>
				</g>
				<g>
					<g>
						<rect x="233.99" y="119.39" class="st2" width="9.57" height="0.65"/>
					</g>
				</g>
			</g>
			<g>
				<g>
					<g>
						<rect x="238.45" y="49.22" class="st2" width="0.65" height="9.57"/>
					</g>
				</g>
				<g>
					<g>
						<rect x="233.99" y="53.67" class="st2" width="9.57" height="0.65"/>
					</g>
				</g>
			</g>
		</g>
		<g>
			<g>
				<g>
					<g>
						<rect x="238.45" y="312.4" class="st2" width="0.65" height="9.57"/>
					</g>
				</g>
				<g>
					<g>
						<rect x="233.99" y="316.86" class="st2" width="9.57" height="0.65"/>
					</g>
				</g>
			</g>
			<g>
				<g>
					<g>
						<rect x="238.45" y="246.69" class="st2" width="0.65" height="9.57"/>
					</g>
				</g>
				<g>
					<g>
						<rect x="233.99" y="251.14" class="st2" width="9.57" height="0.65"/>
					</g>
				</g>
			</g>
			<g>
				<g>
					<g>
						<rect x="238.45" y="115.26" class="st2" width="0.65" height="9.57"/>
					</g>
				</g>
				<g>
					<g>
						<rect x="233.99" y="119.71" class="st2" width="9.57" height="0.65"/>
					</g>
				</g>
			</g>
			<g>
				<g>
					<g>
						<rect x="238.45" y="49.54" class="st2" width="0.65" height="9.57"/>
					</g>
				</g>
				<g>
					<g>
						<rect x="233.99" y="54" class="st2" width="9.57" height="0.65"/>
					</g>
				</g>
			</g>
		</g>
		<g>
			<g>
				<g>
					<g>
						<rect x="304.16" y="312.4" class="st2" width="0.65" height="9.57"/>
					</g>
				</g>
				<g>
					<g>
						<rect x="299.71" y="316.86" class="st2" width="9.57" height="0.65"/>
					</g>
				</g>
			</g>
			<g>
				<g>
					<g>
						<rect x="304.16" y="246.69" class="st2" width="0.65" height="9.57"/>
					</g>
				</g>
				<g>
					<g>
						<rect x="299.71" y="251.14" class="st2" width="9.57" height="0.65"/>
					</g>
				</g>
			</g>
			<g>
				<g>
					<g>
						<rect x="304.16" y="115.26" class="st2" width="0.65" height="9.57"/>
					</g>
				</g>
				<g>
					<g>
						<rect x="299.71" y="119.71" class="st2" width="9.57" height="0.65"/>
					</g>
				</g>
			</g>
			<g>
				<g>
					<g>
						<rect x="304.16" y="49.54" class="st2" width="0.65" height="9.57"/>
					</g>
				</g>
				<g>
					<g>
						<rect x="299.71" y="54" class="st2" width="9.57" height="0.65"/>
					</g>
				</g>
			</g>
		</g>
		<g>
			<g>
				<g>
					<g>
						<rect x="40.98" y="312.07" class="st2" width="0.65" height="9.57"/>
					</g>
				</g>
				<g>
					<g>
						<rect x="36.52" y="316.53" class="st2" width="9.57" height="0.65"/>
					</g>
				</g>
			</g>
			<g>
				<g>
					<g>
						<rect x="40.98" y="246.36" class="st2" width="0.65" height="9.57"/>
					</g>
				</g>
				<g>
					<g>
						<rect x="36.52" y="250.82" class="st2" width="9.57" height="0.65"/>
					</g>
				</g>
			</g>
			<g>
				<g>
					<g>
						<rect x="40.98" y="114.93" class="st2" width="0.65" height="9.57"/>
					</g>
				</g>
				<g>
					<g>
						<rect x="36.52" y="119.39" class="st2" width="9.57" height="0.65"/>
					</g>
				</g>
			</g>
			<g>
				<g>
					<g>
						<rect x="40.98" y="49.22" class="st2" width="0.65" height="9.57"/>
					</g>
				</g>
				<g>
					<g>
						<rect x="36.52" y="53.67" class="st2" width="9.57" height="0.65"/>
					</g>
				</g>
			</g>
		</g>
	</g>
</g>
</svg>
