<?xml version="1.0" encoding="utf-8"?>
<!-- Generator: Adobe Illustrator 27.7.0, SVG Export Plug-In . SVG Version: 6.00 Build 0)  -->
<svg version="1.1" id="Vrstva_1" xmlns="http://www.w3.org/2000/svg" xmlns:xlink="http://www.w3.org/1999/xlink" x="0px" y="0px"
	 viewBox="0 0 345.8 367.19" style="enable-background:new 0 0 345.8 367.19;" xml:space="preserve">
<style type="text/css">
	.st0{fill:none;}
	.st1{fill:#CCCCCC;}
	.st2{fill:#FFFFFF;}
</style>
<g>
	<g>
		<path class="st0" d="M120.72,65.76c-1.3,0.34-2.6,0.69-3.92,1.07c-0.43,0.28-0.86,0.58-1.3,0.92c1.42-0.53,2.83-1.02,4.23-1.51
			C120.06,66.08,120.39,65.92,120.72,65.76z"/>
		<path class="st0" d="M127,82.91c0.45-0.77,0.87-1.63,1.24-2.54c-1.33,2.15-2.95,4.33-4.82,6.47
			C125.07,85.41,126.32,84.07,127,82.91z"/>
		<path class="st0" d="M130.8,65.75l-0.05-0.14l0.05-0.15c0.23-0.69,0.41-1.59,0.01-1.94c-0.09-0.08-0.21-0.13-0.35-0.17
			c-1.26,0.44-2.56,0.9-3.88,1.38l-0.99,0.35c1.9,0.83,3.29,2.15,4.12,3.96c0.59,1.28,0.85,2.74,0.87,4.27
			C131.45,70.47,131.56,67.88,130.8,65.75z"/>
		<path class="st0" d="M84.68,91.55c-5.44,6.3-11.18,12.13-16.24,17.27c-7.58,7.7-13.57,13.78-13.82,16.72l-0.01,0.11l-0.06,0.09
			c-1.47,2.24-1.92,3.8-1.28,4.4c1.24,1.15,6.98,0.09,19.38-6.32c10.14-5.25,21.77-12.6,30.34-19.19l0.02-0.02
			c19.71-13.12,31.85-26.01,36.08-38.3l0.02-0.06l0.03-0.05c2.37-3.45,2.25-4.57,1.97-4.93c-0.22-0.28-0.66-0.41-1.3-0.41
			c-1.7,0-4.76,0.91-8.31,2.12c0.48,0.54,0.56,1.38,0.19,2.6c1.01,3,0.51,6.75-1.41,10.96c-0.46,2.48-1.4,4.91-2.52,6.81
			c-1.32,2.25-4.55,5.07-8.7,7.99c-1.11,1.04-2.25,2.06-3.44,3.05c-5.27,5.18-15.77,12.19-26.76,17.88
			c-3.65,1.89-14.46,7.25-19.39,7.25c-0.88,0-1.58-0.17-2.01-0.57c-1.12-1.03-0.38-3.07,2.26-6.24c1.59-3.02,5.85-7.52,10.78-12.72
			c3.38-3.57,7.21-7.61,10.78-11.82c7.57-8.91,13.49-13.52,19.06-16.89c0.26-0.27,0.51-0.54,0.77-0.8
			C103.59,73.86,95.27,79.27,84.68,91.55z"/>
		<path class="st0" d="M91.97,88.76c-3.59,4.22-7.43,8.28-10.82,11.85c-4.9,5.18-9.14,9.65-10.66,12.56l-0.05,0.08
			c-3.08,3.69-2.68,4.75-2.37,5.04c1.78,1.64,11.81-2.39,20.37-6.82c10.31-5.33,20.16-11.82,25.61-16.84
			c-10.87,6.72-24.78,12.99-29.95,12.99c-0.16,0-0.32-0.01-0.46-0.02c-0.95-0.08-1.55-0.44-1.77-1.05
			c-0.46-1.24,0.76-3.28,3.84-6.43c5.83-5.97,10.92-12.3,15.4-17.88c2.45-3.05,4.75-5.91,6.94-8.42
			C103.33,77.02,98.22,81.41,91.97,88.76z"/>
		<path class="st0" d="M139.92,66.66c-4.37,12.64-16.27,25.29-36.4,38.69c-14.81,11.39-40.43,26.07-48.72,26.07
			c-0.96,0-1.68-0.2-2.14-0.62c-1.04-0.96-0.68-2.75,1.08-5.46c0.4-3.28,6.15-9.11,14.06-17.15c5.05-5.13,10.78-10.95,16.2-17.23
			c11.73-13.61,20.71-18.88,28.92-22.21c0.43-0.4,0.86-0.77,1.29-1.12c-10.36,3.36-21.76,9.36-36.82,26.71
			c-7.38,8.49-15.11,16.19-21.93,22.98c-9.92,9.87-17.76,17.67-16.79,20.58l0.05,0.16l-0.07,0.16c-0.58,1.33-1.08,3.07-0.21,3.8
			c0.38,0.32,0.97,0.47,1.75,0.47c6.32,0,25.43-10.08,50.75-26.94c34.9-20.96,47.81-34.53,56.47-48.46l0.03-0.05
			c4.4-5.39,4.76-7.37,4.28-8.08c-0.29-0.43-0.97-0.62-1.96-0.62c-1.99,0-5.22,0.76-8.95,1.79c0.43,0.12,0.77,0.31,1,0.6
			C142.61,61.75,142.02,63.58,139.92,66.66z"/>
		<path class="st0" d="M229.93,44.91c6.66,4.07,9.96,7.56,9.1,9.61c2.84,0.45,4.87,0.02,5.34-1.17c0.59-1.5-1.25-4.81-8.34-9.18
			c-1.13-0.57-3.51-1.23-6.1-1.33c-1.3-0.05-2.91,0.02-4.4,0.48c1.04,0.23,2.31,0.73,3.73,1.31L229.93,44.91z"/>
		<path class="st0" d="M152.48,58.45c0.97,1.46-0.36,4.28-4.31,9.13c-12.07,19.4-31.41,33.51-56.74,48.72
			c-13.11,8.73-24.91,15.86-34.1,20.63c-8.29,4.3-13.96,6.43-17.15,6.43c-1.02,0-1.79-0.22-2.31-0.65c-1.02-0.85-1.05-2.43-0.1-4.7
			c-0.85-3.49,6.31-10.62,17.06-21.32c6.81-6.78,14.53-14.46,21.88-22.93c16.43-18.93,28.56-24.49,39.71-27.74
			c2.2-1.4,4.33-2.05,6.43-1.72c0.06-0.02,0.13-0.03,0.19-0.05c0.82-0.21,1.66-0.43,2.49-0.65c1.71-0.69,3.13-1.11,4.2-1.16
			c0.35-0.1,0.71-0.2,1.06-0.3c-1.41,0.29-2.82,0.57-4.2,0.85c-7.94,1.56-16.14,3.18-25.21,7.84c-10.18,5.23-20.42,13.84-31.3,26.32
			c-9.34,10.71-19.09,20.29-27.68,28.75c-12.22,12.02-21.88,21.51-19.74,24.43l0.11,0.15l-0.02,0.18c-0.23,1.68,0.06,2.76,0.88,3.3
			c0.46,0.3,1.08,0.44,1.86,0.44c7.24,0,27.9-12.49,53.4-27.91c32.88-18.58,57.64-33.65,76.83-58.55l0.02-0.02
			c5.34-6.03,7.59-9.83,6.7-11.28c-0.38-0.61-1.34-0.88-2.75-0.88c-2.32,0-5.87,0.71-10.03,1.72
			C151.05,57.44,152,57.74,152.48,58.45z"/>
		<path class="st0" d="M120.06,67.07c-0.33,0.16-0.64,0.31-0.94,0.46l-1.04,0.54c-2.39,1.25-4.75,2.47-7.17,3.93
			c-2.81,2.99-5.82,6.73-9.1,10.81c-4.5,5.6-9.59,11.94-15.46,17.94c-3.71,3.8-3.78,5.11-3.64,5.49c0.1,0.26,0.44,0.42,1.01,0.47
			c0.13,0.01,0.27,0.02,0.42,0.02c5.75,0,23.56-8.56,34.5-16.22c5-4.73,8.73-9.71,10.8-14.27c0.43-2.42,0.36-4.86-0.54-6.84
			c-0.86-1.88-2.41-3.17-4.6-3.86c-1.4,0.52-2.79,1.01-4.15,1.48C120.12,67.05,120.09,67.06,120.06,67.07z"/>
		<path class="st0" d="M113.4,69.52c-0.01,0.01-0.03,0.03-0.04,0.04c0.05-0.03,0.11-0.06,0.16-0.09
			C113.48,69.49,113.44,69.51,113.4,69.52z"/>
		<path class="st0" d="M209.59,61.09l0.05-0.01c1.84-0.32,4.15-1,6.83-1.78c5.5-1.61,12.34-3.6,17.98-3.19
			c2.07-0.14,3.97-0.07,5.65-0.01c2.82,0.11,4.86,0.18,5.31-0.87l0.12-0.27l0.3,0c0,0,0.01,0,0.01,0c2.55,0,4.32-0.89,4.75-2.39
			c0.88-3.08-3.57-7.14-8.03-9.92c-1.5-0.86-5.25-1.76-9.39-1.76c-4.12,0-8.61,0.91-11.73,3.61c0.38-0.24,0.74-0.45,1.07-0.6
			c2.14-1.77,5.23-2.04,7.46-1.95c2.75,0.11,5.24,0.8,6.49,1.44l0.03,0.02c6.43,3.96,9.69,7.8,8.72,10.28
			c-0.66,1.7-3.17,2.32-6.73,1.67c-0.25,0.16-0.56,0.25-0.91,0.3c-0.41,0.11-0.9,0.17-1.46,0.17c-0.81,0-1.79-0.13-2.86-0.37
			c-0.65-0.05-1.32-0.08-2.02-0.07l-0.04,0l-0.04-0.01c-3.87-0.73-7.44-0.36-10.3-0.06c-1.68,0.18-3.14,0.33-4.26,0.21
			c-1.44,0.23-2.25,0.07-2.62-0.51c-0.41-0.64-0.11-1.6,1-3.2c0.65-1.47,1.82-3.05,3.12-4.42c-3.32,3.01-7.83,7.71-10.27,10.98
			l-0.03,0.04c-2.49,2.62-2.27,3.17-2.24,3.23C205.53,61.65,205.9,62.18,209.59,61.09z"/>
		<path class="st0" d="M202.74,67.57c2.72-0.74,6.19-2,9.86-3.32c8.41-3.04,17.93-6.48,24.97-6.48c0.03,0,0.06,0,0.1,0
			c2.87-0.27,5.49-0.23,7.79-0.2c4.58,0.07,6.98,0.02,7.38-1.72l0.06-0.26l0.26-0.07c2.1-0.6,3.46-2,3.72-3.84
			c0.46-3.23-2.45-7.17-7.79-10.53c-1.71-1.04-6.55-2.18-12.11-2.18c-6.53,0-14.06,1.58-18.67,6.79l-0.03,0.03
			c-3.67,3.4-13.3,13.18-18.42,18.69l-0.02,0.02c-3.78,3.53-3.52,4.24-3.48,4.31C196.4,68.87,196.98,69.51,202.74,67.57z
			 M207.09,57.8c3.2-4.28,9.89-10.97,12.97-13.28c6.31-6.55,19.67-4.52,22.95-2.64c6.15,3.83,9.3,7.92,8.43,10.94
			c-0.53,1.85-2.52,2.97-5.35,3.03c-0.82,1.35-3.03,1.27-6.03,1.15c-1.66-0.06-3.54-0.13-5.58,0.01l-0.03,0l-0.03,0
			c-5.48-0.42-12.25,1.56-17.69,3.15c-2.69,0.79-5.01,1.47-6.9,1.8c-1.61,0.47-2.79,0.71-3.62,0.71c-0.75,0-1.21-0.19-1.44-0.57
			C204.27,61.3,204.95,60.06,207.09,57.8z"/>
		<path class="st0" d="M233.37,54.55c0.48,0.04,0.94,0.08,1.37,0.12c1,0.09,1.9,0.18,2.55,0.11c0.47-0.12,0.78-0.32,0.9-0.57
			c0.43-0.92-0.92-3.75-8.7-8.51l-0.58-0.23c-1.63-0.66-3.44-1.38-4.46-1.38c-0.27,0-0.49,0.05-0.63,0.17
			c-0.34,0.28-0.27,1.04-0.15,1.62c0.19,0.92,0.17,1.68,0.16,2.36c-0.04,2.1-0.06,3.25,7.21,5.67
			C231.9,54.19,232.66,54.39,233.37,54.55z"/>
		<path class="st0" d="M195.9,74.04c3.59-1.16,8.16-2.97,12.99-4.89c11.07-4.39,23.61-9.37,32.01-9.73
			c3.65-0.39,6.98-0.39,9.92-0.38c5.98,0.01,9.12-0.1,9.46-2.61l0.03-0.19l0.15-0.11c1.8-1.35,2.82-3.58,2.73-5.97
			c-0.14-3.77-2.83-7.51-7.56-10.53c-2.03-1.28-7.91-2.65-14.78-2.65c-8.63,0-18.81,2.16-24.92,9.34
			c-4.88,5.11-17.31,17.85-23.99,24.23c-5.09,4.46-4.79,5.34-4.74,5.43C187.28,76.14,188.15,76.81,195.9,74.04z M199.21,63.84
			c5.12-5.51,14.75-15.28,18.44-18.71c2.65-2.99,7.88-6.62,17.71-7.03c6.12-0.25,12.03,0.96,14.2,2.28c8.15,5.13,8.45,9.7,8.2,11.42
			c-0.3,2.1-1.84,3.77-4.12,4.5c-0.73,2.27-3.88,2.22-8.19,2.16c-2.29-0.03-4.89-0.07-7.72,0.2l-0.02,0l-0.02,0
			c-0.04,0-0.08,0-0.11,0c-6.88,0-16.32,3.41-24.66,6.42c-3.69,1.33-7.17,2.59-9.9,3.34c-3.14,1.06-4.93,1.42-5.98,1.42
			c-0.89,0-1.25-0.26-1.45-0.59C195.03,68.33,196.08,66.76,199.21,63.84z"/>
		<path class="st0" d="M275.24,35.1c-3.3-2.23-15.19-4.78-28.95-3.78c-21.11,1.53-32.05,9.95-37.52,16.75
			c-4.27,5.31-13.71,15.44-23.18,24.78c9.47-9.1,20.32-20.49,24.87-25.93c4.84-5.94,14.51-13.3,33.04-14.57
			c11.42-0.78,22.23,1.22,25.69,3.52c3.76,2.48,6.17,6.05,7.16,10.61c1,4.58,0.25,8.95-0.29,11.17c-0.29,5.07-6.26,5.14-14.51,5.24
			c-4.18,0.05-8.91,0.11-14.12,0.74c-10.89,1.13-29.2,9.06-45.35,16.06c-7.26,3.15-14.12,6.12-19.55,8.14
			c-7.37,2.79-10.95,3.65-12.75,3.65c-1.05,0-1.49-0.3-1.7-0.67c-0.28-0.48-0.26-1.21,0.93-2.71c-0.28,0.23-0.56,0.46-0.83,0.68
			c-8.59,6.9-8.67,8.46-8.49,8.78c0.21,0.37,1.98,1.19,15.68-4.1c6.35-2.45,14.36-6.01,22.85-9.78c18.75-8.33,40-17.77,52.33-19.29
			c6.05-0.75,11.52-0.84,16.35-0.92c9.71-0.16,15.58-0.26,15.71-5.36C282.86,49.87,282.22,39.81,275.24,35.1z"/>
		<path class="st0" d="M182.22,86.98c5.42-2.01,12.26-4.98,19.51-8.12c16.21-7.03,34.58-14.99,45.61-16.13
			c5.25-0.63,10.01-0.69,14.21-0.74c9.06-0.11,13.42-0.35,13.63-4.44l0.01-0.08c0.82-3.35,2.77-14.74-6.49-20.86
			c-2.49-1.66-10.44-3.54-20.12-3.54c-1.63,0-3.3,0.05-5.01,0.17c-18.22,1.24-27.68,8.43-32.41,14.24
			c-4.2,5.02-13.72,15.07-22.61,23.75c8.71-8.28,20.06-20.1,24.31-24.91c4.1-4.95,12.29-11.07,27.93-12.05
			c9.63-0.6,18.85,1.14,21.86,3.11c9.41,6.1,8.73,15.15,5.96,19.81c-0.43,4.15-5.47,4.19-12.42,4.23
			c-3.55,0.02-7.57,0.05-11.99,0.56c-9.59,0.74-24.99,7.19-38.58,12.88c-6.04,2.53-11.74,4.92-16.26,6.51
			c-3.64,1.35-6.47,2.24-8.41,2.64c-0.84,0.17-1.53,0.26-2.08,0.26c-0.85,0-1.37-0.21-1.62-0.64c-0.38-0.65,0.07-1.61,1-2.76
			c-0.75,0.66-1.47,1.28-2.15,1.85c-7.53,6.17-7.35,7.46-7.24,7.66C169.05,90.68,170.58,91.4,182.22,86.98z"/>
		<path class="st0" d="M189.06,80.51c4.5-1.58,10.19-3.97,16.21-6.49c13.65-5.72,29.12-12.2,38.84-12.95
			c4.45-0.51,8.5-0.54,12.07-0.56c7.39-0.05,11.27-0.23,11.54-3.52l0.01-0.1l0.05-0.09c2.63-4.33,3.31-12.88-5.63-18.68
			c-2.32-1.51-9.22-3.08-17.38-3.08c-10.74,0-23.67,2.72-31.24,11.86c-4.14,4.68-14.94,15.94-23.55,24.19
			c0.41-0.38,0.84-0.77,1.34-1.2c6.66-6.35,19.07-19.08,23.93-24.17c6.1-7.19,15.78-9.15,22.82-9.54c7.94-0.43,15.4,1.03,18.03,2.69
			c6.73,4.3,7.89,8.89,7.97,11.25c0.1,2.62-1,5.08-2.94,6.61c-0.59,3.21-4.68,3.21-10.32,3.2c-2.92,0-6.23-0.01-9.85,0.38
			c-8.27,0.35-20.74,5.3-31.75,9.67c-4.85,1.92-9.42,3.74-13.03,4.9c-4.53,1.62-6.94,2.16-8.25,2.16c-0.93,0-1.32-0.27-1.52-0.62
			c-0.36-0.62-0.25-1.59,2.41-4.23c-1.74,1.65-3.37,3.16-4.81,4.42c-6.26,5.27-6.09,6.37-5.99,6.54
			C178.14,83.36,179.21,84.16,189.06,80.51z"/>
		<path class="st0" d="M222.94,48.22c0.01-0.63,0.02-1.35-0.14-2.17c-0.1-0.49-0.12-0.9-0.09-1.26c-2.2,1.1-5.7,4.53-6.97,7.41
			l-0.04,0.08c-1.17,1.69-1.06,2.14-1,2.24c0.04,0.06,0.29,0.33,1.78,0.09l0.06-0.01l0.06,0.01c1.03,0.12,2.46-0.03,4.12-0.2
			c2.38-0.25,5.24-0.54,8.37-0.24C223.17,52.01,222.9,50.65,222.94,48.22z"/>
		<path class="st1" d="M6.45,148.46c12.66-12.23,27.74-26.99,41.78-42.99c17.25-19.67,33.41-32.77,49.39-40.05
			c14.23-6.49,27.02-7.86,39.39-9.2c6.07-0.65,12.35-1.33,18.72-2.6c1.57-0.31,3.12-0.63,4.63-0.94c3.43-0.75,6.61-1.43,9.46-1.96
			c13.21-2.7,23.2-4.4,24.95-1.22c1.51,2.74-3.13,9.59-14.16,20.93c-16.5,16.96-33.95,31.01-54.92,44.21
			c-19.19,12.09-39.56,22.45-63.16,34.44c-6.38,3.24-12.98,6.6-19.81,10.12c-16.14,8.32-27.66,14.62-36.29,19.36v1.02
			c8.66-4.77,20.3-11.14,36.7-19.59c6.83-3.52,13.43-6.88,19.81-10.12c23.61-12.01,44-22.38,63.23-34.48
			c21.03-13.24,38.53-27.33,55.08-44.34c11.66-11.98,16.07-18.77,14.3-21.99c-2.27-4.14-14.25-1.65-30.84,1.79
			c-2.95,0.61-6,1.25-9.17,1.88c-6.33,1.26-12.59,1.94-18.65,2.59c-12.44,1.34-25.3,2.73-39.66,9.27
			c-16.1,7.34-32.36,20.51-49.7,40.28c-13.78,15.71-28.59,30.23-41.1,42.33V148.46z"/>
		<path class="st1" d="M157.26,53.37c-2.52,0.55-5.12,1.13-7.82,1.7c-5.44,1.17-10.83,1.87-16.04,2.54
			c-10.95,1.42-22.28,2.88-34.91,8.81c-14.16,6.65-28.43,18.32-43.64,35.68c-13.27,15.14-27.65,29.09-39.22,40.3
			c-3.27,3.17-6.35,6.16-9.18,8.95v1.26c3.02-2.99,6.33-6.2,9.8-9.56c11.57-11.22,25.98-25.18,39.27-40.35
			c15.12-17.26,29.3-28.86,43.34-35.46c12.5-5.87,23.76-7.33,34.65-8.74c4.97-0.64,10.1-1.32,15.29-2.39
			c0.31-0.07,0.63-0.15,0.93-0.22c6.04-1.43,11.16-2.64,15.14-3.26c6.07-1.28,11.19-2.2,14.63-2.2c2.34,0,3.91,0.42,4.48,1.44
			c1.31,2.32-2.51,8.11-11.66,17.71c-30.84,33.27-62.39,49.8-106.06,72.68c-3.74,1.96-7.56,3.96-11.47,6.02
			c-12.42,6.66-22.16,12.1-29.98,16.47c-8.03,4.49-13.91,7.76-18.36,9.96v0.99c4.58-2.23,10.6-5.59,18.8-10.17
			c7.82-4.37,17.56-9.8,29.97-16.46c3.91-2.06,7.73-4.06,11.47-6.02c43.75-22.92,75.36-39.49,106.3-72.86
			c9.72-10.2,13.35-15.99,11.79-18.77c-1.42-2.52-6.88-2.2-14.93-0.71c-2.85,0.53-6.03,1.21-9.46,1.96
			C159.35,52.91,158.32,53.13,157.26,53.37z"/>
		<path class="st1" d="M148.8,56.11c-1.79,0.42-3.61,0.85-5.5,1.29c-4.54,1.07-9.05,1.78-13.41,2.47
			c-18.97,2.99-38.6,6.09-67.76,39.45c-11.29,12.91-23.56,24.88-33.42,34.49C17.93,144.33,9.5,152.55,6.45,157.84v2.01
			c1.85-4.89,11.28-14.08,22.89-25.4c9.87-9.63,22.16-21.61,33.47-34.54c12.99-14.86,25.2-24.96,37.31-30.88
			c10.78-5.26,20.51-6.8,29.92-8.28c3.08-0.49,6.24-0.99,9.43-1.62c0.91-0.24,1.81-0.47,2.68-0.7c6.61-1.72,11.94-3.11,15.64-3.5
			c4.85-1.07,9.02-1.84,11.83-1.84c1.86,0,3.13,0.34,3.59,1.14c1.1,1.89-1.89,6.63-9.17,14.5C138.16,98.71,109,114.52,68.64,136.4
			l-1.79,0.97c-6.91,3.9-13.1,7.45-18.56,10.58c-23.08,13.23-34.67,19.88-39.22,18c-1.1-0.45-1.81-1.4-2.25-2.99l-0.03-0.13
			l-0.1-0.09c-0.09-0.08-0.17-0.17-0.23-0.26v2.05c0.53,1.09,1.28,1.83,2.27,2.24c0.61,0.25,1.31,0.38,2.12,0.38
			c5.74,0,16.79-6.33,37.89-18.43c5.46-3.13,11.65-6.68,18.55-10.58l1.78-0.97c40.44-21.93,69.66-37.77,95.63-67.85
			c7.79-8.41,10.65-13.21,9.28-15.55c-1.03-1.77-4.21-1.91-9.11-1.16c-3.98,0.61-9.1,1.82-15.14,3.26
			C149.43,55.96,149.11,56.03,148.8,56.11z"/>
		<path class="st1" d="M139.46,59.13c-0.75,0.19-1.52,0.39-2.29,0.59c-3.63,0.96-7.24,1.67-10.74,2.36
			c-16.02,3.16-32.58,6.42-57.01,34.45c-9.32,10.68-19.05,20.25-27.64,28.7c-14.52,14.28-22.09,21.98-19.94,25.44
			c-0.23,1.94,0.21,3.29,1.3,4c0.6,0.39,1.39,0.59,2.37,0.59c7.12,0,24.38-10.21,53.84-28.03c32.96-18.62,57.78-33.73,77.08-58.77
			c5.86-6.63,7.95-10.43,6.78-12.33c-0.73-1.19-2.6-1.49-5.43-1.19c-3.69,0.38-9.03,1.77-15.64,3.5
			C141.27,58.67,140.37,58.9,139.46,59.13z M162.45,56.6c0.89,1.45-1.36,5.25-6.7,11.28l-0.02,0.02
			c-19.19,24.91-43.94,39.98-76.83,58.55c-25.5,15.42-46.15,27.91-53.4,27.91c-0.78,0-1.4-0.14-1.86-0.44
			c-0.82-0.54-1.11-1.62-0.88-3.3l0.02-0.18l-0.11-0.15c-2.14-2.92,7.51-12.41,19.74-24.43c8.6-8.46,18.35-18.04,27.68-28.75
			c10.88-12.48,21.11-21.08,31.3-26.32c9.07-4.66,17.27-6.28,25.21-7.84c1.38-0.27,2.78-0.55,4.2-0.85
			c0.08-0.02,0.15-0.04,0.23-0.07c1.15-0.34,2.28-0.67,3.37-1c6.89-2.04,12.16-3.6,15.26-3.61c4.16-1.01,7.71-1.72,10.03-1.72
			C161.11,55.73,162.07,55.99,162.45,56.6z"/>
		<path class="st1" d="M130.35,62.44c5.02-1.75,8.64-2.81,10.47-2.32c3.73-1.04,6.96-1.79,8.95-1.79c0.99,0,1.67,0.19,1.96,0.62
			c0.48,0.72,0.12,2.7-4.28,8.08l-0.03,0.05c-8.66,13.93-21.57,27.5-56.47,48.46c-25.33,16.86-44.43,26.94-50.75,26.94
			c-0.78,0-1.37-0.15-1.75-0.47c-0.87-0.73-0.36-2.47,0.21-3.8l0.07-0.16l-0.05-0.16c-0.97-2.9,6.87-10.7,16.79-20.58
			c6.82-6.79,14.55-14.49,21.93-22.98c15.05-17.34,26.46-23.35,36.82-26.71c0.75-0.62,1.49-1.16,2.22-1.62
			c-11.15,3.26-23.28,8.81-39.71,27.74c-7.35,8.47-15.07,16.15-21.88,22.93c-10.75,10.7-17.91,17.83-17.06,21.32
			c-0.95,2.27-0.92,3.85,0.1,4.7c0.52,0.43,1.29,0.65,2.31,0.65c3.19,0,8.86-2.13,17.15-6.43c9.19-4.76,20.99-11.9,34.1-20.63
			c25.33-15.21,44.67-29.32,56.74-48.72c3.96-4.85,5.29-7.66,4.31-9.13c-0.47-0.71-1.43-1.01-2.81-1.01
			c-3.1,0.01-8.37,1.57-15.26,3.61c-1.09,0.32-2.22,0.66-3.37,1c-0.08,0.02-0.15,0.04-0.23,0.07c-0.36,0.11-0.71,0.2-1.06,0.3
			C129.96,62.41,130.16,62.42,130.35,62.44z"/>
		<path class="st1" d="M123.56,64.43c0.7-0.31,1.36-0.59,1.98-0.84c-0.83,0.22-1.67,0.44-2.49,0.65c-0.06,0.02-0.13,0.03-0.19,0.05
			c0.05,0.01,0.11,0.01,0.16,0.02C123.21,64.34,123.38,64.39,123.56,64.43z"/>
		<path class="st1" d="M116.8,66.83c1.32-0.38,2.62-0.74,3.92-1.07c0.46-0.22,0.91-0.44,1.35-0.64c-0.1,0-0.19-0.03-0.29-0.03
			C120.17,65.09,118.52,65.73,116.8,66.83z"/>
		<path class="st1" d="M117.67,67.28l1.05-0.55c0.34-0.17,0.68-0.33,1.01-0.49c-1.4,0.49-2.8,0.98-4.23,1.51
			c-0.69,0.53-1.39,1.12-2.1,1.77c0.04-0.02,0.08-0.03,0.12-0.05C114.9,68.72,116.28,68,117.67,67.28z"/>
		<path class="st1" d="M130.47,63.35c-0.14-0.04-0.3-0.06-0.49-0.06c-1.13,0-3.02,0.66-5.05,1.52c0.23,0.08,0.46,0.17,0.68,0.27
			l0.99-0.35C127.91,64.26,129.21,63.79,130.47,63.35z"/>
		<path class="st1" d="M120.15,67.04c1.36-0.47,2.75-0.97,4.15-1.48c-0.21-0.07-0.42-0.13-0.64-0.19c-1.25,0.56-2.49,1.16-3.6,1.7
			C120.09,67.06,120.12,67.05,120.15,67.04z"/>
		<path class="st1" d="M131.51,62.99c3.55-1.21,6.6-2.12,8.31-2.12c0.63,0,1.08,0.12,1.3,0.41c0.28,0.36,0.39,1.49-1.97,4.93
			l-0.03,0.05l-0.02,0.06c-4.23,12.29-16.36,25.18-36.08,38.3l-0.02,0.02c-8.57,6.59-20.19,13.94-30.34,19.19
			c-12.4,6.41-18.14,7.47-19.38,6.32c-0.65-0.6-0.19-2.16,1.28-4.4l0.06-0.09l0.01-0.11c0.25-2.93,6.24-9.02,13.82-16.72
			c5.06-5.14,10.8-10.97,16.24-17.27c10.59-12.28,18.9-17.69,26.44-21.06c0.61-0.62,1.21-1.2,1.8-1.74
			c-8.2,3.34-17.18,8.6-28.92,22.21c-5.42,6.28-11.15,12.1-16.2,17.23c-7.91,8.04-13.66,13.87-14.06,17.15
			c-1.76,2.71-2.12,4.49-1.08,5.46c0.45,0.42,1.18,0.62,2.14,0.62c8.29,0,33.91-14.68,48.72-26.07
			c20.12-13.4,32.03-26.05,36.4-38.69c2.11-3.08,2.7-4.91,1.91-5.94c-0.23-0.3-0.57-0.49-1-0.6c-1.83-0.49-5.45,0.56-10.47,2.32
			c0.43,0.05,0.78,0.17,1.05,0.4C131.45,62.89,131.47,62.95,131.51,62.99z"/>
		<path class="st1" d="M91.29,88.18c-3.58,4.2-7.41,8.25-10.78,11.82c-4.93,5.2-9.18,9.7-10.78,12.72
			c-2.64,3.17-3.38,5.21-2.26,6.24c0.43,0.4,1.12,0.57,2.01,0.57c4.93,0,15.74-5.36,19.39-7.25c10.99-5.68,21.49-12.7,26.76-17.88
			c1.19-0.98,2.34-2,3.44-3.05c-1.56,1.09-3.24,2.19-5,3.29c-5.45,5.02-15.31,11.51-25.61,16.84c-8.57,4.43-18.6,8.46-20.37,6.82
			c-0.31-0.29-0.71-1.35,2.37-5.04l0.05-0.08c1.52-2.91,5.75-7.38,10.66-12.56c3.39-3.58,7.22-7.63,10.82-11.85
			c6.24-7.35,11.35-11.74,16.08-14.93c0.78-0.89,1.55-1.74,2.3-2.54C104.78,74.66,98.86,79.27,91.29,88.18z"/>
		<path class="st1" d="M118.65,90.52c1.81-1.27,3.42-2.5,4.77-3.68c1.87-2.14,3.49-4.32,4.82-6.47c0.53-1.3,0.96-2.7,1.21-4.12
			C127.38,80.81,123.65,85.79,118.65,90.52z"/>
		<path class="st1" d="M119.72,66.24c-0.33,0.16-0.67,0.33-1.01,0.49l-1.05,0.55c-1.39,0.72-2.77,1.44-4.15,2.2
			c-0.05,0.03-0.11,0.06-0.16,0.09c-0.8,0.74-1.61,1.56-2.45,2.44c2.42-1.46,4.78-2.69,7.17-3.93l1.04-0.54
			c0.3-0.15,0.62-0.3,0.94-0.46c1.11-0.54,2.35-1.14,3.6-1.7c-0.26-0.07-0.52-0.13-0.8-0.18c-0.26-0.05-0.53-0.06-0.79-0.07
			c-0.44,0.21-0.89,0.42-1.35,0.64C120.39,65.92,120.06,66.08,119.72,66.24z"/>
		<path class="st1" d="M124.92,64.82c2.03-0.86,3.93-1.52,5.05-1.52c0.19,0,0.35,0.02,0.49,0.06c0.14,0.04,0.26,0.09,0.35,0.17
			c0.4,0.35,0.21,1.25-0.01,1.94l-0.05,0.15l0.05,0.14c0.76,2.13,0.65,4.72-0.21,7.56c0.01,1.07-0.1,2.16-0.3,3.25
			c1.91-4.21,2.42-7.96,1.41-10.96c0.37-1.22,0.3-2.07-0.19-2.6c-0.04-0.05-0.06-0.1-0.11-0.15c-0.27-0.23-0.62-0.36-1.05-0.4
			c-0.19-0.02-0.39-0.03-0.61-0.02c-1.07,0.05-2.49,0.48-4.2,1.16c-0.62,0.25-1.28,0.53-1.98,0.84
			C124.04,64.54,124.49,64.66,124.92,64.82z"/>
		<path class="st1" d="M112.92,68.75c-0.59,0.54-1.19,1.13-1.8,1.74c-0.26,0.26-0.51,0.53-0.77,0.8c-0.75,0.8-1.52,1.64-2.3,2.54
			c-2.19,2.51-4.49,5.37-6.94,8.42c-4.48,5.58-9.56,11.91-15.4,17.88c-3.08,3.15-4.3,5.19-3.84,6.43c0.23,0.62,0.82,0.97,1.77,1.05
			c0.15,0.01,0.3,0.02,0.46,0.02c5.17,0,19.08-6.28,29.95-12.99c1.77-1.09,3.45-2.2,5-3.29c4.16-2.92,7.39-5.74,8.7-7.99
			c1.12-1.9,2.06-4.33,2.52-6.81c0.2-1.09,0.31-2.18,0.3-3.25c-0.02-1.52-0.28-2.98-0.87-4.27c-0.83-1.81-2.22-3.13-4.12-3.96
			c-0.22-0.1-0.44-0.18-0.68-0.27c-0.43-0.15-0.88-0.28-1.36-0.39c-0.18-0.04-0.35-0.09-0.54-0.12c-0.05-0.01-0.11-0.01-0.16-0.02
			c-2.1-0.33-4.22,0.33-6.43,1.72c-0.73,0.46-1.47,1-2.22,1.62C113.78,67.98,113.35,68.36,112.92,68.75z M122.86,65.19
			c0.28,0.05,0.54,0.12,0.8,0.18c0.22,0.06,0.43,0.12,0.64,0.19c2.19,0.7,3.74,1.99,4.6,3.86c0.91,1.97,0.98,4.42,0.54,6.84
			c-0.25,1.42-0.68,2.82-1.21,4.12c-0.37,0.91-0.79,1.77-1.24,2.54c-0.68,1.16-1.93,2.49-3.58,3.93c-1.35,1.17-2.97,2.41-4.77,3.68
			c-10.95,7.66-28.75,16.22-34.5,16.22c-0.15,0-0.29-0.01-0.42-0.02c-0.57-0.05-0.91-0.21-1.01-0.47c-0.14-0.39-0.07-1.69,3.64-5.49
			c5.86-6,10.96-12.34,15.46-17.94c3.28-4.09,6.29-7.82,9.1-10.81c0.83-0.89,1.65-1.7,2.45-2.44c0.01-0.01,0.03-0.03,0.04-0.04
			c0.71-0.66,1.41-1.25,2.1-1.77c0.44-0.34,0.87-0.64,1.3-0.92c1.72-1.11,3.37-1.74,4.98-1.74c0.1,0,0.19,0.02,0.29,0.03
			C122.33,65.13,122.6,65.14,122.86,65.19z"/>
		<path class="st1" d="M275.75,34.36c-3.4-2.3-15.56-4.94-29.52-3.93c-21.43,1.55-32.58,10.14-38.15,17.08
			c-7.09,8.82-28.48,30.97-40.45,40.57c-8.69,6.98-9.27,8.93-8.7,9.92c0.23,0.4,0.69,0.71,1.8,0.71c2.02,0,6.18-1.02,14.98-4.41
			c6.37-2.45,14.39-6.02,22.89-9.79c18.69-8.3,39.88-17.71,52.08-19.22c6-0.74,11.45-0.83,16.26-0.91c9.9-0.16,16.43-0.27,16.6-6.23
			C283.76,49.66,283.09,39.31,275.75,34.36z M282.64,58.1c-0.14,5.1-6,5.2-15.71,5.36c-4.83,0.08-10.31,0.17-16.35,0.92
			c-12.32,1.53-33.58,10.97-52.33,19.29c-8.49,3.77-16.5,7.33-22.85,9.78c-13.7,5.28-15.47,4.47-15.68,4.1
			c-0.18-0.31-0.1-1.88,8.49-8.78c0.27-0.22,0.55-0.45,0.83-0.68c1.05-1.31,3.01-3.22,6.51-6.09c2.83-2.37,6.34-5.59,10.07-9.17
			c9.46-9.34,18.91-19.47,23.18-24.78c5.46-6.79,16.41-15.22,37.52-16.75c13.76-1,25.66,1.56,28.95,3.78
			C282.22,39.81,282.86,49.87,282.64,58.1z"/>
		<path class="st1" d="M168.09,90.8c0.22,0.38,0.65,0.67,1.7,0.67c1.79,0,5.38-0.86,12.75-3.65c5.43-2.02,12.29-4.99,19.55-8.14
			c16.15-7,34.46-14.94,45.35-16.06c5.21-0.63,9.95-0.68,14.12-0.74c8.25-0.1,14.22-0.18,14.51-5.24c0.54-2.22,1.28-6.59,0.29-11.17
			c-0.99-4.56-3.4-8.13-7.16-10.61c-3.46-2.3-14.27-4.3-25.69-3.52c-18.54,1.27-28.2,8.62-33.04,14.57
			c-4.55,5.44-15.4,16.83-24.87,25.93c-3.72,3.58-7.24,6.8-10.07,9.17c-3.5,2.87-5.46,4.77-6.51,6.09
			C167.83,89.59,167.81,90.32,168.09,90.8z M176.1,82.7c0.68-0.57,1.4-1.19,2.15-1.85c1.17-1.44,3.11-3.17,5.18-4.91
			c1.52-1.34,3.26-2.95,5.12-4.72c8.89-8.68,18.41-18.73,22.61-23.75c4.73-5.81,14.2-13,32.41-14.24c1.71-0.12,3.38-0.17,5.01-0.17
			c9.68,0,17.63,1.89,20.12,3.54c9.26,6.12,7.31,17.51,6.49,20.86l-0.01,0.08c-0.21,4.09-4.57,4.32-13.63,4.44
			c-4.2,0.05-8.96,0.11-14.21,0.74c-11.03,1.14-29.4,9.1-45.61,16.13c-7.25,3.14-14.09,6.11-19.51,8.12
			c-11.65,4.42-13.17,3.7-13.36,3.37C168.75,90.16,168.57,88.87,176.1,82.7z"/>
		<path class="st1" d="M177.25,83.62c0.25,0.43,0.77,0.64,1.62,0.64c0.55,0,1.24-0.09,2.08-0.26c1.94-0.4,4.77-1.29,8.41-2.64
			c4.51-1.59,10.22-3.98,16.26-6.51c13.59-5.69,28.99-12.14,38.58-12.88c4.42-0.51,8.44-0.53,11.99-0.56
			c6.95-0.05,11.99-0.08,12.42-4.23c2.77-4.66,3.45-13.7-5.96-19.81c-3.02-1.96-12.23-3.71-21.86-3.11
			c-15.64,0.98-23.83,7.1-27.93,12.05c-4.26,4.81-15.61,16.63-24.31,24.91c-1.86,1.77-3.59,3.38-5.12,4.72
			c-2.07,1.74-4.01,3.46-5.18,4.91C177.32,82,176.88,82.97,177.25,83.62z M184.02,76.63c1.44-1.27,3.07-2.77,4.81-4.42
			c0.34-0.34,0.73-0.71,1.17-1.11c8.61-8.25,19.41-19.51,23.55-24.19c7.57-9.14,20.5-11.86,31.24-11.86
			c8.16,0,15.06,1.57,17.38,3.08c8.94,5.8,8.26,14.35,5.63,18.68l-0.05,0.09l-0.01,0.1c-0.28,3.29-4.15,3.47-11.54,3.52
			c-3.57,0.02-7.62,0.05-12.07,0.56c-9.72,0.75-25.19,7.23-38.84,12.95c-6.03,2.52-11.72,4.91-16.21,6.49
			c-9.85,3.65-10.92,2.85-11.03,2.65C177.93,83,177.76,81.89,184.02,76.63z"/>
		<path class="st1" d="M186.41,76.43c0.2,0.35,0.59,0.62,1.52,0.62c1.31,0,3.72-0.54,8.25-2.16c3.61-1.16,8.19-2.98,13.03-4.9
			c11-4.37,23.47-9.32,31.75-9.67c3.63-0.39,6.93-0.38,9.85-0.38c5.63,0.01,9.73,0.01,10.32-3.2c1.94-1.53,3.04-3.99,2.94-6.61
			c-0.09-2.36-1.24-6.95-7.97-11.25c-2.63-1.66-10.09-3.12-18.03-2.69c-7.04,0.38-16.71,2.35-22.82,9.54
			c-4.86,5.09-17.27,17.81-23.93,24.17c-0.49,0.43-0.93,0.83-1.34,1.2c-0.43,0.4-0.82,0.77-1.17,1.11
			C186.17,74.84,186.05,75.82,186.41,76.43z M191.93,70.55c6.68-6.38,19.11-19.12,23.99-24.23c6.11-7.19,16.29-9.34,24.92-9.34
			c6.87,0,12.75,1.37,14.78,2.65c4.73,3.02,7.42,6.76,7.56,10.53c0.09,2.39-0.93,4.62-2.73,5.97l-0.15,0.11l-0.03,0.19
			c-0.34,2.51-3.48,2.62-9.46,2.61c-2.94,0-6.28-0.01-9.92,0.38c-8.4,0.36-20.94,5.34-32.01,9.73c-4.83,1.92-9.39,3.73-12.99,4.89
			c-7.74,2.77-8.62,2.1-8.71,1.94C187.14,75.89,186.84,75.01,191.93,70.55z"/>
		<path class="st1" d="M197.03,69.85c1.05,0,2.84-0.37,5.98-1.42c2.73-0.75,6.21-2,9.9-3.34c8.34-3.01,17.78-6.42,24.66-6.42
			c0.04,0,0.08,0,0.11,0l0.02,0l0.02,0c2.83-0.27,5.43-0.23,7.72-0.2c4.31,0.06,7.46,0.11,8.19-2.16c2.29-0.73,3.82-2.4,4.12-4.5
			c0.25-1.73-0.05-6.29-8.2-11.42c-2.17-1.32-8.07-2.53-14.2-2.28c-9.84,0.41-15.06,4.04-17.71,7.03
			c-3.69,3.43-13.32,13.2-18.44,18.71c-3.13,2.92-4.18,4.49-3.63,5.41C195.78,69.59,196.14,69.85,197.03,69.85z M199.83,64.49
			l0.02-0.02c5.11-5.5,14.75-15.28,18.42-18.69l0.03-0.03c4.61-5.2,12.13-6.79,18.67-6.79c5.56,0,10.41,1.15,12.11,2.18
			c5.34,3.36,8.25,7.3,7.79,10.53c-0.27,1.85-1.62,3.25-3.72,3.84l-0.26,0.07l-0.06,0.26c-0.39,1.74-2.8,1.79-7.38,1.72
			c-2.31-0.03-4.92-0.07-7.79,0.2c-0.03,0-0.06,0-0.1,0c-7.04,0-16.56,3.44-24.97,6.48c-3.67,1.33-7.14,2.58-9.86,3.32
			c-5.76,1.94-6.34,1.31-6.39,1.23C196.31,68.73,196.05,68.01,199.83,64.49z"/>
		<path class="st1" d="M206.2,62.67c0.83,0,2.01-0.23,3.62-0.71c1.88-0.33,4.21-1.01,6.9-1.8c5.44-1.59,12.21-3.57,17.69-3.15
			l0.03,0l0.03,0c2.04-0.14,3.92-0.07,5.58-0.01c2.99,0.11,5.2,0.2,6.03-1.15c2.83-0.07,4.82-1.19,5.35-3.03
			c0.87-3.02-2.28-7.11-8.43-10.94c-3.28-1.87-16.63-3.9-22.95,2.64c-3.07,2.31-9.76,9-12.97,13.28c-2.14,2.26-2.82,3.5-2.33,4.29
			C204.99,62.48,205.45,62.67,206.2,62.67z M207.76,58.4l0.03-0.04c2.44-3.27,6.95-7.96,10.27-10.98c1.1-1.17,2.3-2.19,3.36-2.88
			c3.11-2.7,7.61-3.61,11.73-3.61c4.14,0,7.89,0.9,9.39,1.76c4.46,2.78,8.91,6.84,8.03,9.92c-0.43,1.5-2.2,2.39-4.75,2.39
			c0,0-0.01,0-0.01,0l-0.3,0l-0.12,0.27c-0.45,1.06-2.49,0.98-5.31,0.87c-1.68-0.06-3.57-0.14-5.65,0.01
			c-5.64-0.42-12.48,1.58-17.98,3.19c-2.68,0.78-4.99,1.46-6.83,1.78l-0.05,0.01c-3.69,1.08-4.06,0.56-4.07,0.53
			C205.49,61.58,205.27,61.02,207.76,58.4z"/>
		<path class="st1" d="M213.94,55c0.36,0.58,1.17,0.73,2.62,0.51c1.12,0.12,2.58-0.03,4.26-0.21c2.87-0.3,6.43-0.68,10.3,0.06
			l0.04,0.01l0.04,0c0.7-0.01,1.37,0.03,2.02,0.07c-0.77-0.17-1.59-0.39-2.48-0.69c-0.6-0.2-1.15-0.39-1.66-0.58
			c-3.13-0.3-5.99-0.01-8.37,0.24c-1.66,0.17-3.1,0.33-4.12,0.2l-0.06-0.01l-0.06,0.01c-1.48,0.24-1.74-0.03-1.78-0.09
			c-0.06-0.1-0.17-0.55,1-2.24l0.04-0.08c1.26-2.88,4.76-6.32,6.97-7.41c0.04-0.54,0.21-0.96,0.54-1.23
			c0.52-0.43,1.3-0.45,2.26-0.24c1.5-0.46,3.11-0.53,4.4-0.48c2.59,0.1,4.97,0.76,6.1,1.33c7.09,4.37,8.93,7.68,8.34,9.18
			c-0.47,1.19-2.49,1.62-5.34,1.17c-0.01,0.02-0.01,0.04-0.02,0.06c-0.24,0.52-0.74,0.87-1.45,1.07c0.35-0.05,0.65-0.14,0.91-0.3
			c3.56,0.65,6.07,0.03,6.73-1.67c0.97-2.48-2.3-6.32-8.72-10.28l-0.03-0.02c-1.24-0.63-3.73-1.32-6.49-1.44
			c-2.23-0.09-5.32,0.18-7.46,1.95c-0.33,0.15-0.69,0.36-1.07,0.6c-1.06,0.69-2.26,1.71-3.36,2.88c-1.3,1.38-2.47,2.95-3.12,4.42
			C213.84,53.4,213.54,54.36,213.94,55z"/>
		<path class="st1" d="M234.74,54.66c-0.43-0.04-0.9-0.08-1.37-0.12c1.81,0.41,3.12,0.44,3.92,0.23
			C236.65,54.84,235.74,54.76,234.74,54.66z"/>
		<path class="st1" d="M239.01,54.58c0.01-0.02,0.01-0.04,0.02-0.06c0.86-2.05-2.44-5.55-9.1-9.61l-0.68-0.28
			c-1.42-0.57-2.69-1.08-3.73-1.31c-0.96-0.21-1.74-0.2-2.26,0.24c-0.33,0.27-0.5,0.69-0.54,1.23c-0.03,0.36-0.01,0.77,0.09,1.26
			c0.17,0.82,0.15,1.54,0.14,2.17c-0.04,2.43,0.23,3.8,6.16,5.95c0.52,0.19,1.06,0.38,1.66,0.58c0.89,0.3,1.7,0.51,2.48,0.69
			c1.08,0.24,2.05,0.37,2.86,0.37c0.56,0,1.04-0.06,1.46-0.17C238.27,55.45,238.77,55.1,239.01,54.58z M223.84,48.23
			c0.01-0.68,0.03-1.45-0.16-2.36c-0.12-0.59-0.19-1.34,0.15-1.62c0.14-0.12,0.36-0.17,0.63-0.17c1.02,0,2.82,0.72,4.46,1.38
			l0.58,0.23c7.78,4.76,9.13,7.59,8.7,8.51c-0.12,0.26-0.43,0.45-0.9,0.57c-0.8,0.21-2.11,0.18-3.92-0.23
			c-0.71-0.16-1.47-0.36-2.33-0.65C223.78,51.49,223.8,50.33,223.84,48.23z"/>
		<path class="st1" d="M292.58,34.77c-3.4,4.42-3.39,11.08-3.38,18.12c0,3.74,0.01,7.61-0.47,11.39
			c-1.45,11.3-11.69,29.76-24.9,44.9c-4.77,5.46-6.31,9.43-4.58,11.78c0.99,1.34,3.01,2.02,5.94,2.02c1.3,0,2.79-0.13,4.44-0.4
			c5.16-0.84,11.55-2.92,18.49-6.01c9.11-4.05,27.7-15.54,49.24-28.84c1.46-0.9,2.93-1.81,4.41-2.73v-1.05
			c-1.64,1.01-3.27,2.02-4.88,3.02c-20.61,12.74-40.08,24.76-49.13,28.79c-13.85,6.16-25.28,8.08-27.79,4.68
			c-1.41-1.91,0.2-5.69,4.53-10.66c13.54-15.5,23.63-33.74,25.12-45.38c0.49-3.84,0.49-7.74,0.48-11.51
			c-0.01-6.89-0.02-13.39,3.19-17.58c4.06-5.28,13.57-9.79,28.29-13.4c5.93-1.45,12.73-2.75,20.2-3.87v-0.93
			C318.77,20.53,299.18,26.17,292.58,34.77z"/>
		<path class="st1" d="M300.2,34.38c-3.12,3.96-3.22,9.85-3.33,16.09c-0.06,3.19-0.12,6.5-0.57,9.71
			c-1.6,10.03-10.02,25.82-20.96,39.3c-3.91,4.64-5.11,8.04-3.58,10.1c0.93,1.24,2.83,1.85,5.5,1.85c4.72,0,11.82-1.9,20.11-5.53
			c8.64-3.56,25.69-13.87,44.39-25.36v-1.05c-18.86,11.58-36.08,22.03-44.74,25.59c-12.21,5.34-22.3,6.97-24.55,3.97
			c-1.24-1.65-0.01-4.76,3.55-8.99l0.01-0.01c11.03-13.59,19.53-29.55,21.15-39.73c0.46-3.28,0.52-6.61,0.58-9.83
			c0.11-6.09,0.21-11.83,3.14-15.55c3.68-4.67,12.1-8.68,25.01-11.92c4.72-1.18,10.04-2.26,15.86-3.21V18.9
			c-5.9,0.96-11.3,2.05-16.08,3.25C312.59,25.44,304.01,29.56,300.2,34.38z"/>
		<path class="st1" d="M307.82,34c-2.84,3.49-3.06,8.62-3.3,14.06c-0.12,2.65-0.23,5.38-0.65,8.03c-1.69,8.47-8.53,22.02-17.02,33.7
			c-3.05,3.82-3.92,6.65-2.58,8.41c0.85,1.12,2.59,1.67,5.02,1.67c4.13,0,10.24-1.59,17.35-4.63c7.42-2.78,20.65-10.43,35.14-19.2
			v-1.05c-14.63,8.86-28.02,16.62-35.47,19.41c-10.56,4.53-19.33,5.86-21.32,3.25c-1.04-1.37-0.15-3.9,2.58-7.32l0.01-0.02
			c8.55-11.78,15.46-25.46,17.18-34.07c0.43-2.72,0.55-5.48,0.67-8.15c0.23-5.28,0.45-10.27,3.1-13.53
			c3.31-4.05,10.63-7.57,21.73-10.44c3.48-0.9,7.35-1.74,11.52-2.5v-0.91C327.48,23.29,313.19,27.43,307.82,34z"/>
		<path class="st1" d="M315.45,33.61c-2.57,3.02-2.92,7.39-3.29,12.02c-0.17,2.09-0.34,4.26-0.72,6.36
			c-2.05,8.06-8.09,19.79-13.08,28.1c-2.2,3.01-2.74,5.27-1.6,6.72c0.78,1,2.36,1.48,4.55,1.48c3.54,0,8.67-1.28,14.59-3.74
			c6.06-2.02,15.45-7.05,25.87-13.14v-1.04c-10.56,6.19-20.09,11.31-26.17,13.33l-0.03,0.01c-8.92,3.71-16.36,4.75-18.11,2.54
			c-0.85-1.08-0.29-3.04,1.63-5.65l0.02-0.03c5.02-8.36,11.12-20.21,13.19-28.37l0.01-0.03c0.39-2.16,0.57-4.35,0.74-6.47
			c0.36-4.48,0.69-8.72,3.07-11.51c2.35-2.75,8.69-7.16,25.64-10.7V22.6C330.65,24.91,319.91,28.4,315.45,33.61z"/>
		<path class="st1" d="M323.08,33.21c-2.31,2.55-2.79,6.17-3.3,9.99c-0.21,1.54-0.42,3.13-0.76,4.68
			c-1.39,4.24-3.64,9.49-5.81,14.56c-1.23,2.86-2.39,5.57-3.34,7.97c-1.37,2.19-1.58,3.88-0.64,5.01c0.78,0.94,2.23,1.33,4.06,1.33
			c3.31,0,7.84-1.28,11.88-2.88c4.4-1.26,10.21-3.95,16.61-7.37v-1.01c-6.53,3.5-12.44,6.27-16.88,7.53l-0.04,0.01
			c-7.28,2.89-13.43,3.64-14.94,1.82c-0.84-1-0.06-2.73,0.73-3.99l0.04-0.07c0.95-2.4,2.11-5.11,3.35-7.98
			c2.19-5.1,4.45-10.38,5.85-14.66l0.01-0.04c0.35-1.59,0.57-3.21,0.78-4.77c0.49-3.68,0.96-7.16,3.08-9.51
			c1.91-2.09,6.59-5.37,18.03-8.28v-0.9C333.89,26.61,326.57,29.39,323.08,33.21z"/>
		<path class="st1" d="M327.32,40.8c-0.22,0.98-0.45,1.99-0.73,2.97c-2.57,5.92-5.19,12.56-5.25,17.05
			c-0.69,1.72-0.23,2.72,0.28,3.26c0.75,0.79,2.06,1.11,3.67,1.11c2.64,0,6.08-0.87,9.12-1.97c2.23-0.52,4.72-1.36,7.36-2.43V59.8
			c-2.73,1.12-5.3,2.01-7.59,2.53l-0.05,0.02c-5.73,2.09-10.5,2.53-11.86,1.1c-0.49-0.51-0.51-1.31-0.07-2.37l0.03-0.08l0-0.09
			c0.03-4.33,2.64-10.93,5.19-16.81l0.02-0.05c0.29-1.01,0.52-2.05,0.75-3.05c0.65-2.9,1.27-5.63,3.15-7.55
			c2.12-2.13,5.83-3.96,10.43-5.51v-0.97c-4.59,1.52-8.67,3.45-11.06,5.85C328.64,34.92,328,37.77,327.32,40.8z"/>
		<path class="st1" d="M334.66,38.48c-0.16,0.38-0.31,0.77-0.47,1.15c-3.12,5.15-3.58,9.43-1.28,11.78
			c0.14,0.62,0.51,1.12,1.11,1.49c0.76,0.47,1.9,0.71,3.31,0.71c1.28,0,2.8-0.2,4.46-0.58v-0.92c-3.31,0.79-6.03,0.82-7.29,0.04
			c-0.42-0.26-0.66-0.6-0.73-1.03l-0.02-0.15l-0.11-0.1c-3.05-2.94,0.26-9.01,1.34-10.8l0.03-0.06c0.17-0.39,0.33-0.79,0.49-1.19
			c0.87-2.15,1.7-4.18,3.45-5.73c0.78-0.68,1.74-1.33,2.83-1.95v-1.03c-1.33,0.72-2.49,1.49-3.42,2.3
			C336.43,34.1,335.53,36.33,334.66,38.48z"/>
		<path class="st1" d="M341.77,41.26v-1.01c-0.56-0.33-0.92-0.78-0.88-1.42c0.04-0.57,0.35-1.23,0.88-1.94v-1.38
			c-1.09,1.19-1.72,2.31-1.78,3.27C339.94,39.62,340.28,40.61,341.77,41.26z"/>
		<path class="st1" d="M153.79,305.18c14.12-24.96,25.59-53.34,36.68-80.78c14.3-35.38,27.8-68.79,45.23-90.41
			c12.15-15.07,20.97-27.74,26.21-37.66c5.7-10.79,7.12-18.3,4.2-22.32c-3.76-5.19-14.65-4.44-32.35,2.26
			c-28.26,10.68-86.87,36.62-144.21,65.55c-30.87,15.57-57.62,30.08-79.52,43.13c-1.22,0.72-2.4,1.44-3.58,2.15v1.08
			c28.41-17.17,61.03-34.22,83.51-45.56c57.31-28.91,115.89-54.84,144.12-65.51c17.28-6.53,27.81-7.39,31.31-2.57
			c3.69,5.1,1.41,19.45-30.39,58.9c-17.51,21.72-31.04,55.19-45.36,90.63c-11.08,27.41-22.54,55.76-36.63,80.67
			c-10.92,19.31-22.38,34.51-34.66,45.98h1.29C131.74,339.27,143.02,324.21,153.79,305.18z"/>
		<path class="st1" d="M170.56,231.57c13.5-32.88,26.26-63.95,42.36-84.07c23.43-29.23,32.67-47.69,27.47-54.88
			c-3.55-4.91-13.85-4.22-30.6,2.04h0c-26.11,9.67-79.27,32.74-134.29,60.52c-26.43,13.35-49.63,25.95-69.05,37.49v1.08
			c24.35-14.5,50.75-28.33,69.45-37.77c54.98-27.77,108.1-50.82,134.19-60.48l0,0c9.37-3.5,16.64-5.25,21.75-5.25
			c3.8,0,6.41,0.97,7.81,2.9c3.39,4.69,1.39,17.83-27.44,53.8c-16.18,20.22-28.96,51.34-42.49,84.29
			c-11.33,27.58-23.04,56.1-37.65,80.51c-9.81,16.38-20.12,29.25-31.25,38.99h1.35c10.91-9.72,21.03-22.44,30.67-38.53
			C147.5,287.73,159.22,259.18,170.56,231.57z"/>
		<path class="st1" d="M150.6,238.8c12.73-30.43,24.75-59.16,39.54-77.81c21.04-26.43,29.3-43.18,24.53-49.78
			c-3.39-4.69-12.83-4.09-28.86,1.82c-24.87,9.01-74.39,30.22-124.36,55.5c-22.1,11.18-40.18,21.03-54.99,29.68v1.04
			c14.87-8.7,33.08-18.63,55.4-29.92c49.94-25.26,99.42-46.45,124.27-55.45l0,0c8.8-3.24,15.63-4.87,20.44-4.87
			c3.6,0,6.07,0.91,7.39,2.73c4.44,6.15-4.03,22.99-24.5,48.7c-14.87,18.74-26.91,47.54-39.66,78.02
			c-10.46,25-21.27,50.86-34.45,73.14c-9.99,16.87-20.59,29.76-32.2,39.13h1.41c11.37-9.38,21.76-22.12,31.57-38.68
			C129.31,289.72,140.14,263.84,150.6,238.8z"/>
		<path class="st1" d="M130.58,246.17c11.97-28.02,23.28-54.48,36.78-71.68c18.66-23.65,25.93-38.68,21.6-44.68
			c-3.17-4.39-12.05-3.87-27.13,1.6c-24.44,8.64-69.31,27.6-114.44,50.47c-15.77,7.99-29.3,15.29-40.93,21.94v1.03
			c11.71-6.71,25.38-14.09,41.34-22.17c45.1-22.85,89.92-41.79,114.34-50.42l0,0c8.23-2.99,14.62-4.48,19.13-4.48
			c3.4,0,5.73,0.85,6.96,2.56c4.01,5.56-3.44,20.64-21.57,43.6c-13.57,17.29-24.9,43.81-36.9,71.89
			c-9.57,22.39-19.46,45.53-31.18,65.63c-10.22,17.49-21.2,30.37-33.49,39.27h1.5c12-8.95,22.75-21.69,32.76-38.82
			C111.1,291.76,121,268.58,130.58,246.17z"/>
		<path class="st1" d="M110.44,253.75c11.27-25.7,21.91-49.97,34.14-65.77c7.71-9.88,13.25-18.14,16.44-24.58
			c3.59-7.21,4.32-12.12,2.23-15.01c-2.96-4.1-11.27-3.64-25.4,1.39c-21.51,7.4-61.79,23.74-104.52,45.44
			c-9.9,5.03-18.81,9.78-26.88,14.26v1.03c8.17-4.55,17.21-9.38,27.28-14.49c42.69-21.68,82.92-38,104.4-45.39l0,0
			c7.67-2.73,13.63-4.1,17.84-4.1c3.21,0,5.4,0.8,6.55,2.39c4.53,6.28-7.64,24.41-18.66,38.51c-12.3,15.88-22.96,40.21-34.25,65.96
			c-8.64,19.7-17.56,40.07-27.79,57.92c-9.73,16.93-20.31,29.2-32.35,37.5c-0.91,0.65-1.86,1.28-2.82,1.91h1.63
			c0.58-0.39,1.15-0.78,1.71-1.18c12.15-8.38,22.82-20.74,32.62-37.79C92.85,293.86,101.79,273.47,110.44,253.75z"/>
		<path class="st1" d="M65.85,311.61c8.69-15.51,16.59-32.98,24.22-49.88c10.64-23.54,20.69-45.78,31.72-60.26
			c14.13-18.34,19.29-29.62,15.78-34.49c-2.74-3.8-10.5-3.42-23.7,1.18c-21.37,7.13-57.44,21.49-94.59,40.41
			c-4.1,2.09-8.4,4.33-12.82,6.7v1.02c4.56-2.45,9-4.77,13.22-6.92c37.11-18.9,73.14-33.24,94.47-40.36l0.01,0
			c7.12-2.48,12.65-3.72,16.56-3.72c3.01,0,5.06,0.74,6.13,2.22c3.2,4.44-2.1,15.69-15.76,33.42
			c-11.09,14.56-21.16,36.84-31.82,60.43c-7.63,16.88-15.52,34.33-24.19,49.81c-8.48,15.07-17.78,26.12-28.44,33.8
			c-2.67,1.99-5.61,3.91-8.77,5.76h1.75c2.7-1.63,5.22-3.31,7.55-5.04C47.92,337.94,57.3,326.8,65.85,311.61z"/>
		<path class="st1" d="M49.1,311.46c6.99-12.83,13.67-27.08,20.13-40.85c10.2-21.75,19.83-42.29,29.78-55.63
			c11.75-15.53,15.97-25.15,12.9-29.4c-2.53-3.51-9.73-3.19-22.02,0.97c-25.78,8.31-56.86,21.27-83.43,34.76v1.02
			c29.89-15.2,61.48-27.76,83.71-34.93l0.01,0c6.57-2.22,11.68-3.34,15.3-3.34c2.82,0,4.74,0.68,5.72,2.04
			c2.77,3.84-1.57,13.37-12.89,28.34c-10,13.42-19.65,34-29.87,55.79c-6.45,13.76-13.13,28-20.11,40.8
			c-7.13,13.01-15.38,23.14-24.54,30.09c-4.31,3.41-9.42,6.63-15.1,9.61h2.01c5.09-2.77,9.65-5.74,13.65-8.9
			C33.58,334.8,41.91,324.59,49.1,311.46z"/>
		<path class="st1" d="M32.35,311.31c4.85-9.25,9.78-19.32,14.55-29.05c10.32-21.08,20.07-40.99,29.33-53.8
			c9.52-12.91,12.71-20.64,10.06-24.31c-2.31-3.2-8.98-2.95-20.39,0.77c-18.2,5.64-39.1,13.48-59.45,22.91v0.98
			c20.43-9.49,41.44-17.37,59.72-23.04l0.01,0c6.05-1.97,10.75-2.96,14.08-2.96c2.64,0,4.41,0.62,5.31,1.86
			c2.33,3.22-1.06,11.05-10.06,23.26c-9.31,12.87-19.07,32.81-29.41,53.93c-4.76,9.73-9.69,19.78-14.53,29.02
			c-5.89,11.16-12.83,20.03-20.63,26.38c-1.4,1.2-2.91,2.36-4.48,3.51v1.12c1.78-1.28,3.47-2.59,5.05-3.94
			C19.39,331.54,26.4,322.57,32.35,311.31z"/>
		<path class="st1" d="M53.45,241.95c7.16-10.1,9.47-16.22,7.28-19.24c-2.1-2.89-8.25-2.7-18.8,0.59
			c-12.59,3.73-24.44,7.78-35.47,12.12v0.96c11.11-4.38,23.04-8.47,35.73-12.23l0.01,0c5.55-1.73,9.86-2.59,12.92-2.59
			c2.45,0,4.09,0.56,4.9,1.67c1.91,2.63-0.47,8.58-7.29,18.2c-10.63,15.32-24.5,42.37-37.91,69.32c-2.51,5-5.3,9.5-8.35,13.51v1.46
			c3.36-4.28,6.43-9.14,9.15-14.57C29,284.24,42.86,257.22,53.45,241.95z"/>
		<path class="st1" d="M35.27,241.24c-1.91-2.59-7.41-2.45-17.32,0.44c-3.72,1.04-7.57,2.16-11.5,3.35v0.94
			c4.01-1.22,7.95-2.36,11.74-3.42l0,0c5.11-1.49,9.07-2.23,11.86-2.23c2.26,0,3.76,0.49,4.48,1.47c1.46,1.98-0.05,6.29-4.62,13.17
			c-9.51,14.63-17.27,27.52-23.47,38.97v1.91c6.35-11.85,14.46-25.37,24.22-40.39C35.61,248.01,37.02,243.63,35.27,241.24z"/>
		<path class="st1" d="M10.07,259.8c-0.65-0.93-1.83-1.47-3.61-1.63v0.9c1.43,0.14,2.39,0.55,2.88,1.25
			c1.13,1.63-0.26,4.97-2.88,9.27v1.71C9.85,265.94,11.59,261.99,10.07,259.8z"/>
		<path class="st1" d="M161.66,341.24c1.7-5.45,3.51-11.43,5.44-17.76c15.84-52.09,39.79-130.8,70.89-164.23
			c19.25-20.7,53.34-39.26,86.3-57.21c5.95-3.24,11.81-6.43,17.47-9.58v-1.03c-5.8,3.23-11.8,6.49-17.9,9.82
			c-33.03,17.99-67.18,36.58-86.53,57.39c-31.25,33.59-55.23,112.42-71.09,164.58c-1.92,6.33-3.74,12.3-5.44,17.75
			c-1.05,3.37-1.96,6.62-2.74,9.76h0.93C159.76,347.67,160.64,344.52,161.66,341.24z"/>
		<path class="st1" d="M249.59,165.82L249.59,165.82c-13.7,14.69-27.15,39.13-41.1,74.7c-11.74,29.93-21.63,62.33-28.84,86
			c-0.75,2.45-1.47,4.81-2.17,7.09c-1.9,6.12-3.31,11.81-4.27,17.12h0.91c0.95-5.22,2.35-10.82,4.21-16.86
			c0.7-2.28,1.42-4.65,2.17-7.1c14.51-47.56,38.79-127.15,69.74-160.35l0,0c19.39-20.77,54.56-38.64,85.6-54.41
			c1.99-1.01,3.97-2.02,5.92-3.01V108c-2.09,1.07-4.2,2.14-6.33,3.22C304.34,127.02,269.08,144.94,249.59,165.82z"/>
		<path class="st1" d="M261.84,173L261.84,173c-13.21,14.13-26.73,38.37-40.19,72.07c-11.02,27.6-20.09,56.52-27.5,81.17
			c-2.81,9.14-4.48,17.28-5.01,24.48h0.9c0.54-7.12,2.19-15.16,4.97-24.22c10.71-35.61,35.79-119,67.49-152.89l0,0
			c18.44-19.68,50.08-35,79.27-48.49v-0.99C312.4,137.71,280.48,153.11,261.84,173z"/>
		<path class="st1" d="M211.68,319.14c11.41-38.72,34.77-108.19,63.07-138.35l0,0c16.08-17.09,42.81-29.99,67.02-40.04v-0.97
			c-24.38,10.11-51.41,23.11-67.68,40.4h0c-12.37,13.18-24.99,35.02-37.52,64.9c-11.17,26.65-20.17,54.85-25.76,73.81
			c-3.85,12.6-5.3,23.15-4.38,31.84h0.9C206.41,342.14,207.85,331.68,211.68,319.14z"/>
		<path class="st1" d="M228.35,311.78c3.76-13.06,11.86-39.05,23.97-66.33c11.51-25.93,23.18-45.27,34.67-57.47l0,0
			c13.73-14.52,34.74-24.75,54.77-32.19v-0.96c-20.22,7.49-41.5,17.81-55.42,32.53l0,0c-11.56,12.27-23.29,31.69-34.84,57.72
			c-12.13,27.32-20.25,53.36-24.01,66.44c-5.09,16.82-5.46,29.7-1.11,39.21h1C222.94,341.39,223.26,328.61,228.35,311.78z"/>
		<path class="st1" d="M245.53,341.78c-5.22-8.8-5.39-21.03-0.51-37.37c9.91-35.49,31.1-84.82,54.23-109.25l0,0
			c11.38-11.97,27.2-19.85,42.52-25.04v-0.94c-0.01,0-0.02,0.01-0.03,0.01c-18.59,6.26-33.1,14.79-43.14,25.34l0,0
			c-23.23,24.54-44.5,74.03-54.44,109.62c-4.96,16.59-4.76,29.04,0.6,38.07c1.93,3.25,4.55,6.07,7.89,8.49h1.56
			C250.47,348.22,247.59,345.24,245.53,341.78z"/>
		<path class="st1" d="M285.23,346.5l-0.08-0.1l-0.13-0.04c-11.71-3.84-19.29-9.33-23.15-16.8c-4.17-8.07-4.23-18.7-0.18-32.51
			c4.39-16.3,11.66-34.6,20.46-51.54c9.24-17.78,19.39-32.7,29.34-43.16l0,0c8.49-8.87,19.26-14.78,30.27-18.5v-0.93
			c-11.24,3.76-22.25,9.76-30.92,18.81l0,0c-10.01,10.51-20.21,25.51-29.49,43.36c-8.83,16.99-16.12,35.36-20.53,51.71
			c-4.12,14.04-4.04,24.89,0.24,33.17c3.96,7.66,11.66,13.29,23.54,17.2c0.91,1.13,1.89,2.32,2.94,3.56h1.18
			C287.48,349.25,286.3,347.83,285.23,346.5z"/>
		<path class="st1" d="M296.26,334.53l-0.07-0.12l-0.12-0.06c-9.07-4.61-14.91-10.16-17.84-16.98c-3.15-7.33-3.11-16.39,0.13-27.7
			c7.03-27.28,24.85-58.74,45.38-80.15l0,0c5.76-5.97,12.06-9.84,18.02-12.34v-0.97c-6.16,2.54-12.69,6.5-18.67,12.69l0,0
			c-20.63,21.51-38.54,53.12-45.6,80.53c-3.29,11.51-3.32,20.76-0.09,28.29c3,6.99,8.94,12.67,18.14,17.37
			c3.03,5.25,6.54,10.56,10.42,15.63H307C303.36,345.98,299.76,340.61,296.26,334.53z"/>
		<path class="st1" d="M335.36,216.08c-15.61,16.12-34.41,38.19-41.18,65.99c-2.47,8.99-2.6,16.64-0.42,23.4
			c2.05,6.33,6.21,12.06,12.74,17.52c4.27,10.36,9.3,19.74,14.83,27.73h1.09c-5.66-8.06-10.79-17.61-15.13-28.17l-0.04-0.1
			l-0.09-0.07c-6.44-5.37-10.54-10.99-12.54-17.18c-2.13-6.59-1.99-14.08,0.43-22.9c6.73-27.61,25.42-49.56,40.96-65.59
			c1.84-1.89,3.77-3.56,5.77-5.01v-1.1C339.54,212.16,337.4,213.99,335.36,216.08L335.36,216.08z"/>
		<path class="st1" d="M310.84,274.72c-3.19,12.6-1.16,23.76,6.6,36.16c4.4,15.52,10.21,29.17,16.92,39.84h1.06
			c-6.79-10.67-12.69-24.45-17.14-40.15l-0.02-0.06l-0.03-0.05c-7.64-12.2-9.66-23.15-6.52-35.53c4.54-20.1,17.21-32.29,29.45-44.09
			c0.21-0.2,0.4-0.39,0.6-0.58v-1.25c-0.41,0.4-0.81,0.78-1.23,1.19C328.21,242.08,315.45,254.38,310.84,274.72z"/>
		<path class="st1" d="M328.41,298.76c3.18,17.43,7.77,32.84,13.36,44.94v-2.22c-5.07-11.49-9.44-26.17-12.48-42.88
			c-3.21-17.65-2.47-30.88,2.26-40.45c2.6-5.25,6.24-9.14,10.22-12.47v-1.16C330.95,253.35,322.43,265.93,328.41,298.76z"/>
	</g>
	<g>
		<g>
			<g>
				<g>
					<rect x="38.06" y="182.58" class="st2" width="9.57" height="0.65"/>
				</g>
			</g>
			<g>
				<g>
					<rect x="42.52" y="178.12" class="st2" width="0.65" height="9.57"/>
				</g>
			</g>
		</g>
		<g>
			<g>
				<g>
					<rect x="103.78" y="182.58" class="st2" width="9.57" height="0.65"/>
				</g>
			</g>
			<g>
				<g>
					<rect x="108.24" y="178.12" class="st2" width="0.65" height="9.57"/>
				</g>
			</g>
		</g>
		<g>
			<g>
				<g>
					<rect x="169.49" y="182.58" class="st2" width="9.57" height="0.65"/>
				</g>
			</g>
			<g>
				<g>
					<rect x="173.95" y="178.12" class="st2" width="0.65" height="9.57"/>
				</g>
			</g>
		</g>
		<g>
			<g>
				<g>
					<rect x="235.21" y="182.58" class="st2" width="9.57" height="0.65"/>
				</g>
			</g>
			<g>
				<g>
					<rect x="239.66" y="178.12" class="st2" width="0.65" height="9.57"/>
				</g>
			</g>
		</g>
		<g>
			<g>
				<g>
					<rect x="300.92" y="182.58" class="st2" width="9.57" height="0.65"/>
				</g>
			</g>
			<g>
				<g>
					<rect x="305.38" y="178.12" class="st2" width="0.65" height="9.57"/>
				</g>
			</g>
		</g>
		<g>
			<g>
				<g>
					<g>
						<rect x="173.95" y="309.55" class="st2" width="0.65" height="9.57"/>
					</g>
				</g>
				<g>
					<g>
						<rect x="169.49" y="314.01" class="st2" width="9.57" height="0.65"/>
					</g>
				</g>
			</g>
			<g>
				<g>
					<g>
						<rect x="173.95" y="243.84" class="st2" width="0.65" height="9.57"/>
					</g>
				</g>
				<g>
					<g>
						<rect x="169.49" y="248.29" class="st2" width="9.57" height="0.65"/>
					</g>
				</g>
			</g>
			<g>
				<g>
					<g>
						<rect x="173.95" y="112.41" class="st2" width="0.65" height="9.57"/>
					</g>
				</g>
				<g>
					<g>
						<rect x="169.49" y="116.87" class="st2" width="9.57" height="0.65"/>
					</g>
				</g>
			</g>
			<g>
				<g>
					<g>
						<rect x="173.95" y="46.69" class="st2" width="0.65" height="9.57"/>
					</g>
				</g>
				<g>
					<g>
						<rect x="169.49" y="51.15" class="st2" width="9.57" height="0.65"/>
					</g>
				</g>
			</g>
		</g>
		<g>
			<g>
				<g>
					<g>
						<rect x="107.91" y="309.55" class="st2" width="0.65" height="9.57"/>
					</g>
				</g>
				<g>
					<g>
						<rect x="103.45" y="314.01" class="st2" width="9.57" height="0.65"/>
					</g>
				</g>
			</g>
			<g>
				<g>
					<g>
						<rect x="107.91" y="243.84" class="st2" width="0.65" height="9.57"/>
					</g>
				</g>
				<g>
					<g>
						<rect x="103.45" y="248.29" class="st2" width="9.57" height="0.65"/>
					</g>
				</g>
			</g>
			<g>
				<g>
					<g>
						<rect x="107.91" y="112.41" class="st2" width="0.65" height="9.57"/>
					</g>
				</g>
				<g>
					<g>
						<rect x="103.45" y="116.87" class="st2" width="9.57" height="0.65"/>
					</g>
				</g>
			</g>
			<g>
				<g>
					<g>
						<rect x="107.91" y="46.69" class="st2" width="0.65" height="9.57"/>
					</g>
				</g>
				<g>
					<g>
						<rect x="103.45" y="51.15" class="st2" width="9.57" height="0.65"/>
					</g>
				</g>
			</g>
		</g>
		<g>
			<g>
				<g>
					<g>
						<rect x="239.66" y="309.55" class="st2" width="0.65" height="9.57"/>
					</g>
				</g>
				<g>
					<g>
						<rect x="235.21" y="314.01" class="st2" width="9.57" height="0.65"/>
					</g>
				</g>
			</g>
			<g>
				<g>
					<g>
						<rect x="239.66" y="243.84" class="st2" width="0.65" height="9.57"/>
					</g>
				</g>
				<g>
					<g>
						<rect x="235.21" y="248.29" class="st2" width="9.57" height="0.65"/>
					</g>
				</g>
			</g>
			<g>
				<g>
					<g>
						<rect x="239.66" y="112.41" class="st2" width="0.65" height="9.57"/>
					</g>
				</g>
				<g>
					<g>
						<rect x="235.21" y="116.87" class="st2" width="9.57" height="0.65"/>
					</g>
				</g>
			</g>
			<g>
				<g>
					<g>
						<rect x="239.66" y="46.69" class="st2" width="0.65" height="9.57"/>
					</g>
				</g>
				<g>
					<g>
						<rect x="235.21" y="51.15" class="st2" width="9.57" height="0.65"/>
					</g>
				</g>
			</g>
		</g>
		<g>
			<g>
				<g>
					<g>
						<rect x="239.66" y="309.88" class="st2" width="0.65" height="9.57"/>
					</g>
				</g>
				<g>
					<g>
						<rect x="235.21" y="314.34" class="st2" width="9.57" height="0.65"/>
					</g>
				</g>
			</g>
			<g>
				<g>
					<g>
						<rect x="239.66" y="244.16" class="st2" width="0.65" height="9.57"/>
					</g>
				</g>
				<g>
					<g>
						<rect x="235.21" y="248.62" class="st2" width="9.57" height="0.65"/>
					</g>
				</g>
			</g>
			<g>
				<g>
					<g>
						<rect x="239.66" y="112.74" class="st2" width="0.65" height="9.57"/>
					</g>
				</g>
				<g>
					<g>
						<rect x="235.21" y="117.19" class="st2" width="9.57" height="0.65"/>
					</g>
				</g>
			</g>
			<g>
				<g>
					<g>
						<rect x="239.66" y="47.02" class="st2" width="0.65" height="9.57"/>
					</g>
				</g>
				<g>
					<g>
						<rect x="235.21" y="51.48" class="st2" width="9.57" height="0.65"/>
					</g>
				</g>
			</g>
		</g>
		<g>
			<g>
				<g>
					<g>
						<rect x="305.38" y="309.88" class="st2" width="0.65" height="9.57"/>
					</g>
				</g>
				<g>
					<g>
						<rect x="300.92" y="314.34" class="st2" width="9.57" height="0.65"/>
					</g>
				</g>
			</g>
			<g>
				<g>
					<g>
						<rect x="305.38" y="244.16" class="st2" width="0.65" height="9.57"/>
					</g>
				</g>
				<g>
					<g>
						<rect x="300.92" y="248.62" class="st2" width="9.57" height="0.65"/>
					</g>
				</g>
			</g>
			<g>
				<g>
					<g>
						<rect x="305.38" y="112.74" class="st2" width="0.65" height="9.57"/>
					</g>
				</g>
				<g>
					<g>
						<rect x="300.92" y="117.19" class="st2" width="9.57" height="0.65"/>
					</g>
				</g>
			</g>
			<g>
				<g>
					<g>
						<rect x="305.38" y="47.02" class="st2" width="0.65" height="9.57"/>
					</g>
				</g>
				<g>
					<g>
						<rect x="300.92" y="51.48" class="st2" width="9.57" height="0.65"/>
					</g>
				</g>
			</g>
		</g>
		<g>
			<g>
				<g>
					<g>
						<rect x="42.19" y="309.55" class="st2" width="0.65" height="9.57"/>
					</g>
				</g>
				<g>
					<g>
						<rect x="37.74" y="314.01" class="st2" width="9.57" height="0.65"/>
					</g>
				</g>
			</g>
			<g>
				<g>
					<g>
						<rect x="42.19" y="243.84" class="st2" width="0.65" height="9.57"/>
					</g>
				</g>
				<g>
					<g>
						<rect x="37.74" y="248.29" class="st2" width="9.57" height="0.65"/>
					</g>
				</g>
			</g>
			<g>
				<g>
					<g>
						<rect x="42.19" y="112.41" class="st2" width="0.65" height="9.57"/>
					</g>
				</g>
				<g>
					<g>
						<rect x="37.74" y="116.87" class="st2" width="9.57" height="0.65"/>
					</g>
				</g>
			</g>
			<g>
				<g>
					<g>
						<rect x="42.19" y="46.69" class="st2" width="0.65" height="9.57"/>
					</g>
				</g>
				<g>
					<g>
						<rect x="37.74" y="51.15" class="st2" width="9.57" height="0.65"/>
					</g>
				</g>
			</g>
		</g>
	</g>
</g>
</svg>
