<?xml version="1.0" encoding="utf-8"?>
<!-- Generator: Adobe Illustrator 27.7.0, SVG Export Plug-In . SVG Version: 6.00 Build 0)  -->
<svg version="1.1" id="Vrstva_1" xmlns="http://www.w3.org/2000/svg" xmlns:xlink="http://www.w3.org/1999/xlink" x="0px" y="0px"
	 viewBox="0 0 345.8 367.19" style="enable-background:new 0 0 345.8 367.19;" xml:space="preserve">
<style type="text/css">
	.st0{fill:none;}
	.st1{fill:#CCCCCC;}
	.st2{fill:#FFFFFF;}
</style>
<g>
	<g>
		<path class="st0" d="M61.67,97.31c3.48,1.69,6.49,3.16,8.88,4.47c1.15,0.63,2.07,0.73,2.75,0.3c1.14-0.74,1.64-3.01,1.38-6.24
			c-0.43-5.28-3.06-14.27-9.19-23.65c-4.61-7.05-12.74-16.61-25.35-22.15c-2.6-1.14-5.41-1.68-8.14-1.68
			c-4.84,0-9.42,1.72-12.05,4.88c-1.97,2.37-4.45,7.57,1.11,15.77C29.69,81.74,48.17,90.74,61.67,97.31z"/>
		<path class="st1" d="M6.14,21.33c0.11-0.04,0.21-0.07,0.32-0.11c2.14-0.73,4.35-1.48,6.55-2.25h-2.75
			c-1.38,0.47-2.75,0.94-4.09,1.4c-0.01,0-0.02,0.01-0.03,0.01V21.33z"/>
		<path class="st1" d="M115.72,21.8c16.51,10.88,29.27,28.42,37.92,52.14c6.42,17.59,10.48,38.17,12.09,61.17
			c0.58,8.3,1.24,16.15,1.82,23.08c2.36,28.19,3.92,46.82-3.34,50.65c-6.55,3.46-20.87-4.62-49.4-27.87
			c-29.68-24.19-60.3-36.26-87.31-46.91c-7.54-2.97-14.71-5.8-21.36-8.72v0.98c6.56,2.87,13.62,5.65,21.03,8.57
			c26.95,10.63,57.49,22.67,87.07,46.78c24.69,20.12,38.6,28.84,46.56,28.84c1.47,0,2.73-0.3,3.82-0.87
			c7.79-4.11,6.29-21.95,3.82-51.51c-0.58-6.93-1.24-14.78-1.82-23.06c-1.61-23.09-5.7-43.75-12.14-61.41
			c-8.72-23.9-21.6-41.59-38.27-52.58c-1.1-0.72-2.22-1.41-3.35-2.08h-1.78C112.65,19.87,114.2,20.8,115.72,21.8z"/>
		<path class="st1" d="M6.14,30.76c3.59-1.14,7.32-2.2,11.11-3.28c0.94-0.27,1.88-0.53,2.82-0.8c13.89-3.98,26.7-5.96,38.38-5.96
			c16.72,0,31.11,4.07,43.01,12.21c12.98,8.87,23.11,22.65,30.1,40.95c5.18,13.54,8.66,29.62,10.35,47.78
			c0.53,5.77,1.07,11.11,1.59,16.27c2.47,24.34,4.1,40.41-2.02,43.73c-0.8,0.43-1.75,0.66-2.86,0.65c-6.06,0-16.9-6.62-34.88-21.13
			l0,0c-22.94-18.37-47.53-28.39-69.23-37.24c-10.44-4.26-20.07-8.19-28.39-12.58v0.99c8.38,4.39,18.01,8.32,28.05,12.41
			c21.64,8.82,46.17,18.83,69,37.11c18.26,14.74,29.09,21.33,35.45,21.32c1.26,0,2.34-0.26,3.27-0.76
			c6.65-3.6,5.08-19.03,2.49-44.61c-0.52-5.16-1.06-10.49-1.59-16.26c-1.7-18.24-5.2-34.4-10.41-48.01
			c-7.06-18.48-17.3-32.4-30.44-41.37c-20.44-13.97-48.08-16.11-82.14-6.37c-0.94,0.27-1.88,0.54-2.82,0.8
			c-3.71,1.05-7.35,2.09-10.87,3.2V30.76z"/>
		<path class="st1" d="M92.15,142.09c12.05,9.45,19.68,13.81,24.38,13.81c1.08,0,2.01-0.23,2.8-0.68c5.56-3.18,3.67-17.27,0.8-38.59
			c-0.37-2.73-0.75-5.59-1.14-8.55c-4.04-31.01-14.64-52.91-31.49-65.11C72.26,31.95,51.79,28.8,26.66,33.6
			C19.3,35,12.21,36.55,6.14,38.93v0.96c6.07-2.43,13.24-3.99,20.68-5.41c7.54-1.44,14.65-2.16,21.32-2.16
			c15.34,0,28.36,3.81,38.84,11.39c16.65,12.04,27.12,33.74,31.13,64.49c0.39,2.97,0.77,5.82,1.14,8.56
			c2.82,20.96,4.68,34.81-0.36,37.69c-3.81,2.18-11.89-1.85-26.18-13.06c-16.25-12.75-34.8-20.65-51.17-27.63
			c-13.59-5.79-26.09-11.12-35.39-18.3v1.13c9.32,7.03,21.66,12.29,35.04,17.99C57.5,121.54,75.99,129.42,92.15,142.09z"/>
		<path class="st1" d="M94.34,128.92c0.92,0,1.7-0.21,2.36-0.63c4.51-2.88,2.44-14.66-1.51-33.71
			c-3.13-15.07-8.66-27.12-16.44-35.82C67.97,46.73,52.75,40.89,33.51,41.39c-6.43,0.17-12.05,1.03-16.7,2.56
			c-4.71,1.55-8.27,3.77-10.67,6.59v1.42c2.76-3.74,9.79-9.23,27.39-9.68c0.76-0.02,1.52-0.03,2.26-0.03
			c31.6,0,51.28,17.66,58.51,52.51c3.64,17.57,5.91,30.21,1.9,32.77c-2.37,1.51-7.13-0.43-14.56-5.94
			c-9.58-7.1-21.21-12.39-32.45-17.51C30.71,95.67,13.25,87.73,6.51,72.83c-0.13-0.28-0.24-0.56-0.36-0.84v2.15
			c7.17,14.6,24.43,22.46,42.68,30.77c11.2,5.1,22.78,10.37,32.29,17.41h0C87.11,126.76,91.41,128.92,94.34,128.92z"/>
		<path class="st1" d="M61.28,98.11c3.47,1.69,6.47,3.15,8.84,4.45c0.9,0.49,1.64,0.67,2.24,0.67c0.62,0,1.09-0.19,1.43-0.41
			c1.44-0.93,2.08-3.44,1.79-7.07c-1.05-13.02-12.93-36.82-35.08-46.54c-7.67-3.37-16.81-1.89-21.24,3.44
			c-2.13,2.57-4.84,8.17,1.06,16.85C29.08,82.44,47.69,91.5,61.28,98.11z M19.94,53.24c2.63-3.17,7.21-4.88,12.05-4.88
			c2.73,0,5.54,0.55,8.14,1.68c12.61,5.53,20.75,15.1,25.35,22.15c6.13,9.38,8.77,18.37,9.19,23.65c0.26,3.23-0.24,5.51-1.38,6.24
			c-0.67,0.44-1.6,0.34-2.75-0.3c-2.39-1.32-5.4-2.78-8.88-4.47c-13.5-6.57-31.98-15.57-40.62-28.3
			C15.49,60.81,17.96,55.61,19.94,53.24z"/>
		<path class="st1" d="M297.53,51.02c-13.18,11.16-28.59,35.4-45.8,72.02c-15.15,32.24-31.64,73.93-49.03,123.91
			c-14.82,42.61-12.6,75.94,6.77,101.9c1.4,1.88,2.88,3.69,4.42,5.45h1.17c-20.1-22.62-29.6-55.06-11.52-107.05
			c25.97-74.66,63.46-169.2,94.56-195.54l4.28-3.63c13.77-11.68,25.41-21.54,35.68-29.09h-1.51c-10.06,7.47-21.41,17.1-34.75,28.41
			L297.53,51.02z"/>
		<path class="st1" d="M306.37,73.87c-12.53,10.12-26.79,31.76-42.41,64.3c-13.84,28.84-28.73,66.19-44.26,111.02
			c-17.64,50.88-7.69,82.66,12.17,105.11h1.19c-2.6-2.89-5.03-5.93-7.25-9.14c-17.22-24.92-18.93-56.22-5.26-95.68
			c15.52-44.8,30.4-82.12,44.22-110.93c15.56-32.42,29.74-53.95,42.16-63.99l3.02-2.44c12.13-9.81,22.43-18.14,31.51-24.55v-1.09
			c-9.24,6.48-19.7,14.94-32.07,24.94L306.37,73.87z"/>
		<path class="st1" d="M241.34,342.67c-15.28-24.33-16.52-54.08-3.8-90.97c13.69-39.7,26.96-72.69,39.44-98.03
			c13.95-28.33,27-47.26,38.77-56.25l1.01-0.77c9.33-7.13,17.45-13.32,24.7-18.36V77.2c-7.4,5.12-15.69,11.44-25.25,18.74
			l-1.01,0.77c-11.89,9.08-25.02,28.11-39.03,56.57c-12.5,25.38-25.78,58.4-39.48,98.13c-12.82,37.16-11.55,67.16,3.89,91.74
			c2.48,3.95,5.28,7.65,8.29,11.15h1.17C246.86,350.66,243.93,346.8,241.34,342.67z"/>
		<path class="st1" d="M254.4,336.8c-11.13-23.06-11.08-50.16,0.14-82.86c25.2-73.56,48.76-118.53,70.03-133.65
			c6.22-4.42,11.81-8.36,16.9-11.75v-1.1c-5.16,3.43-10.88,7.47-17.42,12.12c-21.43,15.24-45.1,60.35-70.36,134.09
			c-11.3,32.93-11.33,60.26-0.1,83.54c3.02,6.25,6.72,11.91,10.85,17.11h1.14C261.31,349,257.49,343.21,254.4,336.8z"/>
		<path class="st1" d="M267.45,330.94c-3.35-10.27-4.8-21.48-4.29-33.34c0.54-12.76,3.36-26.7,8.37-41.43
			c21.38-62.93,41.61-99.9,61.85-113.02c2.82-1.83,5.51-3.55,8.09-5.16v-1.06c-2.73,1.7-5.58,3.53-8.57,5.47
			c-20.42,13.23-40.77,50.36-62.21,113.48c-5.04,14.81-7.87,28.83-8.42,41.68c-0.51,11.96,0.95,23.29,4.34,33.65
			c2.67,8.16,6.52,15.83,11.6,23.08h1.1C274.1,346.96,270.15,339.2,267.45,330.94z"/>
		<path class="st1" d="M280.51,325.09c-3.07-19.3-0.38-41.74,8.02-66.68c17.28-51.49,34.13-80.75,52.94-91.95v-1.05
			c-10.16,5.89-19.59,16.72-28.8,33.13c-8.35,14.87-16.52,34.36-24.99,59.58c-8.44,25.09-11.15,47.66-8.05,67.11
			c1.7,10.68,5.16,20.39,10.31,29.07h1.04C285.72,345.6,282.22,335.83,280.51,325.09z"/>
		<path class="st1" d="M296.85,345.21c-2.39-7.57-3.5-16.31-3.31-25.96c0.33-16.07,4.25-35.24,11.97-58.61
			c6.8-20.61,13.14-35.44,19.97-46.69c4.94-8.13,10.22-14.44,15.97-19.08v-1.15c-6.05,4.75-11.58,11.28-16.74,19.76
			c-6.87,11.3-13.24,26.2-20.06,46.87c-7.75,23.46-11.68,42.72-12.01,58.88c-0.2,9.75,0.93,18.58,3.35,26.25
			c0.98,3.09,2.18,6.03,3.6,8.82h1.01C299.12,351.44,297.86,348.41,296.85,345.21z"/>
		<path class="st1" d="M317.71,276.9c1.75-4.97,3.4-9.67,4.8-14.04c5.25-16.39,9.71-26.65,14.92-34.31c1.29-1.9,2.63-3.62,4.04-5.2
			V222c-1.67,1.81-3.26,3.82-4.78,6.05c-5.26,7.74-9.75,18.07-15.03,34.54c-1.39,4.35-3.04,9.05-4.79,14.01
			c-8.91,25.34-19.77,56.25-9.31,77.7h0.99C297.92,333.17,308.8,302.23,317.71,276.9z"/>
		<path class="st1" d="M155.93,37.62c5.37,19.81,22.1,128.75,21.5,157.06c-0.77,36.57-0.03,54.76,6.24,59.18
			c1.01,0.71,2.15,1.07,3.46,1.07c1.12,0,2.35-0.26,3.71-0.78c7.1-2.7,20.42-42.33,34.52-84.29c10.34-30.76,21.03-62.56,28.97-78.45
			c12.06-24.12,28.98-41.5,41.33-54.19c6.52-6.7,11.67-11.99,14.09-16.23c0.39-0.68,0.75-1.35,1.1-2h-1.01
			c-0.28,0.51-0.56,1.03-0.87,1.56c-2.37,4.14-7.48,9.39-13.95,16.05C282.64,49.31,265.67,66.75,253.54,91
			c-7.97,15.95-18.67,47.78-29.02,78.57c-13.42,39.91-27.29,81.19-33.99,83.74c-2.65,1.01-4.73,0.95-6.33-0.18
			c-5.91-4.17-6.61-22.95-5.86-58.43c0.6-28.36-16.16-137.47-21.54-157.31c-1.79-6.6-0.14-12.77,4.86-18.41h-1.2
			C155.64,24.69,154.12,30.94,155.93,37.62z"/>
		<path class="st1" d="M176.42,107.08c4.41,25.44,7.56,51.18,7.68,62.59c0.32,31.48,1.36,46.09,6.69,49.4
			c0.76,0.47,1.6,0.71,2.53,0.71c1.11,0,2.35-0.33,3.73-1c6.6-3.18,18.29-38.51,30.66-75.91c8.31-25.12,16.9-51.09,23.16-64.14
			c9.41-19.62,22.35-33.88,31.8-44.29c5.3-5.84,9.48-10.45,11.29-14.1c0.22-0.44,0.43-0.89,0.65-1.35h-1
			c-0.15,0.31-0.3,0.63-0.46,0.95c-1.76,3.54-5.9,8.11-11.15,13.89c-9.48,10.45-22.47,24.77-31.94,44.51
			c-6.28,13.09-14.88,39.1-23.2,64.24c-11.77,35.58-23.94,72.37-30.2,75.39c-2.25,1.09-4.02,1.2-5.4,0.34
			c-4.94-3.07-5.96-18.13-6.26-48.64c-0.11-11.45-3.28-37.25-7.69-62.73c-6.63-38.3-10.81-61.2-12.76-70
			c-1.44-6.5,0.8-12.52,6.65-17.95h-1.3c-5.58,5.48-7.68,11.57-6.23,18.14C165.62,45.91,169.79,68.79,176.42,107.08z"/>
		<path class="st1" d="M171.41,36.62c2.09,12.48,6.38,33.8,11.47,57.04c4.48,20.47,7.36,41.15,7.88,51
			c1.38,26,2.67,37.24,7.07,39.55c0.54,0.28,1.12,0.43,1.75,0.43c1.08,0,2.29-0.42,3.65-1.26c6.15-3.78,16.69-36.38,26.87-67.91
			c6.53-20.21,12.69-39.29,17.26-49.44c6.76-15.01,15.72-26.11,22.26-34.22c4.09-5.06,7.31-9.06,8.49-12.16
			c0.08-0.22,0.17-0.45,0.25-0.68h-0.96c-0.05,0.12-0.08,0.24-0.13,0.36c-1.13,2.97-4.32,6.92-8.35,11.91
			c-6.57,8.14-15.58,19.29-22.38,34.41c-4.59,10.19-10.76,29.3-17.3,49.53c-9.66,29.91-20.61,63.81-26.49,67.42
			c-1.88,1.15-3.35,1.41-4.52,0.8c-4.34-2.28-5.43-16.84-6.6-38.81c-0.53-9.88-3.41-30.62-7.9-51.14
			c-5.09-23.23-9.37-44.53-11.46-57c-1.05-6.23,1.74-11.97,8.28-17.05c0.19-0.15,0.4-0.29,0.6-0.44h-1.48
			C173.11,24.22,170.32,30.15,171.41,36.62z"/>
		<path class="st1" d="M179.15,36.11c1.09,10.3,3.57,21.03,10.2,44.14c4.04,14.1,6.97,29.95,8.08,39.41
			c2.23,19.01,3.69,28.13,7.38,29.66c0.36,0.15,0.74,0.22,1.13,0.22c1.04,0,2.2-0.52,3.51-1.56c5.8-4.61,15.08-34.45,23.26-60.78
			c4.27-13.75,8.31-26.74,11.18-33.86c4.07-10.1,9.08-17.9,12.73-23.59c3.02-4.71,5.2-8.11,5.69-10.77h-0.92
			c-0.52,2.48-2.73,5.93-5.52,10.29c-3.67,5.72-8.7,13.56-12.81,23.74c-2.88,7.15-6.93,20.16-11.21,33.93
			c-7.74,24.91-17.38,55.91-22.97,60.35c-1.54,1.22-2.76,1.61-3.74,1.21c-3.37-1.39-4.83-11.86-6.83-28.93
			c-1.11-9.49-4.06-25.4-8.11-39.55c-6.61-23.06-9.08-33.75-10.17-43.99c-0.57-5.39,2.2-10.36,8.23-14.76
			c1.1-0.8,2.3-1.56,3.54-2.28h-1.76c-0.8,0.5-1.58,1.02-2.31,1.56C181.43,25.14,178.54,30.38,179.15,36.11z"/>
		<path class="st1" d="M242.67,31.14c-0.94,2.68-2,5.71-3.11,9.22c-1.08,3.41-2.56,8.58-4.27,14.57
			c-5.8,20.29-14.57,50.96-20.29,57.02c-1.24,1.32-2.27,1.84-3.13,1.61c-2.57-0.7-4.4-8.01-6.9-19.08
			c-2.5-11.08-5.23-20.22-8.33-27.96c-0.48-1.19-0.93-2.31-1.36-3.38c-6.28-15.63-7.25-18.03-7.5-27.58
			c-0.13-4.61,2.66-8.86,8.28-12.63c2.22-1.49,4.75-2.8,7.37-3.96h-2.15c-2.03,0.97-3.97,2.03-5.73,3.21
			c-5.89,3.96-8.81,8.47-8.67,13.4c0.26,9.7,1.38,12.48,7.57,27.88c0.43,1.06,0.88,2.19,1.36,3.38c3.08,7.69,5.79,16.79,8.29,27.83
			c2.64,11.69,4.42,18.89,7.54,19.75c0.21,0.06,0.43,0.09,0.65,0.09c1.03,0,2.14-0.64,3.37-1.94c5.88-6.22,14.68-37.01,20.5-57.39
			c1.71-5.98,3.19-11.15,4.26-14.55c1.11-3.5,2.17-6.53,3.11-9.2c2-5.71,3.37-9.65,3.09-12.46h-0.91
			C246.01,21.57,244.67,25.46,242.67,31.14z"/>
		<path class="st1" d="M236.05,27.79c-0.39,4.8-2.61,14.72-5.52,24.68c-3.32,11.38-6.75,20.19-9.42,24.18
			c-1.02,1.52-1.94,2.23-2.85,2.16c-2.32-0.17-4.77-5.39-7.6-11.44c-2.14-4.56-4.56-9.73-7.61-14.36c-2.87-4.37-4.77-6.76-6.03-8.33
			c-2.19-2.74-2.19-2.74-1.76-6.94c0.07-0.73,0.16-1.59,0.25-2.6c0.72-7.99,11.56-13.26,19.96-16.17h-2.67
			c-0.78,0.3-1.57,0.61-2.36,0.95c-9.98,4.23-15.3,9.33-15.83,15.14c-0.09,1.01-0.18,1.86-0.25,2.59c-0.46,4.47-0.42,4.61,1.95,7.59
			c1.25,1.56,3.13,3.93,5.98,8.26c3.01,4.59,5.42,9.72,7.54,14.25c3.2,6.81,5.5,11.74,8.34,11.95c0.06,0,0.13,0.01,0.19,0.01
			c1.18,0,2.32-0.84,3.47-2.56c6.14-9.2,14.32-39.98,15.09-49.29c0.34-4.11-1.55-6.95-3.9-8.88h-1.48
			C234.82,21.23,236.35,24.18,236.05,27.79z"/>
		<path class="st1" d="M161.87,289.8c-20.03-22.46-42.1-39.14-67.48-50.98c-22.78-10.63-47.72-18.39-70.24-21.85
			c-6.35-0.98-12.36-1.58-18.01-1.83v0.89c5.6,0.26,11.58,0.87,17.87,1.83c22.44,3.45,47.3,11.18,70,21.78
			c25.26,11.79,47.24,28.4,67.19,50.77c17.22,19.31,30.02,39.59,41.33,57.48c1.38,2.19,2.73,4.33,4.06,6.42h1.06
			c-1.43-2.24-2.88-4.54-4.37-6.9C191.96,329.48,179.13,309.17,161.87,289.8z"/>
		<path class="st1" d="M139.31,289.91c-16.93-19.03-35.74-33.11-57.49-43.05c-18.61-8.55-39.04-14.8-57.5-17.6
			c-6.5-0.98-12.59-1.51-18.18-1.59v0.89c5.54,0.09,11.59,0.61,18.04,1.59c18.39,2.78,38.72,9.01,57.26,17.53
			c21.64,9.89,40.35,23.9,57.19,42.84c14.5,16.3,25.04,33.25,34.34,48.21c3.53,5.67,6.78,10.9,9.92,15.58h1.08
			c-3.24-4.78-6.59-10.19-10.24-16.05C164.43,323.26,153.87,306.27,139.31,289.91z"/>
		<path class="st1" d="M144.74,330.26c-6.88-11.56-15.44-25.94-27.36-39.53c-13.95-15.91-29.7-27.64-48.14-35.84
			c-14.49-6.45-30.4-11.17-44.79-13.31c-6.7-0.99-12.88-1.39-18.32-1.2v0.89c0.85-0.03,1.71-0.04,2.59-0.04
			c4.73,0,9.98,0.41,15.59,1.25c14.31,2.12,30.14,6.82,44.56,13.24c18.32,8.15,33.96,19.8,47.83,35.61
			c11.86,13.52,20.4,27.87,27.26,39.39c5.5,9.23,10.24,17.2,15.01,21.92c0.56,0.55,1.05,1.1,1.48,1.65h1.11
			c-0.54-0.76-1.19-1.53-1.96-2.29C154.93,347.37,150.21,339.44,144.74,330.26z"/>
		<path class="st1" d="M6.14,351.74v1.13c0.64,0.48,1.28,0.96,1.93,1.43h1.54C8.43,353.47,7.27,352.61,6.14,351.74z"/>
		<path class="st1" d="M116.75,326.41c-7.91-16.68-22.65-47.73-60.07-63.48c-13.05-5.49-27.39-9.07-39.36-9.81
			c-4.24-0.26-7.97-0.16-11.17,0.29v0.93c3.18-0.46,6.9-0.58,11.12-0.32c11.87,0.74,26.11,4.29,39.07,9.74
			c37.11,15.62,51.75,46.46,59.61,63.03c0.96,2.03,1.8,3.78,2.58,5.33c1.73,3.4,1.48,6.65-0.72,9.64
			c-4.99,6.77-20.53,12.11-42.51,12.11c-8.03,0-16.93-0.71-26.47-2.33c-17.53-2.97-32.1-9.16-42.67-17.97v1.15
			c10.65,8.66,25.14,14.76,42.52,17.7c5.14,0.87,10.28,1.49,15.32,1.86h21.83c2.63-0.22,5.19-0.51,7.63-0.9
			c12.35-1.97,21.25-5.91,25.07-11.1c2.39-3.24,2.66-6.9,0.8-10.58C118.54,330.19,117.71,328.44,116.75,326.41z"/>
		<path class="st1" d="M44.67,331.31c9.96,0,19.25-2.28,25.76-6.68c5.15-3.47,8.11-7.99,8.56-13.06c0.57-6.51-2.16-14.28-7.51-21.33
			c-4.43-5.85-12.79-13.94-27.39-19.26c-14.18-5.16-32.16-7.57-37.94-2.9v1.22c1.7-1.89,5.63-2.81,10.82-2.81
			c7.36,0,17.24,1.84,26.82,5.33c14.4,5.25,22.63,13.21,26.99,18.96c5.21,6.87,7.88,14.42,7.33,20.71c-0.42,4.8-3.25,9.08-8.16,12.4
			c-10.56,7.12-28.56,8.57-44.79,3.61c-7.59-2.32-13.94-5.76-18.87-10.24c-0.04-0.04-0.08-0.08-0.13-0.12v1.19
			c4.96,4.36,11.26,7.74,18.74,10.03C31.38,330.34,38.17,331.31,44.67,331.31z"/>
		<path class="st1" d="M11.01,307.31c9.11-0.45,19.64-6.54,27.5-15.89c3.45-4.11,4.67-6.95,3.82-8.93
			c-1.22-2.86-6.57-3.21-12.77-3.62c-3.94-0.26-8.41-0.55-12.25-1.53c-3.81-0.97-7.73-0.58-11.17,0.93v0.99
			c2.05-0.98,4.36-1.57,6.86-1.57c1.32,0,2.69,0.16,4.09,0.52c3.92,1,8.43,1.3,12.41,1.56c5.9,0.39,11,0.72,12,3.08
			c0.69,1.61-0.52,4.23-3.68,8c-7.7,9.17-17.99,15.14-26.85,15.58c-1.77,0.09-3.38-0.08-4.82-0.45v0.94
			c1.18,0.28,2.47,0.43,3.85,0.43C10.33,307.33,10.67,307.32,11.01,307.31z"/>
		<path class="st1" d="M130.44,251.98c23.22,11.02,40.78,19.36,47.29,19.36c0.9,0,1.58-0.16,2.05-0.49c1.68-1.19,2.56-2.91,2.6-5.1
			c0.32-17.32-52.04-62.15-83.03-85.91c-16.27-12.47-41.54-26.69-69.32-39c-8.5-3.76-16.58-7.06-23.88-9.76v0.96
			c28.74,10.68,68.74,30.17,92.66,48.51c9.22,7.07,32.9,25.67,53.59,45.72c19.17,18.57,29.22,32.21,29.09,39.46
			c-0.04,1.92-0.76,3.35-2.22,4.38c-3.42,2.43-24.28-7.48-48.44-18.95c-39.24-18.63-92.04-43.69-124-43.69
			c-0.23,0-0.45,0.02-0.68,0.02v0.89C37.79,208,90.98,233.25,130.44,251.98z"/>
		<path class="st1" d="M98.5,232.18c22.05,10.25,35.91,16.55,41.34,16.55c0.83,0,1.46-0.15,1.89-0.45c1.5-1.04,2.28-2.55,2.34-4.48
			c0.39-14.27-40.32-50.06-64.44-68.95c-13.01-10.19-33.45-21.76-56.08-31.72c-6.12-2.69-11.99-5.09-17.41-7.12v0.97
			c5.35,2.01,11.11,4.35,17.05,6.97c22.56,9.93,42.93,21.45,55.89,31.6c7.25,5.68,25.83,20.61,41.85,36.65
			c14.72,14.73,22.41,25.65,22.24,31.58c-0.05,1.65-0.68,2.89-1.95,3.77c-3.02,2.09-21.24-6.38-42.34-16.18
			c-29.23-13.58-67.94-31.56-92.74-34.09v0.89C30.75,200.7,69.36,218.64,98.5,232.18z"/>
		<path class="st1" d="M101.95,226.13c0.75,0,1.33-0.13,1.72-0.4c1.33-0.9,2.04-2.2,2.11-3.88c0.49-11.25-28.6-37.97-45.87-51.98
			c-13.49-10.95-35.94-22.12-53.77-28.92v0.97c3.39,1.3,6.95,2.75,10.58,4.33c17.39,7.58,32.93,16.45,42.63,24.32
			c11.13,9.03,22.11,19.07,30.13,27.56c10.29,10.89,15.62,19.08,15.42,23.68c-0.06,1.4-0.62,2.44-1.72,3.18
			c-2.65,1.79-19.16-5.65-36.64-13.52c-19.83-8.93-43.38-19.54-60.4-23.48v0.91c16.87,3.94,40.3,14.5,60.03,23.38
			C85.18,220.85,97.16,226.13,101.95,226.13z"/>
		<path class="st1" d="M64.05,203.52c0.68,0,1.21-0.11,1.57-0.34c1.2-0.77,1.86-1.92,1.97-3.4c0.59-8.3-16.93-25.83-27.38-34.89
			c-8.22-7.12-22.02-14.25-34.07-19.02v0.98c1.35,0.54,2.73,1.1,4.11,1.7c12.21,5.23,22.92,11.43,29.37,17.02
			c6.92,6,13.64,12.71,18.42,18.4c5.9,7.02,8.89,12.46,8.66,15.74c-0.09,1.2-0.6,2.09-1.56,2.71c-2.39,1.54-17.43-4.93-31.98-11.19
			c-9.02-3.88-18.7-8.04-27.02-11.07v0.95c8.21,3.01,17.76,7.12,26.66,10.95C48.89,198.98,59.7,203.52,64.05,203.52z"/>
		<path class="st1" d="M25.58,180.99c0.86,0,1.54-0.11,1.98-0.37c1.3-0.77,2.07-1.94,2.28-3.48c0.55-4.06-3.11-10.82-9.32-17.22
			c-3.34-3.44-8.78-6.56-14.38-8.99v1.01c5.39,2.37,10.59,5.37,13.73,8.61c6.03,6.21,9.59,12.68,9.07,16.48
			c-0.17,1.25-0.79,2.21-1.84,2.82c-1.64,0.97-9.89-0.87-20.07-4.46c-0.3-0.11-0.6-0.21-0.89-0.32v0.95c0.2,0.07,0.4,0.14,0.6,0.21
			C9.26,177.12,20.51,180.99,25.58,180.99z"/>
	</g>
	<g>
		<g>
			<g>
				<g>
					<rect x="37.75" y="186.15" class="st2" width="9.57" height="0.65"/>
				</g>
			</g>
			<g>
				<g>
					<rect x="42.21" y="181.69" class="st2" width="0.65" height="9.57"/>
				</g>
			</g>
		</g>
		<g>
			<g>
				<g>
					<rect x="103.47" y="186.15" class="st2" width="9.57" height="0.65"/>
				</g>
			</g>
			<g>
				<g>
					<rect x="107.92" y="181.69" class="st2" width="0.65" height="9.57"/>
				</g>
			</g>
		</g>
		<g>
			<g>
				<g>
					<rect x="169.18" y="186.15" class="st2" width="9.57" height="0.65"/>
				</g>
			</g>
			<g>
				<g>
					<rect x="173.64" y="181.69" class="st2" width="0.65" height="9.57"/>
				</g>
			</g>
		</g>
		<g>
			<g>
				<g>
					<rect x="234.9" y="186.15" class="st2" width="9.57" height="0.65"/>
				</g>
			</g>
			<g>
				<g>
					<rect x="239.35" y="181.69" class="st2" width="0.65" height="9.57"/>
				</g>
			</g>
		</g>
		<g>
			<g>
				<g>
					<rect x="300.61" y="186.15" class="st2" width="9.57" height="0.65"/>
				</g>
			</g>
			<g>
				<g>
					<rect x="305.07" y="181.69" class="st2" width="0.65" height="9.57"/>
				</g>
			</g>
		</g>
		<g>
			<g>
				<g>
					<g>
						<rect x="173.64" y="313.12" class="st2" width="0.65" height="9.57"/>
					</g>
				</g>
				<g>
					<g>
						<rect x="169.18" y="317.58" class="st2" width="9.57" height="0.65"/>
					</g>
				</g>
			</g>
			<g>
				<g>
					<g>
						<rect x="173.64" y="247.41" class="st2" width="0.65" height="9.57"/>
					</g>
				</g>
				<g>
					<g>
						<rect x="169.18" y="251.86" class="st2" width="9.57" height="0.65"/>
					</g>
				</g>
			</g>
			<g>
				<g>
					<g>
						<rect x="173.64" y="115.98" class="st2" width="0.65" height="9.57"/>
					</g>
				</g>
				<g>
					<g>
						<rect x="169.18" y="120.43" class="st2" width="9.57" height="0.65"/>
					</g>
				</g>
			</g>
			<g>
				<g>
					<g>
						<rect x="173.64" y="50.26" class="st2" width="0.65" height="9.57"/>
					</g>
				</g>
				<g>
					<g>
						<rect x="169.18" y="54.72" class="st2" width="9.57" height="0.65"/>
					</g>
				</g>
			</g>
		</g>
		<g>
			<g>
				<g>
					<g>
						<rect x="107.6" y="313.12" class="st2" width="0.65" height="9.57"/>
					</g>
				</g>
				<g>
					<g>
						<rect x="103.14" y="317.58" class="st2" width="9.57" height="0.65"/>
					</g>
				</g>
			</g>
			<g>
				<g>
					<g>
						<rect x="107.6" y="247.41" class="st2" width="0.65" height="9.57"/>
					</g>
				</g>
				<g>
					<g>
						<rect x="103.14" y="251.86" class="st2" width="9.57" height="0.65"/>
					</g>
				</g>
			</g>
			<g>
				<g>
					<g>
						<rect x="107.6" y="115.98" class="st2" width="0.65" height="9.57"/>
					</g>
				</g>
				<g>
					<g>
						<rect x="103.14" y="120.43" class="st2" width="9.57" height="0.65"/>
					</g>
				</g>
			</g>
			<g>
				<g>
					<g>
						<rect x="107.6" y="50.26" class="st2" width="0.65" height="9.57"/>
					</g>
				</g>
				<g>
					<g>
						<rect x="103.14" y="54.72" class="st2" width="9.57" height="0.65"/>
					</g>
				</g>
			</g>
		</g>
		<g>
			<g>
				<g>
					<g>
						<rect x="239.35" y="313.12" class="st2" width="0.65" height="9.57"/>
					</g>
				</g>
				<g>
					<g>
						<rect x="234.9" y="317.58" class="st2" width="9.57" height="0.65"/>
					</g>
				</g>
			</g>
			<g>
				<g>
					<g>
						<rect x="239.35" y="247.41" class="st2" width="0.65" height="9.57"/>
					</g>
				</g>
				<g>
					<g>
						<rect x="234.9" y="251.86" class="st2" width="9.57" height="0.65"/>
					</g>
				</g>
			</g>
			<g>
				<g>
					<g>
						<rect x="239.35" y="115.98" class="st2" width="0.65" height="9.57"/>
					</g>
				</g>
				<g>
					<g>
						<rect x="234.9" y="120.43" class="st2" width="9.57" height="0.65"/>
					</g>
				</g>
			</g>
			<g>
				<g>
					<g>
						<rect x="239.35" y="50.26" class="st2" width="0.65" height="9.57"/>
					</g>
				</g>
				<g>
					<g>
						<rect x="234.9" y="54.72" class="st2" width="9.57" height="0.65"/>
					</g>
				</g>
			</g>
		</g>
		<g>
			<g>
				<g>
					<g>
						<rect x="239.35" y="313.45" class="st2" width="0.65" height="9.57"/>
					</g>
				</g>
				<g>
					<g>
						<rect x="234.9" y="317.9" class="st2" width="9.57" height="0.65"/>
					</g>
				</g>
			</g>
			<g>
				<g>
					<g>
						<rect x="239.35" y="247.73" class="st2" width="0.65" height="9.57"/>
					</g>
				</g>
				<g>
					<g>
						<rect x="234.9" y="252.19" class="st2" width="9.57" height="0.65"/>
					</g>
				</g>
			</g>
			<g>
				<g>
					<g>
						<rect x="239.35" y="116.3" class="st2" width="0.65" height="9.57"/>
					</g>
				</g>
				<g>
					<g>
						<rect x="234.9" y="120.76" class="st2" width="9.57" height="0.65"/>
					</g>
				</g>
			</g>
			<g>
				<g>
					<g>
						<rect x="239.35" y="50.59" class="st2" width="0.65" height="9.57"/>
					</g>
				</g>
				<g>
					<g>
						<rect x="234.9" y="55.05" class="st2" width="9.57" height="0.65"/>
					</g>
				</g>
			</g>
		</g>
		<g>
			<g>
				<g>
					<g>
						<rect x="305.07" y="313.45" class="st2" width="0.65" height="9.57"/>
					</g>
				</g>
				<g>
					<g>
						<rect x="300.61" y="317.9" class="st2" width="9.57" height="0.65"/>
					</g>
				</g>
			</g>
			<g>
				<g>
					<g>
						<rect x="305.07" y="247.73" class="st2" width="0.65" height="9.57"/>
					</g>
				</g>
				<g>
					<g>
						<rect x="300.61" y="252.19" class="st2" width="9.57" height="0.65"/>
					</g>
				</g>
			</g>
			<g>
				<g>
					<g>
						<rect x="305.07" y="116.3" class="st2" width="0.65" height="9.57"/>
					</g>
				</g>
				<g>
					<g>
						<rect x="300.61" y="120.76" class="st2" width="9.57" height="0.65"/>
					</g>
				</g>
			</g>
			<g>
				<g>
					<g>
						<rect x="305.07" y="50.59" class="st2" width="0.65" height="9.57"/>
					</g>
				</g>
				<g>
					<g>
						<rect x="300.61" y="55.05" class="st2" width="9.57" height="0.65"/>
					</g>
				</g>
			</g>
		</g>
		<g>
			<g>
				<g>
					<g>
						<rect x="41.88" y="313.12" class="st2" width="0.65" height="9.57"/>
					</g>
				</g>
				<g>
					<g>
						<rect x="37.43" y="317.58" class="st2" width="9.57" height="0.65"/>
					</g>
				</g>
			</g>
			<g>
				<g>
					<g>
						<rect x="41.88" y="247.41" class="st2" width="0.65" height="9.57"/>
					</g>
				</g>
				<g>
					<g>
						<rect x="37.43" y="251.86" class="st2" width="9.57" height="0.65"/>
					</g>
				</g>
			</g>
			<g>
				<g>
					<g>
						<rect x="41.88" y="115.98" class="st2" width="0.65" height="9.57"/>
					</g>
				</g>
				<g>
					<g>
						<rect x="37.43" y="120.43" class="st2" width="9.57" height="0.65"/>
					</g>
				</g>
			</g>
			<g>
				<g>
					<g>
						<rect x="41.88" y="50.26" class="st2" width="0.65" height="9.57"/>
					</g>
				</g>
				<g>
					<g>
						<rect x="37.43" y="54.72" class="st2" width="9.57" height="0.65"/>
					</g>
				</g>
			</g>
		</g>
	</g>
</g>
</svg>
