<?xml version="1.0" encoding="utf-8"?>
<!-- Generator: Adobe Illustrator 27.7.0, SVG Export Plug-In . SVG Version: 6.00 Build 0)  -->
<svg version="1.1" id="Vrstva_1" xmlns="http://www.w3.org/2000/svg" xmlns:xlink="http://www.w3.org/1999/xlink" x="0px" y="0px"
	 viewBox="0 0 345.8 367.19" style="enable-background:new 0 0 345.8 367.19;" xml:space="preserve">
<style type="text/css">
	.st0{fill:none;}
	.st1{fill:#CCCCCC;}
	.st2{fill:#FFFFFF;}
</style>
<g>
	<g>
		<path class="st0" d="M179.55,299.58c0.37-0.61,0.75-1.23,1.12-1.84c-0.08,0.09-0.16,0.19-0.23,0.28
			c-0.02,0.04-0.05,0.08-0.07,0.12C180.09,298.62,179.82,299.09,179.55,299.58z"/>
		<path class="st0" d="M275.82,280.23c15.43,5.47,28.76,10.19,33.44,5.84c2.37-2.2,2.57-6.69,0.64-13.73
			c-7.26-26.58-0.74-52.74,5.57-78.04c4.1-16.44,7.97-31.97,8.39-47.67c0.48-17.76-3.59-32.55-12.79-46.54
			c-6.68-10.17-15.36-17.85-25.78-22.84c-9.25-4.42-19.72-6.66-31.12-6.66c-0.51,0-1.01,0-1.52,0.01
			c-18.05,0.31-37.89,6.34-55.87,16.97c-18.04,10.67-33.44,25.53-43.37,41.85l0,0c-10.9,17.82-23.24,61.47-30.72,108.63
			c-8.12,51.24-8.08,90.68,0.11,105.48c2.43,4.39,5.57,6.63,9.34,6.67c0.04,0,0.07,0,0.11,0c5.6,0,12.71-4.72,21.14-14.02
			c4.57-5.05,9.56-11.49,14.92-19.25c0.63-1.03,1.27-2.07,1.91-3.13c-10.68,13.14-19.47,19.77-26.27,19.78c-0.09,0-0.17,0-0.25,0
			c-3.94-0.1-7.17-2.43-9.62-6.94c-7.56-13.94-7.59-49.93-0.09-96.27c6.89-42.52,18.3-82.1,28.41-98.48
			c9.04-14.65,22.96-27.92,39.18-37.36c16.16-9.4,34.07-14.7,50.44-14.93c11.24-0.15,21.55,2,30.64,6.4
			c9.83,4.75,18.01,12.04,24.31,21.66c8.38,12.77,12.3,26.86,11.99,43.08c-0.28,14.47-3.83,29.4-7.26,43.84
			c-5.41,22.74-11.01,46.25-4.74,69.95c1.79,6.67,1.47,11.02-0.98,13.32c-4.81,4.51-16.97,0.39-32.37-4.83
			c-13.75-4.66-29.34-9.94-43.9-10.59c-13.66-0.61-24.04,3.04-31.53,11.12c-0.7,1.07-1.39,2.12-2.07,3.15
			C217.37,259.52,250.57,271.28,275.82,280.23z"/>
		<path class="st0" d="M281.92,224.19c1.16-1.16,1.59-2.79,1.31-4.98c-0.94-7.32-0.41-14.92,0.11-22.27
			c0.95-13.55,1.93-27.56-6.25-40.45c-7.07-11.24-18.04-17.93-30.09-18.36c-0.41-0.01-0.81-0.02-1.22-0.02
			c-9.82,0-18.57,4.28-24.13,11.86c-5.68,7.74-10.41,24.45-12.06,42.56c-1.7,18.77,0.55,33.23,5.87,37.74
			c3.96,3.36,9.53,1.4,16.58-5.81l0.08-0.08l0.11-0.03c6.6-1.89,16.3-0.6,25.67,0.65C268.43,226.41,278.36,227.73,281.92,224.19z
			 M238.97,216.11c-4.83,2.43-9.01,1.71-12.1-2.07c-4.37-5.35-6.43-16.67-5.53-30.27c0.88-13.29,4.47-25.32,9.35-31.41
			c3.73-4.65,9.28-7,15.61-6.61c9.86,0.61,20.09,7.63,26.69,18.33c7.39,11.87,7.31,24.88,7.23,37.46
			c-0.02,3.48-0.04,6.76,0.09,10.02c0.08,1.98-0.64,3.62-2.14,4.88c-2.68,2.24-7.67,3.01-13.29,3.01
			C255.25,219.45,243.76,217.16,238.97,216.11z"/>
		<path class="st0" d="M267.83,248.01c11.88,3.24,22.13,6.04,25.83,2.5c1.63-1.57,1.96-4.35,1.01-8.51
			c-3.65-15.91-0.66-31.86,2.23-47.3c1.95-10.43,3.97-21.22,3.8-31.64c-0.19-11.78-3.06-21.55-9.04-30.74
			c-9.35-14.44-24.24-22.41-41.92-22.43c-0.02,0-0.04,0-0.06,0c-10.79,0-21.91,2.93-32.16,8.48c-10.38,5.62-19.06,13.5-25.1,22.79
			l0,0c-8.36,12.86-17.51,43.22-22.26,73.84c-5.29,34.11-3.52,57.93,4.72,63.71c3.49,2.44,8.19,1.73,13.99-2.12
			c6.51-4.32,14.42-12.62,23.5-24.65C224.29,236.12,248.43,242.72,267.83,248.01z M191.74,263.59c-2.06,0-3.89-0.61-5.5-1.84
			c-4.09-3.12-6.48-10.16-7.11-20.9c-0.54-9.33,0.3-21.25,2.43-34.48c4.13-25.65,12.29-51.46,19.85-62.77
			c10.16-15.2,28.58-24.97,47.01-24.97c0.16,0,0.31,0,0.47,0c16.22,0.15,29.95,7.7,38.67,21.26c5.2,8.05,7.91,16.99,8.28,27.35
			c0.33,9.22-1.19,18.73-2.65,27.92c-2.04,12.81-4.15,26.05-1.45,39.06c0.78,3.77,0.35,6.39-1.33,8.02
			c-3.83,3.7-13.59,1.34-24.89-1.39c-16.1-3.89-36.14-8.74-45.9,2.51C207.92,256.82,198.59,263.59,191.74,263.59z"/>
		<path class="st0" d="M263.54,231.94c10.25,2.1,19.11,3.91,22.37,0.73c1.25-1.21,1.62-3.13,1.13-5.86
			c-1.83-10.35-0.54-20.94,0.71-31.19c2.01-16.48,3.91-32.04-5.81-47.19c-4.02-6.31-9.19-11.21-15.35-14.57
			c-5.63-3.06-12.07-4.75-18.64-4.88c-0.28-0.01-0.57-0.01-0.85-0.01c-14.01,0-27.43,6.86-35.2,18.05
			c-6.62,9.53-13.62,30.42-17.02,50.81c-1.77,10.63-2.44,20.31-1.93,27.98c0.57,8.65,2.57,14.53,5.93,17.46
			c5.47,4.77,14.43,1.51,26.63-9.7C233.9,225.88,249.65,229.1,263.54,231.94z M232.6,225.18c-4.97,5.06-9.29,7.6-12.91,7.6
			c-1.77,0-3.38-0.61-4.81-1.82c-5.62-4.77-7.93-19.17-6.18-38.51c1.65-18.27,6.45-35.15,12.23-43.01
			c5.89-8.02,15.64-12.58,26.11-12.21c12.35,0.44,23.58,7.29,30.82,18.78c8.33,13.14,7.34,27.3,6.38,40.99
			c-0.51,7.31-1.04,14.86-0.11,22.09c0.32,2.46-0.21,4.38-1.57,5.73c-3.87,3.85-14.02,2.5-24.76,1.06
			C248.57,224.66,239.03,223.38,232.6,225.18z"/>
		<path class="st0" d="M265.72,239.98c11.05,2.67,20.58,4.98,24.06,1.62c1.44-1.4,1.8-3.75,1.08-7.19
			c-2.74-13.17-0.61-26.5,1.44-39.38c3.04-19.04,5.9-37.02-5.5-54.65c-8.55-13.3-22.02-20.71-37.92-20.85c-0.15,0-0.31,0-0.46,0
			c-18.14,0-36.26,9.61-46.26,24.57c-7.49,11.21-15.6,36.88-19.71,62.41c-4.6,28.57-2.98,48.95,4.34,54.53
			c3.03,2.31,7.09,2.17,12.06-0.42c5.58-2.91,12.34-8.91,20.09-17.85C229.05,231.11,249.38,236.02,265.72,239.98z M204.66,246.31
			c-2.44,0-4.56-0.78-6.36-2.35c-3.55-3.1-5.65-9.18-6.24-18.08c-0.51-7.74,0.16-17.49,1.94-28.19
			c3.42-20.51,10.48-41.55,17.17-51.18c8.1-11.66,22.2-18.72,36.81-18.43c6.71,0.13,13.3,1.86,19.05,4.99
			c6.29,3.42,11.57,8.43,15.67,14.87c9.89,15.42,7.89,31.87,5.94,47.78c-1.24,10.18-2.53,20.7-0.72,30.92
			c0.54,3.05,0.08,5.23-1.39,6.66c-3.6,3.51-12.67,1.65-23.18-0.5c-13.68-2.8-29.19-5.97-37.24,1.43
			C217.38,242.28,210.2,246.31,204.66,246.31z"/>
		<path class="st0" d="M155.69,316.06c-1.8,0-3.45-0.47-4.95-1.42c-5.59-3.54-8.82-13.59-9.59-29.87
			c-0.67-14.14,0.58-32.53,3.61-53.18c5.97-40.75,17.23-80.55,27.38-96.77c8.16-13.05,20.13-24.32,34.61-32.58
			c14.19-8.1,30.01-12.64,44.53-12.79c10.36-0.1,19.88,1.94,28.3,6.06c9.1,4.46,16.69,11.25,22.53,20.2
			c7.57,11.57,11.18,24.35,11.04,39.08c-0.13,13.14-3.18,26.69-6.12,39.79c-4.57,20.3-9.29,41.3-3.87,62.37
			c1.53,5.95,1.17,9.88-1.09,12.01c-4.57,4.3-15.99,0.64-30.45-3.99c-12.36-3.96-26.36-8.45-39.34-8.99
			c-13.04-0.55-22.73,3.06-29.48,11c-0.76,1.06-1.52,2.1-2.26,3.11c7.35-6.28,17-9.1,29.23-8.55c14.68,0.66,30.33,5.96,44.14,10.64
			c14.52,4.92,27.05,9.16,31.47,5.02c2.18-2.05,2.42-6.11,0.72-12.43c-6.33-23.92-0.71-47.54,4.73-70.39
			c3.58-15.05,6.97-29.27,7.24-43.65c0.31-16.26-3.45-29.79-11.85-42.57c-6.21-9.48-14.27-16.66-23.95-21.34
			c-8.67-4.19-18.47-6.32-29.14-6.32c-0.37,0-0.73,0-1.1,0.01c-16.21,0.22-33.97,5.48-50,14.81c-16.1,9.37-29.9,22.53-38.87,37.06
			c-10.05,16.29-21.42,55.73-28.29,98.15c-7.47,46.15-7.48,81.93-0.01,95.7c2.28,4.21,5.26,6.39,8.85,6.48c0.08,0,0.15,0,0.23,0
			c5.09,0,11.51-4.04,19.1-12.01c3.37-3.54,6.98-7.89,10.82-12.99c1.19-2.02,2.38-4.09,3.59-6.21
			C168.72,311.18,161.45,316.06,155.69,316.06z"/>
		<path class="st0" d="M279.42,211.59c-0.13-3.28-0.11-6.58-0.09-10.07c0.08-12.45,0.16-25.32-7.09-36.98
			c-6.46-10.46-16.42-17.32-25.99-17.91c-6.03-0.37-11.31,1.86-14.86,6.28c-4.77,5.95-8.28,17.79-9.15,30.91
			c-0.88,13.19,1.16,24.55,5.33,29.65c2.86,3.5,6.61,4.1,11.14,1.77l0.14-0.07l0.16,0.03c4.4,0.97,13.02,2.69,21.28,3.21
			c8.71,0.55,14.54-0.34,17.32-2.67C278.9,214.66,279.49,213.3,279.42,211.59z M276.5,204.06c-0.47,2.81-3.95,5.67-8.86,7.28
			c-2.3,0.76-4.97,1.23-7.75,1.23c-5.01,0-10.4-1.54-14.75-5.76c-5.46-5.31-9.61-15.04-10.83-25.4
			c-1.31-11.14,0.93-20.67,6.15-26.16c2.68-2.81,6.43-3.13,10.85-0.92c6.18,3.09,13.24,10.99,18.43,20.62
			C275.39,185.42,277.85,196.03,276.5,204.06z"/>
		<path class="st0" d="M199.25,270.25c0.89-1.39,1.84-2.67,2.85-3.87c0.6-0.84,1.21-1.7,1.83-2.58
			c-10.05,11.47-18.23,17.24-24.45,17.24c-1.89,0-3.6-0.53-5.12-1.6c-4.6-3.23-7.27-11.25-7.94-23.84
			c-0.58-10.93,0.4-25.02,2.84-40.74c4.76-30.73,13.97-61.24,22.39-74.19c6.12-9.42,14.91-17.4,25.43-23.09
			c10.38-5.62,21.65-8.59,32.59-8.59c0.02,0,0.04,0,0.06,0c18,0.02,33.15,8.13,42.67,22.83c5.98,9.2,8.99,19.41,9.18,31.21
			c0.17,10.51-1.85,21.34-3.81,31.82c-2.87,15.34-5.84,31.21-2.23,46.93c1.03,4.5,0.62,7.56-1.26,9.36
			c-4.06,3.9-14.05,1.17-26.68-2.28c-19.14-5.22-42.95-11.73-54.51,3.6c-0.83,1.09-1.64,2.15-2.45,3.19
			c5.93-5.14,13.92-7.47,24.24-7.07c11.52,0.45,24,4.18,35,7.47c12.74,3.81,23.74,7.1,27.67,3.35c1.82-1.73,2.12-4.95,0.93-9.83
			c-4.56-18.6-0.69-37.15,3.04-55.08c2.44-11.74,4.97-23.88,4.95-35.6c-0.02-13.26-3.19-24.27-9.96-34.64
			c-5.3-8.15-12.17-14.37-20.41-18.46c-7.63-3.79-16.23-5.69-25.56-5.64c-12.71,0.06-25.91,3.71-38.17,10.55
			c-12.37,6.9-22.64,16.41-29.71,27.52c-9.23,14.5-19.41,49.52-24.76,85.17c-5.95,39.6-4.03,66.86,5.14,72.92
			c3.94,2.61,9.3,1.34,15.91-3.75c5.78-4.45,12.53-11.85,20.12-22.03C199.13,270.43,199.19,270.34,199.25,270.25z"/>
		<path class="st0" d="M250.92,155.14c-1.45-0.72-3.21-1.34-4.98-1.34c-1.67,0-3.36,0.55-4.82,2.08
			c-5.04,5.29-7.19,14.56-5.91,25.43c1.2,10.17,5.25,19.69,10.57,24.86c6.47,6.29,15.4,6.36,21.59,4.32
			c4.53-1.49,7.84-4.13,8.25-6.58c1.31-7.84-1.12-18.24-6.66-28.53C263.86,165.9,256.94,158.15,250.92,155.14z"/>
		<path class="st0" d="M188.67,284.64c-8.51,9.24-15.59,13.9-21.16,13.9c-1.82,0-3.48-0.49-4.97-1.48
			c-5.1-3.37-8.05-12.4-8.76-26.84c-0.62-12.53,0.5-28.77,3.23-46.97c5.37-35.76,15.61-70.92,24.89-85.51
			c7.15-11.23,17.53-20.85,30.03-27.82c12.4-6.91,25.75-10.6,38.61-10.67c0.11,0,0.23,0,0.34,0c9.34,0,17.96,1.93,25.62,5.74
			c8.39,4.17,15.37,10.49,20.77,18.78c6.77,10.38,10.08,21.87,10.1,35.13c0.02,11.82-2.52,24-4.97,35.79
			c-3.71,17.84-7.55,36.28-3.05,54.68c1.28,5.22,0.89,8.72-1.18,10.69c-4.31,4.1-15.01,0.9-28.54-3.14
			c-10.96-3.28-23.38-6.99-34.78-7.43c-13.1-0.51-22.35,3.46-28.29,12.12c-0.27,0.39-0.53,0.76-0.79,1.14
			c6.62-5.61,15.39-8.14,26.55-7.67c13.1,0.55,27.16,5.06,39.58,9.04c13.62,4.37,25.38,8.14,29.56,4.2
			c2.01-1.89,2.28-5.53,0.84-11.14c-5.46-21.27-0.72-42.38,3.87-62.79c2.94-13.06,5.97-26.56,6.1-39.6
			c0.15-14.75-3.31-27.01-10.89-38.58c-5.76-8.81-13.22-15.5-22.17-19.89c-8.3-4.06-17.68-6.08-27.89-5.97
			c-29.78,0.29-62.01,18.77-78.39,44.95c-5.01,8.01-10.33,21.8-15.39,39.89c-4.85,17.35-9.06,37.42-11.86,56.54
			c-3.02,20.6-4.26,38.93-3.6,53.01c0.74,15.75,3.91,25.83,9.17,29.16c4.4,2.78,10.4,0.98,17.83-5.36
			c3.28-2.8,6.85-6.51,10.68-11.07c1.99-3.49,4.18-6.51,6.54-9.11C187.04,287.03,187.84,285.8,188.67,284.64z"/>
		<path class="st1" d="M225.05,281.35c-6.04-0.27-12.11,1.84-18.56,6.46c-6.75,4.84-13.74,12.28-21.37,22.77
			c-10.32,14.19-20.06,27.77-29.22,40.76h1.1c9.05-12.82,18.67-26.23,28.85-40.23c14.13-19.42,26.63-28.88,38.21-28.88
			c0.32,0,0.64,0.01,0.95,0.02c8.78,0.4,17.37,6.1,27.03,17.94c8.81,10.8,17.84,25.91,27.4,41.92c1.8,3.01,3.65,6.11,5.54,9.24h1.05
			c-1.98-3.29-3.93-6.54-5.82-9.7C260.38,308.45,244.72,282.23,225.05,281.35z"/>
		<path class="st1" d="M226.79,294.37c-11.15-0.45-23,8.21-36.23,26.52c-7.68,10.62-14.91,20.75-21.76,30.44h1.1
			c6.74-9.53,13.86-19.49,21.39-29.92c13.04-18.05,24.64-26.59,35.47-26.15c8.18,0.34,16.23,5.66,25.33,16.74
			c8.3,10.11,16.84,24.27,25.88,39.26c0.01,0.02,0.03,0.05,0.04,0.07h1.05c-0.11-0.17-0.22-0.36-0.32-0.53
			C259.97,319.7,245.15,295.14,226.79,294.37z"/>
		<path class="st1" d="M228.52,307.4c-10.12-0.38-20.77,7.41-32.53,23.81c-4.69,6.54-9.49,13.28-14.34,20.13h1.1
			c4.72-6.67,9.4-13.23,13.97-19.6c11.58-16.14,21.98-23.81,31.77-23.44c14.78,0.55,27.41,18.7,42.42,43.04h1.05
			C256.68,326.53,243.84,307.97,228.52,307.4z"/>
		<path class="st1" d="M230.26,320.41c-9.11-0.3-18.53,6.61-28.83,21.11c-2.32,3.27-4.64,6.54-6.95,9.81h1.1
			c2.19-3.1,4.38-6.19,6.58-9.29c10.12-14.24,19.3-21,28.07-20.74c11.54,0.37,21.81,12.55,33.27,30.03h1.07
			C252.83,333.37,242.3,320.8,230.26,320.41z"/>
		<path class="st1" d="M231.99,333.42c-7.94-0.2-16.06,5.66-24.77,17.91h1.11c8.38-11.63,16.11-17.22,23.64-17.01
			c8.02,0.21,15.48,6.78,23.31,17.01h1.12C248.26,340.58,240.49,333.64,231.99,333.42z"/>
		<path class="st1" d="M221.74,351.33h1.44c3.57-2.75,7.06-4.08,10.53-4.01c3.5,0.06,6.91,1.5,10.32,4.01h1.46
			c-3.86-3.07-7.74-4.84-11.76-4.91C229.75,346.36,225.78,347.98,221.74,351.33z"/>
		<path class="st1" d="M115.92,165.25c7.72-29.78,12.83-49.45,8.39-53.92c-0.93-0.93-2.23-1.19-3.89-0.77
			c-8.3,2.1-29.49,26.95-58.82,61.34c-14.38,16.86-30.36,35.6-47.01,54.15v1.34c16.89-18.8,33.12-37.83,47.69-54.91
			c28.12-32.98,50.33-59.02,58.35-61.05c0.44-0.11,0.84-0.17,1.21-0.17c0.75,0,1.35,0.23,1.82,0.7c4.07,4.1-1.25,24.64-8.62,53.06
			c-5.53,21.32-12.41,47.86-17.38,75.67c-5.82,32.61-7.86,60.33-6.23,84.76c0.61,9.18,1.04,17.79,1.29,25.88h0.9
			c-0.25-8.11-0.68-16.74-1.29-25.94c-1.62-24.36,0.41-52.01,6.22-84.55C103.51,213.08,110.39,186.56,115.92,165.25z"/>
		<path class="st1" d="M111.79,142.89c-0.87-0.93-2.08-1.25-3.61-0.97c-7.86,1.45-28.99,25.26-55.74,55.4
			c-11.65,13.13-24.47,27.57-37.84,42.03v1.32c13.61-14.71,26.66-29.41,38.51-42.76c26.63-30.01,47.67-53.72,55.23-55.12
			c0.3-0.06,0.59-0.08,0.85-0.08c0.81,0,1.45,0.26,1.94,0.78c3.92,4.19-1.26,24.66-7.83,50.57C93.19,234,79.34,288.68,82.48,338.04
			c0.29,4.59,0.54,9.02,0.74,13.3h0.9c-0.2-4.27-0.44-8.71-0.74-13.36c-3.13-49.21,10.7-103.81,20.8-143.68
			C111.32,166.08,116.04,147.44,111.79,142.89z"/>
		<path class="st1" d="M99.27,174.46c-0.81-0.93-1.93-1.32-3.33-1.17c-7.45,0.78-27.43,22.2-52.73,49.33
			c-8.89,9.53-18.53,19.87-28.6,30.35v1.29c10.3-10.71,20.18-21.3,29.26-31.03c25.17-26.99,45.05-48.3,52.17-49.05
			c1.11-0.12,1.95,0.17,2.56,0.87c3.76,4.31-0.99,23.61-7.01,48.05c-8.73,35.45-20.68,84-18.06,127.52
			c0.02,0.24,0.03,0.48,0.04,0.72h0.9c-0.02-0.26-0.03-0.51-0.05-0.77c-2.6-43.38,9.33-91.85,18.04-127.25
			C98.77,197.66,103.33,179.12,99.27,174.46z"/>
		<path class="st1" d="M86.75,206.05c-0.75-0.93-1.79-1.4-3.06-1.39c-7.06,0.06-25.93,19.04-49.82,43.06
			c-6.17,6.2-12.63,12.7-19.28,19.27v1.26c6.88-6.79,13.55-13.5,19.91-19.9c22.8-22.93,42.5-42.74,49.19-42.8c0.01,0,0.02,0,0.04,0
			c0.99,0,1.75,0.35,2.31,1.06c3.57,4.48-0.73,22.57-6.17,45.47c-6.59,27.77-15.36,64.73-15.61,99.26h0.9
			c0.24-34.42,9-71.33,15.58-99.05C86.47,228.24,90.6,210.86,86.75,206.05z"/>
		<path class="st1" d="M74.26,237.66c-0.68-0.96-1.62-1.51-2.79-1.63c-6.69-0.72-24.51,15.7-47.05,36.51
			c-3.2,2.95-6.48,5.98-9.82,9.05v1.22c3.55-3.26,7.04-6.47,10.43-9.6c21.07-19.45,39.33-36.3,45.96-36.3
			c0.13,0,0.26,0.01,0.38,0.02c0.91,0.1,1.62,0.51,2.16,1.26c3.35,4.7-0.46,21.53-5.29,42.83c-4.51,19.91-10.28,45.35-12.2,70.33
			h0.9c1.92-24.89,7.67-50.26,12.17-70.13C74.18,258.84,77.85,242.68,74.26,237.66z"/>
		<path class="st1" d="M59.26,267.4c-6.38-1.63-23.2,12.12-44.49,29.52c-0.06,0.04-0.11,0.09-0.17,0.14v1.16
			c0.24-0.2,0.49-0.4,0.73-0.6c19.27-15.75,36.04-29.46,42.74-29.46c0.35,0,0.66,0.04,0.96,0.11c6.12,1.56,2.36,19.15-2.39,41.41
			c-2.7,12.65-5.76,26.98-7.8,41.65h0.91c2.05-14.6,5.08-28.86,7.78-41.46C62.57,286.25,66.21,269.18,59.26,267.4z"/>
		<path class="st1" d="M47.05,298.8c-5.09-2.26-16.97,4.84-32.45,15.18v1.08c13.35-8.92,24.52-15.79,30.17-15.79
			c0.73,0,1.37,0.11,1.91,0.35c5.58,2.48,2.43,18.55-1.55,38.9c-0.8,4.07-1.64,8.38-2.46,12.82h0.91c0.81-4.38,1.64-8.62,2.42-12.64
			C50.23,317.14,53.28,301.56,47.05,298.8z"/>
		<path class="st1" d="M34.84,330.21L34.84,330.21c-3.58-2.49-10.9-0.62-20.24,3.26v0.96c6.49-2.72,11.96-4.49,15.8-4.49
			c1.62,0,2.95,0.31,3.94,1h0c3.43,2.39,3.34,10.15,1.99,20.39h0.91C38.65,340.65,38.65,332.85,34.84,330.21z"/>
		<path class="st1" d="M186.27,288.33c-2.36,2.6-4.55,5.62-6.54,9.11c1.43-1.7,2.89-3.52,4.39-5.46c0.67-1.13,1.34-2.27,2.02-3.44
			C186.18,288.48,186.23,288.41,186.27,288.33z"/>
		<path class="st1" d="M171.53,312.15c-0.45,0.56-0.89,1.11-1.33,1.65c-0.64,1.06-1.28,2.1-1.91,3.13
			C169.36,315.39,170.44,313.8,171.53,312.15z"/>
		<path class="st1" d="M180.37,298.14c0.02-0.04,0.05-0.08,0.07-0.12c-1.02,1.21-2.02,2.37-3,3.46c-1.21,2.12-2.41,4.18-3.59,6.21
			c1.52-2.02,3.07-4.16,4.66-6.42c0.35-0.56,0.69-1.11,1.04-1.68C179.82,299.09,180.09,298.62,180.37,298.14z"/>
		<path class="st1" d="M144.07,351.33h1.18c7.12-8.33,15.08-19.67,23.85-33.97c-2.82,4.08-5.53,7.8-8.14,11.15
			C154.87,337.73,149.23,345.36,144.07,351.33z"/>
		<path class="st1" d="M288.75,66.9c-10.46-4.96-22.36-7.35-35.37-7.1c-20.02,0.39-42.12,7.23-62.21,19.26
			c-20.12,12.05-37.27,28.73-48.3,46.97c-11.78,19.49-25.13,67.51-33.22,119.49c-7.36,47.29-8.48,85.3-3.37,105.82h0.91
			c-5.14-20.28-4.03-58.28,3.35-105.68c8.08-51.88,21.38-99.76,33.1-119.16c10.95-18.12,27.99-34.69,47.99-46.66
			c19.96-11.95,41.9-18.75,61.77-19.13c0.62-0.01,1.23-0.02,1.84-0.02c12.15,0,23.29,2.36,33.12,7.03
			c11.14,5.29,20.41,13.47,27.55,24.31c10.01,15.2,14.37,31.25,13.73,50.52c-0.57,17.04-4.93,33.88-9.54,51.71
			c-7.18,27.75-14.6,56.44-6.41,85.67c2.18,7.76,2,12.68-0.55,15.04c-4.95,4.57-19.07-0.63-35.43-6.65
			c-27.23-10.02-62.9-23.14-86.22-4.85c-0.67,0.95-1.33,1.89-1.99,2.8c-0.05,0.08-0.09,0.15-0.14,0.22
			c22.85-21.33,59.97-7.67,88.04,2.66c17.32,6.37,31,11.41,36.35,6.47c2.82-2.61,3.08-7.82,0.81-15.94
			c-8.13-29-0.74-57.57,6.41-85.21c4.42-17.09,8.99-34.77,9.57-51.9c0.64-19.19-3.9-35.89-13.88-51.04
			C309.44,80.55,300.05,72.26,288.75,66.9z"/>
		<path class="st1" d="M179.55,299.58c-0.35,0.57-0.69,1.12-1.04,1.68c1.22-1.74,2.46-3.54,3.72-5.42
			c-0.52,0.65-1.04,1.28-1.55,1.89C180.3,298.35,179.92,298.97,179.55,299.58z"/>
		<path class="st1" d="M188.67,284.64c-0.83,1.16-1.63,2.39-2.4,3.69c-0.04,0.07-0.09,0.14-0.13,0.21
			c-0.68,1.16-1.35,2.31-2.02,3.44c1.52-1.96,3.07-4.04,4.66-6.25c0.82-1.3,1.64-2.63,2.47-3.99
			C190.38,282.76,189.52,283.73,188.67,284.64z"/>
		<path class="st1" d="M171.53,312.15c-1.09,1.64-2.17,3.24-3.23,4.78c-5.36,7.76-10.34,14.2-14.92,19.25
			c-8.43,9.31-15.54,14.02-21.14,14.02c-0.04,0-0.07,0-0.11,0c-3.77-0.04-6.92-2.29-9.34-6.67c-8.19-14.81-8.24-54.24-0.11-105.48
			c7.48-47.15,19.82-90.81,30.72-108.63l0,0c9.93-16.32,25.34-31.19,43.37-41.85c17.98-10.63,37.82-16.66,55.87-16.97
			c0.51-0.01,1.02-0.01,1.52-0.01c11.41,0,21.87,2.24,31.12,6.66c10.43,4.98,19.1,12.67,25.78,22.84
			c9.2,13.99,13.26,28.78,12.79,46.54c-0.42,15.7-4.29,31.23-8.39,47.67c-6.31,25.3-12.83,51.46-5.57,78.04
			c1.94,7.04,1.73,11.53-0.64,13.73c-4.68,4.35-18.01-0.37-33.44-5.84c-25.25-8.95-58.44-20.71-79.71-3.54
			c-0.66,0.99-1.31,1.96-1.96,2.92c8.12-7.88,19-11.41,32.98-10.75c16.11,0.77,33.26,6.84,48.39,12.21
			c16.35,5.8,29.27,10.38,34.35,5.65c2.63-2.45,2.93-7.23,0.89-14.63c-7.2-26.35-0.71-52.4,5.57-77.59
			c3.93-15.76,7.99-32.06,8.42-47.86c0.48-17.71-3.75-33.1-12.93-47.06c-6.77-10.31-15.57-18.1-26.14-23.15
			c-9.79-4.68-20.91-6.95-33.05-6.74c-18.2,0.32-38.2,6.39-56.31,17.1c-18.16,10.74-33.67,25.71-43.68,42.16
			c-10.95,17.91-23.35,61.7-30.84,108.95c-8.15,51.44-8.07,91.08,0.21,106.06c2.59,4.69,6,7.09,10.12,7.13c0.04,0,0.08,0,0.12,0
			c7.39,0,17-7.58,28.7-22.58c2.61-3.35,5.33-7.07,8.14-11.15c3.26-4.72,6.65-9.93,10.18-15.64
			C176.6,305.54,174.02,309.02,171.53,312.15z"/>
		<path class="st1" d="M182.23,295.84c-1.26,1.88-2.5,3.68-3.72,5.42c-1.59,2.26-3.14,4.4-4.66,6.42
			c-3.83,5.1-7.45,9.45-10.82,12.99c-7.58,7.97-14.01,12.01-19.1,12.01c-0.08,0-0.15,0-0.23,0c-3.59-0.09-6.57-2.27-8.85-6.48
			c-7.47-13.77-7.46-49.55,0.01-95.7c6.87-42.42,18.24-81.86,28.29-98.15c8.97-14.53,22.77-27.69,38.87-37.06
			c16.03-9.33,33.79-14.59,50-14.81c0.37,0,0.74-0.01,1.1-0.01c10.67,0,20.47,2.12,29.14,6.32c9.68,4.68,17.74,11.86,23.95,21.34
			c8.39,12.79,12.16,26.32,11.85,42.57c-0.27,14.38-3.66,28.6-7.24,43.65c-5.44,22.84-11.06,46.47-4.73,70.39
			c1.69,6.32,1.46,10.39-0.72,12.43c-4.42,4.14-16.96-0.1-31.47-5.02c-13.81-4.68-29.46-9.98-44.14-10.64
			c-12.23-0.55-21.88,2.28-29.23,8.55c-0.25,0.34-0.49,0.66-0.74,1c-0.53,0.83-1.07,1.66-1.6,2.47
			c7.48-8.09,17.87-11.74,31.53-11.12c14.55,0.65,30.14,5.93,43.9,10.59c15.4,5.22,27.56,9.34,32.37,4.83
			c2.45-2.29,2.76-6.65,0.98-13.32c-6.27-23.7-0.68-47.21,4.74-69.95c3.44-14.44,6.99-29.37,7.26-43.84
			c0.31-16.22-3.61-30.32-11.99-43.08c-6.3-9.62-14.48-16.91-24.31-21.66c-9.1-4.4-19.41-6.55-30.64-6.4
			c-16.37,0.22-34.28,5.52-50.44,14.93c-16.22,9.44-30.14,22.71-39.18,37.36c-10.11,16.38-21.52,55.95-28.41,98.48
			c-7.5,46.34-7.47,82.33,0.09,96.27c2.45,4.51,5.68,6.85,9.62,6.94c0.08,0,0.17,0,0.25,0c6.8,0,15.59-6.64,26.27-19.78
			c0.44-0.54,0.88-1.09,1.33-1.65c2.48-3.13,5.06-6.61,7.74-10.42c3.22-4.59,6.59-9.67,10.09-15.24c0.05-0.07,0.09-0.15,0.14-0.22
			C186.99,289.76,184.56,292.95,182.23,295.84z"/>
		<path class="st1" d="M188.78,285.74c1.39-1.93,2.81-3.96,4.26-6.08c-0.6,0.72-1.19,1.42-1.78,2.1
			C190.42,283.11,189.59,284.44,188.78,285.74z"/>
		<path class="st1" d="M198.18,273.54c0.53-0.81,1.06-1.64,1.6-2.47c-2.33,3.13-4.58,5.99-6.75,8.59c-1.45,2.12-2.86,4.15-4.26,6.08
			c-1.59,2.21-3.14,4.28-4.66,6.25c-1.5,1.94-2.96,3.76-4.39,5.46c-3.83,4.56-7.39,8.27-10.68,11.07
			c-7.43,6.34-13.43,8.15-17.83,5.36c-5.26-3.33-8.43-13.41-9.17-29.16c-0.66-14.08,0.58-32.41,3.6-53.01
			c2.8-19.11,7.01-39.19,11.86-56.54c5.06-18.09,10.38-31.89,15.39-39.89c16.38-26.17,48.61-44.66,78.39-44.95
			c10.21-0.11,19.6,1.91,27.89,5.97c8.96,4.38,16.42,11.08,22.17,19.89c7.58,11.57,11.04,23.83,10.89,38.58
			c-0.13,13.04-3.16,26.54-6.1,39.6c-4.59,20.41-9.33,41.51-3.87,62.79c1.44,5.6,1.16,9.24-0.84,11.14
			c-4.18,3.94-15.94,0.17-29.56-4.2c-12.41-3.98-26.48-8.49-39.58-9.04c-11.16-0.46-19.92,2.07-26.55,7.67
			c-1,1.45-1.99,2.86-2.97,4.22c6.75-7.94,16.44-11.54,29.48-11c12.98,0.54,26.98,5.03,39.34,8.99c14.46,4.64,25.89,8.3,30.45,3.99
			c2.26-2.13,2.62-6.06,1.09-12.01c-5.41-21.06-0.69-42.06,3.87-62.37c2.95-13.1,5.99-26.65,6.12-39.79
			c0.15-14.73-3.46-27.51-11.04-39.08c-5.85-8.95-13.43-15.75-22.53-20.2c-8.42-4.12-17.94-6.16-28.3-6.06
			c-14.53,0.14-30.34,4.68-44.53,12.79c-14.48,8.27-26.44,19.53-34.61,32.58c-10.15,16.23-21.41,56.02-27.38,96.77
			c-3.02,20.65-4.27,39.04-3.61,53.18c0.77,16.28,3.99,26.33,9.59,29.87c1.5,0.95,3.15,1.42,4.95,1.42
			c5.76,0,13.03-4.88,21.75-14.59c0.98-1.09,1.98-2.24,3-3.46c0.08-0.09,0.16-0.19,0.23-0.28c0.51-0.62,1.03-1.25,1.55-1.89
			c2.34-2.89,4.76-6.08,7.28-9.58c0.66-0.91,1.32-1.85,1.99-2.8c0.87-1.24,1.76-2.53,2.65-3.84c0.65-0.95,1.3-1.93,1.96-2.92
			C196.8,275.66,197.49,274.62,198.18,273.54z"/>
		<path class="st1" d="M199.07,270.52c1-1.34,2-2.71,3.03-4.14c-1.01,1.19-1.97,2.48-2.85,3.87
			C199.19,270.34,199.13,270.43,199.07,270.52z"/>
		<path class="st1" d="M205.75,262.74c0.26-0.38,0.53-0.76,0.79-1.14c5.94-8.66,15.19-12.62,28.29-12.12
			c11.41,0.44,23.83,4.15,34.78,7.43c13.54,4.05,24.23,7.24,28.54,3.14c2.07-1.97,2.46-5.47,1.18-10.69
			c-4.51-18.4-0.67-36.85,3.05-54.68c2.45-11.78,4.99-23.97,4.97-35.79c-0.02-13.26-3.33-24.75-10.1-35.13
			c-5.39-8.29-12.38-14.61-20.77-18.78c-7.66-3.81-16.28-5.74-25.62-5.74c-0.11,0-0.23,0-0.34,0c-12.86,0.06-26.21,3.75-38.61,10.67
			c-12.5,6.97-22.88,16.59-30.03,27.82c-9.29,14.59-19.52,49.76-24.89,85.51c-2.73,18.19-3.85,34.44-3.23,46.97
			c0.72,14.44,3.66,23.47,8.76,26.84c1.5,0.99,3.16,1.48,4.97,1.48c5.57,0,12.65-4.65,21.16-13.9c0.85-0.92,1.71-1.88,2.58-2.89
			c0.59-0.68,1.18-1.38,1.78-2.1c2.17-2.59,4.42-5.46,6.75-8.59c0.25-0.33,0.49-0.66,0.74-1c0.74-1.01,1.5-2.05,2.26-3.11
			C203.76,265.6,204.75,264.19,205.75,262.74z M178.95,292.55c-6.62,5.1-11.97,6.36-15.91,3.75c-9.17-6.06-11.09-33.32-5.14-72.92
			c5.36-35.65,15.54-70.67,24.76-85.17c7.07-11.11,17.34-20.62,29.71-27.52c12.27-6.84,25.47-10.49,38.17-10.55
			c9.33-0.04,17.93,1.85,25.56,5.64c8.24,4.1,15.11,10.31,20.41,18.46c6.77,10.37,9.93,21.38,9.96,34.64
			c0.02,11.72-2.51,23.86-4.95,35.6c-3.73,17.93-7.59,36.48-3.04,55.08c1.2,4.88,0.89,8.1-0.93,9.83
			c-3.93,3.74-14.93,0.45-27.67-3.35c-11.01-3.29-23.49-7.02-35-7.47c-10.31-0.4-18.31,1.93-24.24,7.07
			c-2.32,2.97-4.56,5.69-6.71,8.14c-0.61,0.88-1.22,1.73-1.83,2.58c-1.03,1.43-2.03,2.81-3.03,4.14
			C191.47,280.71,184.72,288.1,178.95,292.55z"/>
		<path class="st1" d="M267.59,248.88c12.64,3.45,22.62,6.18,26.68,2.28c1.88-1.8,2.29-4.87,1.26-9.36
			c-3.6-15.72-0.64-31.59,2.23-46.93c1.96-10.48,3.99-21.31,3.81-31.82c-0.19-11.8-3.2-22-9.18-31.21
			c-9.52-14.71-24.67-22.82-42.67-22.83c-0.02,0-0.04,0-0.06,0c-10.94,0-22.21,2.97-32.59,8.59c-10.51,5.69-19.31,13.67-25.43,23.09
			c-8.42,12.95-17.63,43.46-22.39,74.19c-2.44,15.72-3.42,29.81-2.84,40.74c0.67,12.59,3.34,20.61,7.94,23.84
			c1.52,1.07,3.23,1.6,5.12,1.6c6.21,0,14.39-5.77,24.45-17.24c2.15-2.45,4.39-5.17,6.71-8.14c0.81-1.03,1.62-2.09,2.45-3.19
			C224.64,237.15,248.45,243.65,267.59,248.88z M188.86,276.59c-5.8,3.85-10.51,4.56-13.99,2.12c-8.25-5.78-10.01-29.6-4.72-63.71
			c4.75-30.62,13.9-60.98,22.26-73.84l0,0c6.04-9.29,14.72-17.17,25.1-22.79c10.25-5.55,21.37-8.48,32.16-8.48c0.02,0,0.04,0,0.06,0
			c17.69,0.02,32.57,7.98,41.92,22.43c5.97,9.19,8.84,18.95,9.04,30.74c0.17,10.42-1.85,21.21-3.8,31.64
			c-2.89,15.43-5.87,31.39-2.23,47.3c0.95,4.16,0.62,6.95-1.01,8.51c-3.7,3.55-13.95,0.75-25.83-2.5
			c-19.4-5.3-43.54-11.89-55.46,3.92C203.28,263.97,195.38,272.27,188.86,276.59z"/>
		<path class="st1" d="M265.51,240.85c11.3,2.73,21.06,5.1,24.89,1.39c1.68-1.63,2.12-4.25,1.33-8.02
			c-2.7-13.01-0.59-26.25,1.45-39.06c1.47-9.19,2.98-18.7,2.65-27.92c-0.37-10.36-3.08-19.31-8.28-27.35
			c-8.72-13.56-22.46-21.11-38.67-21.26c-0.16,0-0.31,0-0.47,0c-18.43,0-36.84,9.76-47.01,24.97
			c-7.56,11.31-15.72,37.12-19.85,62.77c-2.13,13.23-2.97,25.15-2.43,34.48c0.62,10.75,3.01,17.78,7.11,20.9
			c1.61,1.23,3.44,1.84,5.5,1.84c6.85,0,16.19-6.77,27.87-20.23C229.37,232.11,249.41,236.95,265.51,240.85z M198.84,260.61
			c-4.97,2.59-9.03,2.74-12.06,0.42c-7.31-5.58-8.93-25.97-4.34-54.53c4.11-25.54,12.21-51.2,19.71-62.41
			c10-14.96,28.12-24.57,46.26-24.57c0.15,0,0.31,0,0.46,0c15.9,0.14,29.37,7.55,37.92,20.85c11.4,17.63,8.53,35.61,5.5,54.65
			c-2.05,12.89-4.18,26.21-1.44,39.38c0.72,3.44,0.36,5.8-1.08,7.19c-3.47,3.36-13.01,1.05-24.06-1.62
			c-16.34-3.95-36.67-8.87-46.79,2.79C211.18,251.7,204.42,257.71,198.84,260.61z"/>
		<path class="st1" d="M263.36,232.82c10.5,2.15,19.57,4,23.18,0.5c1.47-1.43,1.93-3.61,1.39-6.66
			c-1.81-10.22-0.52-20.75,0.72-30.92c1.94-15.91,3.95-32.36-5.94-47.78c-4.11-6.44-9.38-11.45-15.67-14.87
			c-5.75-3.13-12.34-4.85-19.05-4.99c-14.6-0.29-28.71,6.77-36.81,18.43c-6.68,9.62-13.74,30.67-17.17,51.18
			c-1.79,10.7-2.46,20.45-1.94,28.19c0.59,8.9,2.69,14.98,6.24,18.08c1.8,1.57,3.92,2.35,6.36,2.35c5.54,0,12.73-4.03,21.46-12.06
			C234.17,226.85,249.68,230.02,263.36,232.82z M198.89,243.29c-3.36-2.93-5.36-8.81-5.93-17.46c-0.51-7.68,0.16-17.35,1.93-27.98
			c3.4-20.39,10.4-41.29,17.02-50.81c7.77-11.19,21.2-18.05,35.2-18.05c0.28,0,0.57,0,0.85,0.01c6.57,0.13,13.02,1.82,18.64,4.88
			c6.16,3.35,11.32,8.25,15.35,14.57c9.72,15.15,7.82,30.71,5.81,47.19c-1.25,10.24-2.54,20.83-0.71,31.19
			c0.48,2.73,0.11,4.65-1.13,5.86c-3.26,3.17-12.12,1.36-22.37-0.73c-13.89-2.84-29.64-6.06-38.03,1.65
			C213.32,244.8,204.36,248.06,198.89,243.29z"/>
		<path class="st1" d="M282.56,224.83c1.35-1.35,1.88-3.28,1.57-5.73c-0.93-7.23-0.4-14.79,0.11-22.09
			c0.96-13.69,1.95-27.86-6.38-40.99c-7.23-11.49-18.47-18.34-30.82-18.78c-10.47-0.37-20.22,4.19-26.11,12.21
			c-5.77,7.86-10.57,24.74-12.23,43.01c-1.75,19.34,0.56,33.73,6.18,38.51c1.43,1.22,3.04,1.82,4.81,1.82
			c3.62,0,7.94-2.54,12.91-7.6c6.42-1.79,15.96-0.52,25.19,0.71C268.53,227.32,278.68,228.68,282.56,224.83z M232.24,224.35
			l-0.11,0.03l-0.08,0.08c-7.05,7.21-12.63,9.16-16.58,5.81c-5.32-4.51-7.57-18.98-5.87-37.74c1.64-18.11,6.37-34.82,12.06-42.56
			c5.57-7.58,14.31-11.86,24.13-11.86c0.4,0,0.81,0.01,1.22,0.02c12.05,0.43,23.02,7.12,30.09,18.36c8.18,12.89,7.2,26.9,6.25,40.45
			c-0.51,7.35-1.05,14.95-0.11,22.27c0.28,2.2-0.15,3.83-1.31,4.98c-3.56,3.54-13.5,2.22-24.01,0.81
			C248.54,223.75,238.85,222.45,232.24,224.35z"/>
		<path class="st1" d="M278.18,216.43c1.5-1.25,2.22-2.9,2.14-4.88c-0.13-3.26-0.11-6.55-0.09-10.02
			c0.08-12.58,0.16-25.58-7.23-37.46c-6.61-10.7-16.84-17.72-26.69-18.33c-6.34-0.39-11.88,1.96-15.61,6.61
			c-4.88,6.08-8.46,18.12-9.35,31.41c-0.91,13.61,1.16,24.93,5.53,30.27c3.09,3.78,7.27,4.5,12.1,2.07
			c4.78,1.05,16.27,3.34,25.92,3.34C270.51,219.45,275.5,218.67,278.18,216.43z M260.29,218.41c-8.26-0.53-16.88-2.24-21.28-3.21
			l-0.16-0.03l-0.14,0.07c-4.53,2.33-8.28,1.74-11.14-1.77c-4.16-5.1-6.21-16.46-5.33-29.65c0.87-13.12,4.38-24.96,9.15-30.91
			c3.55-4.42,8.82-6.65,14.86-6.28c9.57,0.59,19.53,7.45,25.99,17.91c7.25,11.65,7.17,24.53,7.09,36.98
			c-0.02,3.49-0.04,6.78,0.09,10.07c0.07,1.71-0.52,3.07-1.82,4.16C274.83,218.07,269,218.97,260.29,218.41z"/>
		<path class="st1" d="M251.32,154.34c-4.42-2.21-8.17-1.89-10.85,0.92c-5.22,5.49-7.47,15.02-6.15,26.16
			c1.22,10.36,5.37,20.09,10.83,25.4c4.35,4.22,9.74,5.76,14.75,5.76c2.78,0,5.45-0.48,7.75-1.23c4.91-1.61,8.39-4.47,8.86-7.28
			c1.34-8.04-1.12-18.65-6.75-29.11C264.56,165.32,257.5,157.42,251.32,154.34z M275.62,203.91c-0.41,2.45-3.73,5.09-8.25,6.58
			c-6.19,2.03-15.12,1.97-21.59-4.32c-5.32-5.17-9.37-14.7-10.57-24.86c-1.28-10.87,0.87-20.14,5.91-25.43
			c1.46-1.53,3.14-2.08,4.82-2.08c1.78,0,3.53,0.62,4.98,1.34c6.02,3.01,12.94,10.76,18.04,20.24
			C274.5,185.67,276.93,196.07,275.62,203.91z"/>
		<path class="st1" d="M86.08,26.2c22.86,27.33,30.99,44.9,28.04,60.65c-2.92,15.6-16.39,29.18-36.79,49.75
			c-10.75,10.84-22.93,23.12-36.4,38.54c-8.79,10.06-17.59,19.8-26.34,29.16v1.31c8.97-9.58,18-19.56,27.01-29.88
			c13.45-15.4,25.62-27.67,36.36-38.49c40.33-40.66,55.42-55.87,8.79-111.6c-2.91-3.48-5.84-6.68-8.79-9.61H76.7
			C79.84,19.1,82.97,22.49,86.08,26.2z"/>
		<path class="st1" d="M76.08,29.99c21.27,24.77,28.87,40.85,26.22,55.52c-2.62,14.54-15.04,27.49-33.82,47.1
			c-9.51,9.93-20.29,21.18-32.17,35.11c-7.19,8.43-14.43,16.6-21.7,24.51v1.32c7.5-8.14,14.97-16.55,22.39-25.25
			c11.86-13.91,22.63-25.15,32.14-35.07c37.15-38.77,51.05-53.28,7.64-103.83c-4.41-5.14-8.89-9.61-13.4-13.39h-1.42
			C66.7,19.91,71.42,24.56,76.08,29.99z"/>
		<path class="st1" d="M66.08,33.78c19.7,22.21,26.77,36.83,24.41,50.44c-2.34,13.51-13.71,25.86-30.92,44.56
			c-8.26,8.98-17.63,19.15-27.89,31.54c-5.6,6.75-11.28,13.32-17.07,19.74v1.34c6.03-6.66,11.94-13.49,17.76-20.5
			c10.25-12.36,19.61-22.53,27.86-31.5C94.26,92.4,107,78.56,66.75,33.18c-6.51-7.34-13.13-13.06-19.85-17.16h-1.7
			C52.25,20.12,59.25,26.07,66.08,33.78z"/>
		<path class="st1" d="M51.26,125.75c31.01-35.33,42.62-48.55,5.48-88.79C45.17,24.41,33.12,17.41,20.78,16.02H14.6v0.69
			c0.52-0.02,1.04-0.05,1.56-0.05c13.7,0,27.09,7,39.93,20.91C74.24,57.24,80.79,70.4,78.7,82.99
			c-2.08,12.51-12.43,24.3-28.11,42.16c-6.99,7.97-14.92,16.99-23.55,27.75c-4.2,5.24-8.35,10.19-12.44,14.88v1.36
			c4.31-4.93,8.69-10.14,13.14-15.68C36.36,142.73,44.28,133.71,51.26,125.75z"/>
		<path class="st1" d="M42.2,122.42c28.13-33.88,38.65-46.56,4.53-81.69C36.45,30.14,25.69,24.35,14.6,23.39v0.92
			c10.85,0.96,21.4,6.65,31.49,17.05C62.74,58.5,68.78,70.23,66.94,81.86c-1.83,11.56-11.22,22.87-25.43,39.98
			c-5.69,6.86-12.15,14.63-19.11,23.65c-2.62,3.39-5.22,6.63-7.81,9.76v1.4c2.82-3.38,5.66-6.91,8.51-10.61
			C30.07,137.04,36.52,129.27,42.2,122.42z"/>
		<path class="st1" d="M33,119.57C58.44,86.8,67.96,74.54,36.73,44.5c-7.09-6.82-14.49-11.1-22.12-12.87v0.92
			c7.41,1.76,14.6,5.96,21.5,12.6c15.2,14.62,20.74,24.97,19.12,35.73c-1.62,10.69-10.09,21.61-22.93,38.15
			c-4.35,5.6-9.28,11.96-14.52,19.07c-1.06,1.44-2.12,2.84-3.17,4.22v1.48c1.29-1.67,2.59-3.39,3.89-5.16
			C23.73,131.52,28.66,125.17,33,119.57z"/>
		<path class="st1" d="M44.46,80.24c1.51-10.37-3.63-19.63-17.75-31.97c-3.91-3.42-7.95-5.96-12.11-7.66v0.96
			c3.95,1.66,7.79,4.12,11.52,7.37c13.86,12.11,18.91,21.14,17.45,31.16c-1.45,9.96-9.12,20.67-20.74,36.89
			c-2.51,3.51-5.31,7.43-8.23,11.59v1.56c3.16-4.53,6.11-8.65,8.96-12.63C35.25,101.2,42.97,90.42,44.46,80.24z"/>
		<path class="st1" d="M16.68,52.04c-0.69-0.52-1.38-1-2.08-1.46v1.1c0.52,0.35,1.03,0.7,1.54,1.08
			c24.93,18.84,18.17,30.79-1.54,61.14v1.64c9.85-15.15,16.93-26.25,18.3-35.64C34.36,69.92,29.66,61.85,16.68,52.04z"/>
		<path class="st1" d="M14.6,61.5v1.23c9.11,8.73,7.68,18.53,0,33.86v1.99c3.86-7.49,6.35-13.68,7.03-19.12
			C22.52,72.4,20.36,66.73,14.6,61.5z"/>
	</g>
	<g>
		<g>
			<g>
				<g>
					<rect x="46.21" y="183.19" class="st2" width="9.57" height="0.65"/>
				</g>
			</g>
			<g>
				<g>
					<rect x="50.67" y="178.73" class="st2" width="0.65" height="9.57"/>
				</g>
			</g>
		</g>
		<g>
			<g>
				<g>
					<rect x="111.93" y="183.19" class="st2" width="9.57" height="0.65"/>
				</g>
			</g>
			<g>
				<g>
					<rect x="116.38" y="178.73" class="st2" width="0.65" height="9.57"/>
				</g>
			</g>
		</g>
		<g>
			<g>
				<g>
					<rect x="177.64" y="183.19" class="st2" width="9.57" height="0.65"/>
				</g>
			</g>
			<g>
				<g>
					<rect x="182.1" y="178.73" class="st2" width="0.65" height="9.57"/>
				</g>
			</g>
		</g>
		<g>
			<g>
				<g>
					<rect x="243.35" y="183.19" class="st2" width="9.57" height="0.65"/>
				</g>
			</g>
			<g>
				<g>
					<rect x="247.81" y="178.73" class="st2" width="0.65" height="9.57"/>
				</g>
			</g>
		</g>
		<g>
			<g>
				<g>
					<rect x="309.07" y="183.19" class="st2" width="9.57" height="0.65"/>
				</g>
			</g>
			<g>
				<g>
					<rect x="313.53" y="178.73" class="st2" width="0.65" height="9.57"/>
				</g>
			</g>
		</g>
		<g>
			<g>
				<g>
					<g>
						<rect x="182.1" y="310.16" class="st2" width="0.65" height="9.57"/>
					</g>
				</g>
				<g>
					<g>
						<rect x="177.64" y="314.62" class="st2" width="9.57" height="0.65"/>
					</g>
				</g>
			</g>
			<g>
				<g>
					<g>
						<rect x="182.1" y="244.44" class="st2" width="0.65" height="9.57"/>
					</g>
				</g>
				<g>
					<g>
						<rect x="177.64" y="248.9" class="st2" width="9.57" height="0.65"/>
					</g>
				</g>
			</g>
			<g>
				<g>
					<g>
						<rect x="182.1" y="113.01" class="st2" width="0.65" height="9.57"/>
					</g>
				</g>
				<g>
					<g>
						<rect x="177.64" y="117.47" class="st2" width="9.57" height="0.65"/>
					</g>
				</g>
			</g>
			<g>
				<g>
					<g>
						<rect x="182.1" y="47.3" class="st2" width="0.65" height="9.57"/>
					</g>
				</g>
				<g>
					<g>
						<rect x="177.64" y="51.76" class="st2" width="9.57" height="0.65"/>
					</g>
				</g>
			</g>
		</g>
		<g>
			<g>
				<g>
					<g>
						<rect x="116.06" y="310.16" class="st2" width="0.65" height="9.57"/>
					</g>
				</g>
				<g>
					<g>
						<rect x="111.6" y="314.62" class="st2" width="9.57" height="0.65"/>
					</g>
				</g>
			</g>
			<g>
				<g>
					<g>
						<rect x="116.06" y="244.44" class="st2" width="0.65" height="9.57"/>
					</g>
				</g>
				<g>
					<g>
						<rect x="111.6" y="248.9" class="st2" width="9.57" height="0.65"/>
					</g>
				</g>
			</g>
			<g>
				<g>
					<g>
						<rect x="116.06" y="113.01" class="st2" width="0.65" height="9.57"/>
					</g>
				</g>
				<g>
					<g>
						<rect x="111.6" y="117.47" class="st2" width="9.57" height="0.65"/>
					</g>
				</g>
			</g>
			<g>
				<g>
					<g>
						<rect x="116.06" y="47.3" class="st2" width="0.65" height="9.57"/>
					</g>
				</g>
				<g>
					<g>
						<rect x="111.6" y="51.76" class="st2" width="9.57" height="0.65"/>
					</g>
				</g>
			</g>
		</g>
		<g>
			<g>
				<g>
					<g>
						<rect x="247.81" y="310.16" class="st2" width="0.65" height="9.57"/>
					</g>
				</g>
				<g>
					<g>
						<rect x="243.35" y="314.62" class="st2" width="9.57" height="0.65"/>
					</g>
				</g>
			</g>
			<g>
				<g>
					<g>
						<rect x="247.81" y="244.44" class="st2" width="0.65" height="9.57"/>
					</g>
				</g>
				<g>
					<g>
						<rect x="243.35" y="248.9" class="st2" width="9.57" height="0.65"/>
					</g>
				</g>
			</g>
			<g>
				<g>
					<g>
						<rect x="247.81" y="113.01" class="st2" width="0.65" height="9.57"/>
					</g>
				</g>
				<g>
					<g>
						<rect x="243.35" y="117.47" class="st2" width="9.57" height="0.65"/>
					</g>
				</g>
			</g>
			<g>
				<g>
					<g>
						<rect x="247.81" y="47.3" class="st2" width="0.65" height="9.57"/>
					</g>
				</g>
				<g>
					<g>
						<rect x="243.35" y="51.76" class="st2" width="9.57" height="0.65"/>
					</g>
				</g>
			</g>
		</g>
		<g>
			<g>
				<g>
					<g>
						<rect x="247.81" y="310.48" class="st2" width="0.65" height="9.57"/>
					</g>
				</g>
				<g>
					<g>
						<rect x="243.35" y="314.94" class="st2" width="9.57" height="0.65"/>
					</g>
				</g>
			</g>
			<g>
				<g>
					<g>
						<rect x="247.81" y="244.77" class="st2" width="0.65" height="9.57"/>
					</g>
				</g>
				<g>
					<g>
						<rect x="243.35" y="249.23" class="st2" width="9.57" height="0.65"/>
					</g>
				</g>
			</g>
			<g>
				<g>
					<g>
						<rect x="247.81" y="113.34" class="st2" width="0.65" height="9.57"/>
					</g>
				</g>
				<g>
					<g>
						<rect x="243.35" y="117.8" class="st2" width="9.57" height="0.65"/>
					</g>
				</g>
			</g>
			<g>
				<g>
					<g>
						<rect x="247.81" y="47.63" class="st2" width="0.65" height="9.57"/>
					</g>
				</g>
				<g>
					<g>
						<rect x="243.35" y="52.08" class="st2" width="9.57" height="0.65"/>
					</g>
				</g>
			</g>
		</g>
		<g>
			<g>
				<g>
					<g>
						<rect x="313.53" y="310.48" class="st2" width="0.65" height="9.57"/>
					</g>
				</g>
				<g>
					<g>
						<rect x="309.07" y="314.94" class="st2" width="9.57" height="0.65"/>
					</g>
				</g>
			</g>
			<g>
				<g>
					<g>
						<rect x="313.53" y="244.77" class="st2" width="0.65" height="9.57"/>
					</g>
				</g>
				<g>
					<g>
						<rect x="309.07" y="249.23" class="st2" width="9.57" height="0.65"/>
					</g>
				</g>
			</g>
			<g>
				<g>
					<g>
						<rect x="313.53" y="113.34" class="st2" width="0.65" height="9.57"/>
					</g>
				</g>
				<g>
					<g>
						<rect x="309.07" y="117.8" class="st2" width="9.57" height="0.65"/>
					</g>
				</g>
			</g>
			<g>
				<g>
					<g>
						<rect x="313.53" y="47.63" class="st2" width="0.65" height="9.57"/>
					</g>
				</g>
				<g>
					<g>
						<rect x="309.07" y="52.08" class="st2" width="9.57" height="0.65"/>
					</g>
				</g>
			</g>
		</g>
		<g>
			<g>
				<g>
					<g>
						<rect x="50.34" y="310.16" class="st2" width="0.65" height="9.57"/>
					</g>
				</g>
				<g>
					<g>
						<rect x="45.88" y="314.62" class="st2" width="9.57" height="0.65"/>
					</g>
				</g>
			</g>
			<g>
				<g>
					<g>
						<rect x="50.34" y="244.44" class="st2" width="0.65" height="9.57"/>
					</g>
				</g>
				<g>
					<g>
						<rect x="45.88" y="248.9" class="st2" width="9.57" height="0.65"/>
					</g>
				</g>
			</g>
			<g>
				<g>
					<g>
						<rect x="50.34" y="113.01" class="st2" width="0.65" height="9.57"/>
					</g>
				</g>
				<g>
					<g>
						<rect x="45.88" y="117.47" class="st2" width="9.57" height="0.65"/>
					</g>
				</g>
			</g>
			<g>
				<g>
					<g>
						<rect x="50.34" y="47.3" class="st2" width="0.65" height="9.57"/>
					</g>
				</g>
				<g>
					<g>
						<rect x="45.88" y="51.76" class="st2" width="9.57" height="0.65"/>
					</g>
				</g>
			</g>
		</g>
	</g>
</g>
</svg>
